<svg width="428" height="388" viewBox="0 0 428 388" fill="none" xmlns="http://www.w3.org/2000/svg">
<path fill-rule="evenodd" clip-rule="evenodd" d="M97.0426 288.746C126.588 267.893 161.706 292.132 193.573 278.638C209.456 271.913 213.295 245.718 227.138 233.66C241.92 220.785 260.045 216.788 276.18 206.689C300.641 191.38 328.847 141.524 347.745 158.174C371.48 179.085 324.239 243.572 345.385 267.659C364.63 289.582 420.655 230.015 434.487 256.982C447.56 282.471 400.258 312.846 383.149 341.287C374.227 356.117 355.189 369.731 357.064 385.687C360.963 418.87 409.533 434.793 398.126 468.748C389.063 495.726 342.994 457.465 325.459 479.762C298.669 513.829 329.019 592.977 291.828 603.92C254.08 615.028 258.995 534.644 235.297 506.292C225.816 494.949 201.282 504.025 195.977 489.246C189.048 469.945 222.578 430.282 205.319 422.786C171.144 407.942 123.499 456.047 88.6833 442.645C66.6149 434.15 64.051 396.866 65.5652 368.989C67.0764 341.167 74.5228 304.641 97.0426 288.746Z" fill="#FF984E" fill-opacity="0.5"/>
<path fill-rule="evenodd" clip-rule="evenodd" d="M536.994 160.252C550.573 189.621 475.284 188.017 456.674 214.605C444.538 231.943 467.45 259.663 455.288 276.984C443.668 293.533 414.217 285.111 398.29 297.754C375.072 316.182 371.083 355.185 343.278 365.892C318.234 375.535 280.169 370.955 265.333 348.949C246.227 320.607 272.632 281.033 263.906 248.156C259.701 232.311 232.597 229.402 229.342 213.343C225.991 196.812 250.658 183.101 247.367 166.559C242.062 139.896 195.675 121.958 206.155 96.811C215.678 73.9627 255.351 91.1459 280.269 87.6133C295.573 85.4437 310.022 80.5672 325.47 79.8956C339.526 79.2845 353.192 86.3693 367.024 83.8414C390.966 79.4657 417.829 42.9674 435.027 59.8727C453.933 78.4566 401.646 117.847 420.538 136.445C448.828 164.294 520.444 124.453 536.994 160.252Z" fill="#FF6B6B" fill-opacity="0.5"/>
<path fill-rule="evenodd" clip-rule="evenodd" d="M381.423 423.981C354.132 418.924 333.266 392.211 323.147 366.853C313.112 341.704 334.68 312.641 326.683 286.799C322.444 273.099 294.932 276.552 290.944 262.78C286.965 249.039 313.82 237.358 308.514 224.056C295.857 192.322 225.214 173.802 244.029 145.153C262.902 116.416 316.059 188.982 344.516 169.238C374.199 148.643 338.023 92.8557 360.164 64.5756C376.601 43.5809 415.867 34.809 438.672 48.9742C465.137 65.4135 451.067 111.203 472.008 134.05C488.284 151.808 530.79 136.834 539.602 159.091C548.991 182.807 511.568 203.182 509.415 228.535C507.67 249.079 540.426 269.534 528.765 286.689C515.389 306.369 473.193 283.459 459.058 302.622C441.256 326.758 468.168 365.497 452.026 390.73C438.001 412.654 407.362 428.786 381.423 423.981Z" fill="#FEA869" fill-opacity="0.5"/>
<path fill-rule="evenodd" clip-rule="evenodd" d="M496.385 455.454C474.489 476.983 433.912 463.937 407.625 480.066C394.523 488.105 398.649 509.411 389.068 521.3C378.838 533.995 362.795 540.271 350.455 551.012C331.746 567.295 319.731 611.448 296.826 601.586C268.057 589.2 293.824 530.233 266.574 514.897C241.773 500.939 206.197 557.543 185.045 538.676C165.052 520.843 201.002 488.749 208.824 463.385C212.903 450.159 226.96 436.147 220.442 423.897C206.887 398.418 155.991 394.245 156.757 365.519C157.365 342.695 212.513 364.904 222.563 344.308C237.918 312.842 185.578 255.701 217.683 240.663C250.269 225.401 269.454 289.596 300.396 307.853C312.775 315.157 333.403 303.775 342.832 314.507C355.147 328.522 335.046 365.562 353.677 368.493C390.568 374.298 421.582 328.172 458.655 332.73C482.154 335.619 495.657 364.559 502.491 386.789C509.312 408.976 513.074 439.045 496.385 455.454Z" fill="#FFC85F" fill-opacity="0.5"/>
<path fill-rule="evenodd" clip-rule="evenodd" d="M519.496 174.521C523.51 209.994 484.721 228.074 481.055 261.913C479.228 278.779 500.616 294.926 504.528 312.67C508.706 331.617 503.353 349.057 504.399 367.796C505.985 396.204 536.424 444.78 512.347 452.738C482.108 462.732 448.02 390.714 416.231 396.937C387.298 402.6 412.7 479.702 381.945 478.265C352.876 476.906 349.127 421.594 332.262 393.012C323.468 378.109 320.725 355.164 305.628 348.927C274.229 335.955 236.222 369.605 211.657 343.184C192.14 322.192 248.767 301.651 237.57 275.725C220.463 236.113 135.232 223.146 143.779 186.013C152.455 148.324 221.459 192.01 258.291 185.703C273.027 183.18 277.016 157.772 292.753 160.502C313.306 164.068 332.074 212.184 347.213 201.129C377.189 179.239 357.856 114.924 386.867 91.7792C405.255 77.1085 439.641 93.2354 463.665 108.223C487.642 123.181 516.437 147.483 519.496 174.521Z" fill="#FFC85F" fill-opacity="0.5"/>
</svg>
