<svg width="273" height="238" viewBox="0 0 273 238" fill="none" xmlns="http://www.w3.org/2000/svg">
<path d="M147.416 237.031C216.774 237.031 273 205.051 273 165.602C273 126.153 216.774 94.173 147.416 94.173C78.0583 94.173 21.8325 126.153 21.8325 165.602C21.8325 205.051 78.0583 237.031 147.416 237.031Z" fill="url(#paint0_linear)"/>
<path d="M227.079 198.842C243.665 198.842 257.111 190.412 257.111 180.013C257.111 169.614 243.665 161.184 227.079 161.184C210.493 161.184 197.048 169.614 197.048 180.013C197.048 190.412 210.493 198.842 227.079 198.842Z" fill="white"/>
<path d="M28.8042 125.356C28.4443 121.022 27.4438 116.767 25.8355 112.727C23.1883 106.2 18.1217 99.6427 12.2837 98.4155C6.44575 97.1883 3.97965 101.104 5.20686 104.961C6.27043 108.28 10.6065 111.038 13.9025 113.937C17.1984 116.835 23.3461 123.871 25.0525 130.609L28.3484 130.971L28.8042 125.356Z" fill="#FFC970"/>
<g opacity="0.15">
<path opacity="0.15" d="M28.8042 125.356C28.4443 121.022 27.4438 116.767 25.8355 112.727C23.1883 106.2 18.1217 99.6427 12.2837 98.4155C6.44575 97.1883 3.97965 101.104 5.20686 104.961C6.27043 108.28 10.6065 111.038 13.9025 113.937C17.1984 116.835 23.3461 123.871 25.0525 130.609L28.3484 130.971L28.8042 125.356Z" fill="black"/>
</g>
<path d="M26.5426 128.383C26.4485 128.383 26.3581 128.346 26.2904 128.281C26.2228 128.215 26.1833 128.126 26.1803 128.032C25.5667 111.015 8.93514 101.501 8.75398 101.396C8.67469 101.346 8.61761 101.267 8.59442 101.176C8.57122 101.085 8.58367 100.989 8.6292 100.907C8.67474 100.824 8.74992 100.763 8.83938 100.734C8.92884 100.706 9.02581 100.713 9.11046 100.753C9.28577 100.853 26.2855 110.571 26.9107 127.991C26.9139 128.088 26.8789 128.182 26.8133 128.253C26.7477 128.324 26.6567 128.367 26.5601 128.371L26.5426 128.383Z" fill="white"/>
<path d="M31.4281 155.311C31.4281 155.311 28.027 157.461 22.7091 156.544C20.9895 156.315 19.3871 155.546 18.1334 154.347C16.7601 152.932 16.5439 151.507 16.1582 149.613C16.0519 148.822 15.7812 148.061 15.3634 147.381C14.1946 145.815 11.9506 145.844 10.0572 145.435C7.36906 144.85 4.89712 142.922 4.1199 140.286C3.34267 137.651 4.60493 134.443 7.15284 133.402L4.02639 131.398C3.05447 130.827 2.15569 130.141 1.34992 129.353C0.545617 128.549 0.0651027 127.478 0 126.343C0 124.683 1.23305 123.199 2.75244 122.521C4.30883 121.92 5.99766 121.747 7.64372 122.019C9.31108 122.223 10.95 122.615 12.5292 123.187C12.9595 123.382 13.4246 123.487 13.8966 123.497C14.5109 123.388 15.0867 123.123 15.5679 122.726C19.1444 120.388 24.9707 120.546 26.8874 124.999C27.1679 125.654 27.3374 126.355 27.6413 126.998C28.7516 129.399 31.8781 128.675 33.9 129.797C34.5346 130.199 35.073 130.735 35.4769 131.368C35.8809 132.002 36.1406 132.716 36.2375 133.461C36.6408 135.833 35.9804 138.539 35.5421 140.883C35.1038 143.226 34.5487 145.406 33.9117 147.626C33.3916 149.461 32.8189 151.279 32.2112 153.084C32.0826 153.458 31.8021 155.077 31.4281 155.311Z" fill="#FFC970"/>
<path d="M33.5669 149.829C31.7845 144.926 28.8575 140.518 25.029 136.973C24.9892 136.888 24.9181 136.821 24.8303 136.786C23.7273 135.752 22.5706 134.777 21.365 133.864C20.9094 130.709 21.3132 127.489 22.5337 124.543C22.5748 124.456 22.5794 124.355 22.5465 124.264C22.5136 124.173 22.446 124.099 22.3584 124.058C22.2708 124.017 22.1705 124.013 22.0796 124.045C21.9886 124.078 21.9144 124.146 21.8734 124.234C20.663 127.073 20.1983 130.175 20.5235 133.245C15.6252 129.712 10.1914 126.989 4.42956 125.18C4.33587 125.157 4.2367 125.17 4.15282 125.218C4.06894 125.266 4.00686 125.345 3.97959 125.437C3.96635 125.484 3.96252 125.532 3.96833 125.58C3.97415 125.628 3.98948 125.675 4.01344 125.716C4.03739 125.758 4.06948 125.795 4.10783 125.824C4.14617 125.854 4.18999 125.875 4.23671 125.887C4.38865 125.928 14.7556 128.874 23.3343 136.406C18.0749 135.489 11.8045 138.025 11.5181 138.159C11.4376 138.19 11.3705 138.247 11.3288 138.323C11.2871 138.398 11.2734 138.485 11.2903 138.57C11.3071 138.654 11.3534 138.729 11.4208 138.783C11.4883 138.836 11.5725 138.864 11.6584 138.861C11.7047 138.869 11.7523 138.869 11.7986 138.861C11.8687 138.826 19.2378 135.845 24.4447 137.464C28.2263 140.932 31.1236 145.254 32.8948 150.069C32.9193 150.141 32.9658 150.203 33.0277 150.247C33.0895 150.291 33.1637 150.315 33.2396 150.314H33.3623C33.4085 150.297 33.4506 150.271 33.4861 150.237C33.5217 150.202 33.5499 150.161 33.569 150.116C33.5882 150.071 33.5978 150.022 33.5975 149.973C33.5971 149.923 33.5867 149.875 33.5669 149.829Z" fill="white"/>
<path d="M31.5449 154.803C31.6071 155.658 31.8703 156.486 32.313 157.22C32.7557 157.954 33.3656 158.574 34.0928 159.028L105.358 200.157C106.146 200.557 107.017 200.766 107.9 200.766C108.784 200.766 109.655 200.557 110.442 200.157L207.935 143.869C208.701 143.462 209.343 142.854 209.79 142.11C210.237 141.366 210.474 140.515 210.474 139.647C210.474 138.779 210.237 137.927 209.79 137.183C209.343 136.44 208.701 135.832 207.935 135.425L136.681 94.2841C135.893 93.8865 135.022 93.6793 134.139 93.6793C133.256 93.6793 132.385 93.8865 131.597 94.2841L34.0928 150.583C33.366 151.037 32.7564 151.655 32.3137 152.388C31.8709 153.121 31.6075 153.949 31.5449 154.803Z" fill="#37474F"/>
<path d="M107.889 195.271V200.77C107.005 200.795 106.13 200.594 105.347 200.186L34.0636 159.028C33.3187 158.635 32.6911 158.052 32.245 157.338C31.7989 156.624 31.55 155.804 31.5239 154.962C31.4978 154.121 31.6953 153.287 32.0962 152.547C32.4972 151.806 33.0873 151.185 33.8065 150.747C32.6669 151.565 32.7546 152.763 34.0636 153.517L105.358 194.658C106.136 195.074 107.007 195.285 107.889 195.271V195.271Z" fill="#BFCDD5"/>
<path d="M29.1606 150.671C28.4529 150.189 27.8683 149.548 27.4541 148.799C27.0399 148.05 26.8077 147.214 26.7764 146.358V61.3248C26.8243 60.4431 27.0795 59.5852 27.5212 58.8206C27.9629 58.0561 28.5786 57.4064 29.3184 56.9244L126.811 0.636733C127.568 0.235021 128.409 0.0172247 129.266 0.000980659C130.123 -0.0152634 130.971 0.170499 131.743 0.54323C132.451 1.02476 133.036 1.66602 133.45 2.4152C133.864 3.16439 134.096 4.00049 134.127 4.85597V89.8894C134.079 90.7711 133.824 91.629 133.383 92.3936C132.941 93.1582 132.325 93.8078 131.585 94.2898L34.0928 150.583C33.3349 150.983 32.4938 151.199 31.6372 151.214C30.7805 151.229 29.9323 151.043 29.1606 150.671V150.671Z" fill="#99A7AE"/>
<path d="M33.789 150.735C33.0594 151.062 32.2672 151.226 31.4677 151.215C30.6682 151.204 29.8808 151.018 29.1606 150.671C28.4529 150.189 27.8683 149.548 27.4541 148.799C27.0399 148.05 26.8077 147.214 26.7764 146.358V61.3248C26.8043 60.4402 27.0621 59.5782 27.5244 58.8236L32.2929 61.5702C31.8348 62.3267 31.5773 63.1876 31.5449 64.0714V149.111C31.5449 150.618 32.5267 151.29 33.789 150.735Z" fill="#BFCDD5"/>
<path d="M31.5449 64.0831V149.111C31.5449 150.735 32.7137 151.39 34.0928 150.583L131.585 94.2898C132.325 93.8078 132.941 93.1582 133.383 92.3936C133.824 91.6291 134.079 90.7711 134.127 89.8894V4.85599C134.127 3.23725 132.988 2.5769 131.585 3.38919L34.0928 59.6769C33.3512 60.1588 32.7338 60.8091 32.291 61.5748C31.8483 62.3405 31.5926 63.1999 31.5449 64.0831Z" fill="#37474F"/>
<path d="M34.0929 153.517L105.358 194.658C106.147 195.055 107.017 195.262 107.9 195.262C108.783 195.262 109.654 195.055 110.442 194.658L207.935 138.37C209.343 137.558 209.343 136.243 207.935 135.448L136.681 94.3074C135.893 93.9098 135.022 93.7026 134.139 93.7026C133.256 93.7026 132.385 93.9098 131.597 94.3074L34.0929 150.583C32.6845 151.39 32.6845 152.705 34.0929 153.517Z" fill="#99A7AE"/>
<path d="M35.4603 64.3987L129.458 10.1388C130.3 9.65375 130.983 10.0511 130.983 11.0212V84.6534C130.954 85.1824 130.801 85.6972 130.536 86.156C130.271 86.6149 129.902 87.005 129.458 87.2948L35.4603 141.525C34.6129 142.01 33.9292 141.619 33.9292 140.643V67.0109C33.9617 66.4859 34.1173 65.976 34.3832 65.5222C34.6492 65.0684 35.0181 64.6836 35.4603 64.3987Z" fill="#FAFAFA"/>
<path d="M42.362 151.314L132.859 99.0584C133.253 98.8568 133.688 98.7517 134.13 98.7517C134.572 98.7517 135.008 98.8568 135.401 99.0584L140.03 101.729C140.182 101.782 140.313 101.882 140.407 102.013C140.5 102.144 140.55 102.301 140.55 102.462C140.55 102.623 140.5 102.78 140.407 102.912C140.313 103.043 140.182 103.142 140.03 103.196L49.5206 155.445C49.1273 155.647 48.6916 155.752 48.2496 155.752C47.8076 155.752 47.372 155.647 46.9786 155.445L42.362 152.781C42.21 152.727 42.0783 152.628 41.9852 152.497C41.8921 152.365 41.842 152.208 41.842 152.047C41.842 151.886 41.8921 151.729 41.9852 151.598C42.0783 151.466 42.21 151.367 42.362 151.314Z" fill="#37474F"/>
<path d="M54.289 158.204L144.786 105.954C145.181 105.755 145.616 105.652 146.058 105.652C146.499 105.652 146.934 105.755 147.329 105.954L175.8 122.393C175.952 122.446 176.083 122.545 176.176 122.677C176.27 122.808 176.32 122.965 176.32 123.126C176.32 123.287 176.27 123.444 176.176 123.576C176.083 123.707 175.952 123.806 175.8 123.86L85.4074 176.033C85.0126 176.233 84.5761 176.338 84.1334 176.338C83.6908 176.338 83.2543 176.233 82.8595 176.033L54.2949 159.671C54.1399 159.621 54.0047 159.523 53.9086 159.392C53.8124 159.26 53.7603 159.102 53.7596 158.939C53.759 158.776 53.8099 158.618 53.905 158.486C54 158.353 54.1345 158.255 54.289 158.204V158.204Z" fill="#BFCDD5"/>
<path d="M135.413 129.446L138.241 127.816C138.364 127.746 138.358 127.629 138.241 127.553L134.963 125.659C134.894 125.624 134.816 125.605 134.738 125.605C134.66 125.605 134.583 125.624 134.513 125.659L131.679 127.296C131.556 127.36 131.562 127.477 131.679 127.553L134.951 129.446C135.023 129.483 135.102 129.502 135.182 129.502C135.263 129.502 135.342 129.483 135.413 129.446V129.446ZM129.821 122.948L126.98 124.596C126.858 124.666 126.869 124.783 126.98 124.859L130.253 126.746C130.324 126.782 130.402 126.801 130.481 126.801C130.56 126.801 130.638 126.782 130.709 126.746L133.543 125.11C133.66 125.04 133.654 124.923 133.543 124.847L130.265 122.96C130.196 122.925 130.12 122.907 130.043 122.907C129.965 122.907 129.889 122.925 129.821 122.96V122.948ZM120.663 128.277L115.871 131.042C115.749 131.112 115.754 131.229 115.871 131.305L119.144 133.198C119.215 133.233 119.293 133.251 119.372 133.251C119.451 133.251 119.529 133.233 119.6 133.198L124.392 130.434C124.514 130.364 124.503 130.247 124.392 130.171L121.137 128.277C121.064 128.239 120.983 128.218 120.9 128.218C120.817 128.218 120.736 128.239 120.663 128.277V128.277ZM125.677 125.356L122.843 126.992C122.726 127.062 122.732 127.179 122.843 127.255L126.121 129.148C126.191 129.183 126.268 129.201 126.346 129.201C126.424 129.201 126.501 129.183 126.571 129.148L129.406 127.512C129.523 127.442 129.517 127.325 129.406 127.255L126.127 125.356C126.058 125.32 125.981 125.301 125.902 125.301C125.824 125.301 125.747 125.32 125.677 125.356V125.356ZM114.574 131.784L111.74 133.414C111.623 133.484 111.629 133.601 111.74 133.677L115.018 135.571C115.088 135.606 115.165 135.625 115.243 135.625C115.321 135.625 115.399 135.606 115.468 135.571L118.302 133.934C118.419 133.87 118.413 133.753 118.302 133.677L115.012 131.784C114.943 131.748 114.866 131.729 114.787 131.729C114.709 131.729 114.632 131.748 114.562 131.784H114.574ZM110.431 134.174L107.602 135.81C107.48 135.874 107.485 135.991 107.602 136.067L110.881 137.961C110.951 137.995 111.028 138.013 111.106 138.013C111.184 138.013 111.261 137.995 111.331 137.961L114.165 136.324C114.288 136.254 114.276 136.137 114.165 136.061L110.892 134.168C110.82 134.128 110.739 134.107 110.656 134.106C110.574 134.105 110.492 134.124 110.419 134.162L110.431 134.174ZM123.322 141.864L126.156 140.228C126.273 140.158 126.267 140.041 126.156 139.965L122.878 138.078C122.809 138.042 122.731 138.023 122.653 138.023C122.575 138.023 122.498 138.042 122.428 138.078L119.594 139.714C119.471 139.784 119.483 139.901 119.594 139.977L122.866 141.864C122.936 141.897 123.013 141.912 123.09 141.91C123.167 141.908 123.242 141.889 123.311 141.853L123.322 141.864ZM119.179 144.254L122.013 142.618C122.136 142.548 122.124 142.431 122.013 142.355L118.741 140.468C118.67 140.432 118.592 140.413 118.513 140.413C118.434 140.413 118.355 140.432 118.285 140.468L115.451 142.104C115.334 142.174 115.34 142.291 115.451 142.367L118.729 144.26C118.799 144.29 118.874 144.304 118.95 144.301C119.026 144.298 119.1 144.278 119.167 144.243L119.179 144.254ZM115.036 146.645L117.87 145.008C117.993 144.938 117.987 144.821 117.87 144.751L114.597 142.858C114.528 142.822 114.451 142.803 114.372 142.803C114.294 142.803 114.217 142.822 114.147 142.858L111.313 144.494C111.19 144.564 111.196 144.681 111.313 144.757L114.592 146.65C114.66 146.68 114.735 146.693 114.81 146.69C114.884 146.687 114.958 146.667 115.024 146.633L115.036 146.645ZM110.898 149.035L113.733 147.398C113.849 147.334 113.844 147.217 113.733 147.141L110.425 145.225C110.355 145.189 110.278 145.17 110.2 145.17C110.122 145.17 110.044 145.189 109.975 145.225L107.141 146.855C107.018 146.925 107.03 147.042 107.141 147.118L110.413 149.011C110.485 149.052 110.566 149.074 110.648 149.076C110.731 149.078 110.813 149.06 110.887 149.023L110.898 149.035ZM131.282 131.866L134.116 130.229C134.233 130.159 134.227 130.042 134.116 129.966L130.837 128.073C130.767 128.038 130.69 128.02 130.612 128.02C130.534 128.02 130.457 128.038 130.387 128.073L127.553 129.709C127.436 129.779 127.442 129.896 127.553 129.966L130.832 131.86C130.9 131.892 130.975 131.908 131.051 131.906C131.127 131.905 131.202 131.888 131.27 131.854L131.282 131.866ZM127.46 139.463L133.783 135.81C133.905 135.74 133.894 135.623 133.783 135.553L125.812 130.96C125.741 130.924 125.663 130.905 125.584 130.905C125.505 130.905 125.426 130.924 125.356 130.96L122.089 132.847C121.966 132.917 121.972 133.034 122.089 133.11L126.297 135.541C126.431 135.617 126.437 135.734 126.297 135.798L123.685 137.312C123.562 137.382 123.568 137.499 123.685 137.575L126.963 139.463C127.037 139.505 127.12 139.527 127.205 139.527C127.29 139.527 127.374 139.505 127.448 139.463H127.46ZM106.293 136.541L103.459 138.177C103.336 138.247 103.348 138.364 103.459 138.434L106.732 140.327C106.802 140.363 106.88 140.382 106.96 140.382C107.039 140.382 107.117 140.363 107.187 140.327L110.016 138.691C110.139 138.621 110.133 138.504 110.016 138.428L106.737 136.535C106.665 136.502 106.587 136.487 106.507 136.49C106.428 136.493 106.351 136.514 106.282 136.552L106.293 136.541ZM102.15 138.931L99.3158 140.567C99.1989 140.637 99.2048 140.754 99.3158 140.83L102.594 142.718C102.664 142.753 102.741 142.772 102.819 142.772C102.897 142.772 102.975 142.753 103.044 142.718L105.878 141.081C105.995 141.011 105.989 140.894 105.878 140.818L102.6 138.931C102.528 138.895 102.448 138.877 102.368 138.879C102.287 138.881 102.208 138.903 102.138 138.942L102.15 138.931ZM81.4571 165.742C81.527 165.777 81.604 165.795 81.6821 165.795C81.7601 165.795 81.8371 165.777 81.907 165.742L84.7413 164.106C84.864 164.036 84.8582 163.919 84.7413 163.849L81.4688 161.955C81.3978 161.921 81.3198 161.903 81.2408 161.903C81.1619 161.903 81.0839 161.921 81.0129 161.955L78.1845 163.592C78.0618 163.662 78.0677 163.779 78.1845 163.855L81.4571 165.742ZM69.0097 158.081L66.1755 159.717C66.0586 159.787 66.0644 159.904 66.1755 159.98L69.4539 161.868C69.5234 161.904 69.6006 161.922 69.6788 161.922C69.7571 161.922 69.8343 161.904 69.9038 161.868L72.7381 160.232C72.855 160.161 72.8491 160.045 72.7381 159.969L69.4597 158.081C69.3901 158.045 69.313 158.026 69.2347 158.026C69.1564 158.026 69.0793 158.045 69.0097 158.081V158.081ZM75.6775 163.691C75.7475 163.726 75.8245 163.744 75.9025 163.744C75.9805 163.744 76.0575 163.726 76.1275 163.691L78.9618 162.055C79.0786 161.985 79.0728 161.868 78.9618 161.792L75.6834 159.898C75.6138 159.863 75.5367 159.844 75.4584 159.844C75.3801 159.844 75.303 159.863 75.2334 159.898L72.3991 161.535C72.2823 161.605 72.2881 161.716 72.3991 161.792L75.6775 163.691ZM88.756 167.197L91.5903 165.561C91.713 165.497 91.7013 165.38 91.5903 165.304L88.3177 163.411C88.2471 163.375 88.169 163.356 88.0898 163.356C88.0106 163.356 87.9325 163.375 87.8619 163.411L85.0276 165.041C84.9108 165.111 84.9166 165.228 85.0276 165.304L88.306 167.197C88.3751 167.234 88.452 167.254 88.5303 167.255C88.6086 167.256 88.686 167.238 88.756 167.203V167.197ZM84.1628 169.582C84.2337 169.616 84.3117 169.634 84.3907 169.634C84.4696 169.634 84.5476 169.616 84.6186 169.582L87.447 167.945C87.5697 167.875 87.5639 167.758 87.447 167.682L84.1686 165.789C84.099 165.753 84.0219 165.734 83.9436 165.734C83.8653 165.734 83.7882 165.753 83.7186 165.789L80.8727 167.431C80.75 167.495 80.7558 167.612 80.8727 167.688L84.1628 169.582ZM73.153 155.673L70.3187 157.31C70.196 157.38 70.2019 157.497 70.3187 157.567L73.5913 159.46C73.6609 159.496 73.738 159.515 73.8163 159.515C73.8945 159.515 73.9717 159.496 74.0413 159.46L76.8755 157.824C76.9982 157.754 76.9924 157.637 76.8755 157.561L73.5971 155.667C73.527 155.636 73.4507 155.62 73.3737 155.622C73.2968 155.624 73.2213 155.644 73.153 155.679V155.673ZM93.8577 143.717L91.0234 145.353C90.9007 145.423 90.9124 145.54 91.0234 145.616L94.296 147.504C94.3666 147.54 94.4446 147.558 94.5239 147.558C94.6031 147.558 94.6812 147.54 94.7518 147.504L97.586 145.867C97.7029 145.797 97.697 145.68 97.586 145.604L94.3076 143.717C94.2376 143.682 94.1602 143.664 94.0819 143.665C94.0037 143.666 93.9268 143.686 93.8577 143.723V143.717ZM77.308 153.289L74.4737 154.925C74.3568 154.995 74.3627 155.112 74.4737 155.182L77.7521 157.076C77.8217 157.112 77.8988 157.13 77.9771 157.13C78.0554 157.13 78.1325 157.112 78.2021 157.076L81.0363 155.44C81.159 155.369 81.1473 155.253 81.0363 155.177L77.7638 153.283C77.6923 153.25 77.6142 153.233 77.5352 153.234C77.4562 153.235 77.3785 153.254 77.308 153.289ZM98.0126 141.333L95.1842 142.969C95.0615 143.039 95.0673 143.156 95.1842 143.232L98.4626 145.119C98.5322 145.155 98.6093 145.174 98.6876 145.174C98.7659 145.174 98.843 145.155 98.9126 145.119L101.747 143.483C101.87 143.413 101.864 143.296 101.747 143.22L98.4743 141.333C98.4007 141.293 98.3184 141.272 98.2347 141.272C98.151 141.272 98.0686 141.293 97.9951 141.333H98.0126ZM89.7319 146.113L86.8977 147.749C86.7808 147.819 86.7866 147.936 86.8977 148.012L90.1644 149.9C90.2343 149.934 90.3113 149.952 90.3893 149.952C90.4674 149.952 90.5444 149.934 90.6143 149.9L93.4486 148.263C93.5713 148.193 93.5596 148.076 93.4486 148.006L90.1644 146.125C90.0957 146.087 90.0191 146.066 89.9408 146.064C89.8625 146.062 89.7849 146.079 89.7144 146.113H89.7319ZM85.5945 148.503L82.7602 150.139C82.6375 150.209 82.6434 150.326 82.7602 150.402L86.0386 152.296C86.1082 152.331 86.1853 152.35 86.2636 152.35C86.3419 152.35 86.419 152.331 86.4886 152.296L89.3229 150.659C89.4456 150.589 89.4397 150.472 89.3229 150.402L86.0445 148.509C85.9727 148.47 85.8928 148.45 85.8114 148.449C85.7301 148.448 85.6497 148.466 85.577 148.503H85.5945ZM81.4512 150.899L78.617 152.535C78.4943 152.599 78.5059 152.716 78.617 152.792L81.8895 154.686C81.9601 154.722 82.0382 154.74 82.1174 154.74C82.1966 154.74 82.2747 154.722 82.3453 154.686L85.1796 153.055C85.2965 152.985 85.2906 152.868 85.1796 152.792L81.9012 150.899C81.8294 150.86 81.7491 150.84 81.6675 150.84C81.5858 150.84 81.5055 150.86 81.4337 150.899H81.4512ZM102.618 153.821L105.452 152.185C105.575 152.114 105.569 151.998 105.452 151.922L102.173 150.028C102.103 149.994 102.026 149.976 101.948 149.976C101.87 149.976 101.793 149.994 101.723 150.028L98.8892 151.664C98.7665 151.735 98.7723 151.851 98.8892 151.922L102.168 153.815C102.235 153.847 102.31 153.863 102.384 153.862C102.459 153.861 102.533 153.843 102.6 153.809L102.618 153.821ZM138.989 117.688L136.155 119.325C136.038 119.395 136.044 119.512 136.155 119.582L139.434 121.475C139.503 121.511 139.58 121.53 139.659 121.53C139.737 121.53 139.814 121.511 139.884 121.475L142.718 119.839C142.841 119.769 142.829 119.652 142.718 119.576L139.445 117.683C139.373 117.644 139.292 117.624 139.209 117.623C139.127 117.622 139.046 117.64 138.972 117.677L138.989 117.688ZM133.976 120.581L131.147 122.217C131.024 122.288 131.03 122.404 131.147 122.48L134.425 124.368C134.495 124.404 134.572 124.423 134.65 124.423C134.729 124.423 134.806 124.404 134.875 124.368L137.71 122.732C137.832 122.662 137.827 122.545 137.71 122.469L134.437 120.581C134.365 120.539 134.283 120.517 134.199 120.515C134.115 120.512 134.033 120.531 133.958 120.569L133.976 120.581ZM143.133 115.322L140.299 116.958C140.176 117.022 140.187 117.139 140.299 117.215L143.571 119.109C143.642 119.143 143.72 119.161 143.799 119.161C143.878 119.161 143.956 119.143 144.027 119.109L146.861 117.472C146.978 117.402 146.972 117.285 146.861 117.209L143.583 115.316C143.513 115.272 143.434 115.247 143.353 115.242C143.271 115.237 143.189 115.252 143.115 115.287L143.133 115.322ZM121.698 137.423L124.532 135.787C124.649 135.717 124.643 135.6 124.532 135.524L121.253 133.636C121.184 133.6 121.107 133.582 121.029 133.582C120.95 133.582 120.873 133.6 120.804 133.636L117.969 135.273C117.852 135.343 117.858 135.46 117.969 135.536L121.248 137.423C121.318 137.451 121.393 137.462 121.468 137.456C121.543 137.45 121.616 137.427 121.68 137.388L121.698 137.423ZM147.726 112.937C147.655 112.902 147.577 112.883 147.498 112.883C147.419 112.883 147.341 112.902 147.27 112.937L144.442 114.568C144.319 114.638 144.325 114.755 144.442 114.831L147.72 116.724C147.79 116.76 147.867 116.779 147.945 116.779C148.023 116.779 148.101 116.76 148.17 116.724L151.004 115.088C151.127 115.024 151.121 114.907 151.004 114.831L147.726 112.937ZM106.761 151.448L109.595 149.818C109.718 149.748 109.706 149.631 109.595 149.555L106.323 147.661C106.252 147.626 106.174 147.607 106.095 147.607C106.015 147.607 105.937 147.626 105.867 147.661L103.021 149.257C102.904 149.321 102.91 149.438 103.021 149.514L106.299 151.407C106.368 151.443 106.443 151.462 106.521 151.463C106.598 151.464 106.674 151.447 106.743 151.413L106.761 151.448ZM157.544 122.13L160.378 120.494C160.501 120.423 160.489 120.307 160.378 120.236L157.105 118.343C157.035 118.307 156.957 118.288 156.877 118.288C156.798 118.288 156.72 118.307 156.65 118.343L153.821 119.979C153.698 120.049 153.704 120.166 153.821 120.242L157.1 122.136C157.169 122.16 157.244 122.169 157.317 122.162C157.391 122.155 157.462 122.132 157.526 122.095L157.544 122.13ZM148.725 121.82L151.56 120.184C151.676 120.114 151.671 119.997 151.56 119.921L148.281 118.033C148.212 117.997 148.134 117.979 148.056 117.979C147.978 117.979 147.901 117.997 147.831 118.033L144.997 119.67C144.874 119.74 144.886 119.857 144.997 119.933L148.269 121.82C148.34 121.848 148.417 121.859 148.493 121.853C148.569 121.847 148.642 121.824 148.708 121.785L148.725 121.82ZM152.407 115.643C152.336 115.607 152.258 115.588 152.179 115.588C152.1 115.588 152.022 115.607 151.951 115.643L149.123 117.279C149 117.35 149.006 117.466 149.123 117.542L152.401 119.43C152.471 119.466 152.548 119.485 152.626 119.485C152.704 119.485 152.781 119.466 152.851 119.43L155.685 117.794C155.808 117.724 155.802 117.607 155.685 117.531L152.407 115.643ZM153.278 115.135L161.237 119.734C161.307 119.768 161.384 119.786 161.462 119.786C161.54 119.786 161.617 119.768 161.687 119.734L164.521 118.098C164.638 118.027 164.632 117.911 164.521 117.84L156.562 113.241C156.492 113.207 156.415 113.189 156.337 113.189C156.259 113.189 156.182 113.207 156.112 113.241L153.278 114.878C153.126 114.913 153.132 115.03 153.278 115.1V115.135ZM143.67 120.394L140.836 122.03C140.719 122.101 140.725 122.217 140.836 122.293L144.115 124.181C144.184 124.217 144.261 124.236 144.34 124.236C144.418 124.236 144.495 124.217 144.565 124.181L147.399 122.545C147.521 122.475 147.51 122.358 147.399 122.282L144.126 120.394C144.055 120.353 143.974 120.329 143.892 120.326C143.809 120.323 143.727 120.34 143.653 120.377L143.67 120.394ZM112.488 138.37L109.654 140.006C109.531 140.076 109.542 140.193 109.654 140.269L112.926 142.162C112.997 142.198 113.075 142.217 113.154 142.217C113.233 142.217 113.311 142.198 113.382 142.162L116.21 140.526C116.333 140.456 116.327 140.345 116.21 140.269L112.955 138.381C112.884 138.342 112.804 138.321 112.723 138.319C112.642 138.317 112.561 138.334 112.488 138.37ZM152.933 124.479C153.003 124.515 153.082 124.534 153.161 124.534C153.24 124.534 153.318 124.515 153.389 124.479L156.223 122.843C156.34 122.778 156.334 122.662 156.223 122.586L152.927 120.681C152.857 120.646 152.78 120.628 152.702 120.628C152.624 120.628 152.547 120.646 152.477 120.681L149.643 122.317C149.52 122.387 149.532 122.504 149.643 122.58L152.933 124.479ZM116.625 135.98L113.797 137.616C113.674 137.686 113.68 137.803 113.797 137.879L117.075 139.772C117.145 139.807 117.222 139.825 117.3 139.825C117.378 139.825 117.455 139.807 117.525 139.772L120.359 138.136C120.482 138.066 120.476 137.949 120.359 137.879L117.087 135.985C117.016 135.948 116.937 135.927 116.857 135.926C116.776 135.925 116.697 135.944 116.625 135.98V135.98ZM85.5887 163.34C85.6586 163.375 85.7356 163.393 85.8136 163.393C85.8917 163.393 85.9687 163.375 86.0386 163.34L88.8729 161.704C88.9898 161.634 88.9839 161.517 88.8729 161.447L85.5945 159.554C85.5249 159.518 85.4478 159.499 85.3695 159.499C85.2912 159.499 85.2141 159.518 85.1445 159.554L82.3103 161.19C82.1934 161.26 82.1992 161.377 82.3103 161.453L85.5887 163.34ZM79.3591 157.497L76.5249 159.127C76.4022 159.197 76.408 159.314 76.5249 159.39L79.7974 161.283C79.868 161.319 79.9461 161.338 80.0253 161.338C80.1045 161.338 80.1826 161.319 80.2532 161.283L83.0817 159.647C83.2044 159.583 83.1985 159.466 83.0817 159.39L79.8091 157.497C79.7395 157.461 79.6624 157.442 79.5841 157.442C79.5059 157.442 79.4287 157.461 79.3591 157.497V157.497ZM90.1644 161.003L92.9928 159.367C93.1155 159.297 93.1097 159.18 92.9928 159.104L89.7144 157.216C89.6448 157.18 89.5677 157.162 89.4894 157.162C89.4111 157.162 89.334 157.18 89.2644 157.216L86.4302 158.852C86.3074 158.922 86.3133 159.039 86.4302 159.115L89.7027 161.003C89.7741 161.04 89.8532 161.059 89.9335 161.059C90.0139 161.059 90.093 161.04 90.1644 161.003V161.003ZM94.3018 158.613L97.136 156.976C97.2588 156.906 97.2471 156.789 97.136 156.714L93.8635 154.826C93.7929 154.79 93.7148 154.771 93.6356 154.771C93.5564 154.771 93.4783 154.79 93.4077 154.826L90.5734 156.462C90.4566 156.532 90.4624 156.649 90.5734 156.725L93.8518 158.613C93.9255 158.648 94.0069 158.664 94.0885 158.66C94.1702 158.656 94.2495 158.632 94.3193 158.589L94.3018 158.613ZM98.4451 156.223L101.279 154.586C101.396 154.516 101.39 154.399 101.279 154.323L98.0009 152.43C97.931 152.395 97.854 152.378 97.7759 152.378C97.6979 152.378 97.6209 152.395 97.551 152.43L94.7167 154.066C94.594 154.136 94.6057 154.253 94.7167 154.323L97.9892 156.217C98.0635 156.253 98.1455 156.27 98.2281 156.267C98.3107 156.264 98.3912 156.241 98.4626 156.199L98.4451 156.223ZM83.479 155.13L80.6448 156.766C80.5279 156.836 80.5337 156.953 80.6448 157.029L83.9232 158.922C83.9931 158.957 84.0701 158.975 84.1482 158.975C84.2262 158.975 84.3032 158.957 84.3731 158.922L87.2074 157.286C87.3301 157.216 87.3184 157.099 87.2074 157.029L83.9348 155.136C83.8683 155.099 83.7947 155.078 83.7189 155.073C83.6432 155.067 83.5673 155.079 83.4966 155.106L83.479 155.13ZM87.6223 152.74L84.7881 154.376C84.6653 154.446 84.677 154.563 84.7881 154.639L88.0606 156.532C88.1316 156.567 88.2095 156.585 88.2885 156.585C88.3675 156.585 88.4454 156.567 88.5164 156.532L91.3507 154.896C91.4675 154.826 91.4617 154.709 91.3507 154.639L88.0723 152.746C88.0072 152.708 87.9344 152.686 87.8595 152.681C87.7845 152.676 87.7093 152.688 87.6398 152.716L87.6223 152.74ZM104.19 143.156L101.361 144.792C101.238 144.862 101.244 144.979 101.361 145.049L104.64 146.943C104.709 146.979 104.786 146.997 104.864 146.997C104.943 146.997 105.02 146.979 105.089 146.943L107.924 145.306C108.046 145.236 108.041 145.119 107.924 145.043L104.651 143.15C104.579 143.115 104.5 143.098 104.42 143.099C104.34 143.1 104.261 143.119 104.19 143.156V143.156ZM100.052 145.546L97.2179 147.182C97.0951 147.252 97.1068 147.369 97.2179 147.439L100.49 149.333C100.561 149.369 100.639 149.387 100.718 149.387C100.798 149.387 100.876 149.369 100.946 149.333L103.78 147.697C103.897 147.626 103.892 147.51 103.78 147.434L100.502 145.54C100.433 145.508 100.358 145.492 100.282 145.493C100.206 145.494 100.132 145.512 100.064 145.546H100.052ZM108.333 140.766L105.499 142.402C105.382 142.466 105.388 142.583 105.499 142.659L108.777 144.553C108.847 144.588 108.924 144.607 109.002 144.607C109.08 144.607 109.157 144.588 109.227 144.553L112.061 142.922C112.178 142.852 112.172 142.735 112.061 142.659L108.783 140.766C108.715 140.732 108.64 140.714 108.564 140.714C108.488 140.714 108.413 140.732 108.344 140.766H108.333ZM91.7714 150.326L88.9372 151.962C88.8144 152.033 88.8203 152.15 88.9372 152.225L92.2155 154.113C92.2851 154.149 92.3623 154.168 92.4405 154.168C92.5188 154.168 92.596 154.149 92.6655 154.113L95.4998 152.477C95.6225 152.407 95.6167 152.29 95.4998 152.214L92.2214 150.326C92.1533 150.292 92.0783 150.275 92.0023 150.275C91.9262 150.275 91.8512 150.292 91.7831 150.326H91.7714ZM95.9088 147.936L93.0746 149.572C92.9577 149.643 92.9636 149.759 93.0746 149.835L96.353 151.723C96.4225 151.759 96.4997 151.777 96.578 151.777C96.6562 151.777 96.7334 151.759 96.8029 151.723L99.6372 150.087C99.7599 150.017 99.7482 149.9 99.6372 149.824L96.3588 147.936C96.2908 147.902 96.2157 147.884 96.1397 147.884C96.0636 147.884 95.9886 147.902 95.9205 147.936H95.9088ZM92.8876 164.813L95.7218 163.177C95.8387 163.107 95.8329 162.99 95.7218 162.92L92.4376 161.003C92.368 160.967 92.2909 160.948 92.2126 160.948C92.1344 160.948 92.0572 160.967 91.9876 161.003L89.1534 162.639C89.0307 162.709 89.0424 162.826 89.1534 162.902L92.4259 164.796C92.4978 164.836 92.5782 164.858 92.6605 164.861C92.7428 164.864 92.8246 164.848 92.8993 164.813H92.8876ZM68.5831 162.359L65.3106 160.471C65.24 160.435 65.1619 160.416 65.0827 160.416C65.0035 160.416 64.9254 160.435 64.8548 160.471L62.0205 162.107C61.9036 162.178 61.9095 162.294 62.0205 162.37L65.2989 164.258C65.3685 164.294 65.4456 164.312 65.5239 164.312C65.6022 164.312 65.6793 164.294 65.7489 164.258L68.5831 162.622C68.7351 162.552 68.7234 162.435 68.5948 162.359H68.5831ZM74.7893 164.182L71.5167 162.289C71.4457 162.254 71.3678 162.236 71.2888 162.236C71.2098 162.236 71.1319 162.254 71.0609 162.289L66.7014 164.801C66.5845 164.872 66.5904 164.988 66.7014 165.064L69.9798 166.958C70.0494 166.994 70.1265 167.012 70.2048 167.012C70.2831 167.012 70.3602 166.994 70.4298 166.958L74.7893 164.445C74.9704 164.375 74.9295 164.258 74.801 164.182H74.7893ZM63.5574 158.706L60.2849 156.813C60.2143 156.777 60.1362 156.758 60.057 156.758C59.9778 156.758 59.8997 156.777 59.8291 156.813L56.3228 158.829C56.2059 158.899 56.2118 159.016 56.3228 159.086L59.6012 160.98C59.6707 161.015 59.7479 161.034 59.8262 161.034C59.9044 161.034 59.9816 161.015 60.0511 160.98L63.5574 158.963C63.7094 158.893 63.6977 158.776 63.5691 158.706H63.5574ZM66.2339 157.158C66.3035 157.194 66.3806 157.212 66.4589 157.212C66.5372 157.212 66.6143 157.194 66.6839 157.158L69.5181 155.521C69.635 155.451 69.6292 155.334 69.5181 155.258L66.2339 153.406C66.1643 153.37 66.0872 153.351 66.0089 153.351C65.9306 153.351 65.8535 153.37 65.7839 153.406L62.9497 155.042C62.8328 155.112 62.8386 155.229 62.9497 155.305L66.2339 157.158ZM80.5747 166.262L77.308 164.363C77.2384 164.327 77.1612 164.309 77.083 164.309C77.0047 164.309 76.9275 164.327 76.858 164.363L71.4057 167.507C71.2888 167.577 71.2947 167.694 71.4057 167.77L74.6841 169.658C74.7536 169.693 74.8308 169.712 74.9091 169.712C74.9873 169.712 75.0645 169.693 75.1341 169.658L80.5805 166.514C80.7091 166.449 80.7032 166.332 80.5747 166.262ZM83.292 170.096L80.0136 168.202C79.9437 168.168 79.8667 168.15 79.7887 168.15C79.7106 168.15 79.6336 168.168 79.5637 168.202L76.0574 170.213C75.9405 170.283 75.9463 170.4 76.0574 170.476L79.3358 172.369C79.4057 172.404 79.4827 172.422 79.5607 172.422C79.6388 172.422 79.7158 172.404 79.7857 172.369L83.292 170.359C83.4264 170.283 83.4206 170.166 83.292 170.09V170.096ZM97.0309 139.381C97.1018 139.415 97.1798 139.433 97.2588 139.433C97.3377 139.433 97.4157 139.415 97.4867 139.381L100.321 137.744C100.438 137.674 100.432 137.557 100.321 137.487L97.0425 135.594C96.973 135.558 96.8958 135.539 96.8176 135.539C96.7393 135.539 96.6621 135.558 96.5926 135.594L93.7583 137.23C93.6356 137.3 93.6473 137.417 93.7583 137.493L97.0309 139.381ZM88.7502 144.161C88.8208 144.197 88.8989 144.216 88.9781 144.216C89.0573 144.216 89.1354 144.197 89.206 144.161L92.0344 142.525C92.1571 142.46 92.1513 142.344 92.0344 142.268L88.756 140.374C88.686 140.34 88.609 140.322 88.531 140.322C88.453 140.322 88.376 140.34 88.306 140.374L85.4893 142.01C85.3666 142.081 85.3724 142.197 85.4893 142.273L88.7502 144.161ZM70.383 154.762C70.4536 154.798 70.5317 154.816 70.6109 154.816C70.6901 154.816 70.7682 154.798 70.8388 154.762L73.6673 153.125C73.79 153.055 73.7841 152.938 73.6673 152.862L70.3889 150.975C70.3193 150.939 70.2422 150.92 70.1639 150.92C70.0856 150.92 70.0085 150.939 69.9389 150.975L67.1046 152.611C66.9819 152.681 66.9936 152.798 67.1046 152.874L70.383 154.762ZM92.8934 141.771C92.9634 141.805 93.0404 141.823 93.1184 141.823C93.1964 141.823 93.2734 141.805 93.3434 141.771L96.1777 140.135C96.3004 140.064 96.2887 139.948 96.1777 139.877L92.9051 137.984C92.8345 137.948 92.7564 137.929 92.6772 137.929C92.598 137.929 92.5199 137.948 92.4493 137.984L89.615 139.62C89.4982 139.69 89.504 139.807 89.615 139.883L92.8934 141.771ZM84.6127 146.551C84.6823 146.587 84.7594 146.606 84.8377 146.606C84.916 146.606 84.9931 146.587 85.0627 146.551L87.897 144.921C88.0138 144.851 88.008 144.734 87.897 144.658L84.6186 142.764C84.549 142.728 84.4719 142.71 84.3936 142.71C84.3153 142.71 84.2382 142.728 84.1686 142.764L81.3343 144.401C81.2175 144.465 81.2233 144.582 81.3343 144.658L84.6127 146.551ZM85.5711 170.394C85.5005 170.358 85.4224 170.339 85.3432 170.339C85.264 170.339 85.1859 170.358 85.1153 170.394L80.7558 172.913C80.6389 172.983 80.6448 173.1 80.7558 173.17L84.0342 175.063C84.1038 175.099 84.1809 175.118 84.2592 175.118C84.3375 175.118 84.4146 175.099 84.4842 175.063L88.8437 172.544C88.9605 172.474 88.9547 172.357 88.8437 172.281L85.5711 170.394ZM78.6696 149.981C78.7395 150.016 78.8165 150.034 78.8946 150.034C78.9726 150.034 79.0496 150.016 79.1195 149.981L81.9538 148.345C82.0707 148.275 82.0648 148.158 81.9538 148.082L78.6754 146.189C78.6054 146.154 78.5285 146.136 78.4504 146.136C78.3724 146.136 78.2954 146.154 78.2254 146.189L75.3912 147.825C75.2743 147.895 75.2801 148.012 75.3912 148.082L78.6696 149.981ZM74.5263 152.372C74.5959 152.407 74.673 152.426 74.7513 152.426C74.8296 152.426 74.9067 152.407 74.9763 152.372L77.8105 150.735C77.9332 150.665 77.9274 150.548 77.8105 150.472L74.538 148.579C74.467 148.544 74.389 148.526 74.3101 148.526C74.2311 148.526 74.1532 148.544 74.0822 148.579L71.2538 150.215C71.131 150.285 71.1369 150.402 71.2538 150.472L74.5263 152.372ZM162.289 126.074C162.219 126.038 162.142 126.02 162.064 126.02C161.986 126.02 161.908 126.038 161.839 126.074L154.861 130.101C154.744 130.171 154.75 130.288 154.861 130.364L158.14 132.257C158.21 132.292 158.287 132.31 158.365 132.31C158.443 132.31 158.52 132.292 158.59 132.257L165.579 128.277C165.702 128.207 165.696 128.09 165.579 128.02L162.289 126.074ZM153.132 131.334C153.062 131.299 152.985 131.281 152.907 131.281C152.829 131.281 152.752 131.299 152.682 131.334L149.847 132.97C149.73 133.04 149.736 133.157 149.847 133.227L153.126 135.121C153.196 135.155 153.273 135.173 153.351 135.173C153.429 135.173 153.506 135.155 153.576 135.121L156.41 133.484C156.527 133.414 156.521 133.297 156.41 133.221L153.132 131.334ZM97.0309 162.37L99.8651 160.734C99.9878 160.664 99.982 160.547 99.8651 160.477L96.5926 158.665C96.523 158.629 96.4459 158.611 96.3676 158.611C96.2893 158.611 96.2122 158.629 96.1426 158.665L93.3083 160.302C93.1856 160.372 93.1915 160.489 93.3083 160.565L96.5867 162.458C96.6594 162.487 96.7378 162.499 96.8158 162.493C96.8939 162.487 96.9695 162.463 97.0367 162.423L97.0309 162.37ZM144.845 136.12C144.775 136.084 144.698 136.065 144.62 136.065C144.542 136.065 144.465 136.084 144.395 136.12L141.561 137.756C141.438 137.826 141.45 137.943 141.561 138.019L144.833 139.907C144.904 139.943 144.982 139.961 145.061 139.961C145.14 139.961 145.219 139.943 145.289 139.907L148.123 138.27C148.24 138.2 148.234 138.083 148.123 138.007L144.845 136.12ZM166.426 123.661C166.356 123.625 166.278 123.606 166.198 123.606C166.119 123.606 166.041 123.625 165.97 123.661L163.136 125.297C163.019 125.367 163.025 125.484 163.136 125.56L166.415 127.448C166.484 127.484 166.561 127.502 166.64 127.502C166.718 127.502 166.795 127.484 166.865 127.448L169.699 125.811C169.822 125.741 169.81 125.624 169.699 125.548L166.426 123.661ZM173.842 123.158L165.883 118.565C165.813 118.529 165.736 118.51 165.658 118.51C165.58 118.51 165.502 118.529 165.433 118.565L162.599 120.201C162.476 120.266 162.488 120.382 162.599 120.458L170.552 125.052C170.623 125.088 170.701 125.106 170.78 125.106C170.859 125.106 170.937 125.088 171.008 125.052L173.842 123.415C173.982 123.404 173.976 123.287 173.848 123.211L173.842 123.158ZM129.371 145.049C129.301 145.015 129.224 144.997 129.146 144.997C129.068 144.997 128.991 145.015 128.921 145.049L125.414 147.06C125.292 147.13 125.303 147.247 125.414 147.323L128.687 149.216C128.758 149.251 128.836 149.269 128.915 149.269C128.994 149.269 129.072 149.251 129.143 149.216L132.649 147.206C132.766 147.136 132.76 147.019 132.649 146.943L129.371 145.049ZM139.837 139.065C139.767 139.029 139.69 139.011 139.612 139.011C139.534 139.011 139.456 139.029 139.387 139.065L135.027 141.584C134.911 141.654 134.916 141.771 135.027 141.847L138.306 143.734C138.375 143.77 138.452 143.789 138.531 143.789C138.609 143.789 138.686 143.77 138.756 143.734L143.115 141.216C143.232 141.146 143.226 141.029 143.115 140.959L139.837 139.065ZM119.787 150.642C119.717 150.606 119.64 150.587 119.562 150.587C119.483 150.587 119.406 150.606 119.337 150.642L96.014 164.083C95.8913 164.153 95.903 164.27 96.014 164.346L99.2866 166.239C99.3576 166.274 99.4355 166.292 99.5145 166.292C99.5935 166.292 99.6714 166.274 99.7424 166.239L123.059 152.798C123.182 152.728 123.176 152.611 123.059 152.541L119.787 150.642ZM95.1608 164.86C95.0902 164.824 95.0121 164.805 94.9329 164.805C94.8537 164.805 94.7756 164.824 94.705 164.86L91.1987 166.87C91.0818 166.94 91.0877 167.057 91.1987 167.133L94.4771 169.021C94.5467 169.056 94.6238 169.075 94.7021 169.075C94.7804 169.075 94.8575 169.056 94.9271 169.021L98.4334 167.004C98.5561 166.94 98.5444 166.823 98.4334 166.747L95.1608 164.86ZM124.584 147.872C124.514 147.836 124.436 147.817 124.357 147.817C124.277 147.817 124.199 147.836 124.129 147.872L120.622 149.882C120.5 149.952 120.505 150.069 120.622 150.145L123.901 152.033C123.97 152.068 124.047 152.087 124.126 152.087C124.204 152.087 124.281 152.068 124.351 152.033L127.857 150.017C127.98 149.952 127.968 149.835 127.857 149.759L124.584 147.872ZM90.3631 167.63C90.2935 167.594 90.2163 167.575 90.1381 167.575C90.0598 167.575 89.9827 167.594 89.9131 167.63L86.4068 169.646C86.2841 169.716 86.2958 169.833 86.4068 169.909L89.6793 171.796C89.7499 171.832 89.828 171.851 89.9072 171.851C89.9865 171.851 90.0645 171.832 90.1351 171.796L93.6414 169.78C93.7642 169.71 93.7583 169.593 93.6414 169.523L90.3631 167.63ZM134.192 142.338C134.121 142.302 134.043 142.283 133.964 142.283C133.885 142.283 133.807 142.302 133.736 142.338L130.23 144.354C130.107 144.424 130.113 144.541 130.23 144.611L133.508 146.504C133.578 146.539 133.655 146.557 133.733 146.557C133.811 146.557 133.888 146.539 133.958 146.504L137.464 144.488C137.587 144.418 137.575 144.301 137.464 144.225L134.192 142.338ZM149.012 133.777C148.941 133.742 148.863 133.724 148.784 133.724C148.705 133.724 148.627 133.742 148.556 133.777L145.727 135.413C145.605 135.483 145.611 135.6 145.727 135.67L149.006 137.563C149.075 137.599 149.153 137.618 149.231 137.618C149.309 137.618 149.386 137.599 149.456 137.563L152.29 135.927C152.413 135.857 152.407 135.74 152.29 135.664L149.012 133.777ZM158.087 127.191L160.916 125.554C161.038 125.484 161.032 125.367 160.916 125.291L157.637 123.404C157.568 123.368 157.49 123.349 157.412 123.349C157.334 123.349 157.257 123.368 157.187 123.404L154.353 125.04C154.23 125.11 154.236 125.227 154.353 125.303L157.625 127.191C157.695 127.225 157.771 127.242 157.848 127.242C157.925 127.242 158.001 127.225 158.07 127.191H158.087ZM139.568 127.068L142.402 125.432C142.525 125.367 142.513 125.25 142.402 125.174L139.13 123.281C139.059 123.246 138.981 123.228 138.902 123.228C138.823 123.228 138.745 123.246 138.674 123.281L135.84 124.917C135.723 124.987 135.729 125.104 135.84 125.18L139.118 127.074C139.186 127.106 139.26 127.122 139.335 127.121C139.41 127.12 139.484 127.102 139.551 127.068H139.568ZM130.218 143.296L138.499 138.516C138.615 138.446 138.61 138.329 138.499 138.253L135.162 136.359C135.092 136.325 135.015 136.307 134.937 136.307C134.859 136.307 134.782 136.325 134.712 136.359L126.425 141.134C126.303 141.204 126.308 141.321 126.425 141.397L129.698 143.284C129.77 143.325 129.85 143.347 129.933 143.35C130.016 143.352 130.097 143.333 130.171 143.296H130.218ZM153.523 129.569C153.593 129.605 153.67 129.624 153.748 129.624C153.826 129.624 153.903 129.605 153.973 129.569L156.807 127.933C156.924 127.863 156.918 127.746 156.807 127.67L153.529 125.782C153.459 125.746 153.382 125.728 153.304 125.728C153.226 125.728 153.149 125.746 153.079 125.782L150.245 127.418C150.128 127.489 150.134 127.605 150.245 127.681L153.523 129.569ZM149.292 126.881L152.126 125.245C152.243 125.174 152.237 125.058 152.126 124.982L148.848 123.088C148.778 123.052 148.701 123.034 148.623 123.034C148.545 123.034 148.468 123.052 148.398 123.088L145.564 124.724C145.447 124.789 145.453 124.906 145.564 124.982L148.842 126.875C148.905 126.903 148.974 126.919 149.043 126.92C149.113 126.921 149.181 126.907 149.245 126.881H149.292ZM126.075 145.686L128.909 144.05C129.026 143.98 129.02 143.863 128.909 143.793L125.631 141.899C125.561 141.864 125.484 141.845 125.406 141.845C125.327 141.845 125.25 141.864 125.181 141.899L122.346 143.536C122.229 143.606 122.235 143.723 122.346 143.799L125.625 145.692C125.689 145.719 125.758 145.732 125.827 145.731C125.896 145.73 125.965 145.715 126.028 145.686H126.075ZM144.366 134.858C144.435 134.894 144.513 134.912 144.591 134.912C144.669 134.912 144.746 134.894 144.816 134.858L147.65 133.221C147.773 133.151 147.767 133.034 147.65 132.964L144.372 131.071C144.302 131.036 144.225 131.018 144.147 131.018C144.069 131.018 143.992 131.036 143.922 131.071L141.087 132.707C140.965 132.777 140.971 132.894 141.087 132.97L144.366 134.858ZM105.37 157.649L108.204 156.012C108.321 155.942 108.315 155.825 108.204 155.749L104.926 153.862C104.856 153.826 104.779 153.807 104.701 153.807C104.623 153.807 104.545 153.826 104.476 153.862L101.642 155.498C101.519 155.568 101.531 155.685 101.642 155.761L104.914 157.649C104.979 157.676 105.049 157.69 105.119 157.689C105.19 157.688 105.259 157.672 105.323 157.643L105.37 157.649ZM109.507 155.258L112.342 153.622C112.464 153.552 112.459 153.435 112.342 153.359L109.069 151.466C108.999 151.431 108.922 151.413 108.844 151.413C108.766 151.413 108.689 151.431 108.619 151.466L105.785 153.102C105.662 153.172 105.668 153.289 105.785 153.359L109.063 155.253C109.124 155.279 109.19 155.292 109.256 155.292C109.322 155.292 109.388 155.279 109.449 155.253L109.507 155.258ZM101.227 160.039L104.061 158.402C104.184 158.332 104.172 158.215 104.061 158.139L100.788 156.252C100.718 156.216 100.64 156.197 100.561 156.197C100.481 156.197 100.403 156.216 100.333 156.252L97.4984 157.888C97.3815 157.958 97.3873 158.075 97.4984 158.151L100.777 160.039C100.841 160.066 100.909 160.08 100.979 160.079C101.048 160.078 101.117 160.062 101.18 160.033L101.227 160.039ZM117.747 150.484L120.576 148.854C120.698 148.783 120.692 148.667 120.576 148.591L117.297 146.697C117.228 146.661 117.151 146.643 117.072 146.643C116.994 146.643 116.917 146.661 116.847 146.697L114.013 148.333C113.89 148.398 113.902 148.515 114.013 148.591L117.286 150.484C117.357 150.521 117.436 150.54 117.516 150.54C117.597 150.54 117.676 150.521 117.747 150.484ZM113.604 152.88L116.438 151.244C116.555 151.174 116.549 151.057 116.438 150.981L113.16 149.087C113.09 149.053 113.013 149.035 112.935 149.035C112.857 149.035 112.78 149.053 112.71 149.087L109.876 150.724C109.759 150.794 109.765 150.911 109.876 150.981L113.154 152.874C113.225 152.907 113.302 152.923 113.38 152.921C113.458 152.919 113.535 152.899 113.604 152.862V152.88ZM121.885 148.094L124.719 146.458C124.842 146.387 124.83 146.271 124.719 146.2L121.446 144.307C121.375 144.272 121.297 144.254 121.218 144.254C121.139 144.254 121.062 144.272 120.991 144.307L118.162 145.943C118.039 146.013 118.045 146.13 118.162 146.206L121.441 148.1C121.511 148.13 121.588 148.143 121.665 148.139C121.742 148.135 121.817 148.114 121.885 148.076V148.094ZM140.83 112.727C140.901 112.763 140.979 112.782 141.058 112.782C141.137 112.782 141.216 112.763 141.286 112.727L144.12 111.091C144.237 111.027 144.231 110.91 144.12 110.834L143.25 110.331C143.179 110.295 143.101 110.276 143.022 110.276C142.943 110.276 142.864 110.295 142.794 110.331L139.96 111.967C139.843 112.037 139.849 112.154 139.96 112.23L140.83 112.727ZM120.459 125.876C120.528 125.912 120.605 125.93 120.684 125.93C120.762 125.93 120.839 125.912 120.909 125.876L123.743 124.239C123.86 124.169 123.854 124.052 123.743 123.976L120.465 122.089C120.395 122.053 120.318 122.034 120.24 122.034C120.161 122.034 120.084 122.053 120.015 122.089L117.18 123.725C117.063 123.795 117.069 123.912 117.18 123.988L120.459 125.876ZM128.734 121.078C128.803 121.114 128.88 121.132 128.959 121.132C129.037 121.132 129.114 121.114 129.184 121.078L132.018 119.442C132.141 119.372 132.129 119.255 132.018 119.179L128.745 117.285C128.674 117.251 128.596 117.233 128.517 117.233C128.438 117.233 128.36 117.251 128.289 117.285L125.455 118.922C125.338 118.992 125.344 119.109 125.455 119.179L128.734 121.078ZM115.392 128.78C115.463 128.815 115.541 128.833 115.62 128.833C115.699 128.833 115.777 128.815 115.848 128.78L118.682 127.144C118.799 127.074 118.793 126.957 118.682 126.881L115.404 124.987C115.334 124.953 115.257 124.935 115.179 124.935C115.101 124.935 115.024 124.953 114.954 124.987L112.12 126.624C111.997 126.688 112.009 126.805 112.12 126.881L115.392 128.78ZM124.59 123.468C124.661 123.504 124.739 123.523 124.818 123.523C124.897 123.523 124.976 123.504 125.046 123.468L127.875 121.832C127.997 121.762 127.991 121.645 127.875 121.569L124.596 119.681C124.527 119.645 124.449 119.627 124.371 119.627C124.293 119.627 124.216 119.645 124.146 119.681L121.312 121.317C121.189 121.388 121.195 121.504 121.312 121.58L124.59 123.468ZM107.111 133.537C107.181 133.573 107.258 133.592 107.336 133.592C107.415 133.592 107.492 133.573 107.561 133.537L110.396 131.901C110.518 131.831 110.513 131.714 110.396 131.638L107.111 129.785C107.042 129.749 106.965 129.731 106.886 129.731C106.808 129.731 106.731 129.749 106.661 129.785L103.827 131.421C103.705 131.492 103.71 131.608 103.827 131.684L107.111 133.537ZM111.261 131.199C111.33 131.235 111.407 131.254 111.486 131.254C111.564 131.254 111.641 131.235 111.711 131.199L114.545 129.563C114.668 129.493 114.656 129.376 114.545 129.3L111.266 127.407C111.196 127.372 111.119 127.354 111.041 127.354C110.963 127.354 110.886 127.372 110.816 127.407L107.982 129.043C107.865 129.113 107.871 129.23 107.982 129.3L111.261 131.199ZM132.55 117.519C132.619 117.555 132.696 117.574 132.775 117.574C132.853 117.574 132.93 117.555 133 117.519L135.834 115.883C135.957 115.813 135.951 115.696 135.834 115.62L134.963 115.117C134.894 115.081 134.816 115.063 134.738 115.063C134.66 115.063 134.583 115.081 134.513 115.117L131.679 116.753C131.556 116.824 131.568 116.94 131.679 117.016L132.55 117.519ZM144.974 110.349C145.044 110.383 145.121 110.401 145.199 110.401C145.277 110.401 145.354 110.383 145.424 110.349L148.258 108.712C148.381 108.642 148.375 108.525 148.258 108.455L147.387 107.953C147.318 107.917 147.24 107.898 147.162 107.898C147.084 107.898 147.007 107.917 146.937 107.953L144.103 109.589C143.98 109.659 143.992 109.776 144.103 109.852L144.974 110.349ZM151.858 114.322C151.928 114.357 152.005 114.375 152.083 114.375C152.161 114.375 152.238 114.357 152.308 114.322L155.142 112.686C155.265 112.616 155.253 112.499 155.142 112.429L151.863 110.536C151.794 110.5 151.717 110.481 151.638 110.481C151.56 110.481 151.483 110.5 151.413 110.536L148.579 112.172C148.462 112.242 148.468 112.359 148.579 112.435L151.858 114.322ZM162.207 124.841L165.041 123.205C165.164 123.135 165.152 123.018 165.041 122.942L161.769 121.049C161.698 121.014 161.62 120.996 161.541 120.996C161.462 120.996 161.384 121.014 161.313 121.049L158.479 122.685C158.362 122.755 158.368 122.872 158.479 122.942L161.757 124.835C161.829 124.866 161.908 124.879 161.986 124.873C162.065 124.867 162.14 124.842 162.207 124.8V124.841ZM136.693 115.141C136.763 115.175 136.84 115.193 136.918 115.193C136.996 115.193 137.073 115.175 137.143 115.141L139.977 113.504C140.094 113.434 140.088 113.317 139.977 113.241L139.106 112.739C139.037 112.703 138.96 112.684 138.881 112.684C138.803 112.684 138.726 112.703 138.656 112.739L135.822 114.375C135.699 114.445 135.705 114.562 135.822 114.638L136.693 115.141ZM102.974 135.991C103.045 136.027 103.123 136.046 103.202 136.046C103.281 136.046 103.359 136.027 103.43 135.991L106.264 134.355C106.381 134.285 106.375 134.168 106.264 134.092L102.986 132.205C102.916 132.169 102.839 132.15 102.761 132.15C102.682 132.15 102.605 132.169 102.536 132.205L99.7015 133.841C99.5788 133.911 99.5905 134.028 99.7015 134.104L102.974 135.991Z" fill="#99A7AE"/>
<path d="M121.341 160.81L149.304 144.64C149.777 144.401 150.299 144.276 150.829 144.276C151.359 144.276 151.882 144.401 152.354 144.64L168.39 153.897C169.231 154.388 169.231 155.177 168.39 155.65L140.421 171.826C139.949 172.068 139.426 172.194 138.896 172.194C138.366 172.194 137.843 172.068 137.371 171.826L121.335 162.569C120.5 162.084 120.5 161.295 121.341 160.81Z" fill="#BFCDD5"/>
<path d="M127.454 18.5422V22.8141L63.8087 59.56C63.3704 59.8113 63.0139 59.6068 63.0139 59.0984L63.0607 57.5673C62.6813 57.4159 62.2905 57.2948 61.8919 57.205L42.8294 68.2089C42.5973 68.3614 42.404 68.5661 42.265 68.8065C42.126 69.047 42.0451 69.3166 42.0288 69.5939V71.2068C42.0154 71.4841 41.9364 71.7542 41.7982 71.995C41.6601 72.2358 41.4667 72.4403 41.234 72.5918L39.0367 73.8599V69.5939C39.0501 69.3166 39.1291 69.0464 39.2673 68.8056C39.4055 68.5649 39.5988 68.3603 39.8315 68.2089L126.659 18.0806C127.097 17.8293 127.454 18.0338 127.454 18.5422Z" fill="#FFC970"/>
<path d="M127.46 82.5086C127.445 82.7854 127.364 83.0547 127.225 83.2945C127.086 83.5342 126.892 83.7375 126.659 83.8877L39.8315 134.016C39.3932 134.273 39.0367 134.063 39.0367 133.554V73.8598L41.234 72.5916C41.6723 72.3404 42.4028 68.4659 42.8294 68.2088L61.8919 57.2049C62.3302 56.9536 63.3704 59.8112 63.8087 59.5424L127.454 22.814V82.5086H127.46Z" fill="#EBEBEB"/>
<path d="M42.8293 90.2225L80.9661 68.1854C81.4044 67.9283 81.7609 68.1387 81.7609 68.6471V106.129C81.7475 106.407 81.6685 106.677 81.5303 106.918C81.3921 107.158 81.1988 107.363 80.9661 107.514L42.8293 129.551C42.391 129.803 42.0345 129.598 42.0345 129.09V91.6075C42.0479 91.3302 42.1269 91.06 42.2651 90.8193C42.4033 90.5785 42.5966 90.3739 42.8293 90.2225V90.2225Z" fill="#FAFAFA"/>
<path d="M42.8293 80.3231L123.667 33.6543C124.105 33.3972 124.462 33.6076 124.462 34.116V39.7319C124.447 40.0082 124.368 40.2772 124.23 40.5169C124.092 40.7566 123.899 40.9602 123.667 41.111L42.8293 87.7856C42.391 88.0369 42.0345 87.8324 42.0345 87.324V81.7081C42.0479 81.4308 42.1269 81.1606 42.2651 80.9198C42.4033 80.679 42.5966 80.4745 42.8293 80.3231V80.3231Z" fill="#FF885A"/>
<path d="M94.4888 54.9492V56.4336C94.4888 56.7433 94.705 56.866 94.968 56.7141L118.466 43.1447V40.55L94.968 54.1194C94.8287 54.2106 94.7128 54.3332 94.6296 54.4773C94.5464 54.6214 94.4981 54.7831 94.4888 54.9492V54.9492Z" fill="#FAFAFA"/>
<path d="M120.985 39.095C121.254 38.943 121.464 39.095 121.464 39.3696V40.8598C121.455 41.0262 121.408 41.1882 121.324 41.3325C121.241 41.4767 121.125 41.5991 120.985 41.6896L118.466 43.1447V40.5501L120.985 39.095Z" fill="#FFC970"/>
<path d="M120.804 41.1345L120.517 41.0468C120.548 40.9284 120.563 40.8067 120.564 40.6845C120.575 40.5733 120.557 40.4611 120.512 40.3589C120.467 40.2566 120.396 40.1675 120.307 40.1001C120.245 40.0631 120.174 40.0435 120.102 40.0435C120.03 40.0435 119.96 40.0631 119.898 40.1001C119.715 40.2346 119.566 40.4107 119.465 40.614C119.363 40.8172 119.311 41.0417 119.313 41.2689C119.304 41.38 119.323 41.4918 119.367 41.5939C119.412 41.696 119.482 41.7852 119.571 41.8533C119.626 41.8837 119.688 41.8998 119.752 41.9C119.833 41.8976 119.911 41.8734 119.98 41.8299C120.19 41.6882 120.349 41.4836 120.435 41.2455L120.716 41.3332H120.745C120.767 41.3342 120.789 41.3278 120.807 41.3151C120.825 41.3024 120.838 41.2841 120.845 41.2631C120.854 41.2402 120.855 41.2149 120.847 41.1914C120.84 41.1679 120.824 41.1477 120.804 41.1345V41.1345ZM119.898 41.6721C119.868 41.6902 119.833 41.6997 119.798 41.6997C119.763 41.6997 119.729 41.6902 119.699 41.6721C119.642 41.619 119.599 41.5532 119.572 41.4801C119.546 41.4069 119.537 41.3285 119.547 41.2514C119.545 41.0632 119.584 40.8768 119.663 40.706C119.742 40.5351 119.858 40.384 120.003 40.2638C120.042 40.2405 120.086 40.2265 120.132 40.2229C120.154 40.2143 120.179 40.2143 120.202 40.2229C120.301 40.2755 120.354 40.4332 120.354 40.6378C120.366 40.8341 120.331 41.0305 120.252 41.2105C120.173 41.3906 120.051 41.5489 119.898 41.6721V41.6721Z" fill="#FAFAFA"/>
<path d="M127.454 22.814V28.0091L39.0367 79.0549V73.8598L40.6789 72.9131C41.1171 72.6559 41.2632 72.2702 41.4736 71.5281L42.0288 69.5938C42.061 69.3206 42.1486 69.0569 42.2863 68.8187C42.4239 68.5806 42.6087 68.373 42.8294 68.2088L61.8919 57.2049C61.9768 57.1293 62.0788 57.0754 62.1891 57.048C62.2994 57.0205 62.4147 57.0203 62.5251 57.0474C62.6355 57.0744 62.7377 57.1278 62.8229 57.2031C62.908 57.2784 62.9736 57.3733 63.0139 57.4795L63.6977 58.7184C63.949 59.1509 64.0717 59.408 64.51 59.1509L127.454 22.814Z" fill="#E6E6E6"/>
<path d="M123.714 21.2247C124.298 20.9032 124.719 21.1604 124.719 21.809C124.702 22.1599 124.602 22.5018 124.427 22.8066C124.253 23.1113 124.008 23.3703 123.714 23.5622C123.129 23.8836 122.703 23.6206 122.703 22.9778C122.719 22.6261 122.819 22.2833 122.995 21.9783C123.171 21.6732 123.418 21.4148 123.714 21.2247V21.2247Z" fill="#99A7AE"/>
<path d="M120.091 23.3107C120.646 22.9893 121.096 23.2464 121.096 23.8951C121.079 24.246 120.979 24.5879 120.804 24.8926C120.629 25.1974 120.385 25.4564 120.091 25.6482C119.506 25.9697 119.085 25.7067 119.085 25.0639C119.102 24.7129 119.202 24.3708 119.376 24.066C119.551 23.7611 119.796 23.5022 120.091 23.3107V23.3107Z" fill="#99A7AE"/>
<path d="M116.462 25.4263C117.017 25.1049 117.467 25.362 117.467 26.0107C117.45 26.3616 117.35 26.7035 117.175 27.0082C117 27.313 116.756 27.572 116.462 27.7638C115.877 28.0853 115.457 27.8223 115.457 27.1795C115.473 26.8285 115.573 26.4864 115.748 26.1816C115.922 25.8767 116.167 25.6178 116.462 25.4263V25.4263Z" fill="#99A7AE"/>
<path opacity="0.5" d="M47.8609 70.0205C47.8609 69.9445 47.7849 69.9562 47.7557 70.0205L47.5804 70.4412C47.2882 70.4062 46.9317 70.6925 46.6921 71.2009C46.3824 71.8613 46.3824 72.6385 46.6921 72.9541C46.7699 73.0276 46.8711 73.0714 46.978 73.0778C47.0848 73.0842 47.1905 73.0528 47.2765 72.9891C47.5347 72.824 47.738 72.5861 47.8609 72.3054C47.9018 72.2177 47.9018 72.1184 47.8609 72.0833C47.82 72.0483 47.7557 72.0833 47.7206 72.1651C47.4869 72.656 47.1363 72.8722 46.8791 72.6502C46.7616 72.4553 46.6995 72.232 46.6995 72.0044C46.6995 71.7769 46.7616 71.5536 46.8791 71.3587C47.0428 71.0081 47.2824 70.7743 47.4635 70.7743L47.335 71.0899C47.2999 71.1717 47.335 71.2535 47.3817 71.2184L47.896 70.8853C47.9156 70.8678 47.931 70.8462 47.9412 70.8219C47.9513 70.7976 47.9558 70.7714 47.9544 70.7451L47.8609 70.0205Z" fill="#99A7AE"/>
<path opacity="0.5" d="M61.3368 59.5776L61.7985 58.6075C61.8246 58.5622 61.8384 58.5108 61.8384 58.4585C61.8384 58.4062 61.8246 58.3548 61.7985 58.3095C61.74 58.2569 61.6524 58.3095 61.5998 58.4205L61.144 59.3906L60.6881 58.9464C60.6297 58.8997 60.5479 58.9464 60.4894 59.0633C60.4633 59.1086 60.4495 59.16 60.4495 59.2123C60.4495 59.2646 60.4633 59.316 60.4894 59.3614L60.9453 59.8055L60.4894 60.7697C60.4628 60.8159 60.4487 60.8683 60.4487 60.9217C60.4487 60.975 60.4628 61.0274 60.4894 61.0736C60.5041 61.0836 60.5214 61.089 60.5391 61.089C60.5569 61.089 60.5742 61.0836 60.5888 61.0736C60.6318 61.0418 60.666 60.9995 60.6881 60.9509L61.144 59.9866L61.5998 60.4249C61.6063 60.4315 61.614 60.4366 61.6226 60.4402C61.6311 60.4437 61.6402 60.4455 61.6494 60.4455C61.6587 60.4455 61.6678 60.4437 61.6763 60.4402C61.6849 60.4366 61.6926 60.4315 61.6991 60.4249C61.7434 60.397 61.778 60.3562 61.7985 60.308C61.8251 60.2619 61.8392 60.2094 61.8392 60.1561C61.8392 60.1028 61.8251 60.0504 61.7985 60.0042L61.3368 59.5776Z" fill="#99A7AE"/>
<path d="M49.5264 71.2126V69.5939C49.5397 69.3166 49.6187 69.0464 49.7569 68.8057C49.8951 68.5649 50.0885 68.3603 50.3211 68.2089L122.165 26.7528C122.603 26.5015 122.96 26.7061 122.96 27.2145V28.8332C122.946 29.1105 122.867 29.3807 122.729 29.6215C122.591 29.8622 122.398 30.0668 122.165 30.2182L50.3211 71.6743C49.8828 71.9256 49.5264 71.721 49.5264 71.2126Z" fill="#FAFAFA"/>
<path d="M121.721 27.6118L121.931 28.056C121.941 28.0631 121.952 28.0669 121.964 28.0669C121.975 28.0669 121.986 28.0631 121.996 28.056L122.469 27.8748C122.539 27.8748 122.574 27.9508 122.516 28.0501L122.177 28.6871C122.166 28.7273 122.166 28.7696 122.177 28.8098L122.259 29.3942C122.259 29.4819 122.189 29.6046 122.124 29.5987L121.703 29.5461C121.687 29.5453 121.67 29.5493 121.656 29.5576C121.641 29.5659 121.629 29.5781 121.622 29.5929L121.201 30.1305C121.131 30.2123 121.055 30.1831 121.067 30.0779L121.148 29.4117C121.156 29.3974 121.16 29.3813 121.16 29.365C121.16 29.3487 121.156 29.3326 121.148 29.3182L120.804 29.0728C120.751 29.0319 120.804 28.8916 120.856 28.8332L121.324 28.4767C121.358 28.4479 121.382 28.4091 121.394 28.3657L121.604 27.682C121.569 27.5943 121.663 27.5417 121.721 27.6118Z" stroke="#E0E0E0" stroke-width="0.75" stroke-miterlimit="10"/>
<g opacity="0.5">
<path opacity="0.5" d="M123.901 26.5599C123.852 26.5588 123.805 26.5453 123.763 26.5208C123.721 26.4962 123.686 26.4614 123.661 26.4196C123.625 26.3552 123.616 26.2792 123.636 26.2081C123.656 26.137 123.702 26.0766 123.766 26.0398L126.01 24.7425C126.073 24.7171 126.143 24.715 126.206 24.7367C126.27 24.7584 126.324 24.8024 126.358 24.8606C126.392 24.9188 126.404 24.9874 126.392 25.0537C126.38 25.12 126.344 25.1796 126.291 25.2217L124.059 26.519C124.012 26.5502 123.957 26.5646 123.901 26.5599Z" fill="#99A7AE"/>
<path opacity="0.5" d="M123.901 27.8573C123.852 27.8561 123.805 27.8426 123.763 27.8181C123.721 27.7936 123.686 27.7588 123.661 27.717C123.644 27.6855 123.632 27.6509 123.628 27.6151C123.624 27.5793 123.627 27.5429 123.636 27.5082C123.646 27.4735 123.663 27.441 123.685 27.4127C123.707 27.3843 123.735 27.3606 123.766 27.343L126.01 26.0398C126.073 26.0144 126.143 26.0124 126.206 26.0341C126.27 26.0558 126.324 26.0997 126.358 26.158C126.392 26.2162 126.404 26.2847 126.392 26.351C126.38 26.4173 126.344 26.477 126.291 26.519L124.059 27.8222C124.01 27.8485 123.956 27.8606 123.901 27.8573V27.8573Z" fill="#99A7AE"/>
<path opacity="0.5" d="M123.901 29.1547C123.84 29.1547 123.781 29.1346 123.733 29.0975C123.685 29.0603 123.65 29.0083 123.635 28.9495C123.62 28.8907 123.624 28.8285 123.648 28.7725C123.672 28.7166 123.713 28.6702 123.766 28.6404L126.011 27.3431C126.042 27.3235 126.076 27.3104 126.113 27.3048C126.149 27.2992 126.186 27.3011 126.222 27.3104C126.258 27.3197 126.291 27.3362 126.32 27.3589C126.349 27.3817 126.373 27.4101 126.39 27.4425C126.427 27.5062 126.437 27.5816 126.418 27.6527C126.4 27.7237 126.354 27.7846 126.291 27.8223L124.059 29.1196C124.01 29.1459 123.956 29.1581 123.901 29.1547V29.1547Z" fill="#99A7AE"/>
</g>
<path d="M60.2966 99.0585C63.5049 95.7918 64.3289 94.3075 64.3289 92.9984C64.3289 91.6894 63.7796 90.8654 62.0732 91.8297C60.8681 92.5031 59.9653 93.6108 59.5486 94.9269C59.4419 95.2035 59.274 95.4523 59.0574 95.6547C58.8408 95.8571 58.5812 96.0079 58.298 96.0957L56.0716 96.5865C55.5398 96.7093 55.1833 96.3703 55.3119 95.8385C56.2878 91.8589 58.748 88.1831 62.2017 86.1904C66.3508 83.7944 68.7702 85.606 68.7702 89.6499C68.7702 93.5361 66.7248 96.7794 64.6795 99.1111C64.2985 99.5996 64.0762 100.193 64.0425 100.812V102.132C64.026 102.428 63.9402 102.716 63.792 102.973C63.6438 103.23 63.4374 103.448 63.1893 103.611L60.4544 105.189C59.9811 105.463 59.6012 105.241 59.6012 104.698V100.712C59.6427 100.099 59.8874 99.5171 60.2966 99.0585Z" fill="#FF885A"/>
<path d="M59.5486 110.67C59.5427 109.859 59.7481 109.06 60.1446 108.352C60.5411 107.644 61.1151 107.051 61.8101 106.632C63.2769 105.779 64.0425 106.533 64.0425 108.076C64.0545 108.887 63.855 109.688 63.4636 110.399C63.0721 111.11 62.5023 111.707 61.8101 112.131C60.3083 112.996 59.5486 112.213 59.5486 110.67Z" fill="#FF885A"/>
<path d="M150.163 4.90279L148.018 3.65222C147.81 3.55223 147.579 3.51082 147.35 3.53244C147.12 3.55407 146.9 3.63791 146.715 3.77494L93.32 34.5953C92.7865 34.943 92.3423 35.4114 92.0235 35.9627C91.7047 36.514 91.5203 37.1326 91.485 37.7685V114.562C91.4645 114.785 91.5015 115.01 91.5926 115.214C91.6836 115.419 91.8257 115.597 92.0051 115.731V115.731L94.1673 116.981L146.692 84.782C147.224 84.434 147.668 83.9653 147.985 83.414C148.303 82.8627 148.487 82.2442 148.521 81.6088L150.163 4.90279Z" fill="#FFC970"/>
<path opacity="0.15" d="M94.1324 116.982L91.9994 115.748C91.8193 115.615 91.6771 115.437 91.5869 115.232C91.4967 115.027 91.4616 114.802 91.4851 114.58V37.7685C91.5093 37.095 91.7109 36.4399 92.0695 35.8693L94.2551 37.114C93.8945 37.6858 93.6928 38.3434 93.6707 39.0191V115.819C93.645 116.036 93.6738 116.255 93.7544 116.458C93.835 116.662 93.9649 116.841 94.1324 116.982Z" fill="black"/>
<path d="M95.4647 35.8517L148.86 5.02553C149.871 4.44115 150.689 4.9145 150.689 6.08327V82.8769C150.655 83.5124 150.471 84.1308 150.154 84.6821C149.836 85.2335 149.392 85.7021 148.86 86.0501L95.4647 116.876C94.4537 117.461 93.6298 116.987 93.6298 115.819V39.0191C93.6659 38.3842 93.8508 37.7668 94.1696 37.2166C94.4883 36.6664 94.932 36.1988 95.4647 35.8517V35.8517Z" fill="#FFC970"/>
<path opacity="0.4" d="M148.018 3.65229L150.11 4.86196C149.908 4.78887 149.69 4.76558 149.477 4.79406C149.263 4.82254 149.06 4.90194 148.883 5.02559L95.488 35.8517C94.98 36.1654 94.5566 36.5988 94.255 37.114L92.0869 35.8693C92.3882 35.3507 92.8115 34.9134 93.32 34.5953L146.686 3.80423C146.872 3.66753 147.091 3.58437 147.321 3.56376C147.551 3.54316 147.782 3.5859 147.989 3.68735L148.018 3.65229Z" fill="white"/>
<path d="M101.525 38.8671L144.284 14.177C145.05 13.7328 145.669 14.0952 145.669 14.9776V80.668C145.643 81.1489 145.504 81.617 145.263 82.0343C145.023 82.4515 144.687 82.8063 144.284 83.0698L101.525 107.713C100.759 108.151 100.134 107.795 100.134 106.913V41.2806C100.157 40.7967 100.295 40.3253 100.537 39.9055C100.779 39.4857 101.118 39.1297 101.525 38.8671V38.8671Z" fill="white"/>
<path d="M135.407 53.3306L135.84 52.9741C135.126 52.2 134.199 51.655 133.175 51.408L133.035 51.9456C133.942 52.1699 134.766 52.6507 135.407 53.3306V53.3306Z" fill="#37474F"/>
<path d="M136.36 55.5103L135.477 54.6454C135.268 54.4277 135.152 54.1377 135.152 53.836C135.152 53.5343 135.268 53.2443 135.477 53.0266V53.0266C135.695 52.8177 135.985 52.701 136.287 52.701C136.588 52.701 136.878 52.8177 137.096 53.0266L137.973 53.8915C138.182 54.1092 138.298 54.3992 138.298 54.7009C138.298 55.0026 138.182 55.2926 137.973 55.5103V55.5103C137.755 55.7175 137.466 55.8331 137.166 55.8331C136.866 55.8331 136.577 55.7175 136.36 55.5103V55.5103Z" fill="#FFC970"/>
<path d="M144.138 75.4845L146.113 78.8622C146.113 78.8622 159.051 72.0016 159.782 71.1016C160.512 70.2017 160.466 68.3842 160.577 67.4025C160.758 65.7662 160.156 64.3579 160.068 63.7676C159.922 62.7391 161.401 62.6807 162.131 64.1124C162.669 65.1526 162.715 66.3448 163.171 66.3564C163.824 65.898 164.432 65.3795 164.989 64.8078C165.789 63.9313 167.239 62.4703 168.337 62.669C168.524 62.7124 168.693 62.8107 168.823 62.9514C168.954 63.092 169.039 63.2684 169.068 63.4579C169.099 64.0619 169.238 64.6555 169.477 65.2111C169.655 65.4219 169.801 65.6583 169.909 65.9123C169.944 66.2894 169.944 66.6689 169.909 67.046C169.956 67.5895 170.494 67.8174 170.552 68.3492C170.535 68.7589 170.49 69.167 170.418 69.5705C170.418 69.8335 170.499 70.0614 170.499 70.3244C170.443 70.8643 170.209 71.3701 169.833 71.762C168.739 73.0371 167.442 74.1231 165.994 74.9761C164.825 75.7475 163.259 76.4312 161.903 77.1558C160.547 77.8805 145.318 89.5798 143.291 88.2006C142.461 87.6163 140.275 84.8288 137.979 81.7082" fill="#FFA8A7"/>
<path d="M137.499 82.1113C135.165 78.8613 133.018 75.4799 131.071 71.984C128.734 65.4389 131.381 61.0794 131.381 61.0794C131.381 61.0794 134.741 60.0392 137.54 64.4571C138.773 66.4031 141.999 71.8729 144.115 75.4844" fill="#FFA8A7"/>
<path d="M125.502 61.1788C125.502 61.1788 129.207 59.677 131.609 59.8347C134.011 59.9925 135.787 60.6704 137.552 63.5047C139.89 67.2856 143.799 73.819 143.799 73.819C142.147 77.2159 139.51 80.0364 136.231 81.9127L129.055 71.0899L125.502 61.1788Z" fill="#455A64"/>
<path d="M113.744 67.7238C112.508 68.719 111.597 70.0597 111.126 71.5749C110.578 73.4058 110.31 75.309 110.331 77.22V89.5213L110.174 112.803C117.981 115.462 127.904 113.119 136.231 103.862C136.231 103.862 135.77 74.0585 135.77 69.1906C135.77 68.9686 135.77 68.7465 135.77 68.5186C135.466 61.617 129.511 58.4146 123.644 61.7339L118.711 64.5156L113.762 67.7238H113.744Z" fill="#F0F0F0"/>
<path d="M116.462 39.4047C116.462 39.4047 112.634 39.1067 111.786 42.6597C111.009 45.8271 116.783 58.3329 116.654 58.1225C116.526 57.9121 116.462 39.4047 116.462 39.4047Z" fill="#952FC6"/>
<path d="M129.978 32.2519C129.978 32.2519 128.558 28.4301 121.663 31.1474C118.156 32.5324 116.841 36.8744 116.841 36.8744L129.978 32.2519Z" fill="#FFC970"/>
<path opacity="0.4" d="M129.978 32.2519C129.978 32.2519 128.558 28.4301 121.663 31.1474C118.156 32.5324 116.841 36.8744 116.841 36.8744L129.978 32.2519Z" fill="black"/>
<path d="M119.091 42.4026C119.091 47.662 122.773 50.9229 127.319 49.7015C131.866 48.4801 135.548 43.2733 135.548 38.0139C135.548 32.7544 131.626 32.7544 127.08 33.9816C122.533 35.2088 119.091 37.1548 119.091 42.4026Z" fill="#952FC6"/>
<path d="M114.796 50.7124C114.796 50.7124 116.006 56.9653 116.491 57.9178C116.637 58.1938 116.85 58.4287 117.11 58.6012C117.371 58.7738 117.67 58.8783 117.981 58.9054L117.899 54.3005L114.796 50.7124Z" fill="#952FC6"/>
<path d="M116.316 40.8832C115.836 40.9609 115.379 41.141 114.976 41.4113C114.573 41.6815 114.232 42.0356 113.978 42.4493C112.985 43.8928 113.54 47.4341 114.785 50.7125L117.064 50.4028L116.316 40.8832Z" fill="#BFCDD5"/>
<path d="M117.765 50.2217C117.303 50.66 116.654 49.8185 116.088 49.2867C115.521 48.7549 113.68 48.3166 112.757 50.8002C111.833 53.2838 113.569 55.8785 115.024 56.0188C117.525 56.2525 117.899 54.3007 117.899 54.3007L117.981 64.9773C122.183 69.4303 129.534 64.1826 126.227 62.2132V59.04C127.374 58.9411 128.506 58.7057 129.598 58.3388C131.439 57.5148 132.596 55.5337 133.157 53.0793C134.051 49.1464 134.39 46.0667 133.631 39.0132C132.801 31.276 124.777 33.3447 120.447 37.6516C116.117 41.9585 117.765 50.2217 117.765 50.2217Z" fill="#FFA8A7"/>
<path d="M117.765 51.139C117.531 51.2091 116.654 49.7657 116.088 49.3157C115.299 48.6963 116.315 40.9123 116.315 40.9123C115.404 38.902 117.087 35.8691 118.846 34.636C120.11 33.8246 121.536 33.3 123.024 33.0991C124.286 32.8731 125.545 32.6998 126.799 32.579C128.333 32.4988 129.86 32.3153 131.369 32.0297C132.551 31.7494 133.696 31.3337 134.782 30.7908C135.74 30.3525 136.535 31.3401 135.688 32.9822C134.929 34.4757 133.876 35.7997 132.59 36.8742C128.862 39.6734 124.532 40.3454 120.763 40.7604C119.915 40.8539 119.728 41.8532 119.272 44.5705C118.869 46.9314 118.536 50.8877 117.765 51.139Z" fill="#952FC6"/>
<path d="M113.446 40.9475L110.676 39.9716C111.068 38.9489 112.009 38.3412 112.768 38.61C113.528 38.8788 113.838 39.9248 113.446 40.9475Z" fill="#952FC6"/>
<path d="M126.221 59.0399C126.221 59.0399 122.13 59.186 120.681 58.6893C119.815 58.3873 119.101 57.7579 118.694 56.9362C118.892 57.8 119.277 58.61 119.822 59.3087C120.874 60.5769 126.221 60.2847 126.221 60.2847V59.0399Z" fill="#F28F8F"/>
<path d="M125.227 47.0484C125.224 47.3028 125.144 47.5503 124.998 47.7588C124.852 47.9672 124.647 48.1269 124.409 48.2172C123.959 48.3341 123.591 47.9893 123.591 47.4458C123.587 47.1854 123.664 46.9302 123.81 46.7148C123.956 46.4995 124.166 46.3344 124.409 46.242C124.865 46.1426 125.227 46.4641 125.227 47.0484Z" fill="#BFCDD5"/>
<path d="M123.913 43.4544L122.159 45.0497C122.036 44.7513 122.01 44.4219 122.083 44.1076C122.156 43.7933 122.326 43.5097 122.568 43.2966C122.655 43.1944 122.766 43.1152 122.89 43.0661C123.015 43.017 123.15 42.9994 123.283 43.0151C123.416 43.0307 123.543 43.079 123.653 43.1556C123.763 43.2323 123.852 43.3349 123.913 43.4544V43.4544Z" fill="#BFCDD5"/>
<path d="M125.853 53.4357L127.728 53.7454C127.675 54.0435 127.517 54.3131 127.284 54.5067C127.051 54.7002 126.757 54.8052 126.454 54.8031C125.934 54.7213 125.666 54.1077 125.853 53.4357Z" fill="#F28F8F"/>
<path d="M132.783 41.9117L131.176 40.9124C131.509 40.328 132.129 40.0183 132.573 40.2929C132.798 40.4914 132.944 40.765 132.982 41.0627C133.021 41.3605 132.95 41.6622 132.783 41.9117V41.9117Z" fill="#BFCDD5"/>
<path d="M132.082 44.9271C132.087 45.1891 132.01 45.4462 131.862 45.6628C131.715 45.8794 131.504 46.045 131.258 46.1367C130.802 46.2536 130.434 45.9088 130.434 45.3654C130.43 45.1041 130.507 44.848 130.655 44.6323C130.802 44.4167 131.013 44.2522 131.258 44.1615C131.714 44.0388 132.082 44.3836 132.082 44.9271Z" fill="#BFCDD5"/>
<path d="M128.015 45.2543L128.108 50.9929L131.059 49.4501L128.015 45.2543Z" fill="#F28F8F"/>
<path d="M101.379 102.565C103.681 78.8973 107.404 70.488 113.236 68.1329C115.193 69.664 115.509 76.6474 113.294 81.8893C113.294 81.8893 108.42 97.5858 108.035 102.927C107.789 107.922 107.975 112.93 108.59 117.893C108.621 118.191 108.715 118.48 108.865 118.74C109.015 118.999 109.218 119.225 109.461 119.401C110.705 120.254 110.594 121.446 111.471 122.597C112.161 123.497 112.815 123.673 112.64 124C112.494 124.327 112.241 124.595 111.922 124.759C111.603 124.922 111.238 124.972 110.887 124.9C110.328 124.706 109.81 124.409 109.361 124.023C109.691 125.283 110.211 126.485 110.904 127.588C112.482 130.142 112.365 131.831 108.496 132.304C106.071 132.602 104.347 131.059 103.278 124.976C102.974 123.223 102.226 120.067 101.94 117.8C101.11 111.33 101.005 106.375 101.379 102.565Z" fill="#FFA8A7"/>
<path d="M114.907 67.011C114.907 67.011 110.665 68.3784 108.479 71.7737C106.293 75.169 104.108 80.6622 102.448 90.4739C102.448 90.4739 105.019 94.1789 112.038 91.3213C112.038 91.3213 115.363 78.8389 115.754 73.8775C116.158 68.4661 114.907 67.011 114.907 67.011Z" fill="#455A64"/>
<path d="M118.852 32.4389C114.884 34.9225 113.172 37.9379 113.072 41.5728C113.038 44.0697 113.137 46.5666 113.37 49.0528C112.623 49.591 112.007 50.2909 111.568 51.1004C111.129 51.9099 110.878 52.808 110.834 53.7279C110.834 56.1882 112.827 57.6491 115.287 56.9888C116.522 56.6234 117.613 55.8844 118.41 54.8735C119.208 53.8626 119.672 52.6294 119.74 51.3436C119.791 50.5455 119.541 49.7573 119.04 49.1335C118.54 48.5098 117.825 48.0954 117.034 47.9717C116.538 44.5 116.547 40.9744 117.064 37.5055C117.946 32.246 127.775 29.2131 129.978 32.246C129.318 29.628 124.368 28.9618 118.852 32.4389Z" fill="#FFC970"/>
<path opacity="0.15" d="M118.852 32.4389C114.884 34.9225 113.172 37.9379 113.072 41.5728C113.038 44.0697 113.137 46.5666 113.37 49.0528C112.623 49.591 112.007 50.2909 111.568 51.1004C111.129 51.9099 110.878 52.808 110.834 53.7279C110.834 56.1882 112.827 57.6491 115.287 56.9888C116.522 56.6234 117.613 55.8844 118.41 54.8735C119.208 53.8626 119.672 52.6294 119.74 51.3436C119.791 50.5455 119.541 49.7573 119.04 49.1335C118.54 48.5098 117.825 48.0954 117.034 47.9717C116.538 44.5 116.547 40.9744 117.064 37.5055C117.946 32.246 127.775 29.2131 129.978 32.246C129.318 29.628 124.368 28.9618 118.852 32.4389Z" fill="black"/>
<path d="M117.42 51.963C117.432 51.7015 117.38 51.4409 117.267 51.2046C117.154 50.9684 116.984 50.7638 116.773 50.6092C116.562 50.4546 116.315 50.3548 116.056 50.3188C115.797 50.2827 115.532 50.3116 115.287 50.4027C114.696 50.5781 114.173 50.9324 113.791 51.4169C113.409 51.9014 113.186 52.4923 113.154 53.1084C113.145 53.3687 113.201 53.6272 113.315 53.861C113.43 54.0947 113.601 54.2966 113.813 54.4486C114.024 54.6006 114.27 54.698 114.528 54.7323C114.786 54.7667 115.049 54.7368 115.293 54.6453C115.88 54.471 116.399 54.12 116.78 53.64C117.161 53.1601 117.384 52.5745 117.42 51.963V51.963Z" fill="#FFC970"/>
<path d="M83.7713 89.5098C83.6752 89.6034 83.5872 89.7051 83.5083 89.8136V89.8136C83.3679 89.9864 83.2627 90.1849 83.1986 90.398C83.1986 90.398 83.1986 90.398 83.1986 90.398C83.1563 90.5211 83.1563 90.6548 83.1986 90.7779C83.2141 90.865 83.2571 90.9448 83.3213 91.0058C83.3521 91.0414 83.3875 91.0728 83.4265 91.0993L81.2818 89.8604C81.1958 89.8127 81.125 89.7418 81.0773 89.6558C81.0432 89.5744 81.0256 89.487 81.0256 89.3987C81.0256 89.3104 81.0432 89.223 81.0773 89.1416C81.0773 89.1416 81.0773 89.1416 81.0773 89.1416C81.124 88.9966 81.1909 88.8589 81.2759 88.7325C81.3868 88.5661 81.5119 88.4097 81.6499 88.265L83.7713 89.5098Z" fill="#FFC970"/>
<path d="M83.7888 89.4863C82.6727 90.6551 83.0642 91.444 84.6654 91.2395L93.6298 90.2051V79.2596L83.7888 89.4863Z" fill="#FFC970"/>
<path d="M83.7888 89.4863C83.0817 90.2227 82.9823 90.807 83.4031 91.0934L81.2584 89.8545C80.8084 89.574 80.9078 88.9779 81.6207 88.2299L91.4675 78.0208L93.6356 79.2772L83.7888 89.4863Z" fill="#FFC970"/>
<path opacity="0.15" d="M83.7713 89.5098C83.6752 89.6034 83.5872 89.7051 83.5083 89.8136V89.8136C83.3726 89.9894 83.2678 90.187 83.1986 90.398C83.1986 90.398 83.1986 90.398 83.1986 90.398C83.1642 90.5223 83.1642 90.6536 83.1986 90.7779C83.2156 90.8645 83.2584 90.9439 83.3213 91.0058C83.3521 91.0414 83.3875 91.0728 83.4265 91.0993L81.2818 89.8604C81.1958 89.8127 81.125 89.7418 81.0773 89.6558C81.0432 89.5744 81.0256 89.487 81.0256 89.3987C81.0256 89.3104 81.0432 89.223 81.0773 89.1416C81.0773 89.1416 81.0773 89.1416 81.0773 89.1416C81.1265 88.9976 81.1932 88.8602 81.2759 88.7325C81.3868 88.5661 81.5119 88.4097 81.6499 88.265L83.7713 89.5098Z" fill="black"/>
<path opacity="0.4" d="M93.6356 79.2596L83.7888 89.4863L81.6149 88.2299L91.4676 78.0208L93.6356 79.2596Z" fill="white"/>
<path d="M144.138 75.4845L146.113 78.8623C146.113 78.8623 159.051 72.0016 159.782 71.1017C160.512 70.2017 160.465 68.3843 160.577 67.4025C160.758 65.7662 160.156 64.3579 160.068 63.7677C159.893 62.5112 161.699 62.8034 162.271 63.3002C162.647 63.7006 162.961 64.1558 163.2 64.6501C163.481 65.1176 164.007 66.6428 164.544 66.7363C164.965 66.8123 165.801 66.2162 166.146 65.9591C167.566 64.8838 168.442 63.3937 169.535 62.032C169.73 61.7391 170 61.5047 170.318 61.3542C170.597 61.2986 170.885 61.3071 171.161 61.379C171.436 61.4509 171.691 61.5842 171.908 61.7691C172.368 62.0265 172.767 62.3816 173.076 62.8093C173.265 63.1297 173.399 63.4793 173.474 63.8436C174.058 66.3214 172.784 68.4135 171.282 70.2718C169.775 72.0996 167.988 73.6774 165.988 74.9469C164.819 75.7183 163.253 76.402 161.897 77.1266C160.541 77.8513 146.014 90.024 143.98 88.6448C141.549 86.7535 139.371 84.5578 137.499 82.1114" fill="#FFA8A7"/>
<g filter="url(#filter0_d)">
<path d="M240.533 47.4553C245.209 47.4553 247.663 48.8578 249.603 53.1764C251.461 57.308 257.229 69.2937 256.943 72.1981C256.657 75.1024 244.811 87.468 244.811 87.468L241.428 83.3773L248.767 71.0468L241.539 60.5864L240.533 47.4553Z" fill="#FFA8A7"/>
<path d="M229.185 174.635C229.185 174.635 229.711 176.23 229.997 177.632C230.225 178.743 230.546 180.595 230.155 181.431C229.763 182.267 228.25 182.804 225.901 182.787C224.375 182.787 222.003 183.809 220.378 184.721C218.754 185.633 215.206 186.03 213.43 185.82C211.338 185.574 209.17 184.359 208.831 183.482C208.492 182.605 208.206 181.431 213.874 179.613C213.921 179.613 220.729 177.381 223.113 174.746L229.185 174.635Z" fill="#BFCDD5"/>
<path d="M229.185 174.792L228.104 174.658L223.113 174.757C220.729 177.393 213.921 179.614 213.874 179.625L212.968 179.929C211.981 180.724 212.816 182.074 215.154 182.267C217.491 182.459 224.779 180.023 226.391 179.245C227.238 178.852 227.952 178.223 228.447 177.432C228.943 176.642 229.199 175.725 229.185 174.792Z" fill="#FFA8A7"/>
<path d="M229.185 172.648C229.185 172.648 229.185 174.009 229.185 174.792C229.185 175.575 228.273 176.733 225.889 176.645C224.217 176.586 223.049 176.136 223.113 174.757V172.788L229.185 172.648Z" fill="#FFA8A7"/>
<path d="M245.185 165.676C245.612 165.851 245.7 166.681 245.717 168.323C245.717 169.562 245.945 171.736 244.478 172.134C243.011 172.531 240.89 172.245 239.99 171.052C238.868 169.562 238.114 168.253 236.484 166.424C235.087 164.84 233.562 163.356 233.048 161.165C232.574 159.189 233.048 158.354 234.386 157.816C235.724 157.279 236.957 157.723 238.827 159.283C239.349 159.636 239.907 159.932 240.493 160.165C241.737 160.557 244.753 165.501 245.185 165.676Z" fill="#BFCDD5"/>
<path d="M245.226 164.157L245.168 166.173C245.168 166.173 243.824 168.808 240.078 166.173C239.996 165.974 239.657 162.082 239.657 162.082L245.226 164.157Z" fill="#FFA8A7"/>
<path d="M240.51 160.177C239.925 159.944 239.366 159.648 238.845 159.295V159.295C237.337 158.809 234.17 159.37 235.59 161.568C236.779 163.374 238.303 164.937 240.078 166.173C241.772 167.008 242.363 165.974 242.363 165.974L241.778 161.246C241.441 160.799 241.008 160.434 240.51 160.177Z" fill="#FFA8A7"/>
<path d="M247.961 136.293C247.213 129.684 245.781 125.868 245.781 125.868C245.781 125.868 247.049 116.973 248.043 108.447C250.38 88.4205 248.826 88.0991 245.998 81.1333C245.998 81.1333 220.326 77.8315 219.25 88.5082C217.912 101.803 218.52 127.586 218.742 132.302C218.964 137.018 219.326 139.151 220.752 149.027C221.816 156.548 222.827 172.986 222.827 172.986C226.193 174.927 229.43 172.648 229.43 172.648C229.43 172.648 232.65 152.434 232.574 146.993C232.509 142.966 231.919 138.964 230.821 135.089C230.821 135.089 233.007 113.42 233.562 109.961C233.562 109.961 234.181 116.874 234.409 121.59C234.637 126.306 235.911 130.835 237.039 139.618C238.015 147.215 239.64 163.128 239.64 163.128C243.006 165.068 245.355 164.192 245.355 164.192C245.355 164.192 248.703 142.897 247.961 136.293Z" fill="#FFC970"/>
<path d="M229.67 43.1311L230.611 53.1124L239.377 52.5572L238.675 41.489L229.67 43.1311Z" fill="#FFA8A7"/>
<path d="M247.254 51.6921C246.36 49.0507 244.548 47.5021 240.533 47.4553L239.055 47.5021C238.774 48.9747 234.456 50.1669 230.19 48.6708C229.606 48.8286 227.94 49.1325 227.011 49.2552L224.966 49.5533C221.862 50.5701 220.489 55.9815 220.191 64.5193C219.893 73.0571 218.613 91.3658 218.613 91.3658C218.613 91.3658 225.293 94.9422 235.835 93.5572C245.273 92.3183 248.943 86.7375 248.615 87.4504C247.509 82.7145 245.874 78.1178 243.742 73.7467C248.709 61.5272 248.575 55.6133 247.254 51.6921Z" fill="#F0F0F0"/>
<path d="M230.611 93.8612C232.358 93.8796 234.103 93.7741 235.835 93.5456C244.437 92.4177 248.247 87.7018 248.604 87.3921C247.499 82.6723 245.868 78.0914 243.742 73.735C246.255 67.564 247.459 63.0058 247.868 59.4937C247.459 62.0532 243.678 71.9644 238.728 74.9389C238.728 74.9389 241.521 75.3713 243.911 78.6555C246.301 81.9398 244.338 93.1541 230.611 93.8612Z" fill="#FF885A"/>
<path d="M227.011 49.2438C222.891 49.7639 219.344 50.5002 217.842 54.5441C215.861 60.0512 212.821 65.1175 208.895 69.4576C206.335 72.1983 195.828 77.4461 193.462 77.0545C191.095 76.663 188.962 73.2911 187.746 73.9924C186.531 74.6936 189.196 77.1013 189.049 77.6973C188.903 78.2934 184.637 77.0545 182.621 75.6228C180.605 74.1911 179.407 78.2993 182.037 81.3731C184.667 84.447 189.587 84.6866 194.94 83.6171C200.293 82.5477 210.075 79.3687 213.962 75.7455C219.057 70.9828 219.987 68.394 222.196 64.2916C229.232 58.8335 227.011 49.2438 227.011 49.2438Z" fill="#FFA8A7"/>
<path d="M225.082 30.7362C225.082 30.7362 221.775 26.7917 224.369 22.9464C227.432 18.4116 232.82 16.8805 239.482 18.8558C242.778 19.8317 247.622 24.3899 247.868 30.783C248.055 35.7093 234.24 38.9644 234.462 42.3421L225.082 30.7362Z" fill="#8D8D8D"/>
<path d="M223.189 32.1797C223.189 32.1797 221.249 35.1016 221.5 35.4289C221.955 35.7274 222.46 35.943 222.99 36.0658L223.189 32.1797Z" fill="#F28F8F"/>
<path d="M229.097 22.8822C227.21 23.8582 223.949 25.658 223.107 32.6122C222.248 39.7475 223.838 42.2253 224.808 43.1603C225.468 43.7914 228.858 44.0193 230.652 43.47C232.866 42.7863 237.664 40.4195 239.902 36.7379C242.544 32.4018 243.087 26.6281 240.037 24.3607C235.718 21.1758 230.693 22.0583 229.097 22.8822Z" fill="#FFA8A7"/>
<path d="M228.542 23.1861C228.542 23.1861 226.894 29.6962 228.863 33.8102C228.863 33.8102 230.032 31.2681 232.2 31.9986C234.368 32.7291 234.199 35.6627 232.469 37.1587C232.028 37.5892 231.473 37.8858 230.87 38.014C230.267 38.1423 229.64 38.097 229.062 37.8833C229.062 37.8833 229.121 41.489 232.2 42.9149C232.2 42.9149 238.628 45.9946 244.472 39.7767C249.732 34.1316 249.071 23.9984 241.293 21.433C233.515 18.8676 228.542 23.1861 228.542 23.1861Z" fill="#FFC970"/>
<path d="M254.711 50.6519C253.485 50.652 252.27 50.4099 251.138 49.9395C250.005 49.4692 248.977 48.7799 248.112 47.9112C247.246 47.0425 246.561 46.0115 246.095 44.8773C245.629 43.7431 245.391 42.528 245.396 41.3018V29.3571C247.865 29.3571 250.232 30.3378 251.978 32.0837C253.724 33.8295 254.705 36.1973 254.705 38.6663L254.711 50.6519Z" fill="#FFC970"/>
<path d="M223.528 20.2641C220.635 23.186 220.472 31.7239 228.863 33.8159L234.362 18.7447C231.16 16.6585 226.111 17.6227 223.528 20.2641Z" fill="#FFC970"/>
<path d="M228.022 36.1359C227.812 36.066 227.617 35.9548 227.451 35.8087C227.284 35.6626 227.149 35.4846 227.052 35.2852C226.955 35.0858 226.899 34.8691 226.888 34.6478C226.876 34.4265 226.909 34.2052 226.984 33.9968C227.06 33.7884 227.176 33.5972 227.326 33.4344C227.477 33.2717 227.658 33.1407 227.86 33.0493C228.062 32.9578 228.28 32.9077 228.501 32.9018C228.723 32.896 228.943 32.9346 229.15 33.0153L228.022 36.1359Z" fill="#BFCDD5"/>
<path opacity="0.1" d="M233.574 109.973L234.97 101.037C237.783 100.701 240.491 99.7597 242.906 98.2792C242.906 98.2792 241.153 100.915 236.536 102.013L235.111 112.363L234.526 123.203L233.574 109.973Z" fill="black"/>
</g>
<defs>
<filter id="filter0_d" x="176.525" y="17.6122" width="84.4281" height="176.263" filterUnits="userSpaceOnUse" color-interpolation-filters="sRGB">
<feFlood flood-opacity="0" result="BackgroundImageFix"/>
<feColorMatrix in="SourceAlpha" type="matrix" values="0 0 0 0 0 0 0 0 0 0 0 0 0 0 0 0 0 0 127 0"/>
<feOffset dy="4"/>
<feGaussianBlur stdDeviation="2"/>
<feColorMatrix type="matrix" values="0 0 0 0 0 0 0 0 0 0 0 0 0 0 0 0 0 0 0.25 0"/>
<feBlend mode="normal" in2="BackgroundImageFix" result="effect1_dropShadow"/>
<feBlend mode="normal" in="SourceGraphic" in2="effect1_dropShadow" result="shape"/>
</filter>
<linearGradient id="paint0_linear" x1="147.416" y1="94.173" x2="147.416" y2="237.031" gradientUnits="userSpaceOnUse">
<stop stop-color="#FFB5B5"/>
<stop offset="1" stop-color="#FFC972"/>
</linearGradient>
</defs>
</svg>
