<svg width="997" height="430" viewBox="0 0 997 430" fill="none" xmlns="http://www.w3.org/2000/svg">
<path fill-rule="evenodd" clip-rule="evenodd" d="M418.001 0C409.919 28.1296 411.375 60.8741 421.271 86.0499C431.971 113.27 458.592 127.362 485.652 141.686C506.649 152.802 527.91 164.056 542.201 181.693C552.417 194.301 554.883 211.784 557.311 228.995C560.215 249.584 563.065 269.786 579.063 280.79C594.438 291.366 614.43 286.687 634.425 282.007C654.406 277.331 674.39 272.654 689.77 283.2C710.419 297.358 721.487 330.386 731.773 361.08C744.993 400.528 756.921 436.121 786.235 422.844C819.635 407.717 815.936 366.133 812.093 322.943C808.627 283.976 805.044 243.702 828.487 220.373C844.99 203.951 870.717 218.464 896.441 232.976C922.168 247.489 947.893 262 964.385 245.565C982.644 227.369 965.801 202.949 948.067 177.238C936.66 160.7 924.886 143.628 921.846 127.335C919.362 114.02 922.108 100.793 924.87 87.4899C927.096 76.7674 929.333 65.9958 928.849 55.0892C928.128 38.8527 924.68 23.2503 921.215 7.57054C920.658 5.05001 920.1 2.52748 919.554 0H418.001Z" fill="#FF6B6B" fill-opacity="0.5"/>
<path fill-rule="evenodd" clip-rule="evenodd" d="M595.796 0C589.518 6.05573 586.194 16.0692 582.867 26.0949C578.318 39.7988 573.763 53.5254 561.643 57.1991C539.435 63.9308 515.887 58.6111 492.436 53.3133C467.456 47.6702 442.587 42.0519 419.565 51.051C374.562 68.6427 327.151 104.921 318.177 152.37C309.649 197.466 338.28 250.735 377.189 275.118C399.181 288.9 426.953 284.63 454.598 280.381C483.248 275.976 511.761 271.593 533.561 287.345C550.468 299.561 548.922 323.833 547.383 348.013C545.825 372.475 544.274 396.841 561.838 408.536C578.576 419.681 597.084 407.489 616.415 394.753C632.248 384.323 648.632 373.529 665.049 374.895C684.929 376.549 703.085 390.174 720.79 403.46C743.156 420.245 764.802 436.489 788.296 427.377C809.399 419.192 811.643 394.286 813.961 368.547C815.982 346.109 818.06 323.038 832.738 309.859C851.438 293.068 878.8 289.224 905.719 285.442C937.166 281.025 968.007 276.692 983.727 251.901C1008.87 212.254 993.299 143.985 956.038 115.407C932.358 97.2457 897.81 101.653 864.083 105.957C826.324 110.774 789.593 115.461 770.288 88.2028C753.708 64.7944 773.803 31.7731 794.178 0H706.47C696.122 11.4963 685.101 20.8809 672.998 25.6098C661.026 30.2874 649.794 20.5867 638.45 10.7894C633.962 6.91325 629.456 3.02195 624.88 0H595.796Z" fill="#FEA869" fill-opacity="0.5"/>
<path fill-rule="evenodd" clip-rule="evenodd" d="M5.81552 0C4.75358 1.63343 3.80167 3.39287 2.96851 5.2885C-8.39768 31.1494 20.6618 49.0254 50.3504 67.2885C66.3802 77.1494 82.5935 87.123 92.7261 98.5273C100.401 107.165 106.791 116.847 113.158 126.492C122.604 140.804 131.998 155.035 145.457 165.66C154.724 172.976 167.215 175.695 179.519 178.374C195.23 181.794 210.638 185.149 218.639 197.923C231.709 218.792 233.984 244.841 236.235 270.612C238.913 301.28 241.556 331.555 262.319 352.241C291.442 381.257 344.807 374.716 384.183 362.857C423.636 350.974 474.999 327.498 480.126 286.643C484.129 254.749 466.107 225.435 448.125 196.186C429.767 166.325 411.451 136.532 416.655 104.13C419.461 86.6552 439.886 88.7791 462.008 91.0796C480.892 93.0433 501.013 95.1357 512.468 85.2756C522.766 76.4117 521.591 61.8562 520.387 46.9531C519.365 34.2926 518.322 21.3813 524.277 11.4957C526.647 7.56014 529.454 3.73393 532.61 0H5.81552Z" fill="#FFC85F" fill-opacity="0.5"/>
<path fill-rule="evenodd" clip-rule="evenodd" d="M456.472 0C455.791 6.99462 454.211 13.8803 451.38 20.5923C443.935 38.2454 423.078 46.1829 402.17 54.1394C391.991 58.0131 381.8 61.8914 373.139 66.8976C356.037 76.7835 333.541 84.0773 311.14 91.3401C267.103 105.618 223.434 119.777 221.836 153.276C220.537 180.511 255.398 182.417 291.249 184.377C325.786 186.265 361.242 188.204 366.174 212.885C371.615 240.116 343.347 268.317 315.388 296.211C286.601 324.93 258.142 353.322 267.14 379.992C276.311 407.175 315.882 394.389 356.309 381.327C378.137 374.274 400.215 367.141 417.892 366.174C431.282 365.442 444.298 366.513 457.265 367.58C476.506 369.163 495.64 370.737 515.728 366.399C529.558 363.412 542.842 354.564 555.927 345.849C572.637 334.72 589.023 323.807 605.81 325.588C633.233 328.499 654.825 344.141 676.186 359.617C701.606 378.033 726.701 396.213 760.91 392.421C808.896 387.102 852.026 337.041 878.574 295.354C905.174 253.587 933.795 193.804 907.758 161.833C887.432 136.875 849.216 132.497 811.084 128.129C772.155 123.669 733.313 119.219 713.688 92.8911C703.103 78.6915 723.082 62.6559 744.722 45.2874C762.523 31.0001 781.448 15.8109 785.407 0H456.472Z" fill="#FFC85F" fill-opacity="0.5"/>
<path fill-rule="evenodd" clip-rule="evenodd" d="M418.001 0C409.919 28.1296 411.375 60.8741 421.271 86.0499C431.971 113.27 458.592 127.362 485.652 141.686C506.649 152.802 527.91 164.056 542.201 181.693C552.417 194.301 554.883 211.784 557.311 228.995C560.215 249.584 563.065 269.786 579.063 280.79C594.438 291.366 614.43 286.687 634.425 282.007C654.406 277.331 674.39 272.654 689.77 283.2C710.419 297.358 721.487 330.386 731.773 361.08C744.993 400.528 756.921 436.121 786.235 422.844C819.635 407.717 815.936 366.133 812.093 322.943C808.627 283.976 805.044 243.702 828.487 220.373C844.99 203.951 870.717 218.464 896.441 232.976C922.168 247.489 947.893 262 964.385 245.565C982.644 227.369 965.801 202.949 948.067 177.238C936.66 160.7 924.886 143.628 921.846 127.335C919.362 114.02 922.108 100.793 924.87 87.4899C927.096 76.7674 929.333 65.9958 928.849 55.0892C928.128 38.8527 924.68 23.2503 921.215 7.57054C920.658 5.05001 920.1 2.52748 919.554 0H418.001Z" fill="#FF6B6B" fill-opacity="0.5"/>
<path fill-rule="evenodd" clip-rule="evenodd" d="M595.796 0C589.518 6.05573 586.194 16.0692 582.867 26.0949C578.318 39.7988 573.763 53.5254 561.643 57.1991C539.435 63.9308 515.887 58.6111 492.436 53.3133C467.456 47.6702 442.587 42.0519 419.565 51.051C374.562 68.6427 327.151 104.921 318.177 152.37C309.649 197.466 338.28 250.735 377.189 275.118C399.181 288.9 426.953 284.63 454.598 280.381C483.248 275.976 511.761 271.593 533.561 287.345C550.468 299.561 548.922 323.833 547.383 348.013C545.825 372.475 544.274 396.841 561.838 408.536C578.576 419.681 597.084 407.489 616.415 394.753C632.248 384.323 648.632 373.529 665.049 374.895C684.929 376.549 703.085 390.174 720.79 403.46C743.156 420.245 764.802 436.489 788.296 427.377C809.399 419.192 811.643 394.286 813.961 368.547C815.982 346.109 818.06 323.038 832.738 309.859C851.438 293.068 878.8 289.224 905.719 285.442C937.166 281.025 968.007 276.692 983.727 251.901C1008.87 212.254 993.299 143.985 956.038 115.407C932.358 97.2457 897.81 101.653 864.083 105.957C826.324 110.774 789.593 115.461 770.288 88.2028C753.708 64.7944 773.803 31.7731 794.178 0H706.47C696.122 11.4963 685.101 20.8809 672.998 25.6098C661.026 30.2874 649.794 20.5867 638.45 10.7894C633.962 6.91325 629.456 3.02195 624.88 0H595.796Z" fill="#FEA869" fill-opacity="0.5"/>
<path fill-rule="evenodd" clip-rule="evenodd" d="M5.81552 0C4.75358 1.63343 3.80167 3.39287 2.96851 5.2885C-8.39768 31.1494 20.6618 49.0254 50.3504 67.2885C66.3802 77.1494 82.5935 87.123 92.7261 98.5273C100.401 107.165 106.791 116.847 113.158 126.492C122.604 140.804 131.998 155.035 145.457 165.66C154.724 172.976 167.215 175.695 179.519 178.374C195.23 181.794 210.638 185.149 218.639 197.923C231.709 218.792 233.984 244.841 236.235 270.612C238.913 301.28 241.556 331.555 262.319 352.241C291.442 381.257 344.807 374.716 384.183 362.857C423.636 350.974 474.999 327.498 480.126 286.643C484.129 254.749 466.107 225.435 448.125 196.186C429.767 166.325 411.451 136.532 416.655 104.13C419.461 86.6552 439.886 88.7791 462.008 91.0796C480.892 93.0433 501.013 95.1357 512.468 85.2756C522.766 76.4117 521.591 61.8562 520.387 46.9531C519.365 34.2926 518.322 21.3813 524.277 11.4957C526.647 7.56014 529.454 3.73393 532.61 0H5.81552Z" fill="#FFC85F" fill-opacity="0.5"/>
<path fill-rule="evenodd" clip-rule="evenodd" d="M456.472 0C455.791 6.99462 454.211 13.8803 451.38 20.5923C443.935 38.2454 423.078 46.1829 402.17 54.1394C391.991 58.0131 381.8 61.8914 373.139 66.8976C356.037 76.7835 333.541 84.0773 311.14 91.3401C267.103 105.618 223.434 119.777 221.836 153.276C220.537 180.511 255.398 182.417 291.249 184.377C325.786 186.265 361.242 188.204 366.174 212.885C371.615 240.116 343.347 268.317 315.388 296.211C286.601 324.93 258.142 353.322 267.14 379.992C276.311 407.175 315.882 394.389 356.309 381.327C378.137 374.274 400.215 367.141 417.892 366.174C431.282 365.442 444.298 366.513 457.265 367.58C476.506 369.163 495.64 370.737 515.728 366.399C529.558 363.412 542.842 354.564 555.927 345.849C572.637 334.72 589.023 323.807 605.81 325.588C633.233 328.499 654.825 344.141 676.186 359.617C701.606 378.033 726.701 396.213 760.91 392.421C808.896 387.102 852.026 337.041 878.574 295.354C905.174 253.587 933.795 193.804 907.758 161.833C887.432 136.875 849.216 132.497 811.084 128.129C772.155 123.669 733.313 119.219 713.688 92.8911C703.103 78.6915 723.082 62.6559 744.722 45.2874C762.523 31.0001 781.448 15.8109 785.407 0H456.472Z" fill="#FFC85F" fill-opacity="0.5"/>
<path fill-rule="evenodd" clip-rule="evenodd" d="M418.001 0C409.919 28.1296 411.375 60.8741 421.271 86.0499C431.971 113.27 458.592 127.362 485.652 141.686C506.649 152.802 527.91 164.056 542.201 181.693C552.417 194.301 554.883 211.784 557.311 228.995C560.215 249.584 563.065 269.786 579.063 280.79C594.438 291.366 614.43 286.687 634.425 282.007C654.406 277.331 674.39 272.654 689.77 283.2C710.419 297.358 721.487 330.386 731.773 361.08C744.993 400.528 756.921 436.121 786.235 422.844C819.635 407.717 815.936 366.133 812.093 322.943C808.627 283.976 805.044 243.702 828.487 220.373C844.99 203.951 870.717 218.464 896.441 232.976C922.168 247.489 947.893 262 964.385 245.565C982.644 227.369 965.801 202.949 948.067 177.238C936.66 160.7 924.886 143.628 921.846 127.335C919.362 114.02 922.108 100.793 924.87 87.4899C927.096 76.7674 929.333 65.9958 928.849 55.0892C928.128 38.8527 924.68 23.2503 921.215 7.57054C920.658 5.05001 920.1 2.52748 919.554 0H418.001Z" fill="#FF6B6B" fill-opacity="0.5"/>
<path fill-rule="evenodd" clip-rule="evenodd" d="M595.796 0C589.518 6.05573 586.194 16.0692 582.867 26.0949C578.318 39.7988 573.763 53.5254 561.643 57.1991C539.435 63.9308 515.887 58.6111 492.436 53.3133C467.456 47.6702 442.587 42.0519 419.565 51.051C374.562 68.6427 327.151 104.921 318.177 152.37C309.649 197.466 338.28 250.735 377.189 275.118C399.181 288.9 426.953 284.63 454.598 280.381C483.248 275.976 511.761 271.593 533.561 287.345C550.468 299.561 548.922 323.833 547.383 348.013C545.825 372.475 544.274 396.841 561.838 408.536C578.576 419.681 597.084 407.489 616.415 394.753C632.248 384.323 648.632 373.529 665.049 374.895C684.929 376.549 703.085 390.174 720.79 403.46C743.156 420.245 764.802 436.489 788.296 427.377C809.399 419.192 811.643 394.286 813.961 368.547C815.982 346.109 818.06 323.038 832.738 309.859C851.438 293.068 878.8 289.224 905.719 285.442C937.166 281.025 968.007 276.692 983.727 251.901C1008.87 212.254 993.299 143.985 956.038 115.407C932.358 97.2457 897.81 101.653 864.083 105.957C826.324 110.774 789.593 115.461 770.288 88.2028C753.708 64.7944 773.803 31.7731 794.178 0H706.47C696.122 11.4963 685.101 20.8809 672.998 25.6098C661.026 30.2874 649.794 20.5867 638.45 10.7894C633.962 6.91325 629.456 3.02195 624.88 0H595.796Z" fill="#FEA869" fill-opacity="0.5"/>
<path fill-rule="evenodd" clip-rule="evenodd" d="M456.472 0C455.791 6.99462 454.211 13.8803 451.38 20.5923C443.935 38.2454 423.078 46.1829 402.17 54.1394C391.991 58.0131 381.8 61.8914 373.139 66.8976C356.037 76.7835 333.541 84.0773 311.14 91.3401C267.103 105.618 223.434 119.777 221.836 153.276C220.537 180.511 255.398 182.417 291.249 184.377C325.786 186.265 361.242 188.204 366.174 212.885C371.615 240.116 343.347 268.317 315.388 296.211C286.601 324.93 258.142 353.322 267.14 379.992C276.311 407.175 315.882 394.389 356.309 381.327C378.137 374.274 400.215 367.141 417.892 366.174C431.282 365.442 444.298 366.513 457.265 367.58C476.506 369.163 495.64 370.737 515.728 366.399C529.558 363.412 542.842 354.564 555.927 345.849C572.637 334.72 589.023 323.807 605.81 325.588C633.233 328.499 654.825 344.141 676.186 359.617C701.606 378.033 726.701 396.213 760.91 392.421C808.896 387.102 852.026 337.041 878.574 295.354C905.174 253.587 933.795 193.804 907.758 161.833C887.432 136.875 849.216 132.497 811.084 128.129C772.155 123.669 733.313 119.219 713.688 92.8911C703.103 78.6915 723.082 62.6559 744.722 45.2874C762.523 31.0001 781.448 15.8109 785.407 0H456.472Z" fill="#FFC85F" fill-opacity="0.5"/>
</svg>
