<svg width="420" height="363" viewBox="0 0 420 363" fill="none" xmlns="http://www.w3.org/2000/svg">
<path d="M55.419 127.123C73.3353 127.123 87.8593 112.599 87.8593 94.6829C87.8593 76.7667 73.3353 62.2427 55.419 62.2427C37.5027 62.2427 22.9788 76.7667 22.9788 94.6829C22.9788 112.599 37.5027 127.123 55.419 127.123Z" fill="#FFE3C3" stroke="#FFBA5B" stroke-linecap="round" stroke-linejoin="round"/>
<path d="M53.0047 123.901C70.921 123.901 85.445 109.377 85.445 91.4605C85.445 73.5443 70.921 59.0203 53.0047 59.0203C35.0884 59.0203 20.5645 73.5443 20.5645 91.4605C20.5645 109.377 35.0884 123.901 53.0047 123.901Z" fill="#FFE3C3" stroke="#FFBA5B" stroke-linecap="round" stroke-linejoin="round"/>
<path d="M53.0047 120.678C69.1413 120.678 82.2225 107.597 82.2225 91.4605C82.2225 75.324 69.1413 62.2427 53.0047 62.2427C36.8681 62.2427 23.7869 75.324 23.7869 91.4605C23.7869 107.597 36.8681 120.678 53.0047 120.678Z" fill="#FF4337" stroke="#FFBA5B" stroke-linecap="round" stroke-linejoin="round"/>
<path d="M49.5756 69.4955C49.5756 69.4955 46.3532 61.4347 40.7163 55.7978C35.0795 50.161 12.0998 46.5252 12.0998 46.5252C15.8105 50.1043 19.1848 54.0164 22.1804 58.2123C27.4133 65.4651 44.7279 81.9906 44.7279 81.9906C44.7279 81.9906 36.2726 74.7378 28.6064 73.9298C20.9403 73.1219 1.60577 77.1522 0.422027 77.1522C-0.761718 77.1522 7.67481 80.3747 13.7251 83.1931C19.7753 86.0115 43.1402 88.4354 43.1402 88.4354C43.1402 88.4354 33.069 91.2538 26.2295 93.6777C19.3901 96.1016 12.9077 113.82 12.9077 113.82C12.9077 113.82 21.7764 105.759 29.4332 103.749C37.0899 101.738 47.9691 98.112 47.9691 98.112C47.9691 98.112 41.1203 105.769 39.5138 111.011C37.9073 116.253 39.1098 128.335 39.1098 128.335C39.1098 128.335 42.7362 117.061 47.1706 112.618C51.6049 108.174 56.4244 100.573 56.4244 100.573C58.6565 104.212 60.6767 107.976 62.4747 111.847C65.6971 118.696 67.7076 128.758 67.7076 128.758C67.7076 128.758 72.9499 117.484 72.5459 111.847C72.1419 106.21 66.1011 96.1297 66.1011 96.1297C66.1011 96.1297 70.1315 93.3113 76.1723 95.7258C82.2132 98.1402 92.6978 108.221 92.6978 108.221C92.6978 108.221 90.2739 94.9178 86.2435 89.6849C82.2132 84.452 64.8892 82.8267 64.8892 82.8267C64.8892 82.8267 74.5658 77.1898 80.6067 75.9779C86.6475 74.766 94.6989 77.5938 94.6989 77.5938C94.6989 77.5938 85.4356 64.6947 78.1828 63.8868C70.93 63.0788 60.0508 74.3338 60.0508 74.3338L63.2826 58.2123C64.0812 54.182 62.4747 44.1201 62.4747 44.1201C62.4747 44.1201 58.0403 46.5346 52.798 54.1913C51.2638 56.3967 50.1881 58.8877 49.6345 61.5166C49.081 64.1454 49.061 66.8587 49.5756 69.4955Z" fill="#FFE3C3"/>
<path opacity="0.5" d="M49.5756 69.4955C49.5756 69.4955 46.3532 61.4347 40.7163 55.7978C35.0795 50.161 12.0998 46.5252 12.0998 46.5252C15.8105 50.1043 19.1848 54.0164 22.1804 58.2123C27.4133 65.4651 44.7279 81.9906 44.7279 81.9906C44.7279 81.9906 36.2726 74.7378 28.6064 73.9298C20.9403 73.1219 1.60577 77.1522 0.422027 77.1522C-0.761718 77.1522 7.67481 80.3747 13.7251 83.1931C19.7753 86.0115 43.1402 88.4354 43.1402 88.4354C43.1402 88.4354 33.069 91.2538 26.2295 93.6777C19.3901 96.1016 12.9077 113.82 12.9077 113.82C12.9077 113.82 21.7764 105.759 29.4332 103.749C37.0899 101.738 47.9691 98.112 47.9691 98.112C47.9691 98.112 41.1203 105.769 39.5138 111.011C37.9073 116.253 39.1098 128.335 39.1098 128.335C39.1098 128.335 42.7362 117.061 47.1706 112.618C51.6049 108.174 56.4244 100.573 56.4244 100.573C58.6565 104.212 60.6767 107.976 62.4747 111.847C65.6971 118.696 67.7076 128.758 67.7076 128.758C67.7076 128.758 72.9499 117.484 72.5459 111.847C72.1419 106.21 66.1011 96.1297 66.1011 96.1297C66.1011 96.1297 70.1315 93.3113 76.1723 95.7258C82.2132 98.1402 92.6978 108.221 92.6978 108.221C92.6978 108.221 90.2739 94.9178 86.2435 89.6849C82.2132 84.452 64.8892 82.8267 64.8892 82.8267C64.8892 82.8267 74.5658 77.1898 80.6067 75.9779C86.6475 74.766 94.6989 77.5938 94.6989 77.5938C94.6989 77.5938 85.4356 64.6947 78.1828 63.8868C70.93 63.0788 60.0508 74.3338 60.0508 74.3338L63.2826 58.2123C64.0812 54.182 62.4747 44.1201 62.4747 44.1201C62.4747 44.1201 58.0403 46.5346 52.798 54.1913C51.2638 56.3967 50.1881 58.8877 49.6345 61.5166C49.081 64.1454 49.061 66.8587 49.5756 69.4955Z" fill="#FA8282"/>
<path d="M57.5142 57.2258C57.796 56.0703 58.106 54.9147 58.4536 53.778" stroke="#FFBA5B" stroke-width="0.5" stroke-linecap="round" stroke-linejoin="round"/>
<path d="M30.5981 57.2258C34.3561 59.9785 39.0535 63.8022 41.5149 67.081C45.9493 73.1218 54.8179 86.0209 54.8179 86.0209C54.5639 77.3571 55.2506 68.6914 56.866 60.1758" stroke="#FFBA5B" stroke-width="0.5" stroke-linecap="round" stroke-linejoin="round"/>
<path d="M24.9988 53.374C24.9988 53.374 26.1731 54.1256 27.93 55.3375" stroke="#FFBA5B" stroke-width="0.5" stroke-linecap="round" stroke-linejoin="round"/>
<path d="M54.8179 86.0209C54.8179 86.0209 70.1314 70.7074 76.5762 69.4955C83.0211 68.2836 88.6673 73.1219 88.6673 73.1219" stroke="#FFBA5B" stroke-width="0.5" stroke-linecap="round" stroke-linejoin="round"/>
<path d="M27.451 98.826C23.6931 101.194 23.3831 102.584 23.3831 102.584" stroke="#FFBA5B" stroke-width="0.5" stroke-linecap="round" stroke-linejoin="round"/>
<path d="M88.2635 100.122C88.2635 100.122 85.849 94.0722 77.3843 91.2538C68.9196 88.4354 55.6353 88.0314 55.6353 88.0314C55.6353 88.0314 36.9866 94.138 30.166 97.3228" stroke="#FFBA5B" stroke-width="0.5" stroke-linecap="round" stroke-linejoin="round"/>
<path d="M47.4805 85.7297C51.99 87.045 55.6258 88.0315 55.6258 88.0315" stroke="#FFBA5B" stroke-width="0.5" stroke-linecap="round" stroke-linejoin="round"/>
<path d="M19.0989 78.5708C23.4769 78.8339 29.1137 79.4351 32.2516 80.7786C34.807 81.8778 39.8426 83.4655 44.5964 84.8841" stroke="#FFBA5B" stroke-width="0.5" stroke-linecap="round" stroke-linejoin="round"/>
<path d="M12.9077 78.3643C12.9077 78.3643 14.3827 78.3643 16.5529 78.4488" stroke="#FFBA5B" stroke-width="0.5" stroke-linecap="round" stroke-linejoin="round"/>
<path d="M54.818 90.4459C54.818 90.4459 43.5442 107.357 42.7269 111.406C42.2427 113.795 41.9723 116.222 41.9189 118.659" stroke="#FFBA5B" stroke-width="0.5" stroke-linecap="round" stroke-linejoin="round"/>
<path d="M59.8347 95.7727C62.0049 98.5911 64.6073 102.349 65.6971 105.355C66.9656 109.023 67.9087 112.796 68.5155 116.629" stroke="#FFBA5B" stroke-width="0.5" stroke-linecap="round" stroke-linejoin="round"/>
<path d="M56.4243 91.6578C56.4243 91.6578 57.3638 92.6537 58.5757 94.185" stroke="#FFBA5B" stroke-width="0.5" stroke-linecap="round" stroke-linejoin="round"/>
<path d="M44.4555 72.9716C44.4555 72.9716 42.3792 64.5162 43.6663 56.6716C44.9534 48.8269 61.5165 32.4518 61.5165 32.4518C60.5959 37.523 60.1399 42.6676 60.1542 47.8217C60.1542 56.7655 55.6917 80.2901 55.6917 80.2901C55.6917 80.2901 58.3316 69.4673 64.0812 64.319C69.8308 59.1706 87.897 51.1662 88.8741 50.4804C89.8512 49.7946 84.8625 57.3292 81.6025 63.154C78.3425 68.9788 60.7461 84.6023 60.7461 84.6023C60.7461 84.6023 70.573 81.0135 77.544 78.9655C84.5149 76.9174 100.092 87.5711 100.092 87.5711C100.092 87.5711 88.1883 86.1995 80.7946 89.0273C73.4009 91.8551 62.4465 95.256 62.4465 95.256C62.4465 95.256 72.4802 97.4826 76.8394 100.799C81.1986 104.115 87.2864 114.666 87.2864 114.666C87.2864 114.666 77.7601 107.61 71.5689 106.596C65.3777 105.581 56.9882 102.189 56.9882 102.189C57.3064 106.445 57.8647 110.68 58.6604 114.872C60.0415 122.322 64.2973 131.68 64.2973 131.68C64.2973 131.68 53.4651 125.573 50.4963 120.754C47.5276 115.934 46.5693 104.228 46.5693 104.228C46.5693 104.228 41.6464 104.284 38.114 109.771C34.5816 115.258 31.9792 129.556 31.9792 129.556C31.9792 129.556 26.192 117.343 26.4081 110.767C26.6242 104.191 39.7581 92.7476 39.7581 92.7476C39.7581 92.7476 28.6159 93.8092 22.9978 96.3458C17.3797 98.8824 12.4756 105.882 12.4756 105.882C12.4756 105.882 12.4756 90.0043 17.9058 85.119C23.336 80.2338 38.7528 83.0522 38.7528 83.0522L26.7275 71.8442C23.7212 69.0257 19.1553 59.9128 19.1553 59.9128C19.1553 59.9128 24.1721 59.2927 32.8905 62.4588C35.4246 63.346 37.7544 64.734 39.7412 66.54C41.728 68.3461 43.3312 70.5333 44.4555 72.9716V72.9716Z" fill="#FFE3C3"/>
<path d="M30.8519 67.6352C29.9124 66.8555 29.0293 66.1039 28.0898 65.3711" stroke="#FFBA5B" stroke-width="0.5" stroke-linecap="round" stroke-linejoin="round"/>
<path d="M52.7134 51.9366C51.2572 56.371 49.6319 62.2052 49.5943 66.3013C49.5192 73.8171 49.8386 89.4407 49.8386 89.4407C44.9894 82.2573 39.3727 75.623 33.0876 69.6552" stroke="#FFBA5B" stroke-width="0.5" stroke-linecap="round" stroke-linejoin="round"/>
<path d="M55.0245 45.5388C55.0245 45.5388 54.4984 46.8353 53.7844 48.8364" stroke="#FFBA5B" stroke-width="0.5" stroke-linecap="round" stroke-linejoin="round"/>
<path d="M49.8389 89.4407C49.8389 89.4407 28.4657 85.9364 22.5282 88.7173C16.5907 91.4981 14.8245 98.6945 14.8245 98.6945" stroke="#FFBA5B" stroke-width="0.5" stroke-linecap="round" stroke-linejoin="round"/>
<path d="M79.5449 83.879C83.9511 83.6347 85.0033 84.5272 85.0033 84.5272" stroke="#FFBA5B" stroke-width="0.5" stroke-linecap="round" stroke-linejoin="round"/>
<path d="M30.8987 120.406C30.8987 120.406 29.3391 114.083 34.5626 106.859C39.7861 99.6341 50.3647 91.5545 50.3647 91.5545C50.3647 91.5545 69.0697 85.6264 76.4634 84.2454" stroke="#FFBA5B" stroke-width="0.5" stroke-linecap="round" stroke-linejoin="round"/>
<path d="M55.6354 84.931C52.7418 88.6232 50.3743 91.5544 50.3743 91.5544" stroke="#FFBA5B" stroke-width="0.5" stroke-linecap="round" stroke-linejoin="round"/>
<path d="M74.5096 62.562C71.1087 65.3805 66.881 69.1384 65.1148 72.0226C63.6774 74.4089 60.5113 78.5989 57.4768 82.5542" stroke="#FFBA5B" stroke-width="0.5" stroke-linecap="round" stroke-linejoin="round"/>
<path d="M79.4136 58.7761C79.4136 58.7761 78.2205 59.6404 76.5012 60.9745" stroke="#FFBA5B" stroke-width="0.5" stroke-linecap="round" stroke-linejoin="round"/>
<path d="M52.4221 93.0576C52.4221 93.0576 71.4654 100.216 74.4623 103.026C76.2494 104.683 77.8844 106.497 79.3476 108.446" stroke="#FFBA5B" stroke-width="0.5" stroke-linecap="round" stroke-linejoin="round"/>
<path d="M51.4547 100.292C51.3232 103.843 51.389 108.399 52.2815 111.5C53.389 115.224 54.8258 118.843 56.5749 122.313" stroke="#FFBA5B" stroke-width="0.5" stroke-linecap="round" stroke-linejoin="round"/>
<path d="M51.8209 94.9366C51.8209 94.9366 51.6706 96.2707 51.5579 98.2436" stroke="#FFBA5B" stroke-width="0.5" stroke-linecap="round" stroke-linejoin="round"/>
<path d="M107.148 116.009H320.1C322.758 116.009 325.308 117.065 327.188 118.945C329.068 120.825 330.124 123.375 330.124 126.033V264.137C330.124 265.577 329.84 267.002 329.289 268.333C328.738 269.663 327.931 270.871 326.913 271.889C325.894 272.907 324.686 273.715 323.356 274.266C322.025 274.817 320.6 275.101 319.16 275.101H108.087C106.647 275.101 105.222 274.817 103.891 274.266C102.561 273.715 101.353 272.907 100.334 271.889C99.3164 270.871 98.5088 269.663 97.9579 268.333C97.4069 267.002 97.1233 265.577 97.1233 264.137V126.033C97.1233 123.375 98.1794 120.825 100.059 118.945C101.939 117.065 104.489 116.009 107.148 116.009Z" fill="white" stroke="#3E3E3E" stroke-opacity="0.88" stroke-linecap="round" stroke-linejoin="round"/>
<path d="M185.086 131.67H171.971V140.285H185.086V131.67Z" fill="#3E3E3E" fill-opacity="0.88"/>
<path d="M142.594 184.817H130.418V196.898H142.594V184.817Z" fill="#3E3E3E" fill-opacity="0.88"/>
<path d="M196.389 142.352H184.119V154.434H196.389V142.352Z" fill="#3E3E3E" fill-opacity="0.88"/>
<path d="M169.895 131.67H156.78V140.285H169.895V131.67Z" fill="#3E3E3E" fill-opacity="0.88"/>
<path d="M210.725 142.352H198.455V154.434H210.725V142.352Z" fill="#3E3E3E" fill-opacity="0.88"/>
<path d="M200.268 131.67H187.153V140.285H200.268V131.67Z" fill="#3E3E3E" fill-opacity="0.88"/>
<path d="M135.237 170.659H112.164V182.74H135.237V170.659Z" fill="#3E3E3E" fill-opacity="0.88"/>
<path d="M167.706 142.352H155.437V154.434H167.706V142.352Z" fill="#3E3E3E" fill-opacity="0.88"/>
<path d="M128.351 184.817H112.164V196.898H128.351V184.817Z" fill="#3E3E3E" fill-opacity="0.88"/>
<path d="M215.46 131.67H202.345V140.285H215.46V131.67Z" fill="#3E3E3E" fill-opacity="0.88"/>
<path d="M139.024 142.352H126.754V154.434H139.024V142.352Z" fill="#3E3E3E" fill-opacity="0.88"/>
<path d="M139.522 131.67H126.407V140.285H139.522V131.67Z" fill="#3E3E3E" fill-opacity="0.88"/>
<path d="M154.713 131.67H141.598V140.285H154.713V131.67Z" fill="#3E3E3E" fill-opacity="0.88"/>
<path d="M153.36 142.352H141.091V154.434H153.36V142.352Z" fill="#3E3E3E" fill-opacity="0.88"/>
<path d="M182.043 142.352H169.773V154.434H182.043V142.352Z" fill="#3E3E3E" fill-opacity="0.88"/>
<path d="M276.216 131.67H263.101V140.285H276.216V131.67Z" fill="#3E3E3E" fill-opacity="0.88"/>
<path d="M291.398 131.67H278.283V140.285H291.398V131.67Z" fill="#3E3E3E" fill-opacity="0.88"/>
<path d="M282.435 142.352H270.166V154.434H282.435V142.352Z" fill="#3E3E3E" fill-opacity="0.88"/>
<path d="M296.781 142.352H284.512V154.434H296.781V142.352Z" fill="#3E3E3E" fill-opacity="0.88"/>
<path d="M319.47 184.817H301.404V196.898H319.47V184.817Z" fill="#3E3E3E" fill-opacity="0.88"/>
<path d="M306.59 131.67H293.474V140.285H306.59V131.67Z" fill="#3E3E3E" fill-opacity="0.88"/>
<path d="M124.687 142.352H112.164V154.434H124.687V142.352Z" fill="#3E3E3E" fill-opacity="0.88"/>
<path d="M230.651 131.67H217.536V140.285H230.651V131.67Z" fill="#3E3E3E" fill-opacity="0.88"/>
<path d="M245.833 131.67H232.718V140.285H245.833V131.67Z" fill="#3E3E3E" fill-opacity="0.88"/>
<path d="M239.417 142.352H227.147V154.434H239.417V142.352Z" fill="#3E3E3E" fill-opacity="0.88"/>
<path d="M268.099 142.352H255.829V154.434H268.099V142.352Z" fill="#3E3E3E" fill-opacity="0.88"/>
<path d="M225.071 142.352H212.801V154.434H225.071V142.352Z" fill="#3E3E3E" fill-opacity="0.88"/>
<path d="M253.753 142.352H241.483V154.434H253.753V142.352Z" fill="#3E3E3E" fill-opacity="0.88"/>
<path d="M261.025 131.67H247.909V140.285H261.025V131.67Z" fill="#3E3E3E" fill-opacity="0.88"/>
<path d="M242.339 184.817H230.163V196.898H242.339V184.817Z" fill="#3E3E3E" fill-opacity="0.88"/>
<path d="M306.223 170.659H294.047V182.74H306.223V170.659Z" fill="#3E3E3E" fill-opacity="0.88"/>
<path d="M291.971 170.659H279.795V182.74H291.971V170.659Z" fill="#3E3E3E" fill-opacity="0.88"/>
<path d="M299.327 184.817H287.152V196.898H299.327V184.817Z" fill="#3E3E3E" fill-opacity="0.88"/>
<path d="M285.085 184.817H272.909V196.898H285.085V184.817Z" fill="#3E3E3E" fill-opacity="0.88"/>
<path d="M256.581 184.817H244.406V196.898H256.581V184.817Z" fill="#3E3E3E" fill-opacity="0.88"/>
<path d="M270.833 184.817H258.657V196.898H270.833V184.817Z" fill="#3E3E3E" fill-opacity="0.88"/>
<path d="M277.719 170.659H265.544V182.74H277.719V170.659Z" fill="#3E3E3E" fill-opacity="0.88"/>
<path d="M263.477 170.659H251.301V182.74H263.477V170.659Z" fill="#3E3E3E" fill-opacity="0.88"/>
<path d="M319.479 131.67H308.666V140.285H319.479V131.67Z" fill="#3E3E3E" fill-opacity="0.88"/>
<path d="M124.339 131.67H112.164V140.285H124.339V131.67Z" fill="#3E3E3E" fill-opacity="0.88"/>
<path d="M319.479 198.965H112.164V211.526H319.479V198.965Z" fill="#3E3E3E" fill-opacity="0.88"/>
<path d="M319.47 142.352H298.848V154.434H319.47V142.352Z" fill="#3E3E3E" fill-opacity="0.88"/>
<path d="M319.47 170.659H308.29V182.74H319.47V170.659Z" fill="#3E3E3E" fill-opacity="0.88"/>
<path d="M304.851 168.498H302.775V156.51H290.599V168.498H288.532V156.51H276.357V168.498H274.281V156.51H262.105V168.498H260.029V156.51H247.853V168.498H245.786V156.51H233.61V168.498H231.534V156.51H219.359V168.498H217.282V156.51H205.107V168.498H203.04V156.51H190.864V168.498H188.788V156.51H176.612V168.498H174.536V156.51H162.36V168.498H160.293V156.51H148.118V168.498H146.041V156.51H133.866V168.498H131.79V156.51H112.164V168.592H319.47V156.51H304.851V168.498Z" fill="#3E3E3E" fill-opacity="0.88"/>
<path d="M206.478 170.659H194.303V182.74H206.478V170.659Z" fill="#3E3E3E" fill-opacity="0.88"/>
<path d="M249.224 170.659H237.049V182.74H249.224V170.659Z" fill="#3E3E3E" fill-opacity="0.88"/>
<path d="M177.984 170.659H165.808V182.74H177.984V170.659Z" fill="#3E3E3E" fill-opacity="0.88"/>
<path d="M185.34 184.817H173.164V196.898H185.34V184.817Z" fill="#3E3E3E" fill-opacity="0.88"/>
<path d="M192.226 170.659H180.051V182.74H192.226V170.659Z" fill="#3E3E3E" fill-opacity="0.88"/>
<path d="M163.732 170.659H151.556V182.74H163.732V170.659Z" fill="#3E3E3E" fill-opacity="0.88"/>
<path d="M156.846 184.817H144.67V196.898H156.846V184.817Z" fill="#3E3E3E" fill-opacity="0.88"/>
<path d="M171.088 184.817H158.913V196.898H171.088V184.817Z" fill="#3E3E3E" fill-opacity="0.88"/>
<path d="M220.73 170.659H208.555V182.74H220.73V170.659Z" fill="#3E3E3E" fill-opacity="0.88"/>
<path d="M228.086 184.817H215.911V196.898H228.086V184.817Z" fill="#3E3E3E" fill-opacity="0.88"/>
<path d="M234.973 170.659H222.797V182.74H234.973V170.659Z" fill="#3E3E3E" fill-opacity="0.88"/>
<path d="M199.592 184.817H187.417V196.898H199.592V184.817Z" fill="#3E3E3E" fill-opacity="0.88"/>
<path d="M213.835 184.817H201.659V196.898H213.835V184.817Z" fill="#3E3E3E" fill-opacity="0.88"/>
<path d="M149.48 170.659H137.304V182.74H149.48V170.659Z" fill="#3E3E3E" fill-opacity="0.88"/>
<path d="M343.426 29.5769H82.5702C81.2909 29.5779 80.0291 29.8731 78.8821 30.4396C77.7352 31.0061 76.7339 31.8288 75.9556 32.8441C75.1774 33.8594 74.643 35.04 74.3939 36.2947C74.1447 37.5495 74.1875 38.8447 74.5188 40.0803L93.5903 111.086C94.0656 112.859 95.112 114.425 96.5676 115.543C98.0231 116.66 99.8065 117.267 101.642 117.268H128.266V122.181H298.961V117.296H324.327C326.162 117.295 327.945 116.688 329.401 115.571C330.856 114.453 331.903 112.887 332.378 111.114L351.449 40.1085C351.785 38.8734 351.832 37.5775 351.587 36.3213C351.342 35.065 350.811 33.882 350.035 32.8638C349.26 31.8457 348.26 31.0196 347.114 30.4497C345.968 29.8797 344.706 29.5811 343.426 29.5769V29.5769Z" fill="#3E3E3E" fill-opacity="0.88" stroke="#3E3E3E" stroke-opacity="0.88" stroke-linecap="round" stroke-linejoin="round"/>
<path d="M313.927 111.002H112.07L91.8806 38.3516H334.107L313.927 111.002Z" fill="white" stroke="#3E3E3E" stroke-opacity="0.88" stroke-linecap="round" stroke-linejoin="round"/>
<path d="M125.467 79.1157V80.0552H121.906V79.1157H125.467Z" fill="#3E3E3E" fill-opacity="0.88"/>
<path d="M129.901 79.1157V80.0552H126.331V79.1157H129.901Z" fill="#3E3E3E" fill-opacity="0.88"/>
<path d="M134.336 79.1157V80.0552H130.794V79.1157H134.336Z" fill="#3E3E3E" fill-opacity="0.88"/>
<path d="M138.761 79.1157V80.0552H135.2V79.1157H138.761Z" fill="#3E3E3E" fill-opacity="0.88"/>
<path d="M143.195 79.1157V80.0552H139.625V79.1157H143.195Z" fill="#3E3E3E" fill-opacity="0.88"/>
<path d="M147.63 79.1157V80.0552H144.06V79.1157H147.63Z" fill="#3E3E3E" fill-opacity="0.88"/>
<path d="M152.054 79.1157V80.0552H148.494V79.1157H152.054Z" fill="#3E3E3E" fill-opacity="0.88"/>
<path d="M156.442 84.0668L152.515 73.601H153.454L157.381 84.0668H156.442Z" fill="#3E3E3E" fill-opacity="0.88"/>
<path d="M121.878 63.8773V64.8168H118.318V63.8773H121.878Z" fill="#3E3E3E" fill-opacity="0.88"/>
<path d="M126.312 63.8773V64.8168H122.752V63.8773H126.312Z" fill="#3E3E3E" fill-opacity="0.88"/>
<path d="M130.794 63.8773V64.8168H127.224V63.8773H130.794Z" fill="#3E3E3E" fill-opacity="0.88"/>
<path d="M135.181 63.8773V64.8168H131.611V63.8773H135.181Z" fill="#3E3E3E" fill-opacity="0.88"/>
<path d="M139.606 63.8773V64.8168H136.046V63.8773H139.606Z" fill="#3E3E3E" fill-opacity="0.88"/>
<path d="M147.103 63.8773V64.8168H143.533V63.8773H147.103Z" fill="#3E3E3E" fill-opacity="0.88"/>
<path d="M151.528 63.8773V64.8168H147.968V63.8773H151.528Z" fill="#3E3E3E" fill-opacity="0.88"/>
<path d="M155.963 63.8773V64.8168H152.402V63.8773H155.963Z" fill="#3E3E3E" fill-opacity="0.88"/>
<path d="M160.397 63.8773V64.8168H156.827V63.8773H160.397Z" fill="#3E3E3E" fill-opacity="0.88"/>
<path d="M164.822 63.8773V64.8168H161.261V63.8773H164.822Z" fill="#3E3E3E" fill-opacity="0.88"/>
<path d="M169.256 63.8773V64.8168H165.696V63.8773H169.256Z" fill="#3E3E3E" fill-opacity="0.88"/>
<path d="M173.691 63.8773V64.8168H170.121V63.8773H173.691Z" fill="#3E3E3E" fill-opacity="0.88"/>
<path d="M181.178 63.8773V64.8168H177.618V63.8773H181.178Z" fill="#3E3E3E" fill-opacity="0.88"/>
<path d="M185.613 63.8773V64.8168H182.043V63.8773H185.613Z" fill="#3E3E3E" fill-opacity="0.88"/>
<path d="M190.047 63.8773V64.8168H186.477V63.8773H190.047Z" fill="#3E3E3E" fill-opacity="0.88"/>
<path d="M197.497 63.8773V64.8168H193.937V63.8773H197.497Z" fill="#3E3E3E" fill-opacity="0.88"/>
<path d="M201.969 63.8773V64.8168H198.437V63.8773H201.969Z" fill="#3E3E3E" fill-opacity="0.88"/>
<path d="M206.403 63.8773V64.8168H202.833V63.8773H206.403Z" fill="#3E3E3E" fill-opacity="0.88"/>
<path d="M223.069 63.8773V64.8168H219.509V63.8773H223.069Z" fill="#3E3E3E" fill-opacity="0.88"/>
<path d="M227.504 63.8773V64.8168H223.934V63.8773H227.504Z" fill="#3E3E3E" fill-opacity="0.88"/>
<path d="M231.938 63.8773V64.8168H228.368V63.8773H231.938Z" fill="#3E3E3E" fill-opacity="0.88"/>
<path d="M236.363 63.8773V64.8168H232.803V63.8773H236.363Z" fill="#3E3E3E" fill-opacity="0.88"/>
<path d="M240.798 63.8773V64.8168H237.228V63.8773H240.798Z" fill="#3E3E3E" fill-opacity="0.88"/>
<path d="M248.285 63.8773V64.8168H244.725V63.8773H248.285Z" fill="#3E3E3E" fill-opacity="0.88"/>
<path d="M252.72 63.8773V64.8168H249.168V63.8773H252.72Z" fill="#3E3E3E" fill-opacity="0.88"/>
<path d="M257.154 63.8773V64.8168H253.584V63.8773H257.154Z" fill="#3E3E3E" fill-opacity="0.88"/>
<path d="M264.642 63.8773V64.8168H261.081V63.8773H264.642Z" fill="#3E3E3E" fill-opacity="0.88"/>
<path d="M272.139 63.8773V64.8168H268.569V63.8773H272.139Z" fill="#3E3E3E" fill-opacity="0.88"/>
<path d="M331.551 218.281L321.499 257.063L331.006 259.853L331.551 218.281Z" fill="white" stroke="#888888" stroke-opacity="0.88" stroke-linecap="round" stroke-linejoin="round"/>
<path d="M336.061 177.291C334.926 175.548 334.512 173.434 334.905 171.391C335.422 167.568 340.035 166.694 340.035 166.694C340.035 166.694 341.04 165.933 344.732 167.333C348.424 168.733 376.975 172.603 395.22 175.074C413.464 177.545 419.374 175.948 419.12 182.214C418.866 188.481 402.858 244.718 402.613 246.484C402.369 248.25 336.061 177.291 336.061 177.291Z" fill="white" stroke="#888888" stroke-opacity="0.88" stroke-miterlimit="10"/>
<path d="M412.801 187.697L336.053 177.293L323.651 268.779L400.4 279.183L412.801 187.697Z" fill="white" stroke="#888888" stroke-opacity="0.88" stroke-linecap="round" stroke-linejoin="round"/>
<path d="M398.536 205.946L402.999 206.556" stroke="#888888" stroke-opacity="0.88" stroke-width="0.5" stroke-linecap="round" stroke-linejoin="round"/>
<path d="M370.587 202.159L395.004 205.476" stroke="#888888" stroke-opacity="0.88" stroke-width="0.5" stroke-linecap="round" stroke-linejoin="round"/>
<path d="M340.993 198.148L367.054 201.68" stroke="#888888" stroke-opacity="0.88" stroke-width="0.5" stroke-linecap="round" stroke-linejoin="round"/>
<path d="M391.546 213.283L401.899 214.692" stroke="#888888" stroke-opacity="0.88" stroke-width="0.5" stroke-linecap="round" stroke-linejoin="round"/>
<path d="M339.894 206.284L380.958 211.845" stroke="#888888" stroke-opacity="0.88" stroke-width="0.5" stroke-linecap="round" stroke-linejoin="round"/>
<path d="M360.731 217.388L400.8 222.819" stroke="#888888" stroke-opacity="0.88" stroke-width="0.5" stroke-linecap="round" stroke-linejoin="round"/>
<path d="M338.785 214.41L356.607 216.834" stroke="#888888" stroke-opacity="0.88" stroke-width="0.5" stroke-linecap="round" stroke-linejoin="round"/>
<path d="M374.044 227.478L399.691 230.954" stroke="#888888" stroke-opacity="0.88" stroke-width="0.5" stroke-linecap="round" stroke-linejoin="round"/>
<path d="M352.276 224.519L371.103 227.074" stroke="#888888" stroke-opacity="0.88" stroke-width="0.5" stroke-linecap="round" stroke-linejoin="round"/>
<path d="M337.686 222.546L349.035 224.087" stroke="#888888" stroke-opacity="0.88" stroke-width="0.5" stroke-linecap="round" stroke-linejoin="round"/>
<path d="M389.414 237.841L398.593 239.081" stroke="#888888" stroke-opacity="0.88" stroke-width="0.5" stroke-linecap="round" stroke-linejoin="round"/>
<path d="M336.587 230.682L383.242 237.005" stroke="#888888" stroke-opacity="0.88" stroke-width="0.5" stroke-linecap="round" stroke-linejoin="round"/>
<path d="M371.545 243.694L397.493 247.217" stroke="#888888" stroke-opacity="0.88" stroke-width="0.5" stroke-linecap="round" stroke-linejoin="round"/>
<path d="M335.478 238.808L367.129 243.102" stroke="#888888" stroke-opacity="0.88" stroke-width="0.5" stroke-linecap="round" stroke-linejoin="round"/>
<path d="M379.559 253.07L396.385 255.343" stroke="#888888" stroke-opacity="0.88" stroke-width="0.5" stroke-linecap="round" stroke-linejoin="round"/>
<path d="M345.437 248.438L375.444 252.506" stroke="#888888" stroke-opacity="0.88" stroke-width="0.5" stroke-linecap="round" stroke-linejoin="round"/>
<path d="M334.379 246.944L341.904 247.959" stroke="#888888" stroke-opacity="0.88" stroke-width="0.5" stroke-linecap="round" stroke-linejoin="round"/>
<path d="M412.807 187.701C412.807 187.701 414.122 174.943 418.819 180.072" stroke="#888888" stroke-opacity="0.88" stroke-linecap="round" stroke-linejoin="round"/>
<path d="M386.783 285.98L386.699 294.088L381.973 287.417L363.005 223.617L367.815 222.18L386.783 285.98Z" fill="#F82185" stroke="#888888" stroke-opacity="0.88" stroke-linecap="round" stroke-linejoin="round"/>
<path d="M365.932 224.906L363.308 225.672L381.945 289.571L384.57 288.806L365.932 224.906Z" fill="white" stroke="#888888" stroke-opacity="0.88" stroke-width="0.5" stroke-linecap="round" stroke-linejoin="round"/>
<path d="M386.783 285.999L381.982 287.427L386.699 294.088L386.783 285.999Z" stroke="#888888" stroke-opacity="0.88" stroke-linecap="round" stroke-linejoin="round"/>
<path d="M384.341 290.752L386.699 294.088L386.746 290.038L384.341 290.752Z" fill="#3E3E3E" fill-opacity="0.88" stroke="#888888" stroke-opacity="0.88" stroke-linecap="round" stroke-linejoin="round"/>
<path d="M363.287 215.754C362.651 215.945 362.116 216.38 361.799 216.965C361.482 217.549 361.409 218.235 361.596 218.873L363.005 223.617L367.815 222.189L366.406 217.445C366.215 216.808 365.779 216.273 365.195 215.956C364.611 215.64 363.925 215.567 363.287 215.754V215.754Z" fill="white" stroke="#888888" stroke-opacity="0.88" stroke-linecap="round" stroke-linejoin="round"/>
<path d="M363.287 215.754C362.651 215.945 362.116 216.38 361.799 216.965C361.482 217.549 361.409 218.235 361.596 218.873L362.272 221.137L367.073 219.709L366.406 217.445C366.215 216.808 365.779 216.273 365.195 215.956C364.611 215.64 363.925 215.567 363.287 215.754V215.754Z" fill="#3E3E3E" fill-opacity="0.88" stroke="#888888" stroke-opacity="0.88" stroke-linecap="round" stroke-linejoin="round"/>
<path d="M126.707 178.071C126.106 178.917 125.514 179.8 124.922 180.73" stroke="white" stroke-linecap="round" stroke-linejoin="round"/>
<path d="M136.534 166.76C133.916 169.186 131.494 171.816 129.291 174.623" stroke="white" stroke-linecap="round" stroke-linejoin="round"/>
<path d="M125.871 171.748C123.304 175.349 120.978 179.115 118.909 183.022" stroke="white" stroke-linecap="round" stroke-linejoin="round"/>
<path d="M192.132 192.408C191.541 193.253 190.939 194.136 190.347 195.057" stroke="white" stroke-linecap="round" stroke-linejoin="round"/>
<path d="M201.959 181.096C199.346 183.524 196.928 186.154 194.725 188.96" stroke="white" stroke-linecap="round" stroke-linejoin="round"/>
<path d="M191.306 186.066C188.74 189.687 186.415 193.472 184.344 197.396" stroke="white" stroke-linecap="round" stroke-linejoin="round"/>
<path d="M285.911 169.156C285.056 168.573 284.154 167.991 283.224 167.408" stroke="white" stroke-linecap="round" stroke-linejoin="round"/>
<path d="M297.373 178.813C294.902 176.24 292.235 173.862 289.397 171.701" stroke="white" stroke-linecap="round" stroke-linejoin="round"/>
<path d="M292.224 168.216C288.568 165.705 284.752 163.436 280.8 161.423" stroke="white" stroke-linecap="round" stroke-linejoin="round"/>
<path d="M189.276 227.403C188.788 230.936 188.055 235.859 187.322 238.78" stroke="#3E3E3E" stroke-opacity="0.88" stroke-linecap="round" stroke-linejoin="round"/>
<path d="M189.821 223.11C189.821 223.11 189.746 223.777 189.605 224.857" stroke="#3E3E3E" stroke-opacity="0.88" stroke-linecap="round" stroke-linejoin="round"/>
<path d="M192.33 233.134C191.304 236.556 190.048 239.905 188.572 243.158" stroke="#3E3E3E" stroke-opacity="0.88" stroke-linecap="round" stroke-linejoin="round"/>
<path d="M239.303 238.141C239.303 238.141 239.933 246.287 244.311 250.674" stroke="#3E3E3E" stroke-opacity="0.88" stroke-linecap="round" stroke-linejoin="round"/>
<path d="M238.674 246.287C238.674 246.287 240.553 251.924 244.311 254.432" stroke="#3E3E3E" stroke-opacity="0.88" stroke-linecap="round" stroke-linejoin="round"/>
<g style="mix-blend-mode:multiply">
<path d="M111.064 289.822C111.064 289.822 115.236 286.468 115.236 257.636C115.236 228.803 120.036 207.74 125.955 198.505C131.874 189.27 137.407 185.568 140 185.568C142.593 185.568 140.733 188.894 137.041 193.695C133.349 198.495 130.023 201.088 128.539 207.007C127.054 212.926 127.064 220.31 128.915 219.568C130.765 218.826 133.715 204.048 136.299 198.505C138.882 192.962 145.177 185.935 148.869 182.609C152.561 179.283 160.697 169.306 164.389 171.889C168.081 174.473 165.874 178.175 163.657 179.65C161.439 181.125 152.561 189.984 148.503 195.546C144.444 201.107 141.851 215.134 144.068 215.5C146.286 215.866 152.937 195.179 156.629 190.745C160.321 186.31 175.109 174.107 178.435 173.74C181.76 173.374 182.136 178.541 179.177 181.134C176.217 183.727 166.24 194.803 162.914 201.455C159.589 208.106 158.104 220.31 161.035 217.351C163.967 214.391 168.796 202.197 172.863 198.129C176.931 194.061 189.126 181.134 192.085 182.609C195.045 184.084 194.302 187.785 191.719 190.369C189.135 192.953 179.149 207.007 176.565 214.392C173.981 221.776 171.013 242.482 172.497 239.532C173.981 236.582 178.782 221.419 181.366 215.106C183.949 208.792 189.126 205.87 189.868 208.82C190.61 211.77 189.126 213.255 187.275 219.916C185.424 226.577 185.396 244.342 179.891 254.282C174.385 264.222 152.289 285.491 149.339 292.876C147.202 297.962 144.651 302.864 141.71 307.532" fill="white"/>
</g>
<g style="mix-blend-mode:multiply">
<path d="M316.388 292.321C316.388 292.321 312.114 286.468 312.114 257.636C312.114 228.803 307.303 207.74 301.394 198.505C295.485 189.27 289.932 185.568 287.349 185.568C284.765 185.568 286.607 188.894 290.308 193.695C294.01 198.496 297.326 201.088 298.764 207.007C300.201 212.926 300.248 220.31 298.397 219.568C296.546 218.826 293.596 204.048 291.003 198.505C288.41 192.962 282.135 185.935 278.443 182.609C274.75 179.283 266.615 169.306 262.913 171.889C259.211 174.473 261.438 178.175 263.655 179.65C265.872 181.125 274.741 189.984 278.809 195.546C282.877 201.107 285.461 215.134 283.243 215.5C281.026 215.866 274.403 195.179 270.711 190.764C267.019 186.348 252.222 174.125 248.896 173.759C245.57 173.393 245.204 178.56 248.163 181.153C251.123 183.746 261.1 194.822 264.426 201.474C267.751 208.125 269.226 220.329 266.305 217.37C263.383 214.41 258.544 202.216 254.486 198.148C250.427 194.08 238.223 181.153 235.264 182.628C232.305 184.103 233.047 187.804 235.63 190.388C238.214 192.971 248.201 207.026 250.784 214.41C253.368 221.795 256.327 242.501 254.852 239.551C253.377 236.601 248.567 221.438 245.984 215.124C243.4 208.811 238.223 205.889 237.481 208.839C236.739 211.789 238.223 213.274 240.065 219.934C241.906 226.595 241.944 244.361 247.459 254.301C252.973 264.24 274.44 283.641 277.4 291.034C280.359 298.428 285.714 310.078 285.714 310.078" fill="white"/>
</g>
<path d="M109.656 296.925C109.656 296.925 115.198 278.821 115.198 249.951C115.198 221.081 119.999 200.055 125.918 190.82C131.837 181.585 137.37 177.883 139.963 177.883C142.556 177.883 140.696 181.209 137.004 186.01C133.312 190.81 129.986 193.403 128.501 199.313C127.017 205.222 127.027 212.625 128.877 211.883C130.728 211.141 133.678 196.363 136.262 190.82C138.845 185.277 145.14 178.25 148.832 174.924C152.524 171.598 160.66 161.621 164.352 164.204C168.044 166.788 165.836 170.49 163.619 171.964C161.402 173.439 152.524 182.299 148.465 187.86C144.407 193.422 141.814 207.449 144.031 207.815C146.248 208.181 152.9 187.494 156.592 183.05C160.284 178.607 175.072 166.422 178.397 166.055C181.723 165.689 182.099 170.856 179.139 173.449C176.18 176.042 166.203 187.118 162.877 193.77C159.551 200.421 158.067 212.625 160.998 209.666C163.929 206.706 168.758 194.512 172.826 190.444C176.894 186.376 189.089 173.449 192.048 174.924C195.007 176.399 194.265 180.1 191.682 182.684C189.098 185.268 179.111 199.313 176.528 206.706C173.944 214.1 170.975 234.797 172.46 231.838C173.944 228.878 178.745 213.734 181.328 207.411C183.912 201.088 189.089 198.167 189.831 201.126C190.573 204.085 189.089 205.56 187.238 212.212C185.387 218.863 185.359 236.638 179.853 246.587C174.348 256.537 152.872 283.547 149.912 290.94C146.953 298.334 140.301 314.596 140.301 314.596" fill="white"/>
<path d="M109.656 296.925C109.656 296.925 115.198 278.821 115.198 249.951C115.198 221.081 119.999 200.055 125.918 190.82C131.837 181.585 137.37 177.883 139.963 177.883C142.556 177.883 140.696 181.209 137.004 186.01C133.312 190.81 129.986 193.403 128.501 199.313C127.017 205.222 127.027 212.625 128.877 211.883C130.728 211.141 133.678 196.363 136.262 190.82C138.845 185.277 145.14 178.25 148.832 174.924C152.524 171.598 160.66 161.621 164.352 164.204C168.044 166.788 165.836 170.49 163.619 171.964C161.402 173.439 152.524 182.299 148.465 187.86C144.407 193.422 141.814 207.449 144.031 207.815C146.248 208.181 152.9 187.494 156.592 183.05C160.284 178.607 175.072 166.422 178.397 166.055C181.723 165.689 182.099 170.856 179.139 173.449C176.18 176.042 166.203 187.118 162.877 193.77C159.551 200.421 158.067 212.625 160.998 209.666C163.929 206.706 168.758 194.512 172.826 190.444C176.894 186.376 189.089 173.449 192.048 174.924C195.007 176.399 194.265 180.1 191.682 182.684C189.098 185.268 179.111 199.313 176.528 206.706C173.944 214.1 170.975 234.797 172.46 231.838C173.944 228.878 178.745 213.734 181.328 207.411C183.912 201.088 189.089 198.167 189.831 201.126C190.573 204.085 189.089 205.56 187.238 212.212C185.387 218.863 185.359 236.638 179.853 246.587C174.348 256.537 152.872 283.547 149.912 290.94C146.953 298.334 140.301 314.596 140.301 314.596" stroke="#3E3E3E" stroke-opacity="0.88" stroke-linecap="round" stroke-linejoin="round"/>
<path d="M317.647 296.925C317.647 296.925 312.104 278.821 312.104 249.951C312.104 221.081 307.294 200.055 301.384 190.82C295.475 181.585 289.923 177.883 287.339 177.883C284.756 177.883 286.597 181.209 290.299 186.01C294 190.81 297.317 193.403 298.754 199.313C300.191 205.222 300.238 212.625 298.388 211.883C296.537 211.141 293.587 196.363 290.994 190.82C288.401 185.277 282.125 178.25 278.433 174.924C274.741 171.598 266.605 161.621 262.903 164.204C259.202 166.788 261.428 170.49 263.646 171.964C265.863 173.439 274.731 182.299 278.799 187.86C282.867 193.422 285.451 207.449 283.234 207.815C281.017 208.181 274.365 187.494 270.673 183.05C266.981 178.607 252.184 166.422 248.858 166.055C245.532 165.689 245.166 170.856 248.125 173.449C251.085 176.042 261.062 187.118 264.388 193.77C267.714 200.421 269.188 212.625 266.267 209.666C263.345 206.706 258.507 194.512 254.448 190.444C250.389 186.376 238.186 173.449 235.226 174.924C232.267 176.399 233.009 180.1 235.593 182.684C238.176 185.268 248.163 199.313 250.746 206.706C253.33 214.1 256.289 234.797 254.814 231.838C253.339 228.878 248.529 213.734 245.946 207.411C243.362 201.088 238.186 198.167 237.443 201.126C236.701 204.085 238.186 205.56 240.027 212.212C241.868 218.863 241.906 236.638 247.421 246.587C252.935 256.537 274.403 283.547 277.362 290.94C280.321 298.334 286.973 314.596 286.973 314.596" fill="white"/>
<path d="M317.647 296.925C317.647 296.925 312.104 278.821 312.104 249.951C312.104 221.081 307.294 200.055 301.384 190.82C295.475 181.585 289.923 177.883 287.339 177.883C284.756 177.883 286.597 181.209 290.299 186.01C294 190.81 297.317 193.403 298.754 199.313C300.191 205.222 300.238 212.625 298.388 211.883C296.537 211.141 293.587 196.363 290.994 190.82C288.401 185.277 282.125 178.25 278.433 174.924C274.741 171.598 266.605 161.621 262.903 164.204C259.202 166.788 261.428 170.49 263.646 171.964C265.863 173.439 274.731 182.299 278.799 187.86C282.867 193.422 285.451 207.449 283.234 207.815C281.017 208.181 274.365 187.494 270.673 183.05C266.981 178.607 252.184 166.422 248.858 166.055C245.532 165.689 245.166 170.856 248.125 173.449C251.085 176.042 261.062 187.118 264.388 193.77C267.714 200.421 269.188 212.625 266.267 209.666C263.345 206.706 258.507 194.512 254.448 190.444C250.389 186.376 238.186 173.449 235.226 174.924C232.267 176.399 233.009 180.1 235.593 182.684C238.176 185.268 248.163 199.313 250.746 206.706C253.33 214.1 256.289 234.797 254.814 231.838C253.339 228.878 248.529 213.734 245.946 207.411C243.362 201.088 238.186 198.167 237.443 201.126C236.701 204.085 238.186 205.56 240.027 212.212C241.868 218.863 241.906 236.638 247.421 246.587C252.935 256.537 274.403 283.547 277.362 290.94C280.321 298.334 286.973 314.596 286.973 314.596" stroke="#3E3E3E" stroke-opacity="0.88" stroke-linecap="round" stroke-linejoin="round"/>
<path d="M86.2625 353.294H142.631C143.364 350.475 144.285 347.319 145.45 343.899C149.884 330.615 164.239 314.005 164.239 314.005C153.951 304.943 141.861 298.162 128.765 294.107C107.156 287.455 91.3356 289.409 91.3356 289.409C94.2481 301.417 94.5683 313.908 92.2751 326.049C89.4567 339.728 87.5777 348.38 86.2625 353.294Z" fill="#FF6741" stroke="#FFCE89" stroke-linecap="round" stroke-linejoin="round"/>
<path d="M284.305 353.293H342.872C340.993 348.427 336.935 337.858 332.876 327.289C327.333 312.896 329.55 293.524 327.333 293.524C325.116 293.524 300.21 291.861 288.035 295.732C275.859 299.602 262.011 310.679 262.011 310.679C268.28 317.962 273.669 325.959 278.067 334.504C280.894 340.494 282.988 346.802 284.305 353.293Z" fill="#FF6741" stroke="#FFCEC9" stroke-linecap="round" stroke-linejoin="round"/>
<path d="M121.474 300.871C121.07 299.273 115.057 301.679 115.057 301.679C115.057 301.679 117.068 294.069 113.864 294.069C110.661 294.069 110.257 299.706 110.257 299.706C110.257 299.706 104.244 297.31 104.244 300.908C104.244 304.506 108.246 304.441 108.246 304.441C108.246 304.441 103.436 310.453 107.044 311.646C110.651 312.84 113.047 308.443 113.047 308.443C113.047 308.443 115.452 312.454 118.684 310.848C121.916 309.241 119.482 305.643 119.482 305.643C119.482 305.643 121.869 302.477 121.474 300.871ZM113.46 306.883C113.158 306.816 112.881 306.665 112.661 306.447C112.44 306.229 112.286 305.953 112.216 305.651C112.146 305.35 112.162 305.034 112.263 304.741C112.365 304.448 112.546 304.19 112.788 303.996C113.03 303.802 113.321 303.681 113.629 303.645C113.937 303.61 114.248 303.662 114.527 303.796C114.807 303.929 115.043 304.139 115.208 304.401C115.373 304.664 115.461 304.967 115.461 305.277C115.394 305.748 115.149 306.177 114.778 306.475C114.406 306.773 113.935 306.919 113.46 306.883ZM130.286 345.778C129.882 344.181 123.87 346.586 123.87 346.586C123.87 346.586 125.88 338.976 122.667 338.976C119.454 338.976 119.069 344.613 119.069 344.613C119.069 344.613 113.056 342.208 113.056 345.806C113.056 349.404 117.068 349.414 117.068 349.414C117.068 349.414 112.258 355.426 115.865 356.629C119.473 357.831 121.869 353.416 121.869 353.416C121.869 353.416 124.274 357.427 127.506 355.821C130.737 354.214 128.304 350.616 128.304 350.616C128.304 350.616 130.681 347.337 130.286 345.778ZM122.273 351.79C121.97 351.723 121.693 351.572 121.473 351.354C121.253 351.136 121.099 350.86 121.028 350.558C120.958 350.257 120.975 349.941 121.076 349.648C121.177 349.356 121.359 349.097 121.6 348.903C121.842 348.71 122.133 348.588 122.441 348.552C122.749 348.517 123.06 348.569 123.34 348.703C123.619 348.837 123.855 349.047 124.02 349.309C124.186 349.571 124.273 349.874 124.274 350.184C124.206 350.652 123.96 351.075 123.587 351.366C123.214 351.657 122.743 351.792 122.273 351.743V351.79ZM95.0277 351.79C94.6237 350.184 88.6204 352.589 88.6204 352.589C88.6204 352.589 90.6215 344.979 87.4179 344.979C84.2143 344.979 83.8103 350.616 83.8103 350.616C83.8103 350.616 77.7976 348.211 77.7976 351.819C77.7976 355.426 81.8092 355.426 81.8092 355.426C81.8092 355.426 76.9991 361.429 80.6067 362.632C84.2143 363.835 86.6099 359.428 86.6099 359.428C86.6099 359.428 89.015 363.431 92.2468 361.833C95.4786 360.236 93.0548 356.629 93.0548 356.629C93.0548 356.629 95.4317 353.341 95.0371 351.743L95.0277 351.79ZM87.0139 357.794C86.7111 357.726 86.4336 357.575 86.2133 357.356C85.993 357.138 85.8391 356.862 85.7691 356.559C85.6992 356.257 85.7162 355.941 85.8182 355.648C85.9202 355.355 86.1029 355.097 86.3453 354.904C86.5878 354.71 86.88 354.589 87.1883 354.555C87.4966 354.52 87.8083 354.574 88.0875 354.709C88.3667 354.844 88.6019 355.056 88.766 355.319C88.9301 355.582 89.0165 355.886 89.015 356.197C88.945 356.661 88.6993 357.081 88.3287 357.369C87.958 357.658 87.4907 357.793 87.0233 357.747L87.0139 357.794ZM138.685 320.543H143.091C146.295 320.543 148.296 324.151 148.296 324.151C141.494 326.105 138.695 320.496 138.695 320.496L138.685 320.543ZM134.279 351.79H138.685C141.889 351.79 143.89 355.398 143.89 355.398C137.088 357.352 134.289 351.743 134.289 351.743L134.279 351.79ZM95.8356 345.778H100.242C103.445 345.778 105.447 349.385 105.447 349.385C98.6353 351.339 95.8356 345.778 95.8356 345.778ZM117.134 317.509L119.708 321.088C121.587 323.7 119.811 327.42 119.811 327.42C114.212 323.014 117.134 317.462 117.134 317.462V317.509ZM95.0934 329.478L97.1039 325.56C98.5789 322.742 102.694 322.573 102.694 322.573C101.313 329.543 95.0934 329.478 95.0934 329.478Z" fill="white"/>
<path d="M310.131 308.48C309.727 306.883 303.714 309.288 303.714 309.288C303.714 309.288 305.725 301.679 302.521 301.679C299.318 301.679 298.914 307.315 298.914 307.315C298.914 307.315 292.901 304.92 292.901 308.518C292.901 312.116 296.913 312.126 296.913 312.126C296.913 312.126 292.102 318.138 295.71 319.341C299.318 320.543 301.713 316.128 301.713 316.128C301.713 316.128 304.118 320.139 307.35 318.533C310.582 316.926 308.149 313.328 308.149 313.328C308.149 313.328 310.526 310.078 310.131 308.48ZM302.117 314.493C301.815 314.426 301.538 314.274 301.317 314.057C301.097 313.839 300.943 313.563 300.873 313.261C300.803 312.959 300.819 312.644 300.92 312.351C301.022 312.058 301.203 311.8 301.445 311.606C301.687 311.412 301.978 311.291 302.286 311.255C302.593 311.219 302.905 311.272 303.184 311.405C303.464 311.539 303.7 311.749 303.865 312.011C304.03 312.273 304.118 312.577 304.118 312.887C304.062 313.363 303.82 313.798 303.446 314.099C303.072 314.399 302.595 314.541 302.117 314.493V314.493ZM328.949 339.728C328.554 338.121 322.542 340.526 322.542 340.526C322.542 340.526 324.543 332.916 321.339 332.916C318.135 332.916 317.741 338.553 317.741 338.553C317.741 338.553 311.728 336.148 311.728 339.756C311.728 343.363 315.73 343.363 315.73 343.363C315.73 343.363 310.93 349.367 314.537 350.569C318.145 351.772 320.54 347.366 320.54 347.366C320.54 347.366 322.946 351.368 326.177 349.771C329.409 348.173 326.976 344.566 326.976 344.566C326.976 344.566 329.353 341.325 328.949 339.728ZM320.944 345.778C320.642 345.71 320.364 345.559 320.144 345.34C319.924 345.122 319.77 344.846 319.7 344.543C319.63 344.241 319.647 343.925 319.749 343.633C319.851 343.34 320.033 343.081 320.276 342.888C320.518 342.694 320.811 342.573 321.119 342.539C321.427 342.505 321.739 342.558 322.018 342.693C322.297 342.828 322.532 343.04 322.697 343.303C322.861 343.566 322.947 343.87 322.946 344.181C322.887 344.655 322.644 345.088 322.27 345.387C321.896 345.685 321.42 345.826 320.944 345.778ZM308.928 351.79C308.524 350.184 302.521 352.589 302.521 352.589C302.521 352.589 304.522 344.979 301.319 344.979C298.115 344.979 297.711 350.616 297.711 350.616C297.711 350.616 291.698 348.211 291.698 351.819C291.698 355.426 295.71 355.426 295.71 355.426C295.71 355.426 290.9 361.43 294.507 362.632C298.115 363.835 300.511 359.428 300.511 359.428C300.511 359.428 302.916 363.431 306.148 361.834C309.379 360.236 306.956 356.629 306.956 356.629C306.956 356.629 309.295 353.341 308.928 351.743V351.79ZM300.915 357.794C300.612 357.726 300.334 357.575 300.114 357.356C299.894 357.138 299.74 356.862 299.67 356.559C299.6 356.257 299.617 355.941 299.719 355.648C299.821 355.356 300.004 355.097 300.246 354.904C300.489 354.71 300.781 354.589 301.089 354.555C301.397 354.521 301.709 354.574 301.988 354.709C302.267 354.844 302.503 355.056 302.667 355.319C302.831 355.582 302.917 355.886 302.916 356.197C302.846 356.663 302.599 357.084 302.226 357.373C301.853 357.662 301.384 357.796 300.915 357.747V357.794ZM327.352 328.153H331.758C334.961 328.153 336.963 331.761 336.963 331.761C330.151 333.715 327.352 328.106 327.352 328.106V328.153ZM280.086 350.945H284.493C287.696 350.945 289.697 354.543 289.697 354.543C282.886 356.554 280.086 350.945 280.086 350.945ZM305.791 325.109L308.365 328.689C310.244 331.3 308.468 335.021 308.468 335.021C302.869 330.624 305.791 325.109 305.791 325.109ZM331.842 347.506L334.407 351.086C336.286 353.688 334.51 357.418 334.51 357.418C328.911 353.049 331.842 347.506 331.842 347.506ZM283.713 337.088L285.723 333.17C287.198 330.352 291.36 330.182 291.36 330.182C289.97 337.153 283.703 337.088 283.703 337.088H283.713Z" fill="white"/>
</svg>
