<svg id="Capa_1" enable-background="new 0 0 512 512" height="512" viewBox="0 0 512 512" width="512" xmlns="http://www.w3.org/2000/svg"><g><g><path d="m226.705 63.059h58.589v60.61h-58.589z" fill="#e49542"/></g><g><circle cx="256" cy="312.569" fill="#f1d333" r="191.931"/></g><g><path d="m375.431 162.328c26.091 32.778 41.69 74.281 41.69 119.431 0 106-85.93 191.931-191.931 191.931-45.151 0-86.653-15.599-119.431-41.69 35.163 44.176 89.391 72.5 150.241 72.5 106 0 191.931-85.93 191.931-191.931 0-60.85-28.324-115.078-72.5-150.241z" fill="#f1d333"/></g><g><circle cx="256" cy="312.569" fill="#ecf4ff" r="159.606"/></g><g><path d="m352.632 185.632c20.483 26.842 32.669 60.338 32.669 96.632 0 88.006-71.599 159.606-159.606 159.606-36.294 0-69.79-12.186-96.632-32.668 29.185 38.245 75.224 62.973 126.937 62.973 88.007 0 159.606-71.599 159.606-159.606 0-51.713-24.729-97.752-62.974-126.937z" fill="#cbe2ff"/></g><g><path d="m304.879 208.298-24.183 115.848-24.696-11.577-24.696-11.576z" fill="#dd5790"/></g><g><path d="m207.121 416.84 24.183-115.847 24.696 11.576 24.696 11.577z" fill="#dd5790"/></g><g><circle cx="256" cy="312.569" fill="#4073c8" r="32.325"/></g><g><path d="m443.219 243.72c-1.431-3.888-5.741-5.879-9.629-4.448-3.887 1.43-5.879 5.741-4.448 9.628 7.491 20.354 11.289 41.776 11.289 63.671-.001 101.695-82.736 184.429-184.431 184.429s-184.43-82.734-184.43-184.43c0-37.819 11.363-74.162 32.859-105.101 2.364-3.401 1.522-8.075-1.879-10.438-3.402-2.363-8.076-1.522-10.439 1.88-23.251 33.463-35.541 72.766-35.541 113.659 0 109.966 89.464 199.43 199.43 199.43s199.43-89.464 199.43-199.43c0-23.668-4.108-46.833-12.211-68.85z"/><path d="m126.036 181.722c34.782-34.553 80.938-53.582 129.964-53.582 64.775 0 125.586 34.643 158.701 90.409 1.402 2.361 3.896 3.672 6.456 3.672 1.302 0 2.621-.339 3.822-1.052 3.562-2.115 4.734-6.717 2.619-10.278-17.36-29.234-42.066-53.723-71.448-70.817-19.631-11.421-41.093-19.328-63.355-23.495v-24.807h9.672c15.276 0 27.704-12.428 27.704-27.703v-12.122c0-18.105-9.677-32.559-27.986-41.799-18.15-9.159-38.345-10.148-46.185-10.148s-28.035.989-46.185 10.148c-18.309 9.24-27.986 23.693-27.986 41.799v12.122c0 15.275 12.428 27.703 27.704 27.703h9.672v24.752c-39.029 7.246-74.982 25.986-103.741 54.555-2.938 2.92-2.955 7.668-.035 10.607s7.669 2.956 10.607.036zm83.497-104.95c-7.005 0-12.704-5.698-12.704-12.703v-12.122c0-12.238 6.643-21.796 19.744-28.407 10.596-5.348 25.335-8.54 39.427-8.54 20.466 0 59.171 7.722 59.171 36.947v12.122c0 7.005-5.699 12.703-12.704 12.703h-9.672v-13.713c0-4.143-3.358-7.5-7.5-7.5h-58.59c-4.142 0-7.5 3.357-7.5 7.5v13.714h-9.672zm24.672-6.213h43.59v43.796c-7.218-.791-14.492-1.215-21.795-1.215-7.334 0-14.605.408-21.795 1.186z"/><path d="m405.601 368.726c3.943 1.275 8.17-.886 9.445-4.826 5.351-16.535 8.064-33.805 8.064-51.329 0-92.145-74.965-167.11-167.11-167.11s-167.11 74.965-167.11 167.109c0 92.139 74.965 167.1 167.11 167.1 29.572 0 58.653-7.862 84.098-22.736 24.682-14.429 45.406-35.07 59.932-59.693 2.105-3.567.919-8.166-2.649-10.271-3.566-2.102-8.166-.917-10.27 2.649-5.327 9.029-11.536 17.381-18.461 24.992l-8.773-8.773c-2.929-2.928-7.678-2.928-10.606 0-2.929 2.93-2.929 7.678 0 10.607l8.751 8.751c-25.834 23.322-59.241 37.495-94.52 39.265v-12.489c0-4.143-3.358-7.5-7.5-7.5s-7.5 3.357-7.5 7.5v12.512c-36.296-1.771-69.291-16.321-94.569-39.238l8.8-8.8c2.929-2.93 2.929-7.678 0-10.607-2.929-2.928-7.678-2.928-10.606 0l-8.802 8.802c-22.922-25.277-37.475-58.273-39.247-94.57h12.521c4.142 0 7.5-3.357 7.5-7.5s-3.358-7.5-7.5-7.5h-12.521c1.771-36.298 16.324-69.294 39.244-94.573l8.804 8.804c1.464 1.464 3.384 2.196 5.303 2.196s3.839-.732 5.303-2.196c2.929-2.93 2.929-7.678 0-10.607l-8.803-8.803c25.278-22.92 58.275-37.472 94.573-39.244v12.521c0 4.143 3.358 7.5 7.5 7.5s7.5-3.357 7.5-7.5v-12.521c36.298 1.771 69.294 16.323 94.573 39.244l-8.803 8.803c-2.929 2.93-2.929 7.678 0 10.607 1.464 1.464 3.384 2.196 5.303 2.196s3.839-.732 5.303-2.196l8.804-8.804c22.92 25.278 37.473 58.274 39.244 94.573h-12.521c-4.142 0-7.5 3.357-7.5 7.5s3.358 7.5 7.5 7.5h12.518c-.652 13.375-3.043 26.534-7.146 39.211-1.278 3.94.883 8.168 4.824 9.444z"/><path d="m308.063 201.509c-3.146-1.474-6.896-.594-9.058 2.128l-56.859 71.622c-9.456 3.51-17.597 10.574-22.207 20.406-4.474 9.545-4.994 20.248-1.483 30.174l-18.679 89.467c-.71 3.403 1.011 6.849 4.158 8.324 1.022.479 2.107.709 3.181.709 2.233 0 4.417-.998 5.877-2.837l56.83-71.592c9.872-3.653 17.763-10.897 22.236-20.438 4.611-9.837 4.832-20.621 1.476-30.138l18.686-89.502c.711-3.402-1.01-6.848-4.158-8.323zm-35.16 75c-3.282-1.538-6.67-2.578-10.08-3.17l28.244-35.578-9.283 44.464c-2.635-2.242-5.601-4.179-8.881-5.716zm-42.69 66.418c2.664 2.256 5.637 4.181 8.883 5.702 3.247 1.522 6.629 2.579 10.068 3.183l-28.231 35.564zm48.265-19.822c-2.814 6.005-7.799 10.554-14.035 12.809s-12.977 1.947-18.98-.867c-6.004-2.814-10.553-7.799-12.808-14.034s-1.947-12.977.867-18.98c4.218-8.999 13.179-14.287 22.516-14.287 3.524 0 7.103.754 10.499 2.346 12.395 5.809 17.752 20.62 11.941 33.013z"/></g></g></svg>