<svg width="154" height="158" viewBox="0 0 154 158" fill="none" xmlns="http://www.w3.org/2000/svg">
<path fill-rule="evenodd" clip-rule="evenodd" d="M141.936 108.622L108.923 124.006L112.968 113.44L129.718 105.635L122.551 103.156C122.398 103.123 122.246 103.082 122.094 103.031L117.94 101.63C115.847 100.925 114.777 98.6753 115.551 96.6063C116.283 94.651 118.399 93.5565 120.396 94.0375L120.426 93.9599L132.578 98.1637L125.023 81.9512L129.068 71.3852L143.958 103.34C144.876 105.309 143.971 107.674 141.936 108.622ZM63.6537 74.8926C61.5603 74.187 59.2358 75.2922 58.4616 77.3612C57.6875 79.4303 58.7569 81.6797 60.8503 82.3854L65.0046 83.7858C67.098 84.4914 69.4226 83.3862 70.1968 81.3171C70.9709 79.2481 69.9014 76.9987 67.808 76.293L63.6537 74.8926ZM2.00618 58.3303C2.78032 56.2613 5.10491 55.156 7.19831 55.8617L11.3526 57.2621C13.446 57.9678 14.5155 60.2171 13.7413 62.2862C12.9672 64.3553 10.6426 65.4605 8.5492 64.7548L4.39492 63.3544C2.30152 62.6487 1.23204 60.3994 2.00618 58.3303ZM16.2784 63.1417C17.0526 61.0726 19.3772 59.9674 21.4706 60.6731L25.6249 62.0735C27.7183 62.7792 28.7877 65.0285 28.0136 67.0976C27.2395 69.1666 24.9149 70.2719 22.8215 69.5662L18.6672 68.1658C16.5738 67.4601 15.5043 65.2108 16.2784 63.1417ZM35.7429 65.4844C33.6495 64.7787 31.3249 65.8839 30.5507 67.953C29.7766 70.022 30.8461 72.2714 32.9395 72.9771L37.0937 74.3775C39.1871 75.0832 41.5117 73.9779 42.2859 71.9089C43.06 69.8398 41.9905 67.5904 39.8971 66.8848L35.7429 65.4844ZM44.189 72.5506C44.9632 70.4815 47.2877 69.3763 49.3811 70.0819L53.5354 71.4823C55.6288 72.188 56.6983 74.4374 55.9242 76.5064C55.15 78.5755 52.8254 79.6807 50.732 78.9751L46.5778 77.5747C44.4844 76.869 43.4149 74.6196 44.189 72.5506ZM72.7341 82.1725C73.5083 80.1034 75.8329 78.9982 77.9263 79.7039L82.0805 81.1043C84.1739 81.8099 85.2434 84.0593 84.4693 86.1284C83.6951 88.1974 81.3705 89.3027 79.2771 88.597L75.1229 87.1966C73.0295 86.4909 71.96 84.2416 72.7341 82.1725ZM92.1982 84.5156C90.1048 83.8099 87.7803 84.9151 87.0061 86.9842C86.232 89.0533 87.3015 91.3026 89.3948 92.0083L93.5491 93.4087C95.6425 94.1144 97.9671 93.0091 98.7413 90.9401C99.5154 88.871 98.4459 86.6216 96.3525 85.916L92.1982 84.5156ZM100.644 91.5814C101.418 89.5123 103.743 88.4071 105.836 89.1127L109.991 90.5131C112.084 91.2188 113.154 93.4682 112.379 95.5372C111.605 97.6063 109.281 98.7115 107.187 98.0059L103.033 96.6055C100.94 95.8998 99.8701 93.6504 100.644 91.5814Z" fill="white"/>
</svg>
