<svg width="186" height="96" viewBox="0 0 186 96" fill="none" xmlns="http://www.w3.org/2000/svg">
<path d="M2 94.0245C18.2427 70.5072 61.4665 29.3519 104.42 52.8692C158.111 82.2658 76.9857 112.567 62.9103 82.7181C48.8349 52.8692 139.612 12.6185 173 19.8546" stroke="white"/>
<path d="M4 91.0245C20.2427 67.5072 63.4665 26.3519 106.42 49.8692C160.111 79.2658 78.9857 109.567 64.9103 79.7181C50.8349 49.8692 141.612 9.61846 175 16.8546" stroke="white"/>
<path d="M1 89.0245C17.3377 65.5072 60.8142 24.3519 104.018 47.8692C158.024 77.2658 76.4242 107.567 62.2665 77.7181C48.1088 47.8692 139.417 7.61846 173 14.8546" stroke="white"/>
<path d="M139 2C143.037 2.90141 188.785 18.6761 184.748 19.5775C180.711 20.4789 169.947 17.3239 153.352 34" stroke="white"/>
<path d="M135 1C139.037 1.90141 184.785 17.6761 180.748 18.5775C176.711 19.4789 165.947 16.3239 149.352 33" stroke="white"/>
</svg>
