<svg width="188" height="134" viewBox="0 0 188 134" fill="none" xmlns="http://www.w3.org/2000/svg">
<path fill-rule="evenodd" clip-rule="evenodd" d="M164.036 31.4116L177.568 22.8438L169.842 49.6245C169.194 51.8703 170.284 54.1567 172.276 54.7313C174.267 55.3059 176.407 53.9511 177.055 51.7053L187.613 15.1073C188.261 12.8615 187.172 10.5751 185.18 10.0005L152.723 0.636935C150.732 0.0623446 148.592 1.41715 147.944 3.66298C147.296 5.90882 148.385 8.19522 150.377 8.76982L174.127 15.6216L152.578 29.2652L152.622 29.3566L151.49 30.0866C149.633 31.2838 148.91 33.8655 149.874 35.853C150.839 37.8405 153.126 38.4812 154.982 37.284L163.642 31.6999C163.78 31.6112 163.911 31.5148 164.036 31.4116ZM1.03079 131.83C0.0663651 129.843 0.78963 127.261 2.64625 126.064L11.3061 120.48C13.1627 119.283 15.4496 119.923 16.414 121.911C17.3784 123.898 16.6552 126.48 14.7985 127.677L6.13874 133.261C4.28212 134.459 1.99522 133.818 1.03079 131.83ZM19.7404 119.766C18.7759 117.779 19.4992 115.197 21.3558 114L30.0156 108.416C31.8722 107.219 34.1592 107.86 35.1236 109.847C36.088 111.835 35.3647 114.416 33.5081 115.613L24.8483 121.197C22.9917 122.395 20.7048 121.754 19.7404 119.766ZM40.0652 101.936C38.2086 103.133 37.4853 105.715 38.4497 107.702C39.4142 109.69 41.7011 110.33 43.5577 109.133L52.2175 103.549C54.0741 102.352 54.7974 99.7701 53.8329 97.7826C52.8685 95.7951 50.5816 95.1544 48.725 96.3516L40.0652 101.936ZM56.3277 96.1743C55.3633 94.1868 56.0866 91.6051 57.9432 90.4079L66.603 84.8239C68.4596 83.6267 70.7465 84.2674 71.711 86.2549C72.6754 88.2424 71.9521 90.8241 70.0955 92.0213L61.4357 97.6053C59.5791 98.8025 57.2922 98.1618 56.3277 96.1743ZM76.6521 78.3433C74.7955 79.5405 74.0722 82.1222 75.0367 84.1097C76.0011 86.0972 78.288 86.7379 80.1446 85.5407L88.8044 79.9566C90.661 78.7594 91.3843 76.1777 90.4199 74.1902C89.4555 72.2027 87.1685 71.562 85.3119 72.7592L76.6521 78.3433ZM93.7462 72.0454C92.7818 70.0579 93.5051 67.4762 95.3617 66.279L104.021 60.6949C105.878 59.4977 108.165 60.1384 109.129 62.1259C110.094 64.1134 109.371 66.6951 107.514 67.8923L98.8542 73.4764C96.9976 74.6735 94.7107 74.0329 93.7462 72.0454ZM114.071 54.2156C112.214 55.4127 111.491 57.9944 112.456 59.982C113.42 61.9695 115.707 62.6101 117.564 61.4129L126.223 55.8289C128.08 54.6317 128.803 52.05 127.839 50.0625C126.874 48.075 124.587 47.4343 122.731 48.6315L114.071 54.2156ZM130.333 48.4537C129.369 46.4662 130.092 43.8845 131.949 42.6873L140.608 37.1033C142.465 35.9061 144.752 36.5467 145.716 38.5342C146.681 40.5217 145.958 43.1035 144.101 44.3006L135.441 49.8847C133.585 51.0819 131.298 50.4412 130.333 48.4537Z" fill="white"/>
</svg>
