<svg width="15" height="11" viewBox="0 0 15 11" fill="none" xmlns="http://www.w3.org/2000/svg">
<path d="M7.49982 7.5C8.60439 7.5 9.49982 6.60457 9.49982 5.5C9.49982 4.39543 8.60439 3.5 7.49982 3.5C6.39525 3.5 5.49982 4.39543 5.49982 5.5C5.49982 6.60457 6.39525 7.5 7.49982 7.5Z" fill="#FF0000"/>
<path d="M14.9698 5.33C14.3817 3.80882 13.3608 2.49331 12.0332 1.54604C10.7056 0.598778 9.12953 0.0612865 7.49979 0C5.87005 0.0612865 4.29398 0.598778 2.96639 1.54604C1.6388 2.49331 0.617868 3.80882 0.0297873 5.33C-0.00992909 5.43985 -0.00992909 5.56015 0.0297873 5.67C0.617868 7.19118 1.6388 8.50669 2.96639 9.45396C4.29398 10.4012 5.87005 10.9387 7.49979 11C9.12953 10.9387 10.7056 10.4012 12.0332 9.45396C13.3608 8.50669 14.3817 7.19118 14.9698 5.67C15.0095 5.56015 15.0095 5.43985 14.9698 5.33V5.33ZM7.49979 8.75C6.857 8.75 6.22864 8.55939 5.69418 8.20228C5.15972 7.84516 4.74316 7.33758 4.49718 6.74372C4.25119 6.14986 4.18683 5.49639 4.31224 4.86596C4.43764 4.23552 4.74717 3.65642 5.20169 3.2019C5.65621 2.74738 6.23531 2.43785 6.86574 2.31245C7.49618 2.18705 8.14965 2.25141 8.74351 2.49739C9.33737 2.74338 9.84495 3.15994 10.2021 3.6944C10.5592 4.22886 10.7498 4.85721 10.7498 5.5C10.7485 6.36155 10.4056 7.18743 9.79642 7.79664C9.18722 8.40584 8.36133 8.74868 7.49979 8.75V8.75Z" fill="#FF0000"/>
</svg>
