<svg width="30" height="30" viewBox="0 0 30 30" fill="none" xmlns="http://www.w3.org/2000/svg">
<path d="M15 0C6.72 0 0 6.72 0 15C0 23.28 6.72 30 15 30C23.28 30 30 23.28 30 15C30 6.72 23.28 0 15 0ZM15 4.5C17.49 4.5 19.5 6.51 19.5 9C19.5 11.49 17.49 13.5 15 13.5C12.51 13.5 10.5 11.49 10.5 9C10.5 6.51 12.51 4.5 15 4.5ZM15 25.8C13.2178 25.8 11.4633 25.359 9.89292 24.5162C8.32256 23.6734 6.98517 22.4552 6 20.97C6.045 17.985 12 16.35 15 16.35C17.985 16.35 23.955 17.985 24 20.97C23.0148 22.4552 21.6774 23.6734 20.1071 24.5162C18.5367 25.359 16.7822 25.8 15 25.8Z" fill="#FF885A"/>
</svg>
