<svg width="709" height="782" viewBox="0 0 709 782" fill="none" xmlns="http://www.w3.org/2000/svg">
<g clip-path="url(#clip0)">
<path fill-rule="evenodd" clip-rule="evenodd" d="M371.881 592.111C345.043 599.658 326.264 572.672 299.725 574.212C286.498 574.98 276.725 593.186 263.537 598.4C249.457 603.966 235.346 602.146 221.035 605.321C199.337 610.136 165.701 639.306 156.56 622.14C145.08 600.578 196.329 565.668 187.562 542.456C179.583 521.33 123.331 550.329 120.598 526.923C118.014 504.799 160.177 494.925 180.098 478.552C190.486 470.013 207.828 465.02 210.749 452.826C216.825 427.466 186.143 403.051 203.437 381.137C217.179 363.728 240.083 403.87 258.666 392.114C287.06 374.153 286.407 308.143 316.095 309.87C346.226 311.622 321.175 369.29 330.636 396.299C334.422 407.104 354.503 406.881 354.364 419.112C354.184 435.085 319.443 455.384 329.855 465.408C350.47 485.256 397.624 462.467 419.086 481.426C432.69 493.444 424.556 521.462 416.006 541.511C407.472 561.521 392.338 586.358 371.881 592.111Z" fill="#4ED4FF" fill-opacity="0.5"/>
<path fill-rule="evenodd" clip-rule="evenodd" d="M195.103 198.806C209.98 206.882 209.267 230.17 221.936 241.394C228.251 246.988 238.998 241.48 246.827 244.626C255.185 247.984 261.011 255.394 268.652 260.166C280.236 267.398 305.676 266.747 303.939 280.286C301.758 297.29 266.284 293.072 262.292 309.745C258.659 324.92 294.384 334.644 287.566 348.68C281.122 361.947 258.433 348.176 243.677 348.067C235.982 348.012 226.33 342.857 220.79 348.193C209.269 359.293 214.887 386.588 199.422 390.702C187.136 393.971 190.497 361.616 177.945 359.593C158.767 356.502 136.311 392.879 123.327 378.438C110.149 363.782 141.487 343.65 146.469 324.586C148.463 316.959 139.201 307.951 143.481 301.329C149.069 292.68 171.956 297.38 170.649 287.167C168.062 266.946 138.639 257.964 135.358 237.843C133.278 225.09 146.657 213.474 157.479 206.403C168.28 199.345 183.763 192.65 195.103 198.806Z" fill="#5FFFF5" fill-opacity="0.5"/>
<path fill-rule="evenodd" clip-rule="evenodd" d="M289.509 483.096C287.736 464.745 307.522 455.685 309.628 438.232C310.678 429.533 299.959 421.04 298.107 411.846C296.13 402.03 298.97 393.06 298.578 383.373C297.983 368.688 282.917 343.378 295.174 339.441C310.569 334.496 327.312 371.941 343.465 368.956C358.166 366.238 345.862 326.23 361.434 327.194C376.153 328.105 377.647 356.702 385.982 371.586C390.328 379.348 391.55 391.219 399.153 394.549C414.967 401.476 434.472 384.368 446.725 398.191C456.459 409.175 427.616 419.378 433.1 432.85C441.477 453.433 484.567 460.744 479.963 479.863C475.291 499.268 440.647 476.207 421.939 479.199C414.455 480.397 412.246 493.491 404.293 491.968C393.905 489.979 384.749 464.991 376.997 470.592C361.648 481.682 370.972 515.043 356.103 526.789C346.677 534.234 329.373 525.657 317.31 517.742C305.271 509.843 290.86 497.083 289.509 483.096Z" fill="#5FFFF5" fill-opacity="0.5"/>
<path d="M695.274 65.6584C685.695 62.3012 691.69 61.5298 677.136 53.6132C662.532 53.8868 648.789 58.0921 638.125 61.2545C637.478 61.4464 625.543 68.0937 610.932 77.5631C618.613 81.4353 617.142 80.2438 624.728 86.5225C627.313 89.3512 628.095 92.6473 627.661 103.171C627.99 109.911 635.601 100.029 639.7 96.6792C641.427 95.2684 643.917 86.4094 639.562 80.6956C635.208 74.9817 633.751 73.1772 630.352 70.8946C628.002 67.5886 629.105 67.4392 632.707 68.3271C644.067 74.3088 650.096 78.2312 659.566 87.3526C673.833 92.8104 686.571 85.5083 676.872 80.5543C667.175 75.6006 663.517 72.7873 650.395 61.8659C646.365 57.0278 649.338 58.381 652.403 59.876C663.601 65.1557 668.088 67.5343 678.93 73.9954C690.552 77.7746 704.854 69.0158 695.274 65.6584Z" fill="#FFCE89"/>
<path fill-rule="evenodd" clip-rule="evenodd" d="M495.403 93.085C501.443 88.4052 505.617 85.1706 507.118 83.985C529.713 69.7886 573.82 46.8904 597.418 45.2789C621.015 43.6672 694.047 36.722 701.44 31.667C708.008 31.4347 708.788 33.1586 707.82 37.7388C705.231 48.8513 689.257 51.0829 666.572 54.2523C662.614 54.8051 658.453 55.3865 654.123 56.0487C643.606 59.0038 637.599 61.2047 626.25 68.5272C615.773 75.6672 610.401 77.1984 605.324 78.6451C603.845 79.0663 602.392 79.4804 600.846 80.0237L600.877 80.081C602.341 82.7764 604.849 87.3931 625.225 88.934C646.414 89.1135 654.383 91.4486 656.226 95.7647C656.569 101.905 643.91 102.3 628.915 102.768C626.389 102.846 623.798 102.927 621.19 103.038C600.724 106.627 589.663 106.93 570.504 104.873C560.448 103.405 555.085 103.976 546.184 108.161C539.629 114.237 532.054 121.025 523.987 128.254C504.133 146.046 481.293 166.512 463.306 185.637C462.849 187.362 462.316 189.103 461.783 190.846C459.505 198.29 457.226 205.738 460.853 211.939C465.975 220.696 477.075 226.068 487.804 231.26C501.59 237.931 514.761 244.305 513.84 257.179C512.862 270.862 496.424 274.04 479.761 277.261C471.092 278.937 462.362 280.625 455.717 283.81C451 286.069 446.51 288.634 442.034 291.192C435.191 295.101 428.382 298.99 420.85 301.741C415.791 303.59 410.371 304.189 404.978 304.784C398.285 305.524 391.63 306.259 385.748 309.371C378.551 313.18 372.345 321.052 366.333 328.678C356.988 340.535 348.111 351.795 336.704 346.262C326.401 341.264 329.231 327.47 332.062 313.674C334.892 299.879 337.723 286.083 327.425 281.079C312.795 273.969 294.392 281.606 276.586 288.996C256.85 297.185 237.849 305.07 225.531 292.235C214.721 280.97 229.622 270.261 246.138 258.392C258.989 249.158 272.816 239.22 276.269 227.773C278.842 219.246 273.532 210.913 268.222 202.581C262.909 194.244 257.596 185.908 260.183 177.378C262.876 168.504 271.943 164.197 281.185 159.808C288.91 156.14 296.757 152.413 301.103 145.912C307.183 136.818 309.175 125.527 311.141 114.377C313.676 100.007 316.169 85.8695 327.32 76.9673C345.157 62.7263 377.578 56.5126 395.795 70.3098C408.974 80.2902 411.379 96.8434 413.829 113.709C415.639 126.167 417.474 138.795 423.694 149.07C450.689 127.736 479.507 105.403 495.403 93.085Z" fill="url(#paint0_linear)"/>
<path fill-rule="evenodd" clip-rule="evenodd" d="M121.527 216.377C126.298 220.727 129.972 226.54 133.604 232.289C139.467 241.569 145.222 250.677 155.312 253.176C169.261 256.631 185.911 244.707 192.196 231.792C196.125 223.717 193.778 214.778 191.39 205.691C189.538 198.64 187.663 191.501 188.679 184.608C189.406 179.681 192.845 175.49 196.231 171.364C200.281 166.427 204.256 161.584 203.418 155.685C202.613 150.016 197.398 146.475 192.184 142.934C186.974 139.395 181.762 135.857 180.949 130.192C179.858 122.588 185.023 113.222 189.823 104.519C195.993 93.334 201.56 83.2414 192.464 79.384C182.102 74.989 173.471 84.4689 164.506 94.3153C156.418 103.199 148.059 112.38 137.912 111.938C130.769 111.627 128.702 102.802 126.635 93.978C125.344 88.4677 124.054 82.9582 121.527 79.5217V216.377Z" fill="#A818AB" fill-opacity="0.5"/>
<path fill-rule="evenodd" clip-rule="evenodd" d="M647.014 427.678C665.624 449.951 601.191 466.287 591.75 493.727C585.592 511.621 611.744 530.265 605.561 548.15C599.654 565.237 572.576 564.869 562.064 579.582C546.743 601.03 552.722 635.794 531.642 651.626C512.655 665.886 479.172 670.876 461.263 655.285C438.198 635.206 451.15 594.669 435.825 568.211C428.44 555.46 404.683 559.32 398.055 546.16C391.232 532.612 408.921 514.913 402.145 501.343C391.224 479.47 347.452 474.835 350.325 450.559C352.934 428.503 390.814 434.063 411.162 425.133C423.659 419.647 434.78 412.016 447.76 407.797C459.57 403.957 472.899 406.884 484.058 401.435C503.373 392.002 517.455 354.025 536.148 364.636C556.697 376.302 521.683 422.773 542.224 434.453C572.983 451.944 624.331 400.53 647.014 427.678Z" fill="#A818AB" fill-opacity="0.5"/>
<path fill-rule="evenodd" clip-rule="evenodd" d="M475.821 195.257C494.431 217.53 429.997 233.866 420.556 261.306C414.398 279.2 440.551 297.844 434.367 315.729C428.46 332.816 401.382 332.448 390.871 347.161C375.549 368.609 381.528 403.373 360.448 419.205C341.461 433.464 307.978 438.455 290.069 422.864C267.004 402.785 279.956 362.248 264.631 335.79C257.246 323.039 233.49 326.899 226.861 313.739C220.038 300.191 237.727 282.492 230.951 268.922C220.031 247.049 176.258 242.414 179.131 218.138C181.741 196.082 219.62 201.642 239.968 192.712C252.465 187.226 263.586 179.595 276.566 175.376C288.376 171.536 301.705 174.463 312.864 169.014C332.179 159.581 346.261 121.604 364.954 132.215C385.503 143.881 350.489 190.352 371.03 202.032C401.789 219.522 453.137 168.109 475.821 195.257Z" fill="#A818AB" fill-opacity="0.5"/>
<path fill-rule="evenodd" clip-rule="evenodd" d="M121.527 330.982C122.762 328.112 124.329 325.565 126.375 323.516C130.958 318.923 137.796 321.476 144.269 323.895C151.071 326.435 157.472 328.827 160.435 322.623C164.499 314.114 159.632 307.14 154.575 299.894C150.575 294.162 146.455 288.259 146.542 281.292C146.606 276.19 150.954 272.139 155.312 268.079C157.434 266.103 159.559 264.124 161.193 262.02C164.419 257.865 169.236 253.809 174.033 249.771C183.463 241.832 192.813 233.959 189.843 225.533C187.429 218.684 178.637 221.71 169.596 224.822C160.887 227.82 151.945 230.897 148.25 225.303C144.173 219.13 148.313 209.337 152.41 199.651C156.627 189.678 160.797 179.819 155.899 174.141C150.906 168.354 142.428 175.477 133.767 182.755C129.607 186.25 125.406 189.78 121.527 191.933V330.982Z" fill="#4ED4FF" fill-opacity="0.5"/>
<path fill-rule="evenodd" clip-rule="evenodd" d="M121.527 576.378C135.87 578.453 152.473 574.514 165.786 569.559C185.811 562.105 211.617 548.257 212.919 526.941C213.936 510.301 203.639 495.723 193.365 481.178C182.876 466.328 172.411 451.512 174.032 434.568C174.907 425.431 185.547 425.855 197.072 426.315C206.911 426.708 217.393 427.126 222.996 421.644C228.032 416.716 226.942 409.221 225.826 401.547C224.878 395.027 223.912 388.379 226.666 383.065C232.483 371.844 244.758 361.809 256.673 352.07C275.458 336.713 293.349 322.088 283.624 304.692C275.131 289.501 256.692 297.388 236.842 305.88C220.091 313.045 202.336 320.641 188.705 315.161C179.197 311.339 178.423 297.27 177.69 283.947C176.92 269.951 176.195 256.78 165.438 257.185C150.68 257.741 143.881 272.342 136.815 287.513C132.461 296.861 128.007 306.426 121.527 313.056V576.378Z" fill="#5FFFF5" fill-opacity="0.5"/>
<path fill-rule="evenodd" clip-rule="evenodd" d="M424.201 666.812C403.167 648.371 412.816 611.091 396.489 588.38C388.352 577.061 369.019 582.023 357.548 574.099C345.298 565.637 338.611 551.568 328.036 541.092C312.003 525.212 270.756 516.988 278.497 495.797C288.22 469.182 343.864 488.911 356.383 463.49C367.777 440.354 313.739 411.657 329.853 391.516C345.083 372.48 376.629 402.949 400.377 408.501C412.759 411.396 426.438 423.224 437.315 416.641C459.938 402.948 460.844 356.903 487.274 355.907C508.272 355.116 491.045 406.046 510.541 413.883C540.327 425.856 589.801 375.404 605.46 403.413C621.353 431.842 563.492 452.872 548.502 481.787C542.505 493.355 554.146 511.25 544.832 520.366C532.667 532.27 497.489 516.352 495.868 533.29C492.658 566.829 536.809 592.034 534.756 625.663C533.453 646.979 507.647 660.827 487.622 668.281C467.636 675.72 440.233 680.869 424.201 666.812Z" fill="#5FFFF5" fill-opacity="0.5"/>
<path fill-rule="evenodd" clip-rule="evenodd" d="M121.527 385.294C129.745 384.872 137.718 382.456 143.652 378.04C153.054 371.042 155.086 357.523 157.069 344.325C159.289 329.55 161.449 315.177 173.823 310.804C184.841 306.91 195.547 319.011 205.704 330.492C216.253 342.417 226.211 353.672 235.315 345.65C245.554 336.625 235.722 324.341 225.076 311.04C217.202 301.202 208.882 290.808 207.907 280.763C207.421 275.741 212.291 272.538 217.211 269.303C221.992 266.158 226.819 262.984 226.816 258.079C226.814 253.078 222.097 249.878 217.372 246.673C212.677 243.489 207.974 240.298 207.882 235.328C207.714 226.221 212.246 217.897 216.759 209.608C221.567 200.779 226.354 191.988 225.415 182.331C223.581 163.452 214.936 141.663 197.954 133.195C181.813 125.146 158.604 130.256 145.218 142.339C137.653 149.169 136.294 160.114 134.942 171.01C133.541 182.3 132.146 193.537 123.855 200.084C123.113 200.671 122.336 201.147 121.527 201.526V385.294Z" fill="#FEA869" fill-opacity="0.5"/>
<path fill-rule="evenodd" clip-rule="evenodd" d="M591.269 657.118C590.846 648.907 588.429 640.937 584.01 635.008C577.007 625.611 563.48 623.581 550.274 621.599C535.49 619.38 521.108 617.222 516.732 604.855C512.836 593.844 524.945 583.145 536.434 572.994C548.365 562.451 559.628 552.499 551.6 543.402C542.569 533.168 530.278 542.994 516.969 553.634C507.125 561.503 496.724 569.817 486.674 570.791C481.649 571.279 478.443 566.411 475.206 561.495C472.059 556.716 468.882 551.892 463.975 551.894C458.97 551.898 455.769 556.611 452.563 561.332C449.375 566.025 446.183 570.725 441.211 570.817C432.097 570.986 423.768 566.456 415.474 561.945C406.639 557.14 397.844 552.356 388.18 553.295C369.29 555.128 347.488 563.767 339.014 580.74C330.959 596.87 336.073 620.065 348.164 633.443C354.998 641.004 365.95 642.361 376.851 643.712C388.149 645.113 399.394 646.507 405.945 654.792C406.531 655.534 407.008 656.311 407.387 657.118H591.269Z" fill="#FEA869" fill-opacity="0.5"/>
<path fill-rule="evenodd" clip-rule="evenodd" d="M271.284 389.872C273.854 401.783 276.818 413.592 284.569 421.902C290.133 427.869 296.807 432.666 304.042 436.839C307.765 429.673 310.929 421.559 314.123 413.365C322.137 392.813 330.345 371.761 348.057 363.908C353.843 361.342 360.316 359.84 367.072 359.309C367.188 352.433 367.935 345.047 368.669 337.77C370.973 314.985 373.167 293.269 355.556 291.637C350.042 299.764 340.468 307.591 330.649 315.617L330.645 315.62L330.634 315.629C330.048 316.108 329.462 316.587 328.876 317.067C327.14 321.204 325.478 325.603 323.788 330.072C317.833 345.829 311.551 362.449 300.603 371.473C301.047 376.78 300.593 381.649 296.972 385.191C291.414 390.63 281.054 390.261 271.284 389.872ZM453.188 526.666C453.714 525.505 454.219 524.355 454.703 523.221C463.253 503.172 471.388 475.153 457.784 463.136C449.812 456.094 438.295 454.812 425.91 454.965C421.187 468.329 417.678 481.722 420.724 494.518C423.686 506.972 436.204 515.318 448.378 523.434L448.379 523.435C449.996 524.513 451.606 525.587 453.188 526.666Z" fill="#4ED4FF" fill-opacity="0.5"/>
<path fill-rule="evenodd" clip-rule="evenodd" d="M121.527 657.252H208.936C208.587 656.282 208.232 655.313 207.878 654.346C204.552 645.275 201.291 636.38 204.021 628.731C208.479 616.236 218.242 607.905 227.9 599.663C239.393 589.855 250.74 580.172 252.826 563.746C255.752 540.706 237.178 514.885 220.655 497.764C204.099 480.609 179.335 460.475 161.425 469.041C147.444 475.728 141.079 493.106 134.729 510.444C130.886 520.939 127.047 531.42 121.527 539.507V657.252Z" fill="#5FFFF5" fill-opacity="0.5"/>
<path fill-rule="evenodd" clip-rule="evenodd" d="M121.527 657.252H180.019C183.611 650.317 186.407 642.564 189.197 634.826C195.577 617.136 201.927 599.53 217.679 591.999C229.896 586.159 243.265 594.574 256.581 602.957C270.054 611.438 283.474 619.885 295.597 613.508C307.151 607.432 305.939 593.102 304.674 578.135C303.638 565.877 302.565 553.192 308.439 544.262C315.554 533.449 328.962 527.334 342.038 521.371C358.555 513.839 374.541 506.549 376.635 490.335C378.516 475.771 365.003 466.761 351.037 457.451C338.863 449.334 326.346 440.989 323.383 428.535C319.608 412.668 325.907 395.886 332.105 379.376C339.345 360.088 346.446 341.171 337.182 324.519C322.366 297.889 278.585 285.566 250.716 297.924C233.005 305.778 224.797 326.83 216.783 347.381C207.812 370.39 199.085 392.771 177.542 395.309C158.361 397.569 145.52 374.161 133.336 351.95C129.396 344.766 125.523 337.706 121.527 331.682V657.252Z" fill="#FEA869" fill-opacity="0.5"/>
<path fill-rule="evenodd" clip-rule="evenodd" d="M489.411 217.859L453.657 182.18C446.559 184.897 439.368 188.677 432.191 192.451C415.784 201.077 399.455 209.663 384.502 205.383C372.904 202.063 370.683 187.954 368.469 173.899C366.23 159.68 364 145.517 352.081 142.633C340.721 139.886 331.331 150.765 321.523 162.128C313.489 171.435 305.176 181.066 295.272 183.801C283.278 187.113 270.759 183.261 258.55 179.505C243.128 174.76 228.202 170.167 215.458 180.363C204.012 189.522 205.902 204.14 207.856 219.247C209.559 232.416 211.309 245.957 204.315 256.577C195.405 270.108 179.689 278.141 164.228 286.044C146.165 295.276 128.45 304.331 122.34 321.766C112.569 349.648 130.617 385.072 156.39 393.327C172.77 398.573 192.671 388.684 212.1 379.029C233.85 368.219 255.01 357.705 269.973 369.05C283.296 379.151 274.595 403.548 266.338 426.697C263.668 434.185 261.044 441.543 259.227 448.243L489.411 217.859Z" fill="#FEA869" fill-opacity="0.5"/>
<path fill-rule="evenodd" clip-rule="evenodd" d="M296.359 548.146H354.85C358.442 541.212 361.238 533.457 364.029 525.719C370.408 508.03 376.758 490.424 392.511 482.893C404.728 477.052 418.095 485.468 431.413 493.85C444.885 502.331 458.305 510.779 470.429 504.402C481.982 498.325 480.771 483.996 479.505 469.029C478.469 456.771 477.396 444.086 483.271 435.156C490.385 424.343 503.793 418.228 516.868 412.266C533.386 404.733 549.373 397.442 551.466 381.229C553.346 366.664 539.833 357.656 525.868 348.344C513.695 340.228 501.178 331.883 498.214 319.429C494.439 303.562 500.738 286.779 506.936 270.269C514.176 250.982 521.277 232.064 512.013 215.413C497.196 188.782 453.416 176.46 425.547 188.818C407.836 196.672 399.627 217.724 391.614 238.275C382.643 261.283 373.916 283.665 352.373 286.203C333.192 288.463 320.351 265.054 308.168 242.844C304.227 235.66 300.354 228.601 296.359 222.576V548.146Z" fill="#FEA869" fill-opacity="0.5"/>
<path fill-rule="evenodd" clip-rule="evenodd" d="M138.623 657.252C143.157 649.282 148.323 642.212 156.419 639.493C175.389 633.123 196.701 635.497 217.71 637.838C244.632 640.838 271.056 643.783 291.413 628.199C319.554 606.658 322.205 556.234 306.982 524.242C297.464 504.241 276.613 494.997 255.418 485.601C238.97 478.31 222.317 470.926 210.592 458.354C202.211 449.368 199.426 436.291 196.685 423.416C193.405 408.014 190.188 392.903 177.524 385.432C165.352 378.252 150.497 382.84 135.64 387.428C130.907 388.89 126.174 390.351 121.527 391.433V657.252H138.623Z" fill="#A818AB" fill-opacity="0.5"/>
<path fill-rule="evenodd" clip-rule="evenodd" d="M121.527 657.252H341.238C335.682 650.12 324.565 647.112 313.063 643.999C301.192 640.787 288.908 637.462 281.898 629.378C276.933 623.652 277.626 615.411 278.319 607.173C279.013 598.92 279.707 590.67 274.713 584.951C269.796 579.321 261.699 579.026 253.566 578.731C245.666 578.444 237.731 578.155 232.644 572.974C223.253 563.41 218.452 549.875 213.72 536.534C207.655 519.438 201.702 502.657 186.349 494.95C166.226 484.85 137.143 496.148 121.527 513.14V657.252Z" fill="#A818AB" fill-opacity="0.5"/>
</g>
<defs>
<linearGradient id="paint0_linear" x1="427.526" y1="171.641" x2="321.534" y2="243.191" gradientUnits="userSpaceOnUse">
<stop stop-color="#FF957B"/>
<stop offset="1" stop-color="#FFDE9F" stop-opacity="0.5"/>
</linearGradient>
<clipPath id="clip0">
<rect width="709" height="782" fill="white"/>
</clipPath>
</defs>
</svg>
