<svg width="878" height="969" viewBox="0 0 878 969" fill="none" xmlns="http://www.w3.org/2000/svg">
<path fill-rule="evenodd" clip-rule="evenodd" d="M460.524 733.703C427.288 743.055 404.033 709.615 371.168 711.524C354.788 712.475 342.686 735.035 326.355 741.496C308.918 748.393 291.444 746.137 273.721 750.072C246.852 756.038 205.198 792.184 193.878 770.912C179.662 744.195 243.126 700.936 232.27 672.174C222.389 645.996 152.729 681.929 149.344 652.926C146.144 625.512 198.357 613.277 223.027 592.988C235.891 582.408 257.366 576.221 260.984 561.111C268.508 529.686 230.512 499.433 251.929 472.279C268.946 450.706 297.31 500.448 320.323 485.881C355.484 463.624 354.676 381.83 391.44 383.969C428.753 386.14 397.731 457.598 409.448 491.066C414.136 504.455 439.003 504.179 438.832 519.334C438.608 539.127 395.587 564.28 408.48 576.701C434.009 601.295 492.403 573.057 518.981 596.55C535.828 611.441 525.754 646.159 515.166 671.003C504.598 695.798 485.857 726.574 460.524 733.703Z" fill="#4ED4FF" fill-opacity="0.5"/>
<path fill-rule="evenodd" clip-rule="evenodd" d="M241.609 246.346C260.032 256.354 259.149 285.211 274.838 299.119C282.658 306.05 295.966 299.225 305.661 303.123C316.012 307.285 323.227 316.467 332.689 322.379C347.034 331.341 378.538 330.534 376.387 347.311C373.686 368.381 329.756 363.155 324.813 383.814C320.314 402.618 364.554 414.667 356.111 432.06C348.131 448.499 320.034 431.435 301.761 431.301C292.232 431.232 280.279 424.844 273.418 431.457C259.151 445.211 266.108 479.033 246.957 484.131C231.742 488.181 235.905 448.089 220.361 445.583C196.611 441.753 168.803 486.828 152.724 468.934C136.405 450.773 175.212 425.827 181.382 402.204C183.851 392.753 172.382 381.591 177.681 373.386C184.602 362.669 212.944 368.492 211.326 355.837C208.122 330.781 171.685 319.651 167.622 294.719C165.047 278.916 181.615 264.522 195.016 255.76C208.392 247.015 227.566 238.718 241.609 246.346Z" fill="#5FFFF5" fill-opacity="0.5"/>
<path fill-rule="evenodd" clip-rule="evenodd" d="M358.518 598.619C356.322 575.879 380.824 564.653 383.432 543.027C384.732 532.248 371.459 521.723 369.165 510.331C366.717 498.167 370.234 487.052 369.748 475.049C369.011 456.853 350.354 425.49 365.533 420.612C384.598 414.484 405.332 460.883 425.335 457.184C443.54 453.817 428.303 404.242 447.587 405.436C465.815 406.565 467.664 442 477.986 460.444C483.368 470.061 484.881 484.771 494.297 488.898C513.88 497.481 538.035 476.282 553.208 493.411C565.263 507.021 529.545 519.664 536.335 536.357C546.709 561.863 600.07 570.922 594.369 594.613C588.583 618.658 545.682 590.082 522.514 593.79C513.246 595.274 510.511 611.5 500.662 609.613C487.798 607.148 476.46 576.184 466.86 583.125C447.852 596.867 459.398 638.205 440.985 652.76C429.313 661.986 407.884 651.357 392.946 641.55C378.037 631.762 360.191 615.951 358.518 598.619Z" fill="#5FFFF5" fill-opacity="0.5"/>
<path d="M780.821 42.2073C769.245 40.6923 775.744 38.2986 757.425 32.7208C741.176 36.684 726.909 45.0067 715.812 51.3476C715.139 51.7322 703.527 62.4445 689.656 77.1081C699.244 79.6961 697.291 78.677 707.398 84.0884C711.021 86.7341 712.751 90.3735 714.997 102.725C717.114 110.485 723.054 97.0881 726.766 92.1679C728.33 90.0955 728.813 79.1674 722.464 73.6067C716.115 68.0459 714.019 66.3101 709.628 64.5028C706.144 61.2431 707.337 60.7942 711.593 60.9281C725.84 65.0521 733.596 68.1105 746.546 76.3589C763.906 79.1478 776.246 67.4731 764.122 64.1303C751.999 60.7875 747.181 58.4275 729.683 48.9964C723.924 44.3734 727.598 45.2057 731.411 46.18C745.295 49.5276 750.926 51.1752 764.719 55.9861C778.688 57.482 792.398 43.7223 780.821 42.2073Z" fill="#FFCE89"/>
<path fill-rule="evenodd" clip-rule="evenodd" d="M564.579 124.001C570.114 117.049 573.939 112.244 575.309 110.49C596.875 88.3344 640.223 50.6858 666.176 42.9212C692.128 35.1566 771.941 8.84847 778.891 1.12219C786.171 -0.787484 787.489 1.02374 787.596 6.59397C787.587 20.1685 770.315 26.7516 745.786 36.1009C741.507 37.7318 737.007 39.4469 732.34 41.298C721.354 47.3609 715.213 51.4206 704.43 62.7724C694.575 73.694 688.969 76.8162 683.67 79.7667C682.127 80.6257 680.611 81.4701 679.024 82.4881L679.073 82.5471C681.409 85.3175 685.41 90.0626 708.58 86.7698C732.306 81.6901 741.818 82.4177 744.997 86.9793C746.974 94.0374 732.93 97.6563 716.294 101.943C713.492 102.665 710.617 103.406 707.732 104.186C685.792 113.469 673.509 116.583 651.565 118.971C639.946 119.773 634.101 121.776 625.24 128.866C619.491 137.572 612.788 147.359 605.649 157.783C588.079 183.437 567.866 212.949 552.728 239.688C552.665 241.809 552.521 243.968 552.378 246.128C551.764 255.358 551.15 264.592 556.813 270.901C564.809 279.81 578.608 283.29 591.945 286.652C609.082 290.973 625.455 295.101 627.767 310.309C630.225 326.471 612.68 334.271 594.895 342.178C585.642 346.291 576.324 350.434 569.724 355.798C565.039 359.604 560.687 363.709 556.349 367.801C549.716 374.057 543.116 380.281 535.413 385.362C530.239 388.776 524.338 390.825 518.465 392.864C511.178 395.395 503.932 397.911 498.166 403C491.111 409.227 486.219 419.935 481.48 430.307C474.113 446.434 467.115 461.75 452.932 458.16C440.121 454.917 439.704 438.162 439.287 421.405C438.87 404.65 438.453 387.893 425.646 384.641C407.452 380.021 388.868 393.499 370.887 406.54C350.957 420.993 331.769 434.91 314.673 423.052C299.669 412.644 313.542 396.466 328.919 378.535C340.883 364.584 353.756 349.572 354.645 335.392C355.307 324.829 347.21 316.46 339.114 308.092C331.013 299.718 322.912 291.346 323.59 280.777C324.296 269.781 333.311 262.507 342.5 255.094C350.181 248.898 357.983 242.604 361.153 233.956C365.588 221.858 364.883 208.225 364.187 194.762C363.291 177.411 362.408 160.341 372.559 147.201C388.796 126.181 423.415 110.86 447.354 122.365C464.672 130.687 471.655 149.345 478.77 168.355C484.025 182.397 489.353 196.631 498.971 207.033C523.602 175.474 550.011 142.3 564.579 124.001Z" fill="url(#paint0_linear)"/>
<path fill-rule="evenodd" clip-rule="evenodd" d="M150.495 268.119C156.403 273.509 160.952 280.713 165.45 287.836C172.711 299.335 179.837 310.622 192.333 313.718C209.607 317.999 230.226 303.224 238.009 287.22C242.874 277.215 239.967 266.138 237.011 254.878C234.717 246.141 232.395 237.295 233.653 228.754C234.553 222.648 238.812 217.455 243.005 212.342C248.021 206.225 252.943 200.224 251.905 192.914C250.908 185.889 244.451 181.502 237.994 177.114C231.542 172.729 225.088 168.344 224.081 161.325C222.729 151.902 229.126 140.297 235.07 129.513C242.71 115.653 249.604 103.147 238.341 98.3671C225.508 92.9211 214.82 104.668 203.718 116.869C193.702 127.877 183.351 139.254 170.785 138.706C161.94 138.321 159.38 127.385 156.82 116.451C155.222 109.623 153.624 102.796 150.495 98.5378V268.119Z" fill="#A818AB" fill-opacity="0.5"/>
<path fill-rule="evenodd" clip-rule="evenodd" d="M801.239 529.949C824.285 557.548 744.493 577.791 732.801 611.792C725.176 633.965 757.562 657.068 749.905 679.229C742.589 700.402 709.057 699.946 696.04 718.178C677.066 744.755 684.471 787.832 658.366 807.45C634.853 825.119 593.389 831.303 571.211 811.984C542.648 787.103 558.688 736.872 539.71 704.088C530.564 688.288 501.145 693.07 492.937 676.763C484.487 659.976 506.393 638.045 498.002 621.229C484.478 594.126 430.272 588.383 433.829 558.302C437.061 530.971 483.97 537.861 509.168 526.795C524.644 519.998 538.415 510.542 554.489 505.314C569.115 500.556 585.621 504.182 599.44 497.43C623.359 485.742 640.797 438.683 663.946 451.832C689.393 466.287 646.033 523.871 671.47 538.344C709.561 560.017 773.149 496.309 801.239 529.949Z" fill="#A818AB" fill-opacity="0.5"/>
<path fill-rule="evenodd" clip-rule="evenodd" d="M589.239 241.949C612.285 269.548 532.493 289.791 520.801 323.792C513.176 345.965 545.562 369.068 537.905 391.229C530.589 412.402 497.057 411.946 484.04 430.178C465.066 456.755 472.471 499.832 446.366 519.45C422.853 537.119 381.389 543.303 359.211 523.984C330.648 499.103 346.688 448.872 327.71 416.088C318.564 400.288 289.145 405.07 280.937 388.763C272.487 371.976 294.393 350.045 286.002 333.229C272.478 306.126 218.272 300.383 221.829 270.302C225.061 242.971 271.97 249.861 297.168 238.795C312.644 231.998 326.415 222.542 342.489 217.314C357.115 212.556 373.621 216.182 387.44 209.43C411.359 197.742 428.797 150.683 451.946 163.832C477.393 178.287 434.033 235.871 459.47 250.344C497.561 272.017 561.149 208.309 589.239 241.949Z" fill="#A818AB" fill-opacity="0.5"/>
<path fill-rule="evenodd" clip-rule="evenodd" d="M150.495 410.13C152.024 406.574 153.965 403.418 156.498 400.878C162.173 395.187 170.641 398.351 178.658 401.348C187.081 404.496 195.008 407.459 198.677 399.772C203.71 389.228 197.683 380.587 191.42 371.608C186.466 364.505 181.364 357.191 181.472 348.557C181.551 342.235 186.936 337.216 192.333 332.185C194.961 329.736 197.592 327.284 199.615 324.677C203.611 319.529 209.576 314.503 215.516 309.499C227.194 299.661 238.773 289.906 235.095 279.465C232.105 270.978 221.218 274.728 210.022 278.584C199.236 282.299 188.163 286.112 183.587 279.18C178.538 271.531 183.666 259.396 188.739 247.394C193.961 235.036 199.125 222.819 193.059 215.783C186.876 208.613 176.378 217.439 165.652 226.457C160.501 230.788 155.298 235.162 150.495 237.83V410.13Z" fill="#4ED4FF" fill-opacity="0.5"/>
<path fill-rule="evenodd" clip-rule="evenodd" d="M150.495 714.207C168.256 716.779 188.817 711.898 205.303 705.758C230.102 696.522 262.059 679.362 263.671 652.949C264.93 632.329 252.179 614.265 239.456 596.242C226.467 577.841 213.507 559.482 215.515 538.487C216.598 527.164 229.775 527.69 244.047 528.26C256.231 528.747 269.212 529.265 276.15 522.472C282.387 516.365 281.037 507.078 279.655 497.569C278.481 489.49 277.284 481.252 280.695 474.668C287.899 460.763 303.099 448.329 317.854 436.261C341.117 417.232 363.273 399.109 351.229 377.553C340.712 358.73 317.878 368.503 293.296 379.025C272.553 387.904 250.566 397.316 233.685 390.526C221.911 385.79 220.953 368.356 220.045 351.848C219.091 334.505 218.194 318.184 204.872 318.686C186.597 319.375 178.177 337.467 169.427 356.266C164.035 367.85 158.519 379.702 150.495 387.917V714.207Z" fill="#5FFFF5" fill-opacity="0.5"/>
<path fill-rule="evenodd" clip-rule="evenodd" d="M525.315 826.267C499.267 803.416 511.216 757.221 490.998 729.08C480.921 715.054 456.98 721.203 442.774 711.383C427.605 700.898 419.324 683.465 406.228 670.484C386.373 650.806 335.295 640.616 344.881 614.357C356.921 581.378 425.829 605.825 441.332 574.325C455.442 545.656 388.523 510.097 408.478 485.14C427.338 461.551 466.404 499.306 495.812 506.186C511.146 509.773 528.085 524.43 541.555 516.272C569.571 499.305 570.692 442.249 603.422 441.015C629.426 440.035 608.092 503.144 632.235 512.855C669.121 527.691 730.388 465.174 749.78 499.882C769.461 535.109 697.808 561.167 679.245 596.997C671.819 611.331 686.235 633.506 674.7 644.801C659.635 659.552 616.072 639.828 614.065 660.816C610.09 702.375 664.765 733.607 662.222 775.278C660.609 801.691 628.652 818.851 603.854 828.087C579.103 837.305 545.169 843.685 525.315 826.267Z" fill="#5FFFF5" fill-opacity="0.5"/>
<path fill-rule="evenodd" clip-rule="evenodd" d="M150.495 477.43C160.671 476.906 170.545 473.913 177.893 468.441C189.537 459.769 192.053 443.017 194.508 426.663C197.258 408.355 199.932 390.545 215.256 385.126C228.9 380.302 242.158 395.296 254.736 409.523C267.8 424.299 280.132 438.246 291.405 428.305C304.085 417.122 291.91 401.901 278.726 385.419C268.975 373.229 258.672 360.349 257.465 347.902C256.862 341.679 262.894 337.71 268.986 333.701C274.907 329.805 280.885 325.871 280.881 319.794C280.878 313.596 275.037 309.631 269.186 305.66C263.371 301.714 257.547 297.761 257.433 291.602C257.225 280.317 262.838 270.003 268.427 259.732C274.381 248.791 280.309 237.898 279.146 225.932C276.874 202.538 266.169 175.539 245.139 165.046C225.151 155.072 196.409 161.404 179.833 176.377C170.464 184.84 168.781 198.402 167.107 211.903C165.372 225.894 163.645 239.818 153.378 247.93C152.458 248.657 151.496 249.247 150.495 249.717V477.43Z" fill="#FEA869" fill-opacity="0.5"/>
<path fill-rule="evenodd" clip-rule="evenodd" d="M732.206 814.255C731.682 804.08 728.689 794.205 723.217 786.858C714.545 775.213 697.793 772.698 681.439 770.242C663.131 767.493 645.321 764.818 639.902 749.494C635.078 735.85 650.073 722.593 664.3 710.014C679.075 696.95 693.023 684.618 683.082 673.346C671.898 660.665 656.677 672.84 640.195 686.025C628.005 695.775 615.125 706.078 602.679 707.285C596.456 707.889 592.486 701.857 588.478 695.765C584.581 689.844 580.647 683.866 574.57 683.869C568.372 683.873 564.408 689.714 560.437 695.564C556.49 701.379 552.537 707.203 546.379 707.317C535.093 707.526 524.779 701.913 514.508 696.323C503.567 690.369 492.675 684.441 480.708 685.604C457.315 687.876 430.316 698.581 419.822 719.612C409.848 739.6 416.18 768.341 431.153 784.918C439.616 794.287 453.179 795.969 466.679 797.643C480.67 799.379 494.595 801.106 502.707 811.372C503.433 812.292 504.024 813.255 504.493 814.255L732.206 814.255Z" fill="#FEA869" fill-opacity="0.5"/>
<path fill-rule="evenodd" clip-rule="evenodd" d="M335.948 483.102C339.131 497.862 342.802 512.494 352.4 522.792C359.29 530.185 367.555 536.129 376.515 541.301C381.125 532.421 385.043 522.366 388.999 512.213C398.923 486.747 409.088 460.661 431.021 450.929C438.187 447.75 446.202 445.889 454.569 445.231C454.712 436.711 455.637 427.558 456.547 418.541C459.399 390.307 462.117 363.399 440.308 361.376C433.479 371.447 421.623 381.145 409.464 391.091L409.459 391.095L409.445 391.106C408.72 391.699 407.994 392.293 407.268 392.888C405.119 398.014 403.06 403.465 400.968 409.002L400.968 409.002L400.968 409.002C393.593 428.527 385.813 449.122 372.256 460.304C372.806 466.88 372.243 472.913 367.76 477.302C360.877 484.041 348.047 483.584 335.948 483.102ZM561.212 652.608C561.863 651.169 562.489 649.744 563.088 648.339C573.676 623.496 583.75 588.777 566.903 573.886C557.031 565.16 542.769 563.571 527.432 563.761C521.583 580.321 517.238 596.916 521.009 612.772C524.678 628.204 540.179 638.546 555.255 648.603L555.256 648.604C557.259 649.94 559.253 651.271 561.212 652.608Z" fill="#4ED4FF" fill-opacity="0.5"/>
<path fill-rule="evenodd" clip-rule="evenodd" d="M150.495 814.421H258.739C258.307 813.219 257.867 812.018 257.428 810.82C253.31 799.58 249.272 788.558 252.652 779.08C258.173 763.597 270.263 753.274 282.223 743.06C296.456 730.907 310.507 718.909 313.09 698.555C316.714 670.005 293.713 638.009 273.251 616.794C252.749 595.537 222.082 570.588 199.903 581.203C182.589 589.489 174.707 611.022 166.844 632.507C162.084 645.511 157.33 658.498 150.495 668.52V814.421Z" fill="#5FFFF5" fill-opacity="0.5"/>
<path fill-rule="evenodd" clip-rule="evenodd" d="M150.495 814.421H222.929C227.377 805.828 230.84 796.22 234.295 786.632C242.196 764.712 250.059 742.896 269.566 733.564C284.695 726.327 301.25 736.755 317.741 747.142C334.425 757.651 351.044 768.119 366.057 760.217C380.365 752.687 378.864 734.931 377.297 716.385C376.014 701.196 374.685 685.477 381.96 674.412C390.77 661.013 407.375 653.436 423.567 646.047C444.022 636.714 463.818 627.68 466.411 607.589C468.74 589.542 452.006 578.378 434.712 566.841C419.636 556.784 404.135 546.443 400.466 531.011C395.791 511.35 403.592 490.554 411.267 470.096C420.233 446.196 429.026 422.755 417.554 402.121C399.206 369.123 344.99 353.854 310.478 369.167C288.545 378.899 278.38 404.985 268.456 430.451C257.347 458.961 246.54 486.695 219.862 489.84C196.108 492.64 180.207 463.634 165.119 436.112C160.239 427.21 155.443 418.462 150.495 410.997V814.421Z" fill="#FEA869" fill-opacity="0.5"/>
<path fill-rule="evenodd" clip-rule="evenodd" d="M606.069 269.956L561.793 225.745C553.003 229.111 544.097 233.796 535.21 238.472C514.892 249.161 494.671 259.8 476.153 254.496C461.791 250.383 459.04 232.9 456.299 215.484C453.526 197.865 450.764 180.314 436.004 176.741C421.937 173.337 410.308 186.818 398.162 200.898C388.214 212.43 377.919 224.364 365.654 227.753C350.801 231.857 335.298 227.084 320.179 222.43C301.081 216.55 282.597 210.859 266.816 223.493C252.641 234.842 254.982 252.956 257.401 271.676C259.51 287.994 261.678 304.773 253.017 317.933C241.983 334.699 222.521 344.653 203.374 354.446C181.005 365.886 159.068 377.106 151.501 398.71C139.401 433.259 161.752 477.155 193.668 487.384C213.952 493.884 238.597 481.63 262.657 469.666C289.592 456.272 315.795 443.243 334.325 457.301C350.823 469.818 340.048 500.049 329.824 528.733C326.517 538.012 323.267 547.129 321.018 555.431L606.069 269.956Z" fill="#FEA869" fill-opacity="0.5"/>
<path fill-rule="evenodd" clip-rule="evenodd" d="M367 679.224H439.433C443.881 670.632 447.344 661.023 450.8 651.435C458.7 629.515 466.563 607.699 486.071 598.367C501.2 591.13 517.754 601.558 534.246 611.945C550.929 622.454 567.548 632.922 582.562 625.02C596.869 617.49 595.369 599.734 593.802 581.188C592.518 565.999 591.19 550.28 598.465 539.215C607.275 525.816 623.879 518.239 640.071 510.851C660.526 501.517 680.323 492.483 682.915 472.392C685.244 454.345 668.51 443.182 651.216 431.644C636.141 421.587 620.64 411.246 616.97 395.814C612.295 376.153 620.096 355.357 627.771 334.899C636.737 310.999 645.531 287.558 634.058 266.925C615.71 233.926 561.494 218.657 526.982 233.97C505.049 243.702 494.884 269.788 484.961 295.254C473.851 323.764 463.044 351.498 436.366 354.643C412.613 357.443 396.711 328.437 381.624 300.915C376.743 292.013 371.948 283.266 367 275.801V679.224Z" fill="#FEA869" fill-opacity="0.5"/>
<path fill-rule="evenodd" clip-rule="evenodd" d="M171.666 814.421C177.28 804.545 183.678 795.785 193.704 792.415C217.195 784.522 243.587 787.464 269.604 790.365C302.943 794.082 335.666 797.731 360.875 778.421C395.724 751.729 399.007 689.247 380.155 649.604C368.369 624.821 342.547 613.366 316.3 601.723C295.932 592.688 275.309 583.539 260.79 567.961C250.411 556.826 246.962 540.621 243.567 524.668C239.506 505.583 235.522 486.858 219.839 477.601C204.766 468.704 186.37 474.389 167.972 480.074C162.111 481.885 156.249 483.696 150.495 485.036V814.421H171.666Z" fill="#A818AB" fill-opacity="0.5"/>
<path fill-rule="evenodd" clip-rule="evenodd" d="M150.495 814.421H422.577C415.696 805.583 401.93 801.856 387.686 797.999C372.985 794.018 357.773 789.899 349.092 779.881C342.944 772.786 343.802 762.575 344.66 752.366C345.519 742.14 346.379 731.917 340.195 724.831C334.106 717.854 324.079 717.489 314.007 717.123C304.224 716.767 294.398 716.41 288.098 709.989C276.469 698.138 270.523 681.367 264.663 664.835C257.152 643.651 249.781 622.858 230.768 613.308C205.848 600.793 169.833 614.792 150.495 635.847V814.421Z" fill="#A818AB" fill-opacity="0.5"/>
<defs>
<linearGradient id="paint0_linear" x1="509.111" y1="232.335" x2="405.276" y2="338.151" gradientUnits="userSpaceOnUse">
<stop stop-color="#FF957B"/>
<stop offset="1" stop-color="#FFDE9F" stop-opacity="0.5"/>
</linearGradient>
</defs>
</svg>
