<svg width="700" height="505" viewBox="0 0 701 506" fill="none" xmlns="http://www.w3.org/2000/svg">
<path d="M107.662 393.275C56.7093 399.794 27.9023 402.261 10.3675 464.22C10.1988 466.894 8.03206 468.676 0 472.422C6.55566 479.849 34.4391 474.986 51.0398 464.22C61.4958 457.439 107.662 472.422 139.163 472.422C170.664 472.422 139.163 456.018 139.163 431.003C139.163 405.987 209.86 424.326 221.305 431.003C236.781 440.031 296.184 445.922 318.6 437.974C350.924 426.717 368.68 427.803 399.945 437.974C434.488 446.302 449.246 454.078 468.928 472.422C528.757 535.621 631.354 490.264 639.194 472.422C643.273 463.14 667.638 414.463 675.879 387.123C684.253 344.611 701 258.356 701 253.435C701 248.514 684.253 82.4278 675.879 0H639.194H221.305C211.943 1.11051 210.279 3.94609 221.305 17.6338C233.694 45.2023 235.431 56.6055 208.147 53.3115C164.469 51.1145 150.411 54.6268 165.481 79.1471C183.629 104.327 186.707 115.175 165.481 122.206C133.102 137.355 124.892 146.991 133.98 166.906C162.581 221.14 162.529 236.458 139.163 241.952C96.3016 258.143 91.7907 278.257 107.662 327.661C126.672 373.527 130.121 391.566 107.662 393.275Z" fill="url(#paint0_linear)"/>
<path fill-rule="evenodd" clip-rule="evenodd" d="M299.979 0H221.305C211.943 1.11226 210.279 3.95229 221.305 17.6615C222.951 21.3291 224.409 24.711 225.635 27.8106C231.611 30.0926 237.4 33.7347 242.237 37.3455C247.521 41.2894 250.132 47.5594 252.758 53.8646C255.13 59.5631 257.515 65.2902 261.896 69.355C264.855 72.101 269.117 73.9495 273.774 75.4427C273.124 73.8331 272.629 72.2028 272.365 70.5472C271.929 67.8143 271.418 65.0372 270.904 62.2378C268.321 48.1888 265.635 33.578 271.723 21.1722C276.148 12.1551 285.112 7.60746 294.207 2.99319C296.139 2.01296 298.077 1.02973 299.979 0ZM285.236 106.986C282.464 107.887 279.541 108.68 276.62 109.472C264.817 112.673 253.038 115.867 251.302 126.185C250.246 132.46 252.648 137.85 256.636 142.862C268.3 131.998 279.508 120.686 285.236 106.986ZM221.241 212.034C227.525 218.968 241.517 218.487 256.331 217.978C269.951 217.51 284.265 217.018 293.925 222.241C298.301 224.608 302.314 228.346 306.092 232.812C306.331 234 306.48 235.205 306.525 236.429C306.881 246.029 301.866 254.335 296.804 262.717C292.466 269.902 288.093 277.143 287.039 285.303C286.344 282.466 285.707 279.527 285.063 276.555C281.82 261.593 278.393 245.784 266.472 237.796C258.272 232.301 248.381 234.792 238.277 237.338C231.713 238.991 225.059 240.668 218.72 240.191C210.682 239.587 202.766 236.937 194.918 234.31C182.994 230.318 171.226 226.379 159.424 229.748C158.025 230.148 156.59 230.588 155.132 231.07C158.797 220.571 152.206 201.784 133.98 167.168C125.303 148.124 132.396 138.464 161.238 124.423C161.127 124.94 161.005 125.456 160.869 125.972C159.534 131.046 157.044 135.814 154.574 140.543L154.574 140.543C150.779 147.809 147.033 154.984 147.593 163.041C148.566 177.028 155.302 191.334 166.018 200.013C174.825 207.145 186.484 208.212 197.894 209.257L197.894 209.257C200.498 209.496 203.09 209.733 205.631 210.041C207.8 210.304 209.977 210.596 212.158 210.89L212.159 210.89C215.182 211.296 218.214 211.704 221.241 212.034ZM388.443 166.942C387.17 167.568 385.999 168.289 384.92 169.097C386.117 168.45 387.288 167.723 388.443 166.942ZM477.464 210.837C475.985 211.637 474.493 212.426 473.009 213.211C459.019 220.611 445.603 227.708 447.929 241.096C450.845 257.883 468.801 266.646 486.379 275.224C491.478 277.712 496.544 280.184 501.203 282.833C502.155 282.453 503.107 282.089 504.059 281.742C511.242 279.121 519.367 281.518 527.345 283.872C536.642 286.616 545.738 289.3 552.908 283.912C561.841 277.2 564.576 265.426 567.31 253.652C570.045 241.878 572.78 230.104 581.713 223.392C598.18 211.019 627.062 202.642 641.835 217.097C651.355 226.412 649.592 240.668 647.784 255.297C646.288 267.397 644.76 279.752 649.56 289.778C654.04 299.135 663.356 303.755 672.822 308.45L672.823 308.45C678.64 311.335 684.515 314.248 689.358 318.307C695.576 285.826 701 256.638 701 253.833C701 249.957 690.645 146.271 682.148 61.9996C678.521 66.7542 673.015 70.5168 667.607 74.2124C658.705 80.2959 650.068 86.198 650.516 96.0451C651.133 109.634 661.077 120.499 670.919 131.252C681.514 142.828 691.99 154.274 690.579 168.847C688.549 189.801 660.338 200.208 640.123 203.342C628.013 205.219 616.793 199.846 605.423 194.401C597.941 190.817 590.393 187.203 582.484 185.604C576.247 184.342 569.446 185.179 562.736 186.005C557.272 186.677 551.87 187.341 546.883 186.86C541.22 204.019 530.151 218.583 515.779 221.528C502.372 224.276 489.74 219.081 477.464 210.837ZM521.511 114.692C521.605 114.275 521.7 113.857 521.795 113.441C523.275 106.925 524.75 100.431 523.462 93.9269C522.096 87.0299 518.116 81.3444 514.104 75.6135C511.091 71.3095 508.059 66.9798 506.104 62.0921C503.679 56.0279 499.155 48.8596 494.551 41.5657C483.906 24.6989 472.837 7.16014 486.312 1.04686C487.253 0.620027 488.188 0.272835 489.12 0H445.376C443.449 6.98848 441.835 13.7902 440.847 20.2538C439.657 28.0515 434.143 36.0731 428.824 43.8107C420.924 55.3035 413.455 66.1696 421.222 74.7449C436.068 91.1366 458.793 96.547 481.292 101.904C495.463 105.277 509.544 108.63 521.511 114.692ZM500.268 0H578.364C574.659 3.0046 573.497 10.2626 572.333 17.5341C570.82 26.9866 569.304 36.4618 562.192 36.6458C549.195 36.9821 537.511 26.9184 526.161 17.1427C517.48 9.66621 508.995 2.35822 500.268 0ZM174.08 73.1157C171.002 75.0525 167.945 76.9751 165.836 79.7661C165.718 79.6018 165.6 79.437 165.481 79.2715C152.834 58.6615 160.701 52.8701 189.373 52.8411C187.524 57.6573 185.493 62.3601 182.565 66.2426C180.36 69.1653 177.209 71.1478 174.08 73.1157ZM308.398 352.221C308.609 352.578 308.815 352.939 309.014 353.304C312.132 359.022 317.463 365.576 322.887 372.244C335.431 387.664 348.474 403.698 335.814 411.442C322.793 419.408 308.83 410.079 294.371 400.418C281.958 392.125 269.18 383.587 256.317 385.537C249.28 386.604 248.884 396.198 248.49 405.77C248.095 415.356 247.701 424.918 240.637 425.869C233.616 426.814 230.944 417.635 228.271 408.448C225.599 399.265 222.924 390.074 215.901 390.977C202.115 392.748 191.376 404.133 180.805 415.34C179.377 416.854 177.952 418.365 176.524 419.848C195.462 422.2 215.641 428.371 221.305 431.681C236.781 440.723 296.184 446.623 318.6 438.663C350.924 427.388 368.68 428.476 399.945 438.663C434.488 447.003 449.246 454.792 468.928 473.165C528.757 536.464 631.354 491.035 639.194 473.165C640.045 471.226 641.777 467.571 644.062 462.752L644.064 462.748C645.616 459.475 647.422 455.666 649.379 451.493C644.714 454.202 640.014 456.9 635.263 459.622C629.46 462.946 623.886 467.705 618.323 472.454C606.734 482.349 595.192 492.204 581.713 488.966C564.246 484.77 554.775 466.482 545.817 449.183L545.816 449.182L545.815 449.178L545.812 449.174L545.81 449.17C543.548 444.802 541.319 440.497 539.002 436.498C535.549 430.541 534.75 423.18 533.963 415.925C532.947 406.56 531.949 397.371 525.288 391.604C517.551 384.905 506.711 384.016 495.972 383.135C484.221 382.172 472.592 381.218 465.284 372.674C453.228 358.581 454.326 334.401 461.654 317.214C462.191 315.955 462.782 314.724 463.423 313.524C456.275 313.114 449.833 314.02 445.071 317.526C435.399 324.647 433.922 342.435 432.58 358.593C431.056 376.94 429.707 393.185 416.732 389.326C400.581 384.522 397.975 363.515 395.381 342.597C392.767 321.525 390.164 300.543 373.738 296.306C356.862 291.953 344.574 308.75 332.116 325.78C324.617 336.029 317.057 346.363 308.398 352.221ZM131.717 381.804C130.449 388.248 129.045 396.576 128.465 404.86L128.029 404.314C124.369 399.742 120.753 395.223 117.847 390.991C125.075 386.231 124.728 375.585 118.65 356.998C119.984 356.172 121.318 355.329 122.653 354.465C125.404 352.686 128.905 351.359 132.406 350.032L132.406 350.032C139.767 347.243 147.128 344.453 147.518 337.458C147.967 329.393 140.583 324.252 133.324 319.198C130.335 317.116 127.367 315.05 124.975 312.8C123.033 310.972 120.547 309.743 118.087 308.526C114.495 306.75 110.961 305.003 109.261 301.463C107.44 297.67 108.02 292.996 108.587 288.419C109.273 282.885 109.942 277.492 106.33 273.968C105.069 272.737 103.536 271.944 101.848 271.507C105.14 262.922 111.674 256.11 122.1 250.153C116.68 255.865 113.218 262.584 113.379 270.263C113.686 284.906 125.426 294.965 137.301 305.14C148.33 314.59 159.475 324.14 161.68 337.552C163.278 347.272 155.396 354.205 147.271 361.351C140.386 367.406 133.327 373.616 131.717 381.804ZM27.7777 425.726C20.9539 435.127 15.2277 447.749 10.3675 464.95C10.1988 467.628 8.03206 469.413 0 473.165C6.55566 480.604 34.4391 475.733 51.0398 464.95C56.8471 461.178 73.6701 464.13 92.8781 467.5L92.8785 467.5C108.254 470.198 125.158 473.165 139.163 473.165C157.816 473.165 154.379 467.404 148.473 457.504C146.032 453.413 143.17 448.616 141.27 443.226C141.071 443.359 140.864 443.49 140.65 443.618C127.567 451.476 113.677 442.032 99.2939 432.252C86.9463 423.857 74.2349 415.214 61.3573 417.058C54.3116 418.066 53.8416 427.657 53.3727 437.225C52.9031 446.807 52.4346 456.366 45.3636 457.258C38.3352 458.145 35.7355 448.945 33.1334 439.736C31.6324 434.424 30.1307 429.109 27.7777 425.726ZM639.194 0H664.563C656.334 3.41092 648.531 9.89488 640.645 16.4483C628.838 26.2595 616.844 36.2265 602.951 36.2707C595.873 36.2932 594.295 26.8372 592.718 17.3895C591.516 10.1871 590.315 2.9895 586.679 0H639.194Z" fill="url(#paint1_linear)"/>
<path fill-rule="evenodd" clip-rule="evenodd" d="M152.556 130.661C131.034 142.406 126.251 151.879 133.98 168.763C134.33 169.424 134.675 170.08 135.017 170.73C142.872 162.519 149.743 153.779 153.782 143.787C155.573 139.358 154.607 135.018 152.556 130.661ZM113.543 257.114C100.129 267.964 96.8715 281.932 100.807 303.189C109.615 293.252 121.869 286.068 134.021 281.563C141.203 278.901 149.329 281.336 157.306 283.727C166.603 286.514 175.7 289.24 182.87 283.768C182.922 283.728 182.974 283.688 183.025 283.648C176.804 274.199 170.15 265.469 162.338 261.178C152.679 255.873 138.364 256.373 124.745 256.848C120.916 256.982 117.143 257.113 113.543 257.114ZM252.13 208.186C259.661 208.445 266.601 210.74 271.796 215.903C281.316 225.365 279.554 239.845 277.745 254.703C276.249 266.993 274.722 279.543 279.521 289.725C282.766 296.61 288.549 300.97 295.088 304.663C295.299 294.822 297.793 284.311 300.414 275.603C302.903 267.335 309.503 261.673 316.122 255.994C322.189 250.789 328.271 245.571 331.219 238.32C328.374 235.947 325.539 233.513 322.71 231.084C302.107 213.39 281.761 195.918 259.543 203.866C256.647 204.902 254.199 206.363 252.13 208.186ZM419.374 195.385C418.885 186.585 416.74 178.4 412.675 171.991C411.234 169.718 409.66 167.621 407.968 165.681C407.875 164.173 407.791 162.649 407.707 161.119C407.87 161.139 408.033 161.158 408.195 161.178C410.363 161.445 412.54 161.742 414.72 162.04L414.723 162.04C427.508 163.786 440.434 165.551 452.577 161.33C453.025 161.174 453.48 161.017 453.941 160.857C468.619 155.77 489.352 148.585 489.589 132.884C489.758 121.725 480.435 113.32 471.239 105.03C461.518 96.2664 451.94 87.6312 453.866 76.0056C455.603 65.5258 467.381 62.2815 479.184 59.0306C488.635 56.4275 498.102 53.8201 502.44 47.4901C503.9 50.1668 505.161 52.7322 506.104 55.1281C508.059 60.0925 511.091 64.4901 514.104 68.8617C518.116 74.6826 522.096 80.4573 523.462 87.4626C524.75 94.0692 523.275 100.665 521.795 107.283C520.433 113.372 519.067 119.48 519.847 125.631C520.253 128.839 520.568 132.167 520.887 135.537C522.354 151.032 523.903 167.404 534.801 176.964C542.297 183.54 552.408 182.276 562.736 180.986C569.446 180.147 576.247 179.298 582.484 180.578C590.393 182.203 597.941 185.874 605.423 189.514C608.724 191.119 612.011 192.718 615.312 194.133C611.486 196.101 607.543 197.642 603.25 198.047C596.832 198.653 590.73 196.387 584.608 194.114C578.975 192.023 573.325 189.925 567.395 190.052C564.303 190.119 561.106 190.077 557.87 190.035C542.988 189.84 527.264 189.635 516.974 199.905C509.895 206.969 509.973 217.622 510.053 228.504C510.105 235.573 510.157 242.74 508.248 249.082C507.986 249.955 507.7 250.821 507.395 251.681C498.286 245.714 490.616 238.978 488.967 230.619C486.498 218.093 497.064 203.222 506.684 189.684C517.728 174.141 527.524 160.355 514.912 153.89C499.115 145.791 483.815 159.584 468.156 173.7C453.421 186.984 438.369 200.553 422.287 196.435C421.238 196.166 420.27 195.814 419.374 195.385ZM342.979 137.312C322.754 132.304 303.002 126.356 289.635 111.366C281.868 102.656 289.337 91.6197 297.237 79.9465C302.556 72.0874 308.07 63.9399 309.261 56.0197C311.18 43.2572 315.47 29.1966 319.812 14.9679C321.091 10.7774 322.374 6.5724 323.603 2.38165H391.606C389.844 6.96736 387.884 11.4134 385.129 15.1224C382.924 18.0911 379.773 20.1047 376.645 22.1035C372.868 24.5163 369.126 26.9076 367.123 30.9313C364.76 35.6782 365.019 41.0677 365.28 46.5061C365.415 49.3214 365.551 52.1498 365.324 54.909C365.14 57.1453 365.061 59.3755 364.982 61.5963C364.812 66.3805 364.643 71.1216 363.434 75.7891C362.098 80.9434 359.608 85.7861 357.138 90.5895C353.344 97.9697 349.597 105.257 350.157 113.44C350.505 118.526 351.592 123.652 353.335 128.544C349.484 131.133 345.997 134.076 343.121 137.159C343.074 137.21 343.026 137.261 342.979 137.312ZM480.095 2.38165C479.979 9.42679 485.15 18.9214 491.064 28.6298C489.048 28.0205 486.923 27.4532 484.77 26.8785C477.14 24.8418 469.158 22.7115 464.46 18.2837C460.079 14.1552 457.694 8.3382 455.322 2.55036L455.322 2.55017L455.253 2.38165H480.095ZM517.857 2.38165H573.647C573.139 4.75625 572.737 7.31119 572.334 9.86783L572.333 9.87051C570.82 19.4714 569.304 29.0954 562.192 29.2823C549.195 29.6238 537.511 19.4021 526.161 9.47297C523.378 7.03826 520.615 4.62113 517.857 2.38165ZM334.301 331.132C337.125 333.214 340.031 335.275 342.945 337.342C362.078 350.913 381.539 364.716 380.355 386.369C379.327 405.15 359.926 412.64 340.525 420.13C331.297 423.693 322.07 427.255 314.82 432.032C309.417 435.593 304.026 439.018 298.62 442.363C306.55 441.86 313.524 440.773 318.6 438.979C350.924 427.757 368.68 428.839 399.945 438.979C434.488 447.28 449.246 455.031 468.928 473.318C474.555 479.243 480.56 484.211 486.829 488.334C489.869 484.146 494.051 480.41 498.17 476.729C506.295 469.471 514.177 462.43 512.579 452.558C510.374 438.935 499.229 429.235 488.199 419.636C476.887 409.791 465.696 400.051 464.397 386.292C463.898 388.996 462.968 391.621 461.521 394.149C452.139 410.543 430.065 393.7 411.286 379.369L411.285 379.369C405.916 375.272 400.816 371.381 396.359 368.53C389.534 364.165 384.875 356.997 380.252 349.886C374.863 341.595 369.523 333.38 360.858 329.77C352.843 326.43 343.496 328.737 334.301 331.132ZM464.76 378.79C467.448 365.431 480.843 355.349 494.87 348.841C488.049 336.954 485.22 320.236 484.737 307.014C484.489 300.197 486.195 293.875 488.828 287.761C469.839 281.855 451.252 276.683 441.234 290.119C430.533 304.47 440.463 323.135 450.531 342.059L450.531 342.06C457.192 354.581 463.914 367.216 464.76 378.79ZM122.741 384.277C121.261 390.601 116.441 393.754 107.662 394.42L106.576 394.558L106.018 394.629L104.664 394.801L104.661 394.801L104.656 394.802L104.646 394.803C100.402 395.343 96.3159 395.862 92.3804 396.4C92.3589 398.399 92.1005 400.516 91.8396 402.653C91.272 407.302 90.6925 412.049 92.5135 415.901C94.2132 419.497 97.7477 421.272 101.339 423.076L101.34 423.076C103.799 424.311 106.286 425.56 108.228 427.416C110.619 429.702 113.587 431.801 116.577 433.915C123.836 439.049 131.22 444.27 130.77 452.462C130.38 459.567 123.019 462.4 115.659 465.233L115.658 465.234C112.157 466.581 108.656 467.929 105.906 469.736L105.701 469.87C117.253 471.756 128.975 473.318 139.163 473.318C157.816 473.318 154.379 467.585 148.473 457.731C144.404 450.943 139.163 442.2 139.163 432.029C139.163 422.217 150.108 419.096 164.082 419.325C164.029 418.834 163.977 418.343 163.924 417.853C162.908 408.341 161.911 399.008 155.25 393.15C147.512 386.346 136.672 385.443 125.933 384.549L125.913 384.547L125.909 384.547L125.905 384.546C124.849 384.458 123.793 384.37 122.741 384.277ZM41.2619 412.459C47.2151 408.115 53.8165 405.029 61.1542 402.689C60.1623 406.986 59.0657 411.196 55.8435 413.648C53.1231 415.718 49.6719 414.687 46.1446 413.632C44.5117 413.144 42.8625 412.652 41.2619 412.459ZM10.3675 465.142C13.0976 455.525 16.1009 447.347 19.4185 440.366C19.8682 443.143 20.8819 445.721 22.5984 447.753C25.3714 451.036 29.7834 451.403 34.2416 451.773C38.3159 452.111 42.4288 452.453 45.3643 455.027C47.8916 457.243 48.27 460.774 48.6556 464.372L48.6556 464.373C48.7302 465.069 48.8051 465.767 48.8958 466.46C32.1397 476.259 6.28095 480.412 0 473.318C8.03206 469.583 10.1988 467.807 10.3675 465.142ZM569.619 353.668C562.624 353.134 555.722 351.026 548.876 348.73C549.198 348.478 549.519 348.226 549.841 347.973C550.176 347.71 550.511 347.446 550.846 347.183L550.86 347.171L550.874 347.16C562.341 338.139 573.927 329.024 587.107 329.914C595.934 330.51 600.649 338.796 605.167 347.897C600.055 347.986 594.647 349.37 589.176 350.77C582.612 352.449 575.958 354.152 569.619 353.668ZM635.962 390.601C634.88 385.532 633.777 380.367 632.346 375.434C649.877 382.777 672.813 389.113 677.968 373.748C683.128 358.369 674.145 343.629 664.999 328.623C656.843 315.241 648.558 301.646 650.057 287.196C650.821 279.834 660.119 279.259 669.41 278.685C678.705 278.11 687.991 277.535 688.714 270.166C689.441 262.752 680.498 260.115 671.532 257.473C662.58 254.834 653.607 252.189 654.218 244.774C655.336 231.222 666.343 220.208 677.034 209.508C683.967 202.57 690.768 195.764 694.653 188.485C698.361 225.804 701 253.072 701 255.019C701 259.925 684.253 345.909 675.879 388.288C670.336 406.618 657.5 434.569 648.447 453.724C644.492 449.171 640.813 444.485 638.952 438.65C636.911 432.254 637.615 425.52 638.32 418.765C638.969 412.548 639.621 406.312 638.138 400.305C637.364 397.171 636.667 393.907 635.962 390.602L635.962 390.601ZM692.152 163.399C688.752 129.392 684.845 90.6903 681.335 56.0636C677.727 60.4142 672.625 63.9557 667.607 67.4386C658.705 73.6176 650.068 79.6123 650.516 89.6141C651.133 103.416 661.077 114.452 670.919 125.373C681.328 136.925 691.622 148.348 690.642 162.781C691.17 162.944 691.674 163.149 692.152 163.399ZM639.194 2.38165H648.354C645.782 4.43197 643.218 6.59568 640.646 8.76692L640.645 8.76713L640.645 8.7677C628.838 18.7329 616.844 28.8564 602.951 28.9012C595.873 28.9241 594.295 19.3196 592.718 9.72364C592.307 7.21859 591.895 4.71412 591.386 2.38165H639.194Z" fill="url(#paint2_linear)" fill-opacity="0.5"/>
<path fill-rule="evenodd" clip-rule="evenodd" d="M477.033 45.9066C482.242 60.1738 470.299 75.6563 459.185 86.1685C453.509 91.5381 445.35 93.4276 437.145 95.3276C429.729 97.0448 422.277 98.7707 416.585 103.082C410.481 107.706 406.689 116.498 403.063 124.904L403.024 124.994C406.648 124.419 410.342 123.694 414.063 122.964L414.063 122.964C430.012 119.836 446.464 116.608 460.092 124.611C476.219 134.081 492.959 156.769 486.454 174.885C482.265 186.549 468.294 191.378 454.821 196.035C439.889 201.196 425.568 206.145 425.855 219.956C426.216 237.274 442.639 248.973 458.717 260.426C475.802 272.597 492.497 284.489 489.108 302.549C486.403 316.967 471.14 310.636 453.931 303.498C438.942 297.28 422.478 290.451 411.553 296.189C400.928 301.77 396.797 319.38 393.044 335.377C392.91 335.948 392.777 336.516 392.643 337.082C392.833 337.159 393.024 337.235 393.214 337.31C399.148 339.637 405.973 340.147 412.706 340.65C423.069 341.425 433.214 342.183 439.554 349.526C448.77 360.202 447.717 375.27 446.721 389.532C446.505 392.634 446.291 395.697 446.186 398.669C445.984 404.367 443.679 409.624 441.381 414.865C438.884 420.56 436.395 426.236 436.621 432.442C436.862 439.021 439.869 444.981 442.9 450.988L442.9 450.989L442.901 450.99L442.901 450.991L442.902 450.992C443.523 452.224 444.146 453.458 444.746 454.7C453.171 459.525 460.61 465.399 468.928 473.165C499.161 505.151 540.315 509.374 574.644 503.418C574.424 503.383 574.203 503.338 573.98 503.284C567.353 501.672 563.76 494.645 560.361 487.998L560.36 487.995L560.358 487.992L560.356 487.988C559.499 486.311 558.654 484.659 557.775 483.124C556.465 480.835 556.162 478.006 555.864 475.219C555.478 471.62 555.1 468.09 552.572 465.874C549.637 463.3 545.524 462.958 541.45 462.62C536.992 462.25 532.579 461.883 529.807 458.6C525.232 453.185 525.649 443.894 528.429 437.29C531.24 430.616 537.919 426.1 544.518 423.661C547.243 422.653 550.326 423.575 553.353 424.479C556.88 425.533 560.331 426.565 563.052 424.494C566.441 421.915 567.478 417.391 568.516 412.867C569.553 408.343 570.591 403.819 573.98 401.24C580.228 396.486 591.186 393.267 596.791 398.821C600.403 402.401 599.734 407.878 599.048 413.499C598.48 418.149 597.901 422.896 599.722 426.748C601.421 430.344 604.956 432.119 608.547 433.923C611.007 435.158 613.494 436.407 615.436 438.263C617.827 440.548 620.795 442.647 623.785 444.761C631.044 449.895 638.428 455.117 637.978 463.308C637.588 470.413 630.227 473.247 622.867 476.08C619.366 477.428 615.865 478.776 613.114 480.583C606.896 484.669 600.721 488.283 594.297 492.009C592.095 493.286 589.981 495.115 587.87 496.939C585.532 498.961 583.199 500.979 580.758 502.237C611.487 495.699 635.554 481.462 639.194 473.165C640.045 471.226 641.777 467.571 644.062 462.752C652.734 444.463 669.357 409.404 675.879 387.732C677.451 379.74 679.318 370.203 681.313 359.952C669.595 362.29 654.284 360.832 643.905 359.403C635.863 358.295 629.363 351.362 623.023 344.599C615.542 336.62 608.285 328.879 598.981 331.227C586.143 334.468 577.663 346.769 569.27 358.942C560.234 372.048 551.301 385.007 537.141 386.352C516.782 388.286 501.532 361.297 494.727 341.13C490.651 329.048 493.654 316.49 496.698 303.764C498.702 295.389 500.722 286.941 500.753 278.509C500.778 271.859 498.696 265.032 496.642 258.296C493.48 247.929 490.385 237.78 495.142 228.837C502.057 215.835 517.131 211.152 531.398 206.719L531.4 206.718C534.502 205.754 537.566 204.802 540.5 203.779C546.126 201.817 552.117 202.067 558.09 202.316C564.581 202.586 571.05 202.856 577.008 200.286C583.326 197.56 587.994 192.38 592.7 187.158C596.234 183.237 599.79 179.292 604.08 176.346C609.404 172.691 615.383 166.668 621.467 160.54C635.537 146.368 650.168 131.631 658.54 144.303C667.152 157.337 659.08 172.563 650.72 188.331C643.544 201.867 636.156 215.802 638.931 229.091C640.449 236.361 649.769 236.102 659.066 235.844C668.377 235.585 677.666 235.327 679.074 242.633C680.473 249.895 671.767 253.326 663.054 256.76C654.345 260.192 645.628 263.627 646.986 270.894C649.651 285.159 661.418 295.57 673.001 305.819C678.677 310.84 684.309 315.823 688.804 321.201C695.25 287.578 701 256.721 701 253.833C701 250.597 693.779 177.764 686.45 104.755C675.364 106.979 663.679 99.0486 651.65 90.8857C639.237 82.4623 626.459 73.7907 613.596 75.771C606.559 76.8545 606.163 86.5996 605.769 96.3213C605.374 106.057 604.98 115.77 597.916 116.736C590.895 117.696 588.223 108.373 585.55 99.0413C582.877 89.7145 580.203 80.3795 573.18 81.2959C559.393 83.0948 548.655 94.6587 538.084 106.042C526.23 118.807 514.587 131.345 499.094 129.63C480.289 127.549 485.241 91.3702 488.995 71.979C490.606 63.6622 497.665 57.3557 504.55 51.2047C512.675 43.9467 520.557 36.9052 518.959 27.0331C517.201 16.1746 509.764 7.80888 501.233 0H424.254C424.525 0.53135 424.792 1.06561 425.059 1.60042C427.03 5.53947 429.015 9.50768 432.306 12.5553C437.677 17.5282 444.785 21.164 451.806 24.756C462.671 30.3143 473.331 35.7674 477.033 45.9066ZM364.69 138.897C367.275 139.15 369.765 138.857 372.196 138.205C367.624 131.802 366.15 122.344 364.677 112.899V112.899C362.477 98.7827 360.281 84.6956 347.757 80.8792C333.863 76.6455 321.897 86.1402 309.753 95.776C304.833 99.6796 299.884 103.606 294.766 106.653C295.022 109.69 295.557 112.608 296.509 115.34C296.955 116.618 297.718 117.55 298.695 118.254C306.28 117.032 314.269 116.969 321.22 117.284C329.498 117.66 336.434 122.864 343.39 128.083C350.07 133.095 356.768 138.121 364.69 138.897ZM271.326 219.6C266.65 225.341 262.243 231.255 260.258 238.295C258.78 243.537 256.507 249.698 254.114 256.185C250.236 266.696 246.044 278.061 244.407 287.753C243.056 284.207 243.867 279.881 244.692 275.479C245.58 270.746 246.483 265.926 244.735 261.893C240.501 252.127 233.353 242.499 223.669 239.045C214.088 235.627 201.044 236.154 194.042 243.812C189.797 248.455 189.835 255.234 189.874 262.085C189.909 268.345 189.944 274.665 186.711 279.467C183.928 283.601 179.038 284.62 174.054 285.659C170.193 286.464 166.276 287.28 163.238 289.566C161.197 291.101 158.988 292.6 156.746 294.122C147.875 300.14 138.497 306.503 137.069 316.819C135.967 324.78 141.808 330.989 147.673 337.224C150.489 340.217 153.309 343.215 155.37 346.416C161.382 355.753 167.206 364.724 173.695 373.703C176.565 377.675 178.887 382.85 181.208 388.025C186.088 398.903 190.969 409.783 200.952 409.489C212.463 409.15 218.844 397.228 225.117 385.507C227.7 380.68 230.265 375.888 233.162 371.952C235.516 368.756 236.952 364.805 238.372 360.896C240.447 355.189 242.488 349.573 247.304 346.529C252.463 343.268 259.174 343.559 265.746 343.843C272.337 344.128 278.789 344.408 283.397 341.093C284.281 351.063 290.875 360.756 297.526 370.534C305.489 382.24 313.535 394.068 311.97 406.642C310.835 415.754 301.395 419.543 291.665 423.449C283.419 426.759 274.964 430.153 271.18 436.941C270.368 438.399 269.507 439.978 268.627 441.65C248.581 440.099 229.211 436.3 221.305 431.681C209.86 424.993 139.163 406.626 139.163 431.681C139.163 441.9 144.404 450.684 148.473 457.504C154.379 467.404 157.816 473.165 139.163 473.165C125.158 473.165 108.254 470.198 92.8785 467.5L92.8781 467.5C73.6701 464.13 56.8471 461.178 51.0398 464.95C34.4391 475.733 6.55566 480.604 0 473.165C8.03206 469.413 10.1988 467.628 10.3675 464.95C27.5555 404.121 55.5741 400.544 104.664 394.276L106.408 394.054L107.662 393.893C130.121 392.182 126.672 374.114 107.662 328.176C91.7907 278.694 96.3016 258.548 139.163 242.333C162.529 236.83 162.581 221.487 133.98 167.168C124.892 147.222 133.102 137.571 165.481 122.398C186.707 115.356 183.629 104.491 165.481 79.2715C150.411 54.7127 164.469 51.1949 208.147 53.3953C235.431 56.6945 233.694 45.2734 221.305 17.6615C210.279 3.95229 211.943 1.11226 221.305 0H253.968C253.574 1.62562 253.196 3.25602 252.818 4.88197L252.817 4.88636C252.132 7.83422 251.45 10.7674 250.688 13.631C250.038 16.0744 249.35 18.5226 248.66 20.9753C244.619 35.3496 240.533 49.8827 243.866 64.5571C243.989 65.0986 244.113 65.6482 244.239 66.2051C245.036 69.7336 245.9 73.5516 246.921 77.4279C242.418 77.532 237.443 76.6235 232.622 75.7432C222.24 73.8472 212.572 72.0818 209.874 80.8436C206.751 90.9854 215.014 99.8065 223.111 108.45C231.553 117.462 239.813 126.281 234.804 136.203C228.841 148.014 214.958 149.891 200.899 151.793C187.494 153.605 173.929 155.44 166.918 165.927C157.482 180.042 170.477 206.554 185.911 209.335C198.277 211.563 209.933 203.789 221.721 195.927C232.35 188.838 243.085 181.678 254.543 181.716C260.537 181.736 261.379 188.727 262.27 196.122C262.869 201.1 263.491 206.261 265.721 209.601C267.708 212.574 269.547 215.983 271.326 219.6ZM358.616 316.284C358.642 315.292 358.669 314.298 358.695 313.304C359.278 291.736 359.858 270.26 344.265 263.35C328.246 256.25 313.584 271.116 298.718 286.189C292.411 292.583 286.067 299.015 279.567 303.823C279.633 303.898 279.698 303.975 279.762 304.052C284.02 309.177 287.765 316.728 288.855 323.981C299.295 312.251 322.43 309.459 339.347 310.224C346.295 310.539 352.585 312.951 358.616 316.284ZM645.332 13.1254C643.974 8.86899 643.831 4.46278 644.096 0H675.879C677.75 18.4442 680.038 41.0706 682.465 65.1447C681.701 64.1853 680.933 63.2261 680.166 62.2692C674.742 55.4962 669.411 48.8399 666.293 43.0317C663.779 38.3506 660.263 34.368 656.768 30.409L656.767 30.4086C652.113 25.1369 647.495 19.907 645.332 13.1254Z" fill="url(#paint3_linear)"/>
<defs>
<linearGradient id="paint0_linear" x1="350.5" y1="0" x2="350.5" y2="504.911" gradientUnits="userSpaceOnUse">
<stop stop-color="#F71B87"/>
<stop offset="0.811884" stop-color="#FFB064" stop-opacity="0.62"/>
</linearGradient>
<linearGradient id="paint1_linear" x1="350.5" y1="0" x2="350.5" y2="505.704" gradientUnits="userSpaceOnUse">
<stop stop-color="#F71C87"/>
<stop offset="1" stop-color="#FFB064" stop-opacity="0.62"/>
</linearGradient>
<linearGradient id="paint2_linear" x1="350.5" y1="2.38165" x2="350.5" y2="488.335" gradientUnits="userSpaceOnUse">
<stop stop-color="#F81D87"/>
<stop offset="1" stop-color="#FFCE89" stop-opacity="0"/>
</linearGradient>
<linearGradient id="paint3_linear" x1="350.5" y1="0" x2="342.561" y2="192.517" gradientUnits="userSpaceOnUse">
<stop stop-color="#F71C87"/>
<stop offset="1" stop-color="#FF957B" stop-opacity="0"/>
</linearGradient>
</defs>
</svg>
