<svg xmlns="http://www.w3.org/2000/svg" width="24" height="24" fill="none" viewBox="0 0 24 24">
  <path fill="#A4A4A4" d="M13.886 5.829l-.857-4.115H10.97l-.857 4.115-1.2.514-3.428-2.229-1.543 1.372L6.17 8.914l-.342 1.2-4.115.857v2.058l4.115.857.514 1.371-2.229 3.429 1.372 1.371 3.428-2.228 1.372.514.685 3.943h2.058l.857-4.115 1.371-.514 3.429 2.229 1.371-1.372-2.228-3.428.514-1.372 3.943-.685V10.97l-4.115-.857-.514-1.371 2.229-3.429-1.372-1.371-3.428 2.228-1.2-.342zM14.4 0l.857 4.114 3.6-2.228 3.429 3.428-2.4 3.6L24 9.6v4.8l-4.114.857 2.4 3.6-3.429 3.429-3.6-2.4L14.4 24H9.6l-.857-4.114-3.6 2.228-3.429-3.428 2.4-3.6L0 14.4V9.6l4.114-.857-2.228-3.6 3.428-3.429 3.6 2.4L9.6 0h4.8zm1.029 12A3.439 3.439 0 0112 15.429 3.439 3.439 0 018.571 12 3.439 3.439 0 0112 8.571 3.439 3.439 0 0115.429 12zM12 13.714c1.029 0 1.714-.685 1.714-1.714S13.03 10.286 12 10.286s-1.714.685-1.714 1.714.685 1.714 1.714 1.714z"/>
</svg>
