<svg xmlns="http://www.w3.org/2000/svg" width="111" height="56" fill="none" viewBox="0 0 111 56">
  <path fill="#00FFD1" fill-opacity=".5" fill-rule="evenodd" d="M81.173 19.762c4.591-5.558 8.988-10.88 5.088-15.344-3.214-3.679-7.534-.009-12.238 3.988-4.094 3.479-8.48 7.205-12.68 6.545-3.398-.534-4.75-4.376-6.1-8.209-.913-2.594-1.825-5.184-3.37-6.742H44.97c-1.58 1.45-2.817 3.787-4.06 6.135-1.083 2.044-2.17 4.098-3.492 5.583-1 1.122-1.88 2.364-2.757 3.601-1.747 2.465-3.48 4.91-6.109 6.343-3.444 1.877-7.832 2.413-12.135 2.939-6.518.795-12.838 1.567-15.37 6.944-3.424 7.27 6.742 15.415 13.659 19.514 3.7 2.191 8.057 1.9 12.464 1.604 3.604-.241 7.24-.485 10.575.626 1.336.444 2.255 1.498 3.07 2.711h48.904c-.92-3.093-4.167-5.713-7.516-8.415-3.05-2.461-6.186-4.991-7.727-8.01-1.479-2.9-1.076-6.556-.042-9.64 1.135-3.386 3.973-6.822 6.74-10.173z" clip-rule="evenodd"/>
  <path fill="#8FFF5A" fill-opacity=".5" fill-rule="evenodd" d="M38.694 1.787c4.616 1.845 5.179 7.344 9.7 9.328 4.116 1.806 9.497-.275 13.91 1.031 5.852 1.732 15.9 2.827 15.693 7.731-.243 5.754-11.322 7.03-16.487 11.12-2.417 1.913-3.692 4.431-5.822 6.544-2.138 2.121-3.735 4.736-6.798 5.977-3.077 1.247-7.153-.391-10.196.907-6.607 2.818-11.518 14.521-17.433 10.88-6.683-4.116 7.796-13.902 3.324-19.568-3.741-4.74-16.317 1.75-20.8-2.575-3.368-3.25 5.117-7.287 6.36-11.36 1.225-4.02-1.408-8.485.83-12.226 2.318-3.873 6.576-7.29 11.711-8.734 5.102-1.433 11.18-.984 16.008.945z" clip-rule="evenodd"/>
  <path fill="#ED2EB8" fill-opacity=".5" fill-rule="evenodd" d="M79.257 56c.141-2.442.07-4.817-.506-6.995-.765-2.895-2.726-5.16-4.703-7.445-.993-1.146-1.99-2.297-2.84-3.535-1.128-1.638-2.863-3.183-4.59-4.722-3.43-3.056-6.831-6.086-5.384-9.76 1.267-3.22 5.324-3.617 9.39-4.017 4.045-.396 8.098-.794 9.427-3.967 1.642-3.921-.931-9.069-3.334-13.875-.283-.567-.564-1.13-.836-1.684h15.493c1.996 2.586 4.07 4.977 6.349 6.419 2.749 1.74 6.203 3.002 9.372 2.257.72-.17 1.436-.418 2.147-.729A14.934 14.934 0 01111 15v26c0 8.284-6.716 15-15 15H79.257z" clip-rule="evenodd"/>
  <path fill="#FFE81A" fill-opacity=".5" fill-rule="evenodd" d="M33.371 39.782c-3.545 6.278-6.94 12.288-2.317 15.999.096.078.193.15.29.219h4.842c2.033-1.225 4.077-3.7 6.216-6.291 3.421-4.144 7.085-8.581 11.336-8.668 3.439-.07 5.444 3.475 7.445 7.011 2.012 3.557 4.02 7.106 7.476 6.96 3.946-.165 5.338-4.502 6.743-8.876.707-2.202 1.417-4.415 2.459-6.108.786-1.28 1.435-2.658 2.081-4.03 1.288-2.733 2.565-5.443 4.902-7.315 3.062-2.453 7.288-3.75 11.432-5.022 6.278-1.927 12.364-3.795 13.914-9.532 1.46-5.402-3.644-10.067-9.42-13.355A14.986 14.986 0 0096 0H18.718c-.351.514-.591 1.14-.699 1.897-.721 5.078 4.26 7.816 9.46 10.674 3.435 1.888 6.966 3.829 9.011 6.531 1.965 2.596 2.21 6.265 1.733 9.484-.523 3.532-2.715 7.412-4.852 11.196z" clip-rule="evenodd"/>
  <path fill="#FD41D4" fill-opacity=".5" fill-rule="evenodd" d="M10.226 23.785C4.914 20.08-.172 16.532 1.949 12.117c1.748-3.64 6.34-1.438 11.34.96 4.353 2.087 9.015 4.322 12.379 2.982 2.721-1.085 2.86-4.505 2.998-7.917.14-3.431.279-6.855 3.044-7.887A4.187 4.187 0 0132.84 0h.659c2.462.197 4.761 2.55 7.076 4.92 1.444 1.478 2.894 2.963 4.394 3.934 1.133.734 2.197 1.59 3.257 2.442 2.113 1.698 4.207 3.382 6.794 4.063 3.388.892 7.222.5 10.98.115 5.695-.582 11.216-1.146 14.747 2.8 4.775 5.335-1.663 13.972-6.42 18.66-2.543 2.507-6.288 3.094-10.075 3.688-3.096.485-6.22.975-8.74 2.522-1.356.833-1.791 2.429-2.228 4.03-.422 1.545-.845 3.095-2.096 3.973-1.735 1.217-3.986 1.305-6.253 1.393-1.067.041-2.139.083-3.16.243-1.37.214-2.73.378-4.086.541-1.95.235-3.89.468-5.84.85-1.509.296-3.141 1.001-4.802 1.826h-14.52c-.473-2.965 1.762-5.986 4.075-9.112 1.927-2.605 3.908-5.284 4.42-8.062.49-2.669-.8-5.602-2.474-7.946-1.837-2.572-5.12-4.862-8.322-7.095z" clip-rule="evenodd"/>
</svg>
