<svg width="817" height="699" viewBox="0 0 817 699" fill="none" xmlns="http://www.w3.org/2000/svg">
<path fill-rule="evenodd" clip-rule="evenodd" d="M610.273 -275.305C647.283 -223.899 604.264 -162.798 628.212 -107.354C640.148 -79.7203 686.639 -73.041 708.039 -48.9545C730.888 -23.2364 737.982 8.29818 755.905 36.3721C783.076 78.931 871.558 128.005 842.009 160.886C804.897 202.182 690.447 119.989 647.698 156.779C608.79 190.264 714.508 287.74 666.647 311.805C621.409 334.551 567.502 252.251 517.025 222.483C490.705 206.962 466.543 173.838 438.226 177.099C379.333 183.884 351.073 268.389 290.811 248.542C242.932 232.773 310.837 152.619 271.264 122.111C210.803 75.5002 70.3341 128.305 50.9117 63.5964C31.1991 -2.07946 173.861 6.472 224.179 -34.7594C244.31 -51.2552 228.204 -93.9412 254.433 -103.172C288.688 -115.227 359.08 -56.8887 372.384 -86.9176C398.727 -146.377 313.354 -229.274 337.139 -289.849C352.215 -328.245 418.386 -332.706 467.86 -330.071C517.238 -327.442 582.063 -314.486 610.273 -275.305Z" fill="#FF984E" fill-opacity="0.5"/>
<path fill-rule="evenodd" clip-rule="evenodd" d="M838.321 490.156C786.198 513.781 789.043 382.788 741.856 350.409C711.085 329.294 661.889 369.157 631.149 347.997C601.778 327.779 616.724 276.538 594.287 248.827C561.58 208.432 492.359 201.491 473.357 153.113C456.243 109.54 464.371 43.3114 503.427 17.5002C553.727 -15.743 623.962 30.1993 682.312 15.017C710.433 7.70011 715.596 -39.457 744.096 -45.1203C773.435 -50.9502 797.769 -8.03256 827.128 -13.7594C874.447 -22.9897 906.284 -103.697 950.914 -85.4626C991.464 -68.8945 960.968 0.132689 967.237 43.4864C971.088 70.1124 979.743 95.2531 980.935 122.13C982.019 146.586 969.445 170.364 973.932 194.429C981.698 236.085 1046.47 282.824 1016.47 312.746C983.489 345.639 913.579 254.666 880.573 287.535C831.147 336.757 901.855 461.359 838.321 490.156Z" fill="#FF6B6B" fill-opacity="0.5"/>
<path fill-rule="evenodd" clip-rule="evenodd" d="M370.263 219.482C379.237 171.998 426.648 135.693 471.651 118.089C516.285 100.628 567.865 138.154 613.729 124.241C638.043 116.866 631.915 68.9974 656.357 62.0585C680.743 55.1355 701.474 101.86 725.084 92.6286C781.405 70.6075 814.273 -52.3026 865.118 -19.566C916.119 13.2704 787.332 105.756 822.373 155.268C858.924 206.912 957.933 143.97 1008.12 182.492C1045.38 211.091 1060.95 279.41 1035.81 319.086C1006.64 365.132 925.37 340.653 884.824 377.087C853.307 405.406 879.881 479.361 840.382 494.692C798.291 511.029 762.129 445.917 717.135 442.171C680.673 439.135 644.371 496.125 613.924 475.837C578.997 452.565 619.657 379.149 585.647 354.556C542.811 323.583 474.058 370.406 429.275 342.321C390.366 317.919 361.735 264.611 370.263 219.482Z" fill="#FEA869" fill-opacity="0.5"/>
<path fill-rule="evenodd" clip-rule="evenodd" d="M314.405 419.5C276.196 381.404 299.35 310.806 270.725 265.069C256.458 242.274 218.645 249.452 197.544 232.782C175.013 214.983 163.875 187.071 144.812 165.6C115.913 133.05 37.5516 112.146 55.0548 72.2924C77.0377 22.2391 181.69 67.0692 208.908 19.6585C233.68 -23.4917 133.221 -85.3905 166.706 -122.192C198.356 -156.976 255.315 -94.4287 300.33 -80.8191C323.803 -73.7226 348.67 -49.2655 370.412 -60.6054C415.631 -84.1899 423.038 -172.741 474.02 -171.409C514.526 -170.351 475.111 -74.4003 511.663 -56.9143C567.51 -30.1985 668.921 -121.265 695.609 -65.4052C722.697 -8.71055 608.764 24.6698 576.363 78.5042C563.4 100.042 583.601 135.932 564.555 152.338C539.68 173.765 473.944 138.791 468.741 171.207C458.439 235.393 540.302 289.352 532.212 353.854C527.085 394.739 475.722 418.233 436.27 430.124C396.893 441.992 343.528 448.538 314.405 419.5Z" fill="#FFC85F" fill-opacity="0.5"/>
<path fill-rule="evenodd" clip-rule="evenodd" d="M812.996 459.71C750.04 466.694 717.953 399.207 657.896 392.828C627.963 389.649 599.306 426.862 567.814 433.669C534.188 440.937 503.236 431.624 469.978 433.444C419.561 436.203 333.349 489.163 319.226 447.272C301.488 394.66 429.304 335.351 418.26 280.042C408.208 229.704 271.371 273.899 273.922 220.389C276.333 169.813 374.5 163.289 425.225 133.947C451.675 118.647 492.396 113.875 503.466 87.6075C526.489 32.9778 466.767 -33.1506 513.659 -75.89C550.914 -109.847 587.37 -11.3242 633.383 -30.8053C703.684 -60.5694 726.698 -208.86 792.601 -193.989C859.49 -178.895 781.957 -58.8353 793.151 5.24765C797.629 30.8858 842.722 37.8269 837.877 65.2072C831.549 100.966 746.154 133.619 765.774 159.96C804.622 212.115 918.767 178.477 959.844 228.952C985.881 260.946 957.26 320.773 930.66 362.572C904.112 404.289 860.982 454.388 812.996 459.71Z" fill="#FFC85F" fill-opacity="0.5"/>
<path fill-rule="evenodd" clip-rule="evenodd" d="M610.273 -275.305C647.283 -223.899 604.264 -162.798 628.212 -107.354C640.148 -79.7203 686.639 -73.041 708.039 -48.9545C730.888 -23.2364 737.982 8.29818 755.905 36.3721C783.076 78.931 871.558 128.005 842.009 160.886C804.897 202.182 690.447 119.989 647.698 156.779C608.79 190.264 714.508 287.74 666.647 311.805C621.409 334.551 567.502 252.251 517.025 222.483C490.705 206.962 466.543 173.838 438.226 177.099C379.333 183.884 351.073 268.389 290.811 248.542C242.932 232.773 310.837 152.619 271.264 122.111C210.803 75.5002 70.3341 128.305 50.9117 63.5964C31.1991 -2.07946 173.861 6.472 224.179 -34.7594C244.31 -51.2552 228.204 -93.9412 254.433 -103.172C288.688 -115.227 359.08 -56.8887 372.384 -86.9176C398.727 -146.377 313.354 -229.274 337.139 -289.849C352.215 -328.245 418.386 -332.706 467.86 -330.071C517.238 -327.442 582.063 -314.486 610.273 -275.305Z" fill="#FF984E" fill-opacity="0.5"/>
<path fill-rule="evenodd" clip-rule="evenodd" d="M838.321 490.156C786.198 513.781 789.043 382.788 741.856 350.409C711.085 329.294 661.889 369.157 631.149 347.997C601.778 327.779 616.724 276.538 594.287 248.827C561.58 208.432 492.359 201.491 473.357 153.113C456.243 109.54 464.371 43.3114 503.427 17.5002C553.727 -15.743 623.962 30.1993 682.312 15.017C710.433 7.70011 715.596 -39.457 744.096 -45.1203C773.435 -50.9502 797.769 -8.03256 827.128 -13.7594C874.447 -22.9897 906.284 -103.697 950.914 -85.4626C991.464 -68.8945 960.968 0.132689 967.237 43.4864C971.088 70.1124 979.743 95.2531 980.935 122.13C982.019 146.586 969.445 170.364 973.932 194.429C981.698 236.085 1046.47 282.824 1016.47 312.746C983.489 345.639 913.579 254.666 880.573 287.535C831.147 336.757 901.855 461.359 838.321 490.156Z" fill="#FF6B6B" fill-opacity="0.5"/>
<path fill-rule="evenodd" clip-rule="evenodd" d="M370.263 219.482C379.237 171.998 426.648 135.693 471.651 118.089C516.285 100.628 567.865 138.154 613.729 124.241C638.043 116.866 631.915 68.9974 656.357 62.0585C680.743 55.1355 701.474 101.86 725.084 92.6286C781.405 70.6075 814.273 -52.3026 865.118 -19.566C916.119 13.2704 787.332 105.756 822.373 155.268C858.924 206.912 957.933 143.97 1008.12 182.492C1045.38 211.091 1060.95 279.41 1035.81 319.086C1006.64 365.132 925.37 340.653 884.824 377.087C853.307 405.406 879.881 479.361 840.382 494.692C798.291 511.029 762.129 445.917 717.135 442.171C680.673 439.135 644.371 496.125 613.924 475.837C578.997 452.565 619.657 379.149 585.647 354.556C542.811 323.583 474.058 370.406 429.275 342.321C390.366 317.919 361.735 264.611 370.263 219.482Z" fill="#FEA869" fill-opacity="0.5"/>
<path fill-rule="evenodd" clip-rule="evenodd" d="M314.405 419.5C276.196 381.404 299.35 310.806 270.725 265.069C256.458 242.274 218.645 249.452 197.544 232.782C175.013 214.983 163.875 187.071 144.812 165.6C115.913 133.05 37.5516 112.146 55.0548 72.2924C77.0377 22.2391 181.69 67.0692 208.908 19.6585C233.68 -23.4917 133.221 -85.3905 166.706 -122.192C198.356 -156.976 255.315 -94.4287 300.33 -80.8191C323.803 -73.7226 348.67 -49.2655 370.412 -60.6054C415.631 -84.1899 423.038 -172.741 474.02 -171.409C514.526 -170.351 475.111 -74.4003 511.663 -56.9143C567.51 -30.1985 668.921 -121.265 695.609 -65.4052C722.697 -8.71055 608.764 24.6698 576.363 78.5042C563.4 100.042 583.601 135.932 564.555 152.338C539.68 173.765 473.944 138.791 468.741 171.207C458.439 235.393 540.302 289.352 532.212 353.854C527.085 394.739 475.722 418.233 436.27 430.124C396.893 441.992 343.528 448.538 314.405 419.5Z" fill="#FFC85F" fill-opacity="0.5"/>
<path fill-rule="evenodd" clip-rule="evenodd" d="M812.996 459.71C750.04 466.694 717.953 399.207 657.896 392.828C627.963 389.649 599.306 426.862 567.814 433.669C534.188 440.937 503.236 431.624 469.978 433.444C419.561 436.203 333.349 489.163 319.226 447.272C301.488 394.66 429.304 335.351 418.26 280.042C408.208 229.704 271.371 273.899 273.922 220.389C276.333 169.813 374.5 163.289 425.225 133.947C451.675 118.647 492.396 113.875 503.466 87.6075C526.489 32.9778 466.767 -33.1506 513.659 -75.89C550.914 -109.847 587.37 -11.3242 633.383 -30.8053C703.684 -60.5694 726.698 -208.86 792.601 -193.989C859.49 -178.895 781.957 -58.8353 793.151 5.24765C797.629 30.8858 842.722 37.8269 837.877 65.2072C831.549 100.966 746.154 133.619 765.774 159.96C804.622 212.115 918.767 178.477 959.844 228.952C985.881 260.946 957.26 320.773 930.66 362.572C904.112 404.289 860.982 454.388 812.996 459.71Z" fill="#FFC85F" fill-opacity="0.5"/>
<path fill-rule="evenodd" clip-rule="evenodd" d="M610.273 -275.305C647.283 -223.899 604.264 -162.798 628.212 -107.354C640.148 -79.7203 686.639 -73.041 708.039 -48.9545C730.888 -23.2364 737.982 8.29818 755.905 36.3721C783.076 78.931 871.558 128.005 842.009 160.886C804.897 202.182 690.447 119.989 647.698 156.779C608.79 190.264 714.508 287.74 666.647 311.805C621.409 334.551 567.502 252.251 517.025 222.483C490.705 206.962 466.543 173.838 438.226 177.099C379.333 183.884 351.073 268.389 290.811 248.542C242.932 232.773 310.837 152.619 271.264 122.111C210.803 75.5002 70.3341 128.305 50.9117 63.5964C31.1991 -2.07946 173.861 6.472 224.179 -34.7594C244.31 -51.2552 228.204 -93.9412 254.433 -103.172C288.688 -115.227 359.08 -56.8887 372.384 -86.9176C398.727 -146.377 313.354 -229.274 337.139 -289.849C352.215 -328.245 418.386 -332.706 467.86 -330.071C517.238 -327.442 582.063 -314.486 610.273 -275.305Z" fill="#FF984E" fill-opacity="0.5"/>
<path fill-rule="evenodd" clip-rule="evenodd" d="M838.321 490.156C786.198 513.781 789.043 382.788 741.856 350.409C711.085 329.294 661.889 369.157 631.149 347.997C601.778 327.779 616.724 276.538 594.287 248.827C561.58 208.432 492.359 201.491 473.357 153.113C456.243 109.54 464.371 43.3114 503.427 17.5002C553.727 -15.743 623.962 30.1993 682.312 15.017C710.433 7.70011 715.596 -39.457 744.096 -45.1203C773.435 -50.9502 797.769 -8.03256 827.128 -13.7594C874.447 -22.9897 906.284 -103.697 950.914 -85.4626C991.464 -68.8945 960.968 0.132689 967.237 43.4864C971.088 70.1124 979.743 95.2531 980.935 122.13C982.019 146.586 969.445 170.364 973.932 194.429C981.698 236.085 1046.47 282.824 1016.47 312.746C983.489 345.639 913.579 254.666 880.573 287.535C831.147 336.757 901.855 461.359 838.321 490.156Z" fill="#FF6B6B" fill-opacity="0.5"/>
<path fill-rule="evenodd" clip-rule="evenodd" d="M370.263 219.482C379.237 171.998 426.648 135.693 471.651 118.089C516.285 100.628 567.865 138.154 613.729 124.241C638.043 116.866 631.915 68.9974 656.357 62.0585C680.743 55.1355 701.474 101.86 725.084 92.6286C781.405 70.6075 814.273 -52.3026 865.118 -19.566C916.119 13.2704 787.332 105.756 822.373 155.268C858.924 206.912 957.933 143.97 1008.12 182.492C1045.38 211.091 1060.95 279.41 1035.81 319.086C1006.64 365.132 925.37 340.653 884.824 377.087C853.307 405.406 879.881 479.361 840.382 494.692C798.291 511.029 762.129 445.917 717.135 442.171C680.673 439.135 644.371 496.125 613.924 475.837C578.997 452.565 619.657 379.149 585.647 354.556C542.811 323.583 474.058 370.406 429.275 342.321C390.366 317.919 361.735 264.611 370.263 219.482Z" fill="#FEA869" fill-opacity="0.5"/>
<path fill-rule="evenodd" clip-rule="evenodd" d="M314.405 419.5C276.196 381.404 299.35 310.806 270.725 265.069C256.458 242.274 218.645 249.452 197.544 232.782C175.013 214.983 163.875 187.071 144.812 165.6C115.913 133.05 37.5516 112.146 55.0548 72.2924C77.0377 22.2391 181.69 67.0692 208.908 19.6585C233.68 -23.4917 133.221 -85.3905 166.706 -122.192C198.356 -156.976 255.315 -94.4287 300.33 -80.8191C323.803 -73.7226 348.67 -49.2655 370.412 -60.6054C415.631 -84.1899 423.038 -172.741 474.02 -171.409C514.526 -170.351 475.111 -74.4003 511.663 -56.9143C567.51 -30.1985 668.921 -121.265 695.609 -65.4052C722.697 -8.71055 608.764 24.6698 576.363 78.5042C563.4 100.042 583.601 135.932 564.555 152.338C539.68 173.765 473.944 138.791 468.741 171.207C458.439 235.393 540.302 289.352 532.212 353.854C527.085 394.739 475.722 418.233 436.27 430.124C396.893 441.992 343.528 448.538 314.405 419.5Z" fill="#FFC85F" fill-opacity="0.5"/>
<path fill-rule="evenodd" clip-rule="evenodd" d="M812.996 459.71C750.04 466.694 717.953 399.207 657.896 392.828C627.963 389.649 599.306 426.862 567.814 433.669C534.188 440.937 503.236 431.624 469.978 433.444C419.561 436.203 333.349 489.163 319.226 447.272C301.488 394.66 429.304 335.351 418.26 280.042C408.208 229.704 271.371 273.899 273.922 220.389C276.333 169.813 374.5 163.289 425.225 133.947C451.675 118.647 492.396 113.875 503.466 87.6075C526.489 32.9778 466.767 -33.1506 513.659 -75.89C550.914 -109.847 587.37 -11.3242 633.383 -30.8053C703.684 -60.5694 726.698 -208.86 792.601 -193.989C859.49 -178.895 781.957 -58.8353 793.151 5.24765C797.629 30.8858 842.722 37.8269 837.877 65.2072C831.549 100.966 746.154 133.619 765.774 159.96C804.622 212.115 918.767 178.477 959.844 228.952C985.881 260.946 957.26 320.773 930.66 362.572C904.112 404.289 860.982 454.388 812.996 459.71Z" fill="#FFC85F" fill-opacity="0.5"/>
</svg>
