<svg xmlns="http://www.w3.org/2000/svg" width="95" height="60" fill="none" viewBox="0 0 95 60">
  <path fill="#181818" d="M19.66 26.15c-.96 0-1.91-.26-2.85-.78-.94-.54-1.69-1.58-2.25-3.12l-.75-1.95h-8.4L3.01 26H1.66l8.4-19.8h.9l6.6 16.05c.5 1.16.97 1.96 1.41 2.4.44.42 1.07.67 1.89.75v.6c-.36.1-.76.15-1.2.15zm-6.45-7.05l-3.6-8.7-3.75 8.7h7.35zm9.113-9.3c0-1.02-.14-1.77-.42-2.25-.28-.5-.84-.75-1.68-.75h-.6v-.6h2.7c.74 0 1.29.1 1.65.3.38.18.65.52.81 1.02.16.5.24 1.26.24 2.28V26h-2.7V9.8zm7.266 0c0-1.02-.14-1.77-.42-2.25-.28-.5-.84-.75-1.68-.75h-.6v-.6h2.7c.74 0 1.29.1 1.65.3.38.18.65.52.81 1.02.16.5.24 1.26.24 2.28V26h-2.7V9.8zM3.34 39.71c-.4-1.16-.83-1.95-1.29-2.37-.44-.44-1.11-.7-2.01-.78v-.6c.1 0 .25-.01.45-.03.18-.02.37-.03.57-.03 1.1 0 2.09.25 2.97.75.9.5 1.62 1.52 2.16 3.06l4.02 11.58 3.21-9.51-.72-2.07c-.4-1.16-.83-1.95-1.29-2.37-.44-.44-1.11-.7-2.01-.78v-.6c.1 0 .24-.01.42-.03.2-.02.4-.03.6-.03 1.1 0 2.09.25 2.97.75.9.5 1.62 1.52 2.16 3.06l4.02 11.58L24.7 36.2h1.29l-6.87 20.1h-.6l-4.44-12.63L9.76 56.3h-.6L3.34 39.71zm26.046 5.79c0-1.02-.14-1.77-.42-2.25-.28-.5-.84-.75-1.68-.75h-.3v-.6h2.4c.76 0 1.33.11 1.71.33.4.2.68.54.84 1.02h.15c.36-.46.84-.85 1.44-1.17.62-.32 1.34-.48 2.16-.48.8 0 1.4.15 1.8.45.34.26.69.71 1.05 1.35l-1.2.9c-.22-.3-.54-.52-.96-.66-.42-.16-.9-.24-1.44-.24-.6 0-1.15.14-1.65.42-.5.26-.9.62-1.2 1.08V56h-2.7V45.5zm13.274-5.4c-.46 0-.86-.19-1.2-.57a2.03 2.03 0 01-.48-1.35c0-.42.12-.75.36-.99.26-.24.6-.36 1.02-.36.46 0 .85.19 1.17.57.34.38.51.83.51 1.35 0 .42-.13.75-.39.99-.24.24-.57.36-.99.36zm-1.14 5.4c0-1.02-.14-1.77-.42-2.25-.28-.5-.84-.75-1.68-.75h-.6v-.6h2.7c.74 0 1.29.1 1.65.3.38.18.65.52.81 1.02.16.5.24 1.26.24 2.28V56h-2.7V45.5zm11.103 10.8c-1.12 0-2-.32-2.64-.96-.64-.64-.96-1.62-.96-2.94v-9.3h-2.1v-1.2h2.1v-2.7l1.5-1.8h1.2v4.5h3.6v1.2h-3.6v9.3c0 1.8.7 2.7 2.1 2.7.48 0 .88-.05 1.2-.15.34-.1.69-.25 1.05-.45l.3.6c-.46.34-.97.63-1.53.87-.56.22-1.3.33-2.22.33zm11.457 0c-1.36 0-2.51-.32-3.45-.96-.94-.66-1.65-1.54-2.13-2.64-.48-1.12-.72-2.37-.72-3.75 0-1.36.24-2.6.72-3.72s1.17-2 2.07-2.64c.92-.66 1.99-.99 3.21-.99 2.02 0 3.52.57 4.5 1.71 1 1.12 1.5 2.75 1.5 4.89l-.06 1.2h-9.09c0 1.68.36 3.05 1.08 4.11.72 1.06 1.71 1.59 2.97 1.59.94 0 1.73-.2 2.37-.6.66-.4 1.27-1 1.83-1.8l.6.45c-.66 1.1-1.43 1.9-2.31 2.4-.88.5-1.91.75-3.09.75zm2.85-8.1c0-1.76-.26-3.1-.78-4.02-.52-.92-1.31-1.38-2.37-1.38-.6 0-1.14.24-1.62.72-.48.46-.86 1.1-1.14 1.92-.26.82-.39 1.74-.39 2.76h6.3z"/>
  <path fill="url(#paint0_linear)" d="M81.36 33.533c7.879 7.91 9.859 12.424 13.62 20.467.215-1.373-1.35-3.047-.973-3.411C83.047 27.534 72.03 19.395 45.85 6.854c21.287 6.495 40.117 26.314 36.604 22.66-3.512-3.656-1.44-6.025 1.095-9.625-5.44-4.542-9.164-7.269-20.795-13.035-.034 1.9.42 2.934 1.58 4.75-2.447-1.765-3.602-3.184-5.472-6.09C50.784 3.791 44.742 1.696 36 4.051 41.814 10.58 48.883 16 58.862 23.056c5.718.793 8.785 1.294 12.769 2.802-1.573 1.361-3.287 1.547-7.296 1.219 1.302 1.86 2.216 2.965 5.837 5.604 4.714 1.13 7.007 1.032 10.984.861l.204-.009z"/>
  <path fill="url(#paint1_linear)" fill-rule="evenodd" d="M49.376 3.498c-4.167-.682-8.32-.808-13.376.554 2.742 3.078 5.763 5.91 9.236 8.784.218-.514.39-1.033.48-1.559.128-.757-.257-1.628-.845-2.122-.57-.48-1.518-.71-2.427-.93-1.363-.33-2.637-.64-2.42-1.731.272-1.363 2.014-1.38 3.699-1.395.708-.007 1.406-.013 1.98-.12.405-.074.821-.028 1.235.017.506.056 1.009.111 1.483-.054.437-.152.642-.66.821-1.101l.045-.11c.032-.077.061-.154.089-.233zm4.277 15.823c.58.423 1.171.851 1.773 1.285 1.119-.334 2.47-.074 3.84.19 1.685.325 3.4.655 4.75-.105.634-.357-.12-1.234-.852-2.085-.718-.836-1.415-1.645-.752-1.911.947-.38 1.686.494 2.46 1.41.532.628 1.08 1.276 1.724 1.552.26.111.486-.119.717-.354.128-.13.256-.26.393-.336l.173-.095a107.397 107.397 0 00-5.372-3.355c0 .256-.148.417-.527.442-1.66.11-3.133-1.45-4.535-2.935-.222-.235-.442-.468-.66-.692a222.011 222.011 0 00-3.45-1.793c-.178.054-.358.138-.54.257-1.63 1.07-.87 3.165-.066 5.377.383 1.055.776 2.137.924 3.148zm8.306-5.138c.365.216.727.434 1.087.652a1.484 1.484 0 01-.146-1c.303-1.39 1.63-2.26 2.947-3.123.656-.43 1.31-.859 1.835-1.35-.93-.488-1.922-.999-2.985-1.536-.322.135-.657.26-.993.384-.273.101-.547.203-.815.31.21 1.007.67 1.87 1.446 3.085-1.134-.818-1.99-1.56-2.768-2.412-.417.286-.761.635-.983 1.089-.423.869.382 2.225 1.077 3.394.103.174.204.344.297.507zm6.68 4.294a116.51 116.51 0 00-2.596-1.75c.241.04.475.055.692.042 1.24-.07 2.19-.925 3.155-1.793.739-.665 1.486-1.338 2.378-1.67.871-.325 1.92-.06 2.734.381.778.421 1.496 1.327 2.19 2.202 1.111 1.4 2.161 2.722 3.294 1.867.08-.06.15-.123.213-.19.932.734 1.862 1.499 2.85 2.323l-.447.63c-2.316 3.257-3.951 5.557-.648 8.994l.148.154c.189.196.279.29.276.292a4.924 4.924 0 01-.234-.214c-.72-.673-3.065-2.862-6.557-5.682.56-.209 1.195-.369 1.817-.526 1.733-.436 3.37-.85 3.057-2.233-.308-1.365-1.882-1.323-3.562-1.278-1.309.035-2.682.072-3.57-.555-.457-.324-.267-1.068-.085-1.782.189-.737.369-1.44-.183-1.614-.988-.309-1.886.39-2.789 1.092-.446.347-.894.696-1.353.923l-.151.074c-.212.104-.421.208-.63.313zm12.72 15.056c7.645 7.675 9.736 12.152 13.289 19.757l.332.71c.12-.769-.318-1.633-.66-2.308-.27-.53-.479-.943-.313-1.103C88.434 38.866 82.847 31 75.259 24.45c-.092.056-.18.115-.263.177-.736.561-1.41 1.407-1.472 2.335-.064.95.242 1.908.544 2.855.395 1.236.783 2.455.337 3.613l-.012.033c2.296.27 4.172.19 6.763.078l.204-.009zm-12.897-2.141c-.242-1.5-.546-2.936-1.722-3.65-.576-.35-1.072-.048-1.557.493.766.977 1.64 1.867 3.28 3.157z" clip-rule="evenodd"/>
  <defs>
    <linearGradient id="paint0_linear" x1="33.5" x2="88" y1="-.5" y2="54" gradientUnits="userSpaceOnUse">
      <stop stop-color="#129BFF"/>
      <stop offset=".387" stop-color="red" stop-opacity=".49"/>
      <stop offset=".769" stop-color="#FAFF00"/>
    </linearGradient>
    <linearGradient id="paint1_linear" x1="37" x2="95" y1="3.5" y2="52.5" gradientUnits="userSpaceOnUse">
      <stop offset=".604" stop-color="#fff" stop-opacity=".16"/>
      <stop offset=".813" stop-color="#DF0C0C"/>
    </linearGradient>
  </defs>
</svg>
