<svg width="783" height="1153" viewBox="0 0 783 1153" fill="none" xmlns="http://www.w3.org/2000/svg">
<path fill-rule="evenodd" clip-rule="evenodd" d="M451.599 881.056C409.668 892.856 380.328 850.666 338.865 853.075C318.201 854.275 302.931 882.738 282.328 890.888C260.329 899.591 238.284 896.744 215.924 901.709C182.026 909.236 129.474 954.838 115.193 928C97.2572 894.293 177.325 839.717 163.628 803.43C151.162 770.404 63.2784 815.738 59.0075 779.147C54.9707 744.561 120.843 729.125 151.967 703.527C168.197 690.18 195.29 682.374 199.854 663.311C209.348 623.664 161.41 585.496 188.431 551.239C209.9 524.021 245.685 586.778 274.719 568.399C319.078 540.32 318.059 437.127 364.441 439.825C411.516 442.563 372.378 532.717 387.161 574.94C393.075 591.833 424.448 591.484 424.231 610.605C423.949 635.576 369.673 667.309 385.939 682.979C418.147 714.008 491.818 678.383 525.349 708.021C546.603 726.808 533.895 770.61 520.536 801.953C507.203 833.235 483.559 872.063 451.599 881.056Z" fill="#4ED4FF" fill-opacity="0.5"/>
<path fill-rule="evenodd" clip-rule="evenodd" d="M24.1902 1117.56C-12.6263 1091.06 78.5337 1041.3 82.16 996.082C84.5248 966.596 37.7028 948.519 40.1113 919.036C42.4124 890.867 83.5327 880.911 93.7218 854.548C108.575 816.12 86.0173 765.802 111.768 733.642C134.96 704.676 183.691 684.116 216.851 700.771C259.559 722.22 255.709 788.633 289.18 822.745C305.311 839.185 339.763 824.117 354.907 841.47C370.497 859.334 350.605 893.003 366.132 910.922C391.157 939.803 459.2 929.822 464.286 967.697C468.907 1002.11 409.422 1008.4 382.099 1029.83C365.318 1042.98 351.454 1058.86 333.451 1070.29C317.07 1080.69 295.763 1081.43 280.993 1094.02C255.427 1115.8 248.875 1178.78 216.463 1169.97C180.833 1160.28 215.762 1076.32 180.14 1066.61C126.794 1052.07 69.0657 1149.86 24.1902 1117.56Z" fill="#A818AB" fill-opacity="0.5"/>
<path fill-rule="evenodd" clip-rule="evenodd" d="M-53.1334 378.845C6.43573 346.673 13.8598 501.498 72.2128 535.826C110.266 558.212 165.043 507.118 203.063 529.56C239.388 551.002 225.968 612.704 254.728 643.56C296.652 688.54 378.914 691.034 405.321 746.563C429.105 796.576 424.964 875.405 380.998 909.081C324.372 952.453 237.703 904.016 170.091 926.736C137.507 937.686 135.295 993.763 102.127 1002.79C67.9829 1012.09 35.7325 963.442 1.5557 972.617C-53.5283 987.405 -84.4568 1085.27 -138.627 1067.43C-187.847 1051.21 -157.539 967.239 -168.506 916.592C-175.242 885.486 -187.525 856.529 -191.144 824.908C-194.437 796.136 -181.556 767.04 -188.831 739.008C-201.425 690.488 -281.717 640.661 -248.772 602.879C-212.556 561.345 -122.565 662.952 -86.3184 621.444C-32.0393 559.287 -125.742 418.059 -53.1334 378.845Z" fill="#A818AB" fill-opacity="0.5"/>
<path fill-rule="evenodd" clip-rule="evenodd" d="M77.5498 1138.96C39.6086 1107.95 30.2631 1048.11 36.406 999.492C42.4985 951.271 100.934 923.526 110.783 875.929C116.004 850.697 70.3972 832.942 76.0695 807.807C81.7287 782.73 133.398 786.923 136.625 761.418C144.322 700.575 50.7871 611.698 104.601 582.286C158.58 552.784 178.503 712.341 239.594 705.139C303.317 697.628 295.268 578.92 353.918 552.896C397.459 533.577 465.859 552.84 489.007 594.472C515.871 642.787 454.66 703.299 467.448 757.081C477.389 798.885 556.146 811.078 550.646 853.694C544.786 899.106 469.257 899.74 444.101 938C423.717 969.003 456.873 1028.97 424.038 1046.25C386.373 1066.08 340.699 994.26 302.303 1012.63C253.943 1035.76 262.307 1119.7 215.576 1145.97C174.974 1168.79 113.61 1168.45 77.5498 1138.96Z" fill="#FEA869" fill-opacity="0.5"/>
<path fill-rule="evenodd" clip-rule="evenodd" d="M85.6389 815.111C52.7761 786.281 67.8518 728 42.3438 692.497C29.6307 674.802 -0.57376 682.559 -18.4968 670.17C-37.634 656.942 -48.0812 634.948 -64.6043 618.571C-89.6526 593.745 -154.094 580.889 -142 547.76C-126.81 506.153 -39.8745 536.996 -20.3154 497.255C-2.51381 461.085 -86.9401 416.224 -61.7656 384.737C-37.9712 354.977 11.3155 402.61 48.4172 411.289C67.7631 415.815 89.1337 434.306 106.128 424.014C141.473 402.608 142.888 330.625 184.18 329.069C216.987 327.832 190.073 407.452 220.532 419.703C267.068 438.42 344.364 359.548 368.828 403.336C393.659 447.78 303.26 480.655 279.841 525.858C270.471 543.943 288.66 571.919 274.106 586.169C255.1 604.779 200.14 579.894 197.608 606.374C192.593 658.806 261.573 698.208 258.363 750.781C256.329 784.105 216.012 805.754 184.725 817.407C153.499 829.036 110.687 837.086 85.6389 815.111Z" fill="#5FFFF5" fill-opacity="0.5"/>
<path fill-rule="evenodd" clip-rule="evenodd" d="M320.71 808.32C314.712 855.576 259.716 867.131 244.46 909.912C236.857 931.233 259.008 958.747 258.43 982.97C257.812 1008.83 245.545 1029.82 241.01 1054.45C234.135 1091.8 257.647 1164.17 224.531 1167.1C182.94 1170.79 162.124 1066.89 119.742 1065.21C81.1685 1063.68 89.3441 1171.51 50.6749 1160.21C14.1256 1149.52 26.6703 1076.61 14.1656 1034.35C7.64522 1012.31 11.3383 981.703 -5.91212 968.978C-41.7893 942.511 -100.667 974.509 -123.641 932.69C-141.895 899.465 -63.4392 890.19 -69.5658 853.115C-78.9262 796.471 -183.278 753.493 -160.782 707.937C-137.95 661.699 -63.8536 739.555 -15.0306 742.674C4.50236 743.922 17.5297 712.181 36.6919 720.552C61.7179 731.484 70.5284 799.673 93.2451 789.975C138.226 770.773 133.766 681.393 177.911 660.265C205.893 646.874 244.583 678.349 270.449 705.167C296.264 731.933 325.282 772.3 320.71 808.32Z" fill="#5FFFF5" fill-opacity="0.5"/>
<path fill-rule="evenodd" clip-rule="evenodd" d="M391.137 909.649C349.206 921.449 319.867 879.26 278.404 881.668C257.739 882.868 242.469 911.331 221.866 919.481C199.867 928.184 177.822 925.337 155.462 930.302C121.564 937.829 69.0118 983.431 54.731 956.593C36.7954 922.887 116.863 868.31 103.166 832.023C90.7003 798.997 2.81648 844.331 -1.45445 807.74C-5.49125 773.154 60.3808 757.718 91.5055 732.12C107.735 718.773 134.828 710.968 139.392 691.904C148.886 652.257 100.948 614.089 127.969 579.832C149.438 552.615 185.223 615.371 214.257 596.992C258.616 568.913 257.597 465.72 303.979 468.418C351.054 471.156 311.916 561.31 326.699 603.533C332.613 620.426 363.986 620.078 363.769 639.198C363.487 664.169 309.211 695.902 325.477 711.572C357.685 742.601 431.356 706.976 464.887 736.615C486.142 755.402 473.433 799.203 460.074 830.546C446.741 861.828 423.097 900.656 391.137 909.649Z" fill="#4ED4FF" fill-opacity="0.5"/>
<path fill-rule="evenodd" clip-rule="evenodd" d="M-91.387 1174.54C-128.203 1148.04 -37.0434 1098.29 -33.4171 1053.07C-31.0524 1023.58 -77.8743 1005.51 -75.4659 976.023C-73.1648 947.854 -32.0445 937.897 -21.8553 911.535C-7.00249 873.107 -29.5598 822.788 -3.80949 790.628C19.3833 761.663 68.1141 741.103 101.274 757.757C143.981 779.207 140.132 845.619 173.603 879.732C189.734 896.172 224.186 881.103 239.33 898.457C254.92 916.321 235.027 949.99 250.555 967.909C275.58 996.789 343.623 986.809 348.709 1024.68C353.33 1059.1 293.845 1065.39 266.521 1086.81C249.74 1099.97 235.877 1115.84 217.874 1127.27C201.493 1137.67 180.185 1138.42 165.416 1151C139.85 1172.79 133.297 1235.76 100.886 1226.95C65.2559 1217.27 100.185 1133.3 64.5626 1123.59C11.2173 1109.05 -46.5115 1206.84 -91.387 1174.54Z" fill="#A818AB" fill-opacity="0.5"/>
<path fill-rule="evenodd" clip-rule="evenodd" d="M-168.711 435.831C-109.141 403.66 -101.717 558.485 -43.3643 592.813C-5.31155 615.199 49.4659 564.104 87.4855 586.546C123.811 607.988 110.391 669.69 139.151 700.547C181.074 745.527 263.337 748.02 289.744 803.549C313.528 853.563 309.387 932.392 265.421 966.068C208.795 1009.44 122.126 961.003 54.5141 983.723C21.9296 994.673 19.7181 1050.75 -13.4499 1059.78C-47.5942 1069.07 -79.8447 1020.43 -114.021 1029.6C-169.105 1044.39 -200.034 1142.26 -254.205 1124.41C-303.424 1108.2 -273.116 1024.23 -284.083 973.578C-290.819 942.472 -303.102 913.515 -306.721 881.895C-310.014 853.123 -297.133 824.026 -304.408 795.995C-317.002 747.474 -397.294 697.647 -364.349 659.865C-328.133 618.332 -238.142 719.938 -201.896 678.431C-147.616 616.274 -241.319 475.045 -168.711 435.831Z" fill="#A818AB" fill-opacity="0.5"/>
<path fill-rule="evenodd" clip-rule="evenodd" d="M-74.5297 1035.81C-112.471 1004.79 -121.817 944.96 -115.674 896.34C-109.581 848.119 -51.1452 820.374 -41.2966 772.777C-36.0754 747.545 -81.6824 729.79 -76.0101 704.655C-70.3509 679.577 -18.6814 683.77 -15.4546 658.266C-7.75718 597.423 -101.292 508.546 -47.4783 479.133C6.49996 449.631 26.4234 609.188 87.5149 601.987C151.238 594.475 143.189 475.767 201.838 449.744C245.379 430.424 313.779 449.688 336.927 491.319C363.791 539.635 302.58 600.147 315.369 653.929C325.309 695.732 404.066 707.926 398.567 750.542C392.706 795.954 317.178 796.588 292.022 834.847C271.637 865.851 304.793 925.82 271.958 943.101C234.293 962.924 188.62 891.108 150.223 909.475C101.864 932.608 110.228 1016.55 63.4969 1042.82C22.8948 1065.64 -38.4698 1065.29 -74.5297 1035.81Z" fill="#FEA869" fill-opacity="0.5"/>
<path fill-rule="evenodd" clip-rule="evenodd" d="M-29.9385 872.098C-62.8013 843.268 -47.7255 784.987 -73.2336 749.484C-85.9467 731.789 -116.151 739.546 -134.074 727.157C-153.211 713.929 -163.659 691.935 -180.182 675.558C-205.23 650.731 -269.672 637.876 -257.577 604.747C-242.388 563.14 -155.452 593.983 -135.893 554.242C-118.091 518.072 -202.517 473.211 -177.343 441.724C-153.549 411.964 -104.262 459.597 -67.1602 468.276C-47.8143 472.802 -26.4437 491.293 -9.44907 481.001C25.896 459.595 27.3107 387.611 68.603 386.055C101.41 384.819 74.4954 464.439 104.954 476.69C151.49 495.407 228.786 416.535 253.251 460.323C278.082 504.766 187.682 537.642 164.263 582.845C154.894 600.929 173.082 628.906 158.529 643.156C139.522 661.766 84.5629 636.881 82.0305 663.361C77.0161 715.792 145.995 755.195 142.786 807.768C140.752 841.092 100.434 862.741 69.1478 874.393C37.9219 886.023 -4.89009 894.073 -29.9385 872.098Z" fill="#5FFFF5" fill-opacity="0.5"/>
<path fill-rule="evenodd" clip-rule="evenodd" d="M205.133 865.306C199.135 912.563 144.139 924.118 128.883 966.898C121.28 988.22 143.431 1015.73 142.852 1039.96C142.235 1065.82 129.968 1086.81 125.433 1111.44C118.557 1148.79 142.07 1221.15 108.954 1224.09C67.3629 1227.78 46.5467 1123.88 4.16473 1122.2C-34.4087 1120.67 -26.2331 1228.5 -64.9022 1217.19C-101.452 1206.51 -88.9068 1133.59 -101.412 1091.34C-107.932 1069.3 -104.239 1038.69 -121.489 1025.96C-157.366 999.498 -216.244 1031.5 -239.219 989.677C-257.472 956.452 -179.016 947.177 -185.143 910.102C-194.503 853.458 -298.855 810.48 -276.359 764.923C-253.527 718.686 -179.431 796.542 -130.608 799.661C-111.075 800.909 -98.0474 769.167 -78.8853 777.538C-53.8592 788.471 -45.0487 856.659 -22.3321 846.962C22.6484 827.76 18.1888 738.38 62.3341 717.252C90.3162 703.86 129.005 735.336 154.871 762.154C180.687 788.92 209.705 829.287 205.133 865.306Z" fill="#5FFFF5" fill-opacity="0.5"/>
<path fill-rule="evenodd" clip-rule="evenodd" d="M-138.561 328.854C-115.391 316.292 -92.4429 337.272 -68.2953 330.314C-56.2602 326.846 -51.0498 308.01 -39.9791 300.449C-28.1585 292.376 -14.7688 291.112 -2.23579 285.196C16.7637 276.228 41.6879 242.299 53.6993 256.23C68.7849 273.727 28.821 316.626 41.7495 336.212C53.5162 354.037 99.327 315.549 106.734 336.573C113.734 356.444 76.9212 374.35 61.9712 393.612C54.1758 403.656 39.2292 411.88 39.081 423.74C38.7728 448.405 72.1595 464.529 60.7874 488.354C51.7523 507.283 22.254 475.026 7.5739 489.749C-14.855 512.243 -0.47415 573.006 -28.2066 577.607C-56.3535 582.277 -45.2948 523.847 -59.6568 500.903C-65.4027 491.724 -83.8706 496.118 -86.2962 484.806C-89.464 470.031 -61.6706 444.057 -73.3624 436.981C-96.5129 422.97 -135.233 453.832 -158.979 440.818C-174.031 432.569 -172.379 405.023 -168.681 384.742C-164.99 364.501 -156.221 338.43 -138.561 328.854Z" fill="#4ED4FF" fill-opacity="0.5"/>
<path fill-rule="evenodd" clip-rule="evenodd" d="M110.827 108.095C136.093 118.818 88.9394 160.356 92.8372 187.524C95.379 205.241 125.425 209.657 127.94 227.378C130.344 244.309 107.406 255.676 104.913 272.594C101.279 297.256 121.311 323.939 110.408 346.356C100.589 366.547 74.5762 385.187 52.7833 379.787C24.7154 372.832 18.1191 333.124 -6.18907 317.462C-17.904 309.914 -36.2232 323.407 -47.4777 315.189C-59.0634 306.728 -51.8201 284.202 -63.3761 275.7C-82.0013 261.999 -120.824 276.974 -128.883 255.302C-136.205 235.61 -101.94 223.955 -88.6761 207.662C-80.53 197.656 -74.4682 186.437 -65.3702 177.288C-57.0916 168.963 -44.6165 165.678 -37.5806 156.279C-25.4018 140.01 -29.9441 101.97 -9.6402 102.841C12.6797 103.798 3.27845 158.015 25.5977 158.988C59.0208 160.446 80.0308 95.0257 110.827 108.095Z" fill="#A818AB" fill-opacity="0.5"/>
<path fill-rule="evenodd" clip-rule="evenodd" d="M119.404 192.219C145.937 205.458 159.442 239.52 162.309 269.034C165.152 298.305 134.372 322.481 134.915 351.885C135.203 367.474 164.489 371.861 164.498 387.452C164.506 403.007 133.454 407.432 134.955 422.915C138.537 459.849 205.605 499.809 177.774 524.353C149.858 548.971 116.795 457.469 81.7033 469.877C45.1007 482.819 65.7019 551.799 34.5651 574.988C11.4495 592.204 -31.4889 589.969 -50.7087 568.491C-73.0141 543.566 -44.971 499.681 -59.6997 469.649C-71.148 446.307 -119.254 449.627 -121.699 423.743C-124.305 396.161 -79.8166 385.701 -70.0799 359.764C-62.1898 338.745 -89.7645 307.782 -72.6947 293.199C-53.1138 276.471 -16.5699 312.754 3.63682 296.788C29.0872 276.678 12.942 228.257 37.0125 206.515C57.926 187.624 94.1867 179.636 119.404 192.219Z" fill="#FEA869" fill-opacity="0.5"/>
<path fill-rule="evenodd" clip-rule="evenodd" d="M114.95 294.789C138.193 307.414 137.079 343.822 156.873 361.368C166.738 370.112 183.527 361.501 195.759 366.419C208.819 371.67 217.921 383.255 229.859 390.713C247.957 402.02 287.703 401.002 284.989 422.167C281.581 448.75 226.158 442.157 219.922 468.222C214.246 491.944 270.06 507.145 259.408 529.089C249.34 549.829 213.893 528.3 190.839 528.132C178.818 528.045 163.737 519.986 155.082 528.329C137.081 545.681 145.858 588.351 121.698 594.783C102.502 599.893 107.754 549.312 88.1426 546.15C58.18 541.318 23.0962 598.185 2.81124 575.61C-17.777 552.698 31.182 521.226 38.9665 491.422C42.0809 479.498 27.6114 465.417 34.2972 455.064C43.0289 441.544 78.7858 448.89 76.7444 432.925C72.7024 401.313 26.7331 387.271 21.6069 355.817C18.3577 335.879 39.2599 317.719 56.1676 306.665C73.0425 295.632 97.233 285.165 114.95 294.789Z" fill="#5FFFF5" fill-opacity="0.5"/>
<path fill-rule="evenodd" clip-rule="evenodd" d="M-22.8702 330.186C-25.6406 301.497 5.27226 287.334 8.56279 260.05C10.2028 246.452 -6.54348 233.173 -9.43681 218.8C-12.5262 203.454 -8.08886 189.431 -8.70193 174.288C-9.63134 151.331 -33.1701 111.763 -14.0193 105.608C10.0331 97.8781 36.1918 156.416 61.4278 151.748C84.3961 147.5 65.1724 84.9557 89.502 86.4623C112.498 87.8864 114.831 132.593 127.854 155.862C134.644 167.995 136.552 186.553 148.432 191.76C173.139 202.588 203.612 175.843 222.755 197.454C237.964 214.624 192.902 230.574 201.468 251.636C214.556 283.814 281.877 295.243 274.685 325.132C267.385 355.468 213.261 319.416 184.032 324.094C172.338 325.966 168.888 346.438 156.462 344.056C140.233 340.946 125.928 301.882 113.817 310.638C89.8362 327.977 104.403 380.128 81.1721 398.491C66.4468 410.131 39.4115 396.722 20.5657 384.349C1.75651 372.001 -20.7586 352.053 -22.8702 330.186Z" fill="#5FFFF5" fill-opacity="0.5"/>
<path fill-rule="evenodd" clip-rule="evenodd" d="M-138.561 328.854C-115.391 316.292 -92.4427 337.272 -68.295 330.314C-56.26 326.846 -51.0495 308.01 -39.9789 300.449C-28.1583 292.376 -14.7685 291.112 -2.23554 285.196C16.7639 276.228 41.6882 242.299 53.6995 256.23C68.7851 273.727 28.8212 316.626 41.7497 336.212C53.5164 354.037 99.3273 315.549 106.734 336.573C113.734 356.444 76.9215 374.35 61.9714 393.612C54.176 403.656 39.2294 411.88 39.0812 423.74C38.7731 448.405 72.1597 464.529 60.7877 488.354C51.7525 507.283 22.2542 475.026 7.57414 489.749C-14.8547 512.243 -0.473906 573.006 -28.2063 577.607C-56.3533 582.277 -45.2946 523.847 -59.6565 500.903C-65.4024 491.724 -83.8704 496.119 -86.2959 484.806C-89.4638 470.032 -61.6704 444.057 -73.3622 436.981C-96.5127 422.97 -135.233 453.832 -158.979 440.818C-174.03 432.569 -172.379 405.023 -168.681 384.742C-164.99 364.501 -156.221 338.43 -138.561 328.854Z" fill="#4ED4FF" fill-opacity="0.5"/>
<path fill-rule="evenodd" clip-rule="evenodd" d="M110.827 108.095C136.093 118.818 88.9396 160.356 92.8374 187.524C95.3792 205.241 125.425 209.657 127.94 227.378C130.344 244.309 107.406 255.676 104.913 272.594C101.28 297.256 121.311 323.939 110.409 346.356C100.589 366.547 74.5764 385.187 52.7835 379.787C24.7157 372.832 18.1194 333.124 -6.18883 317.462C-17.9038 309.914 -36.2229 323.407 -47.4774 315.189C-59.0632 306.728 -51.8198 284.202 -63.3758 275.7C-82.0011 261.999 -120.823 276.974 -128.882 255.302C-136.205 235.61 -101.94 223.955 -88.6759 207.662C-80.5297 197.656 -74.468 186.437 -65.37 177.288C-57.0914 168.963 -44.6163 165.678 -37.5803 156.279C-25.4015 140.01 -29.9438 101.97 -9.63995 102.841C12.68 103.798 3.27869 158.015 25.5979 158.988C59.021 160.446 80.0311 95.0257 110.827 108.095Z" fill="#A818AB" fill-opacity="0.5"/>
<path fill-rule="evenodd" clip-rule="evenodd" d="M119.404 192.218C145.937 205.458 159.442 239.52 162.309 269.034C165.153 298.305 134.372 322.481 134.916 351.885C135.204 367.473 164.489 371.861 164.498 387.452C164.507 403.007 133.454 407.432 134.956 422.915C138.538 459.848 205.605 499.809 177.774 524.353C149.859 548.971 116.795 457.469 81.7038 469.877C45.1012 482.819 65.7024 551.799 34.5655 574.988C11.4499 592.204 -31.4884 589.969 -50.7083 568.491C-73.0136 543.565 -44.9705 499.681 -59.6992 469.649C-71.1475 446.306 -119.254 449.627 -121.699 423.743C-124.304 396.161 -79.8161 385.701 -70.0794 359.763C-62.1893 338.745 -89.764 307.781 -72.6942 293.199C-53.1133 276.471 -16.5695 312.754 3.63731 296.788C29.0876 276.678 12.9425 228.257 37.013 206.514C57.9265 187.624 94.1872 179.636 119.404 192.218Z" fill="#FEA869" fill-opacity="0.5"/>
<path fill-rule="evenodd" clip-rule="evenodd" d="M114.95 294.789C138.193 307.414 137.079 343.822 156.873 361.368C166.738 370.112 183.528 361.501 195.759 366.419C208.819 371.67 217.922 383.255 229.859 390.713C247.957 402.02 287.703 401.002 284.99 422.167C281.581 448.75 226.158 442.157 219.922 468.222C214.246 491.944 270.061 507.145 259.408 529.089C249.34 549.829 213.893 528.3 190.839 528.132C178.818 528.045 163.737 519.986 155.082 528.329C137.081 545.681 145.859 588.351 121.698 594.783C102.502 599.893 107.754 549.312 88.1429 546.15C58.1803 541.318 23.0965 598.185 2.81149 575.61C-17.7767 552.698 31.1822 521.226 38.9667 491.422C42.0811 479.498 27.6116 465.417 34.2974 455.064C43.0291 441.544 78.786 448.89 76.7447 432.925C72.7026 401.313 26.7333 387.271 21.6072 355.817C18.3579 335.879 39.2602 317.719 56.1678 306.665C73.0427 295.632 97.2333 285.165 114.95 294.789Z" fill="#5FFFF5" fill-opacity="0.5"/>
<path fill-rule="evenodd" clip-rule="evenodd" d="M262.444 739.223C259.674 710.534 290.587 696.371 293.877 669.087C295.517 655.489 278.771 642.21 275.878 627.837C272.789 612.491 277.226 598.469 276.613 583.325C275.683 560.368 252.145 520.801 271.295 514.646C295.348 506.915 321.507 565.453 346.743 560.786C369.711 556.538 350.487 493.993 374.817 495.5C397.813 496.924 400.146 541.63 413.169 564.899C419.959 577.032 421.867 595.591 433.747 600.797C458.453 611.625 488.927 584.88 508.07 606.491C523.279 623.662 478.217 639.612 486.783 660.673C499.871 692.851 567.192 704.28 560 734.169C552.7 764.505 498.576 728.453 469.347 733.132C457.653 735.003 454.203 755.475 441.777 753.094C425.548 749.983 411.243 710.919 399.132 719.675C375.151 737.014 389.718 789.165 366.487 807.529C351.762 819.168 324.726 805.759 305.88 793.387C287.071 781.038 264.556 761.09 262.444 739.223Z" fill="#5FFFF5" fill-opacity="0.5"/>
<path fill-rule="evenodd" clip-rule="evenodd" d="M314.85 383.8C320.677 370.031 329.581 353.493 336.59 344.515C363.799 316.563 418.488 269.065 451.23 259.269C483.972 249.473 584.666 216.282 593.433 206.534C602.619 204.125 604.281 206.41 604.417 213.438C604.404 230.564 582.614 238.869 551.668 250.664C546.27 252.722 540.593 254.886 534.704 257.221C520.844 264.87 513.097 269.992 499.492 284.314C487.06 298.093 479.986 302.032 473.301 305.754C471.355 306.838 469.442 307.903 467.439 309.187L467.502 309.262C470.449 312.757 475.496 318.744 504.728 314.589C534.662 308.181 546.662 309.099 550.673 314.854C553.167 323.758 535.449 328.324 514.461 333.732C510.925 334.643 507.298 335.578 503.658 336.562C475.978 348.274 460.482 352.203 432.797 355.215C418.138 356.227 410.764 358.754 399.585 367.699C375.972 403.453 361.989 428.667 347.38 460.605C355.138 463.67 363.756 465.843 372.226 467.979C393.846 473.43 414.503 478.638 417.42 497.824C420.521 518.215 398.386 528.055 375.948 538.031C364.274 543.221 352.518 548.447 344.191 555.214C338.281 560.017 332.79 565.196 327.317 570.358C318.949 578.25 310.622 586.103 300.904 592.514C294.376 596.82 286.932 599.405 279.522 601.978C270.328 605.171 261.187 608.345 253.913 614.765C245.011 622.622 238.84 636.131 232.861 649.217C223.566 669.563 214.738 688.887 196.844 684.357C180.682 680.265 180.156 659.126 179.63 637.986C179.104 616.847 178.578 595.707 162.42 591.604C139.466 585.775 116.02 602.779 93.3346 619.231C68.191 637.466 43.9821 655.024 22.4143 640.063C3.48416 626.933 20.9874 606.522 40.3865 583.9C55.4803 566.299 71.7219 547.36 72.8432 529.47C73.6784 516.144 63.4631 505.585 53.2491 495.028C43.0282 484.463 32.8085 473.9 33.664 460.566C34.5541 446.693 45.9282 437.517 57.5208 428.165C67.2112 420.347 77.0542 412.406 81.054 401.496C86.6492 386.233 85.7602 369.034 84.8823 352.048C83.7508 330.158 82.6377 308.622 95.4441 292.044C115.929 265.525 159.605 246.195 189.807 260.71C211.656 271.21 220.465 294.749 229.441 318.732C236.446 337.448 243.552 356.433 257.034 369.703C264.338 376.892 275.538 377.103 286.689 377.314C297.229 377.514 307.726 377.712 314.85 383.8Z" fill="url(#paint0_linear)"/>
<defs>
<linearGradient id="paint0_linear" x1="403" y1="338.5" x2="272" y2="472" gradientUnits="userSpaceOnUse">
<stop stop-color="#FF957B"/>
<stop offset="1" stop-color="#FFDE9F" stop-opacity="0.5"/>
</linearGradient>
</defs>
</svg>
