<svg xmlns="http://www.w3.org/2000/svg" width="128" height="128" fill="none" viewBox="0 0 128 128"><circle cx="64" cy="64" r="48" fill="url(#paint0_linear)" filter="url(#filter0_d)"/><circle cx="64" cy="64" r="40" fill="url(#paint1_linear)" filter="url(#filter1_i)"/><circle cx="64" cy="64" r="37.333" fill="url(#paint2_linear)" filter="url(#filter2_d)"/><g filter="url(#filter3_i)"><path fill="url(#paint3_linear)" d="M45.3333 50.6667C45.3333 49.1939 46.5272 48 48 48H80C81.4728 48 82.6667 49.1939 82.6667 50.6667C82.6667 52.1394 81.4728 53.3333 80 53.3333H48C46.5272 53.3333 45.3333 52.1394 45.3333 50.6667Z"/><path fill="url(#paint4_linear)" d="M45.3333 64C45.3333 62.5272 46.5272 61.3333 48 61.3333H80C81.4728 61.3333 82.6667 62.5272 82.6667 64C82.6667 65.4728 81.4728 66.6667 80 66.6667H48C46.5272 66.6667 45.3333 65.4728 45.3333 64Z"/><path fill="url(#paint5_linear)" d="M48 74.6667C46.5272 74.6667 45.3333 75.8606 45.3333 77.3333C45.3333 78.8061 46.5272 80 48 80H80C81.4728 80 82.6667 78.8061 82.6667 77.3333C82.6667 75.8606 81.4728 74.6667 80 74.6667H48Z"/></g><defs><linearGradient id="paint0_linear" x1="64" x2="64" y1="54.667" y2="112" gradientUnits="userSpaceOnUse"><stop stop-color="#fff"/><stop offset="1" stop-color="#E8E8E8"/></linearGradient><linearGradient id="paint1_linear" x1="64" x2="64" y1="24" y2="104" gradientUnits="userSpaceOnUse"><stop stop-color="#ECECEC"/><stop offset="1" stop-color="#fff"/></linearGradient><linearGradient id="paint2_linear" x1="64" x2="64" y1="26.667" y2="101.333" gradientUnits="userSpaceOnUse"><stop stop-color="#fff"/><stop offset="1" stop-color="#E4E4E4"/></linearGradient><linearGradient id="paint3_linear" x1="64" x2="64" y1="48" y2="80" gradientUnits="userSpaceOnUse"><stop stop-color="#161616"/><stop offset="1" stop-color="#707070"/></linearGradient><linearGradient id="paint4_linear" x1="64" x2="64" y1="48" y2="80" gradientUnits="userSpaceOnUse"><stop stop-color="#161616"/><stop offset="1" stop-color="#707070"/></linearGradient><linearGradient id="paint5_linear" x1="64" x2="64" y1="48" y2="80" gradientUnits="userSpaceOnUse"><stop stop-color="#161616"/><stop offset="1" stop-color="#707070"/></linearGradient><filter id="filter0_d" width="100" height="100" x="14" y="15" color-interpolation-filters="sRGB" filterUnits="userSpaceOnUse"><feFlood flood-opacity="0" result="BackgroundImageFix"/><feColorMatrix in="SourceAlpha" values="0 0 0 0 0 0 0 0 0 0 0 0 0 0 0 0 0 0 127 0"/><feOffset dy="1"/><feGaussianBlur stdDeviation="1"/><feColorMatrix values="0 0 0 0 0 0 0 0 0 0 0 0 0 0 0 0 0 0 0.2 0"/><feBlend in2="BackgroundImageFix" result="effect1_dropShadow"/><feBlend in="SourceGraphic" in2="effect1_dropShadow" result="shape"/></filter><filter id="filter1_i" width="80" height="81" x="24" y="24" color-interpolation-filters="sRGB" filterUnits="userSpaceOnUse"><feFlood flood-opacity="0" result="BackgroundImageFix"/><feBlend in="SourceGraphic" in2="BackgroundImageFix" result="shape"/><feColorMatrix in="SourceAlpha" result="hardAlpha" values="0 0 0 0 0 0 0 0 0 0 0 0 0 0 0 0 0 0 127 0"/><feOffset dy="1"/><feGaussianBlur stdDeviation=".5"/><feComposite in2="hardAlpha" k2="-1" k3="1" operator="arithmetic"/><feColorMatrix values="0 0 0 0 0 0 0 0 0 0 0 0 0 0 0 0 0 0 0.1 0"/><feBlend in2="shape" result="effect1_innerShadow"/></filter><filter id="filter2_d" width="76.667" height="76.667" x="25.667" y="26.667" color-interpolation-filters="sRGB" filterUnits="userSpaceOnUse"><feFlood flood-opacity="0" result="BackgroundImageFix"/><feColorMatrix in="SourceAlpha" values="0 0 0 0 0 0 0 0 0 0 0 0 0 0 0 0 0 0 127 0"/><feOffset dy="1"/><feGaussianBlur stdDeviation=".5"/><feColorMatrix values="0 0 0 0 0 0 0 0 0 0 0 0 0 0 0 0 0 0 0.2 0"/><feBlend in2="BackgroundImageFix" result="effect1_dropShadow"/><feBlend in="SourceGraphic" in2="effect1_dropShadow" result="shape"/></filter><filter id="filter3_i" width="37.333" height="33" x="45.333" y="48" color-interpolation-filters="sRGB" filterUnits="userSpaceOnUse"><feFlood flood-opacity="0" result="BackgroundImageFix"/><feBlend in="SourceGraphic" in2="BackgroundImageFix" result="shape"/><feColorMatrix in="SourceAlpha" result="hardAlpha" values="0 0 0 0 0 0 0 0 0 0 0 0 0 0 0 0 0 0 127 0"/><feOffset dy="1"/><feGaussianBlur stdDeviation=".5"/><feComposite in2="hardAlpha" k2="-1" k3="1" operator="arithmetic"/><feColorMatrix values="0 0 0 0 0 0 0 0 0 0 0 0 0 0 0 0 0 0 0.5 0"/><feBlend in2="shape" result="effect1_innerShadow"/></filter></defs></svg>