<?xml version="1.0" encoding="utf-8"?>
<!-- Generator: Adobe Illustrator 22.0.0, SVG Export Plug-In . SVG Version: 6.00 Build 0)  -->
<svg version="1.1" id="Layer_1" xmlns="http://www.w3.org/2000/svg" xmlns:xlink="http://www.w3.org/1999/xlink" x="0px" y="0px"
	 viewBox="0 0 1376 437.3" style="enable-background:new 0 0 1376 437.3;" xml:space="preserve">
<style type="text/css">
	.st0{fill:#FF984E;fill-opacity:0.1;}
	.st1{fill:#FF6B6B;fill-opacity:0.1;}
	.st2{fill:#FEA869;fill-opacity:0.1;}
	.st3{fill:#FFC85F;fill-opacity:0.1;}
</style>
<path class="st0" d="M996,438.3c-12.4-31.7-57.2-32.2-105.2-32.8c-41.9-0.5-86.3-1-114-22.3c-19.3-14.9-13-41.6-7.1-66.8
	c6.2-26.5,12.1-51.5-12.4-59.6c-33.6-11.1-57.3,10.4-81.9,32.7c-19.5,17.6-39.5,35.8-65.5,38.8c-19,2.2-36.2-12.1-53.4-26.4
	c-8.4-7-16.8-13.9-25.4-19c-17-10-34.4-26-51.8-42c-34.1-31.3-67.9-62.4-97.9-47.3c-24.4,12.3-8.9,43.6,7,75.7
	c15.3,31,31,62.8,12,79.3c-21.1,18.1-59.5,7.4-97.6-3.3c-39.2-11-77.9-21.8-96.7-0.8c-19.2,21.4,11.4,49.5,42.6,78.3
	c5.6,5.2,11.3,10.4,16.6,15.6L996,438.3L996,438.3z"/>
<path class="st1" d="M578,438.3c8.1-28.2,6.6-60.9-3.3-86.1c-10.7-27.2-37.3-41.3-64.4-55.7c-21-11.1-42.3-22.4-56.5-40
	c-10.2-12.6-12.7-30.1-15.1-47.3c-2.9-20.6-5.8-40.8-21.8-51.8c-15.4-10.6-35.4-5.9-55.4-1.2c-20,4.7-40,9.4-55.3-1.2
	c-20.6-14.2-31.7-47.2-42-77.9C251,37.6,239.1,2,209.7,15.3c-33.4,15.1-29.7,56.8-25.9,100c3.5,39,7,79.3-16.4,102.6
	c-16.5,16.4-42.2,1.9-68-12.6c-25.7-14.5-51.5-29-67.9-12.6c-18.3,18.2-1.4,42.6,16.3,68.4C59.2,277.6,71,294.7,74,311
	c2.5,13.3-0.3,26.6-3,39.9c-2.2,10.7-4.5,21.5-4,32.4c0.7,16.2,4.2,31.9,7.6,47.6c0.6,2.5,1.1,5,1.7,7.6H578V438.3z"/>
<path class="st2" d="M400.2,438.3c6.3-6.1,9.6-16.1,12.9-26.1c4.5-13.7,9.1-27.5,21.2-31.1c22.2-6.7,45.8-1.4,69.2,3.9
	c25,5.6,49.8,11.3,72.9,2.3c45-17.6,92.4-53.9,101.4-101.4c8.5-45.1-20.1-98.4-59-122.8c-22-13.8-49.8-9.5-77.4-5.3
	c-28.7,4.4-57.2,8.8-79-7c-16.9-12.2-15.4-36.5-13.8-60.7c1.6-24.5,3.1-48.9-14.5-60.6c-16.7-11.2-35.2,1-54.6,13.8
	c-15.8,10.4-32.2,21.2-48.6,19.9c-19.9-1.7-38-15.3-55.7-28.6c-22.4-16.8-44-33.1-67.5-23.9c-21.1,8.2-23.3,33.1-25.7,58.9
	c-2,22.5-4.1,45.5-18.8,58.7c-18.7,16.8-46.1,20.6-73,24.4c-31.4,4.4-62.3,8.8-78,33.6c-25.1,39.7-9.6,108,27.7,136.6
	c23.7,18.2,58.2,13.8,92,9.5c37.8-4.8,74.5-9.5,93.8,17.8c16.6,23.4-3.5,56.5-23.9,88.3h87.7c10.3-11.5,21.4-20.9,33.5-25.6
	c12-4.7,23.2,5,34.5,14.8c4.5,3.9,9,7.8,13.6,10.8L400.2,438.3L400.2,438.3z"/>
<path class="st2" d="M0-182"/>
<path class="st3" d="M539.5,438.3c0.7-7,2.3-13.9,5.1-20.6c7.4-17.7,28.3-25.6,49.2-33.6c10.2-3.9,20.4-7.8,29-12.8
	c17.1-9.9,39.6-17.2,62-24.5c44-14.3,87.7-28.5,89.3-62c1.3-27.3-33.6-29.2-69.4-31.1c-34.5-1.9-70-3.8-74.9-28.5
	c-5.4-27.3,22.8-55.5,50.8-83.4c28.8-28.7,57.2-57.2,48.2-83.8c-9.2-27.2-48.7-14.4-89.2-1.3c-21.8,7.1-43.9,14.2-61.6,15.2
	c-13.4,0.7-26.4-0.3-39.4-1.4c-19.2-1.6-38.4-3.2-58.5,1.2c-13.8,3-27.1,11.8-40.2,20.6c-16.7,11.1-33.1,22.1-49.9,20.3
	c-27.4-2.9-49-18.6-70.4-34.1c-25.4-18.4-50.5-36.6-84.7-32.8c-48,5.3-91.1,55.4-117.7,97.1C90.6,184.6,62,244.4,88,276.4
	c20.3,25,58.5,29.4,96.7,33.7c38.9,4.5,77.8,8.9,97.4,35.3c10.6,14.2-9.4,30.3-31,47.6c-17.8,14.3-36.7,29.5-40.7,45.3H539.5
	L539.5,438.3z"/>
<path class="st0" d="M996,438.3c-12.4-31.7-57.2-32.2-105.2-32.8c-41.9-0.5-86.3-1-114-22.3c-19.3-14.9-13-41.6-7.1-66.8
	c6.2-26.5,12.1-51.5-12.4-59.6c-33.6-11.1-57.3,10.4-81.9,32.7c-19.5,17.6-39.5,35.8-65.5,38.8c-19,2.2-36.2-12.1-53.4-26.4
	c-8.4-7-16.8-13.9-25.4-19c-17-10-34.4-26-51.8-42c-34.1-31.3-67.9-62.4-97.9-47.3c-24.4,12.3-8.9,43.6,7,75.7
	c15.3,31,31,62.8,12,79.3c-21.1,18.1-59.5,7.4-97.6-3.3c-39.2-11-77.9-21.8-96.7-0.8c-19.2,21.4,11.4,49.5,42.6,78.3
	c5.6,5.2,11.3,10.4,16.6,15.6L996,438.3L996,438.3z"/>
<path class="st1" d="M876.2,438.3c0.7-18.7-2.2-37.4-8.4-53.1c-10.7-27.2-37.3-41.3-64.4-55.7c-21-11.1-42.3-22.4-56.5-40
	c-10.2-12.6-12.7-30.1-15.1-47.3c-2.9-20.6-5.8-40.8-21.8-51.8c-15.4-10.6-35.4-5.9-55.4-1.2c-20,4.7-40,9.4-55.3-1.2
	c-20.6-14.2-31.7-47.2-42-77.9c-13.2-39.5-25.1-75.1-54.5-61.8c-33.4,15.1-29.7,56.8-25.9,100c3.5,39,7,79.3-16.4,102.6
	c-16.5,16.4-42.2,1.9-68-12.6c-25.7-14.5-51.5-29-67.9-12.6c-18.3,18.2-1.4,42.6,16.3,68.4c11.4,16.5,23.2,33.6,26.2,49.9
	c2.5,13.3-0.3,26.6-3,39.9c-2.2,10.7-4.5,21.5-4,32.4c0.3,7.5,1.2,14.9,2.5,22.1h513.6V438.3z"/>
<path class="st1" d="M0-182"/>
<path class="st1" d="M0-182"/>
<path class="st3" d="M801.4,438.3c16.4-8.6,36.8-15.2,57.1-21.8c44-14.3,87.7-28.5,89.3-62c1.3-27.3-33.6-29.2-69.4-31.1
	c-34.5-1.9-70-3.8-74.9-28.5c-5.4-27.3,22.8-55.5,50.8-83.4c28.8-28.7,57.2-57.2,48.2-83.8c-9.2-27.2-48.7-14.4-89.2-1.3
	c-21.8,7.1-43.9,14.2-61.6,15.2c-13.4,0.7-26.4-0.3-39.4-1.4c-19.2-1.6-38.4-3.2-58.5,1.2c-13.8,3-27.1,11.8-40.2,20.6
	c-16.7,11.1-33.1,22.1-49.9,20.3c-27.4-2.9-49-18.6-70.4-34.1c-25.4-18.4-50.5-36.6-84.7-32.8c-48,5.3-91.1,55.4-117.7,97.1
	c-26.4,41.7-55,101.5-29,133.5c20.3,25,58.5,29.4,96.7,33.7c38.9,4.5,77.8,8.9,97.4,35.3c5.4,7.3,2.8,15.1-4,23.3H801.4z"/>
<path class="st0" d="M996,438.3c-12.4-31.7-57.2-32.2-105.2-32.8c-41.9-0.5-86.3-1-114-22.3c-19.3-14.9-13-41.6-7.1-66.8
	c6.2-26.5,12.1-51.5-12.4-59.6c-33.6-11.1-57.3,10.4-81.9,32.7c-19.5,17.6-39.5,35.8-65.5,38.8c-19,2.2-36.2-12.1-53.4-26.4
	c-8.4-7-16.8-13.9-25.4-19c-17-10-34.4-26-51.8-42c-34.1-31.3-67.9-62.4-97.9-47.3c-24.4,12.3-8.9,43.6,7,75.7
	c15.3,31,31,62.8,12,79.3c-21.1,18.1-59.5,7.4-97.6-3.3c-39.2-11-77.9-21.8-96.7-0.8c-19.2,21.4,11.4,49.5,42.6,78.3
	c5.6,5.2,11.3,10.4,16.6,15.6L996,438.3L996,438.3z"/>
<path class="st1" d="M1194.5,90.2c50.5,26.9-55,104.6-51.8,161.7c2.1,37.3,63.7,51.9,65.7,89.2c1.9,35.6-47.8,55-56.1,89.7
	c-12.1,50.6,24.7,109.6-2,154.2c-24.1,40.1-81.5,74.1-125.8,58.9c-57-19.6-63.5-103.2-111.1-140.2c-23-17.8-63.5,6.9-85.3-12.2
	c-22.5-19.7-3.4-65.2-25.8-84.9c-36.2-31.9-119.6-7.8-132.3-54.3c-11.6-42.2,61.7-60.2,92.2-91.6c18.7-19.3,33.4-41.5,53.9-58.8
	c18.7-15.8,45.2-20.3,61.5-38.6c28.3-31.6,25.8-111.4,67.8-105.9c46.2,6.1,16.8,117,63,123C1077.4,189.5,1132.9,57.5,1194.5,90.2
	L1194.5,90.2z"/>
<path class="st1" d="M852.5,438.3c-1.1-5.6-1.9-11.4-2.7-17.2c-2.9-20.6-5.8-40.8-21.8-51.8c-15.4-10.6-35.4-5.9-55.4-1.2
	s-40,9.4-55.3-1.2c-20.6-14.2-31.7-47.2-42-77.9c-13.2-39.5-25.1-75.1-54.5-61.8c-33.4,15.1-29.7,56.8-25.9,100
	c3.5,39,7,79.3-16.4,102.6c-16.5,16.4-42.2,1.9-68-12.6c-25.7-14.5-51.5-29-67.9-12.6c-9.8,9.7-9.5,21.2-4.4,33.8L852.5,438.3
	L852.5,438.3z"/>
<path class="st1" d="M1124.3,498.3c21.8-31.5,24.3-81.1,10.5-116.1c-10.7-27.2-37.3-41.3-64.4-55.7c-21-11.1-42.3-22.4-56.5-40
	c-10.2-12.6-12.7-30.1-15.1-47.3c-2.9-20.6-5.8-40.8-21.8-51.8c-15.4-10.6-35.4-5.9-55.4-1.2c-20,4.7-40,9.4-55.3-1.2
	c-20.6-14.2-31.7-47.2-42-77.9c-13.2-39.5-25.1-75.1-54.5-61.8c-33.4,15.1-29.7,56.8-25.9,100c3.5,39,7,79.3-16.4,102.6
	c-16.5,16.4-42.2,1.9-68-12.6c-25.7-14.5-51.5-29-67.9-12.6c-18.3,18.2-1.4,42.6,16.3,68.4c11.4,16.5,23.2,33.6,26.2,49.9
	c2.5,13.3-0.3,26.6-3,39.9c-2.2,10.7-4.5,21.5-4,32.4c0.7,16.2,4.2,31.9,7.6,47.6c2.3,10.3,4.5,20.6,6.1,31.1
	c0.3,2.1,0.5,4.3,0.7,6.5h482.8V498.3z"/>
<path class="st2" d="M679.6,438.3c2.5-5.9,4.4-12.1,5.6-18.4c8.5-45.1-20.1-98.4-59-122.8c-22-13.8-49.8-9.5-77.4-5.3
	c-28.7,4.4-57.2,8.8-79-7c-16.9-12.2-15.4-36.5-13.8-60.7c1.6-24.5,3.1-48.9-14.5-60.6c-16.7-11.2-35.2,1-54.6,13.8
	c-15.8,10.4-32.2,21.2-48.6,19.9c-19.9-1.7-38-15.3-55.7-28.6c-22.4-16.8-44-33.1-67.5-23.9c-21.1,8.2-23.3,33.1-25.7,58.9
	c-2,22.5-4.1,45.5-18.8,58.7c-18.7,16.8-46.1,20.6-73,24.4c-31.4,4.4-62.3,8.8-78,33.6C-5.5,360,10,428.3,47.3,456.9
	c7.8,6,16.7,9.5,26.4,11.4v-30H679.6L679.6,438.3z"/>
<path class="st2" d="M1265.2,314.9c-9,47.5-56.4,83.8-101.4,101.4c-44.6,17.5-96.2-20.1-142.1-6.2c-24.3,7.4-18.2,55.2-42.6,62.2
	c-24.4,6.9-45.1-39.8-68.7-30.6c-56.3,22-89.2,144.9-140,112.2c-51-32.8,77.8-125.3,42.7-174.8c-36.6-51.6-135.6,11.3-185.8-27.2
	c-37.3-28.6-52.8-96.9-27.7-136.6c29.2-46,110.4-21.6,151-58C782.1,129,755.5,55,795,39.7c42.1-16.3,78.3,48.8,123.2,52.5
	c36.5,3,72.8-54,103.2-33.7c34.9,23.3-5.7,96.7,28.3,121.3c42.8,31,111.6-15.8,156.4,12.2C1245.1,216.4,1273.7,269.7,1265.2,314.9
	L1265.2,314.9z"/>
<path class="st3" d="M1018.5,461.3c0.7-7,2.3-13.9,5.1-20.6c7.4-17.7,28.3-25.6,49.2-33.6c10.2-3.9,20.4-7.8,29-12.8
	c17.1-9.9,39.6-17.2,62-24.5c44-14.3,87.7-28.5,89.3-62c1.3-27.3-33.6-29.2-69.4-31.1c-34.5-1.9-70-3.8-74.9-28.5
	c-5.4-27.3,22.8-55.5,50.8-83.4c28.8-28.7,57.3-57.2,48.3-83.8c-9.2-27.2-48.7-14.4-89.2-1.3c-21.8,7.1-43.9,14.2-61.6,15.2
	c-13.4,0.7-26.4-0.3-39.4-1.4c-19.2-1.6-38.4-3.2-58.5,1.2c-13.8,3-27.1,11.8-40.2,20.6c-16.7,11.1-33.1,22.1-49.9,20.3
	c-27.4-2.9-49-18.6-70.4-34.1c-25.4-18.4-50.5-36.6-84.7-32.8c-48,5.3-91.1,55.4-117.7,97.1c-26.6,41.8-55.2,101.6-29.2,133.6
	c20.3,25,58.5,29.4,96.7,33.7c38.9,4.5,77.8,8.9,97.4,35.3c10.6,14.2-9.4,30.3-31,47.6c-17.8,14.3-36.7,29.5-40.7,45.3L1018.5,461.3
	L1018.5,461.3z"/>
<path class="st3" d="M327.7,57.2c63-7,95,60.5,155.1,66.9c29.9,3.2,58.6-34,90.1-40.8c33.6-7.3,64.6,2,97.8,0.2
	c50.4-2.8,136.6-55.7,150.8-13.8c17.7,52.6-110.1,111.9-99,167.2c10.1,50.3,146.9,6.1,144.3,59.7c-2.4,50.6-100.6,57.1-151.3,86.4
	c-26.5,15.3-67.2,20.1-78.2,46.3c-23,54.6,36.7,120.8-10.2,163.5c-37.3,34-73.7-64.6-119.7-45.1C437,577.5,414,725.8,348.1,710.9
	c-66.9-15.1,10.6-135.2-0.5-199.2c-4.5-25.6-49.6-32.6-44.7-60c6.3-35.8,91.7-68.4,72.1-94.8c-38.8-52.2-153-18.5-194.1-69
	c-26-32,2.6-91.8,29.2-133.6C236.6,112.7,279.7,62.6,327.7,57.2L327.7,57.2z"/>
<path class="st3" d="M772.7,148.2c63-7,95,60.5,155.1,66.9c29.9,3.2,58.6-34,90.1-40.8c33.6-7.3,64.6,2,97.8,0.2
	c50.4-2.8,136.6-55.7,150.8-13.8c17.7,52.6-110.1,111.9-99,167.2c10.1,50.3,146.9,6.1,144.3,59.7c-2.4,50.6-100.6,57.1-151.3,86.4
	c-26.4,15.3-67.2,20.1-78.3,46.3c-23,54.6,36.7,120.8-10.2,163.5c-37.3,34-73.7-64.6-119.7-45.1C882,668.5,859,816.8,793.1,801.9
	c-66.9-15.1,10.6-135.2-0.5-199.2c-4.5-25.6-49.6-32.6-44.7-60c6.3-35.8,91.7-68.4,72.1-94.8c-38.8-52.2-153-18.5-194.1-69
	c-26-32,2.6-91.8,29.2-133.6C681.6,203.7,724.7,153.6,772.7,148.2L772.7,148.2z"/>
</svg>
