<svg width="467" height="282" viewBox="0 0 467 282" fill="none" xmlns="http://www.w3.org/2000/svg">
<path d="M63.2519 10.0502C63.2519 10.3954 63.1495 10.7329 62.9577 11.0199C62.7659 11.307 62.4933 11.5307 62.1744 11.6628C61.8555 11.7949 61.5045 11.8295 61.1659 11.7621C60.8273 11.6948 60.5163 11.5285 60.2722 11.2844C60.0281 11.0403 59.8619 10.7293 59.7945 10.3907C59.7272 10.0521 59.7617 9.70118 59.8939 9.38224C60.026 9.0633 60.2497 8.7907 60.5367 8.59891C60.8238 8.40712 61.1612 8.30475 61.5064 8.30475C61.9694 8.30475 62.4133 8.48864 62.7407 8.81598C63.068 9.14331 63.2519 9.58728 63.2519 10.0502Z" fill="#FFC727"/>
<path d="M446.101 172.28L437.014 172.474L432.401 172.55C430.856 172.585 429.305 172.55 427.76 172.592H427.455V172.28L427.414 164.509V164.162H427.76L436.931 164.204C439.992 164.204 443.047 164.28 446.101 164.315H446.295V164.509C446.295 165.825 446.24 167.134 446.205 168.429L446.101 172.28ZM446.101 172.28L446.004 168.367C445.97 167.078 445.928 165.804 445.914 164.53L446.101 164.723C443.047 164.758 439.992 164.834 436.931 164.834L427.76 164.876L428.106 164.53V172.28L427.795 171.975C429.305 171.975 430.815 171.975 432.332 172.01L436.841 172.128L446.101 172.28Z" fill="#EBEBEB"/>
<path d="M435.871 182.053L426.784 182.247L422.164 182.323C420.626 182.323 419.074 182.323 417.53 182.365H417.225V182.053V174.303V173.956H417.571L426.742 174.005C429.796 174.005 432.858 174.081 435.912 174.116H436.106V174.303C436.106 175.619 436.051 176.928 436.016 178.223L435.871 182.053ZM435.871 182.053L435.774 178.14C435.739 176.852 435.698 175.577 435.684 174.303L435.871 174.497C432.816 174.531 429.755 174.607 426.7 174.607L417.53 174.649L417.876 174.303V182.053L417.564 181.749C419.074 181.749 420.584 181.749 422.101 181.783L426.652 181.866L435.871 182.053Z" fill="#EBEBEB"/>
<path d="M456.332 182.053L447.244 182.247L442.631 182.323C441.087 182.323 439.535 182.323 437.99 182.365H437.686V182.053L437.644 174.303V173.956H437.99L447.161 174.005C450.223 174.005 453.277 174.081 456.332 174.116H456.526V174.303C456.526 175.619 456.463 176.928 456.435 178.223L456.332 182.053ZM456.332 182.053L456.235 178.14C456.235 176.852 456.158 175.577 456.145 174.303L456.332 174.497C453.277 174.531 450.223 174.607 447.161 174.607L437.99 174.649L438.337 174.303V182.053L438.025 181.749C439.542 181.749 441.045 181.749 442.562 181.783L447.12 181.866L456.332 182.053Z" fill="#EBEBEB"/>
<path d="M198.427 80.0553L189.34 80.2492L184.727 80.3254C183.182 80.3254 181.631 80.3254 180.086 80.3254H179.782V80.0137L179.74 72.2631V71.9167H180.086L189.257 71.9583C192.318 71.9583 195.373 72.0345 198.427 72.0691H198.621V72.2561C198.621 73.5721 198.559 74.8743 198.524 76.1696L198.427 80.0553ZM198.427 80.0553L198.33 76.1349C198.33 74.8466 198.254 73.5722 198.24 72.3046L198.427 72.4916C195.373 72.4916 192.318 72.6025 189.257 72.6025L180.086 72.6509L180.433 72.3046L180.398 80.0553L180.086 79.7436C181.596 79.7436 183.106 79.7436 184.623 79.7851L189.181 79.8613L198.427 80.0553Z" fill="#EBEBEB"/>
<path d="M188.183 89.8284L179.096 90.0223L174.476 90.0985C172.938 90.0985 171.387 90.0985 169.842 90.1332H169.537V89.8215L169.482 82.0847V81.7384H169.828L178.999 81.7799C182.053 81.7799 185.115 81.8561 188.169 81.8908H188.363V82.0847C188.363 83.4007 188.308 84.7029 188.273 85.9981L188.183 89.8284ZM188.183 89.8284L188.086 85.9081C188.052 84.6198 188.01 83.3453 187.996 82.0778L188.183 82.2648C185.129 82.2994 182.067 82.3756 179.013 82.3756L169.842 82.4241L170.188 82.0778L170.175 89.8284L169.863 89.5167C171.373 89.5167 172.883 89.5167 174.4 89.5583L178.95 89.6345L188.183 89.8284Z" fill="#EBEBEB"/>
<path d="M208.658 89.8284L199.57 90.0223L194.957 90.0985C193.413 90.0985 191.868 90.0985 190.317 90.1332H190.012V89.8215L189.97 82.0847V81.7384H190.317L199.487 81.7799C202.549 81.7799 205.603 81.8561 208.658 81.8908H208.852V82.0847C208.852 83.4007 208.789 84.7029 208.762 85.9981L208.658 89.8284ZM208.658 89.8284L208.561 85.9081C208.561 84.6198 208.484 83.3453 208.471 82.0778L208.658 82.2648C205.603 82.2994 202.549 82.3756 199.487 82.3756L190.317 82.4241L190.663 82.0778L190.628 89.8284L190.317 89.5167C191.833 89.5167 193.336 89.5167 194.853 89.5583L199.411 89.6345L208.658 89.8284Z" fill="#EBEBEB"/>
<path d="M30.5384 197.679L21.451 197.866L16.8311 197.949C15.2934 197.949 13.7419 197.949 12.1973 197.984H11.8926V197.679V189.929V189.575H12.2389L21.4094 189.617C24.464 189.617 27.5254 189.693 30.58 189.728H30.7739V189.915C30.7739 191.224 30.7185 192.533 30.6839 193.828L30.5384 197.679ZM30.5384 197.679L30.4415 193.759C30.4068 192.471 30.3653 191.196 30.3514 189.929L30.5384 190.116C27.4839 190.116 24.4224 190.226 21.3679 190.226L12.1973 190.275L12.5437 189.929L12.5021 197.679L12.1973 197.368C13.7073 197.368 15.2172 197.368 16.7272 197.402L21.2848 197.485L30.5384 197.679Z" fill="#EBEBEB"/>
<path d="M352.934 80.0483L343.847 80.2423L339.234 80.3185C337.689 80.3531 336.138 80.3185 334.593 80.3531H334.289V80.0414L334.247 72.2908V71.9445H334.593L343.764 71.986C346.825 71.986 349.88 72.0691 352.934 72.1038H353.128V72.2908C353.128 73.6068 353.073 74.9159 353.038 76.2042L352.934 80.0483ZM352.934 80.0483L352.837 76.1349C352.803 74.8397 352.761 73.5652 352.747 72.2977L352.934 72.4847C349.88 72.5193 346.825 72.5955 343.764 72.6025L334.593 72.644L334.94 72.2977V80.0483L334.628 79.7367C336.138 79.7367 337.648 79.7366 339.165 79.7782L343.722 79.8544L352.934 80.0483Z" fill="#EBEBEB"/>
<path d="M80.7135 166.808L32.4503 179.435L16.2495 117.479L52.0797 108.107L64.5057 104.859L67.5949 116.661L80.7135 166.808Z" fill="white"/>
<path d="M24.1049 128.219L63.4209 117.941L63.0057 116.353L23.6897 126.63L24.1049 128.219Z" fill="#DBDBDB"/>
<path d="M25.1525 132.231L64.4685 121.953L64.0533 120.365L24.7373 130.643L25.1525 132.231Z" fill="#DBDBDB"/>
<path d="M26.2021 136.257L65.5181 125.979L65.1029 124.391L25.7869 134.669L26.2021 136.257Z" fill="#DBDBDB"/>
<path d="M27.2494 140.268L66.5654 129.99L66.1503 128.402L26.8343 138.68L27.2494 140.268Z" fill="#DBDBDB"/>
<path d="M28.297 144.28L67.613 134.003L67.1979 132.414L27.8819 142.692L28.297 144.28Z" fill="#DBDBDB"/>
<path d="M29.6154 147.585L69.0334 137.425L68.6231 135.833L29.205 145.992L29.6154 147.585Z" fill="#DBDBDB"/>
<path d="M30.4006 152.317L69.7166 142.039L69.3014 140.451L29.9854 150.729L30.4006 152.317Z" fill="#DBDBDB"/>
<path d="M31.7304 155.59L71.1484 145.431L70.738 143.838L31.32 153.998L31.7304 155.59Z" fill="#DBDBDB"/>
<path d="M32.7939 159.588L72.2119 149.428L71.8015 147.836L32.3835 157.995L32.7939 159.588Z" fill="#DBDBDB"/>
<path d="M33.5522 164.366L72.8682 154.089L72.453 152.5L33.137 162.778L33.5522 164.366Z" fill="#DBDBDB"/>
<path d="M34.9159 167.598L74.334 157.439L73.9236 155.847L34.5056 166.006L34.9159 167.598Z" fill="#DBDBDB"/>
<path d="M35.9726 171.597L75.3906 161.438L74.9802 159.846L35.5622 170.005L35.9726 171.597Z" fill="#DBDBDB"/>
<path d="M93.5272 184.685L43.7195 187.47L40.1455 123.532L77.1255 121.468L90.632 132.931L93.5272 184.685Z" fill="white"/>
<path d="M77.1255 121.468L90.632 132.931L77.8043 133.652L77.1255 121.468Z" fill="#DBDBDB"/>
<path d="M45.7069 135.627L73.397 134.079L73.3053 132.44L45.6153 133.988L45.7069 135.627Z" fill="#DBDBDB"/>
<path d="M45.9333 139.774L73.6233 138.226L73.5317 136.587L45.8416 138.135L45.9333 139.774Z" fill="#DBDBDB"/>
<path d="M46.1659 143.915L73.856 142.367L73.7643 140.728L46.0743 142.276L46.1659 143.915Z" fill="#DBDBDB"/>
<path d="M46.3979 148.061L86.9717 145.793L86.88 144.154L46.3063 146.422L46.3979 148.061Z" fill="#DBDBDB"/>
<path d="M46.6311 152.202L87.2048 149.934L87.1132 148.295L46.5394 150.563L46.6311 152.202Z" fill="#DBDBDB"/>
<path d="M46.8642 156.349L87.438 154.081L87.3464 152.442L46.7726 154.71L46.8642 156.349Z" fill="#DBDBDB"/>
<path d="M47.0903 160.49L87.6641 158.222L87.5724 156.583L46.9986 158.851L47.0903 160.49Z" fill="#DBDBDB"/>
<path d="M47.3234 164.638L87.8972 162.369L87.8056 160.73L47.2318 162.999L47.3234 164.638Z" fill="#DBDBDB"/>
<path d="M47.5566 168.778L88.1304 166.51L88.0387 164.871L47.4649 167.139L47.5566 168.778Z" fill="#DBDBDB"/>
<path d="M47.7895 172.919L88.3633 170.65L88.2716 169.011L47.6979 171.28L47.7895 172.919Z" fill="#DBDBDB"/>
<path d="M48.0158 177.066L88.5896 174.798L88.498 173.159L47.9242 175.428L48.0158 177.066Z" fill="#DBDBDB"/>
<path d="M48.2558 181.214L88.8296 178.945L88.738 177.306L48.1642 179.575L48.2558 181.214Z" fill="#DBDBDB"/>
<path d="M374.801 54.8016L422.579 89.9669L446.067 57.9878L398.288 22.8225L374.801 54.8016Z" fill="#F5F5F5"/>
<path d="M378.243 55.2683L422.06 87.5176L442.617 59.5142L398.801 27.2718L378.243 55.2683Z" fill="white"/>
<path d="M396.37 37.922C395.677 38.8645 395.279 39.9913 395.226 41.16C395.173 42.3287 395.468 43.4868 396.074 44.4878C396.679 45.4888 397.568 46.2878 398.628 46.7838C399.687 47.2797 400.87 47.4503 402.026 47.274C403.183 47.0977 404.261 46.5825 405.125 45.7934C405.989 45.0043 406.599 43.9768 406.879 42.8408C407.158 41.7049 407.095 40.5115 406.697 39.4116C406.298 38.3117 405.582 37.3546 404.64 36.6614C403.375 35.7336 401.795 35.3453 400.244 35.5817C398.694 35.818 397.3 36.6597 396.37 37.922Z" fill="#FFEFB6"/>
<path d="M391.819 64.3254L421.997 86.5453L421.963 54.9817L391.819 64.3254Z" fill="#FFEFB6"/>
<path d="M379.982 55.6328L404.896 73.967L402.243 51.477L379.982 55.6328Z" fill="#FFEFB6"/>
<path d="M357.478 39.6744L416.796 40.4709L417.288 0.796534L357.963 0L357.478 39.6744Z" fill="#F5F5F5"/>
<path d="M359.972 37.2363L414.371 37.9705L414.794 3.23463L360.394 2.50735L359.972 37.2363Z" fill="white"/>
<path d="M365.194 13.4026C365.179 14.5737 365.512 15.723 366.15 16.7051C366.788 17.6872 367.703 18.458 368.779 18.92C369.856 19.3821 371.045 19.5146 372.196 19.3009C373.348 19.0872 374.41 18.5368 375.249 17.7193C376.088 16.9019 376.665 15.8541 376.909 14.7084C377.152 13.5627 377.05 12.3706 376.616 11.2828C376.182 10.195 375.435 9.26044 374.469 8.5972C373.504 7.93397 372.363 7.57187 371.192 7.55671C370.415 7.54664 369.643 7.68987 368.92 7.97821C368.198 8.26656 367.539 8.69437 366.982 9.23722C366.425 9.78007 365.981 10.4273 365.674 11.142C365.367 11.8567 365.204 12.6249 365.194 13.4026Z" fill="#FFEFB6"/>
<path d="M376.858 37.5203L414.33 38.0259L395.94 12.3775L376.858 37.5203Z" fill="#FFEFB6"/>
<path d="M362.174 37.3333L393.107 37.7488L377.862 21.0078L362.174 37.3333Z" fill="#EBEBEB"/>
<path d="M447.494 156.765C438.635 168.769 429.395 182.697 427.144 197.755C427.144 197.984 427.483 198.06 427.532 197.832C428.555 193.73 429.865 189.705 431.452 185.787C437.277 184.18 442.998 182.864 446.053 177.08C449.177 171.137 448.782 163.387 448.186 156.911C448.145 156.55 447.674 156.537 447.494 156.765Z" fill="white"/>
<path d="M431.542 185.655C435.518 176.727 440.63 167.757 447.127 160.408C447.168 160.36 447.237 160.408 447.196 160.478C442.943 165.714 439.715 171.407 436.557 177.205C439.494 174.227 442.707 171.56 445.485 168.401C445.54 168.339 445.63 168.401 445.575 168.491C442.804 171.802 439.805 175.418 436.211 177.849C435.241 179.629 434.271 181.416 433.288 183.196C433.523 183.065 433.772 182.947 434.022 182.822C434.07 182.822 434.105 182.864 434.063 182.885C433.786 183.023 433.516 183.168 433.232 183.293C432.768 184.138 432.304 184.983 431.847 185.821C431.715 185.981 431.459 185.849 431.542 185.655Z" fill="white"/>
<path d="M434.5 182.517C436.884 181.188 439.158 179.671 441.301 177.981C441.364 177.932 441.447 177.981 441.384 178.064C439.304 179.858 437.027 181.41 434.597 182.691C434.574 182.703 434.546 182.707 434.521 182.699C434.496 182.692 434.474 182.675 434.462 182.652C434.449 182.63 434.445 182.602 434.453 182.577C434.46 182.552 434.477 182.53 434.5 182.517Z" fill="white"/>
<path d="M426.119 195.504C426.126 195.542 426.147 195.575 426.177 195.6C426.206 195.624 426.243 195.637 426.281 195.637C426.32 195.637 426.357 195.624 426.386 195.6C426.416 195.575 426.436 195.542 426.444 195.504C426.486 190.552 426.444 185.572 426.52 180.592C427.788 178.029 430.517 176.609 432.408 174.559C433.773 173.059 434.961 171.407 435.947 169.634C438.227 165.402 439.622 160.75 440.048 155.962C440.567 150.663 438.558 133.167 436.321 133.797C435.165 134.109 431.41 142.801 430.42 145.641C428.805 150.373 427.625 155.241 426.894 160.187C425.066 171.795 425.232 183.771 426.119 195.504Z" fill="white"/>
<path d="M426.084 174.13C426.354 167.854 427.767 161.524 429.09 155.428C430.517 148.876 432.179 142.705 435.552 136.859C435.567 136.84 435.587 136.827 435.611 136.822C435.634 136.818 435.658 136.822 435.678 136.834C435.699 136.846 435.714 136.865 435.722 136.887C435.729 136.909 435.728 136.934 435.719 136.956C433.47 141.502 431.73 146.282 430.531 151.21C430.752 150.857 431.029 150.518 431.265 150.185C431.355 150.053 431.577 150.185 431.48 150.317C431.181 150.848 430.828 151.347 430.427 151.806C430.427 151.806 430.427 151.806 430.385 151.806C429.222 156.488 428.39 161.274 427.677 166.053C427.732 165.998 427.781 165.929 427.836 165.873C427.892 165.818 427.933 165.873 427.913 165.929C427.823 166.088 427.719 166.24 427.629 166.4C427.268 168.824 426.936 171.248 426.597 173.645C430.919 169.953 434.603 165.603 436.688 160.242C436.688 160.242 436.737 160.242 436.723 160.242C434.687 165.783 431.473 170.743 426.527 174.095L426.257 176.034C426.257 176.166 426.022 176.131 426.029 176.034C426.029 175.459 426.029 174.885 426.077 174.317C426.065 174.304 426.056 174.289 426.05 174.273C426.044 174.256 426.041 174.239 426.041 174.222C426.042 174.204 426.046 174.187 426.054 174.171C426.061 174.156 426.071 174.141 426.084 174.13Z" fill="white"/>
<path d="M428.114 165.042C431.417 160.117 434.5 155.345 436.917 149.887C436.917 149.825 437.049 149.887 437.021 149.929C434.984 155.338 432.172 160.824 428.28 165.167C428.204 165.257 428.051 165.139 428.114 165.042Z" fill="white"/>
<path d="M432.505 148.668C433.89 146.251 435.275 143.896 436.598 141.43C436.633 141.361 436.73 141.43 436.702 141.485C435.638 144.063 434.291 146.514 432.685 148.793C432.622 148.917 432.422 148.807 432.505 148.668Z" fill="white"/>
<path d="M422.766 181.174C422.695 184.459 422.305 187.73 421.603 190.94C421.658 191.293 421.707 191.633 421.762 192.007C422.77 188.463 423.355 184.813 423.507 181.132C423.537 181.08 423.552 181.022 423.552 180.962C423.552 180.903 423.537 180.845 423.507 180.793C423.648 175.851 423.281 170.907 422.413 166.04C420.91 156.89 417.537 148.176 411.213 141.354C411.161 141.31 411.099 141.279 411.033 141.262C410.967 141.246 410.898 141.244 410.831 141.258C410.765 141.272 410.702 141.301 410.648 141.343C410.594 141.385 410.551 141.438 410.52 141.499C407.958 148.017 408.851 155.788 411.033 162.278C412.213 165.805 413.908 169.138 416.062 172.169C418.216 175.238 420.993 177.828 422.766 181.174Z" fill="white"/>
<path d="M411.906 144.422C417.932 154.195 422.115 165.776 422.628 177.323C422.628 177.523 422.295 177.579 422.268 177.371C422.122 176.332 421.963 175.293 421.797 174.282C419.303 171.899 416.747 169.385 414.967 166.4C414.964 166.389 414.964 166.377 414.968 166.367C414.971 166.356 414.978 166.346 414.987 166.34C414.996 166.333 415.007 166.329 415.018 166.329C415.03 166.328 415.041 166.331 415.05 166.337C417.128 168.857 419.35 171.253 421.707 173.513C421.277 170.964 420.762 168.452 420.162 165.977C419.996 165.79 419.843 165.603 419.684 165.416C419.525 165.229 419.753 165.118 419.864 165.236L420.01 165.395C419.157 162.007 418.105 158.672 416.858 155.408C415.327 153.579 413.617 152 412.494 149.797C412.49 149.786 412.489 149.774 412.493 149.763C412.497 149.752 412.504 149.742 412.515 149.736C412.525 149.73 412.537 149.728 412.548 149.731C412.56 149.733 412.57 149.739 412.578 149.749C413.438 151.026 414.362 152.258 415.348 153.44C415.75 153.911 416.2 154.341 416.616 154.826C415.233 151.284 413.587 147.85 411.691 144.554C411.684 144.527 411.686 144.498 411.696 144.471C411.707 144.445 411.726 144.423 411.75 144.408C411.774 144.394 411.802 144.387 411.83 144.39C411.858 144.392 411.885 144.404 411.906 144.422Z" fill="white"/>
<path d="M413.152 156.453C415.099 159.072 417.308 161.572 419.123 164.28C419.178 164.356 419.068 164.44 418.998 164.377C416.678 162.195 414.711 159.217 413.021 156.53C412.972 156.447 413.097 156.377 413.152 156.453Z" fill="white"/>
<path d="M419.4 164.883L419.483 164.966C419.539 165.028 419.449 165.118 419.393 165.056L419.31 164.973C419.298 164.961 419.291 164.945 419.291 164.928C419.291 164.911 419.298 164.895 419.31 164.883C419.322 164.871 419.338 164.864 419.355 164.864C419.372 164.864 419.388 164.871 419.4 164.883Z" fill="white"/>
<path d="M402.507 163.186C402.985 168.214 405.63 174.22 408.858 178.091C410.277 179.775 412.032 181.144 414.011 182.109C416.242 183.217 418.576 184.485 420.882 185.392C421.979 188.185 422.796 191.081 423.32 194.036C423.397 193.787 423.466 193.523 423.542 193.274C422.06 180.543 413.845 169.669 403.289 162.687C403.208 162.632 403.112 162.602 403.013 162.6C402.914 162.599 402.817 162.626 402.734 162.679C402.651 162.732 402.585 162.809 402.545 162.899C402.504 162.989 402.491 163.088 402.507 163.186Z" fill="white"/>
<path d="M406.143 166.947C406.067 166.878 406.143 166.746 406.254 166.808C412.042 171.111 416.657 176.799 419.677 183.349C419.753 183.522 419.511 183.674 419.414 183.501C418.922 182.642 418.423 181.811 417.918 180.994C415.514 180.536 413.236 178.846 411.449 177.239C411.4 177.198 411.449 177.129 411.518 177.17C412.44 178.007 413.464 178.724 414.565 179.304C415.542 179.802 416.595 180.114 417.62 180.516C416.726 179.13 415.798 177.745 414.849 176.429C412.254 175.441 409.819 174.073 407.625 172.37C407.556 172.315 407.625 172.204 407.694 172.252C409.868 173.565 412.108 174.762 414.406 175.84C412.942 173.898 411.36 172.048 409.668 170.299C408.851 169.87 408.02 169.433 407.23 168.969C407.215 168.963 407.202 168.951 407.196 168.935C407.189 168.919 407.189 168.902 407.196 168.886C407.202 168.871 407.215 168.858 407.23 168.852C407.246 168.845 407.263 168.845 407.279 168.852C407.936 169.081 408.564 169.388 409.149 169.766C408.172 168.817 407.196 167.868 406.143 166.947Z" fill="white"/>
<path d="M406.365 171.338C406.506 171.427 406.643 171.524 406.773 171.629C406.815 171.664 406.773 171.712 406.725 171.698C406.577 171.63 406.436 171.549 406.302 171.456C406.226 171.435 406.295 171.297 406.365 171.338Z" fill="white"/>
<path d="M439.985 221.603H411.116L413.443 195.31L413.956 189.513H437.139L437.651 195.31L439.985 221.603Z" fill="#455A64"/>
<path d="M437.651 195.31H413.443L413.956 189.513H437.139L437.651 195.31Z" fill="white"/>
<path d="M438.524 185.461H412.578V191.196H438.524V185.461Z" fill="#455A64"/>
<path d="M0 221.603L58.3064 221.43L116.606 221.375L233.205 221.257L349.804 221.375L408.103 221.43L466.403 221.603L408.103 221.769L349.804 221.832L233.205 221.949L116.606 221.832L58.3064 221.769L0 221.603Z" fill="#263238"/>
<path d="M233.205 281.842C357.253 281.842 457.814 273.869 457.814 264.034C457.814 254.199 357.253 246.226 233.205 246.226C109.157 246.226 8.5957 254.199 8.5957 264.034C8.5957 273.869 109.157 281.842 233.205 281.842Z" fill="#8C8C8C"/>
<path d="M394.271 17.6069H72.1453V233.087H394.271V17.6069Z" fill="white"/>
<path d="M391.93 20.2389H74.4863V230.462H391.93V20.2389Z" fill="#455A64"/>
<path d="M436.217 249.246H30.1851V264.034H436.217V249.246Z" fill="#DBDBDB"/>
<path d="M30.1851 249.246L72.1452 233.087H394.264L436.224 249.246H30.1851Z" fill="#EBEBEB"/>
<path d="M75.8923 243.511L102.961 233.087H363.448L390.524 243.511H75.8923Z" fill="#263238"/>
<path d="M373.991 36.2112H92.4258V214.49H373.991V36.2112Z" fill="white"/>
<path d="M368.99 43.0683H92.1833V88.0552H368.99V43.0683Z" fill="#FFBD00"/>
<path d="M373.984 36.2112H92.1833V43.0683H373.984V36.2112Z" fill="#455A64"/>
<path d="M97.6344 39.6397C97.6343 39.977 97.5342 40.3067 97.3467 40.5871C97.1592 40.8674 96.8927 41.0858 96.5809 41.2146C96.2692 41.3433 95.9262 41.3767 95.5955 41.3104C95.2648 41.2441 94.9612 41.0811 94.7232 40.8421C94.4851 40.6031 94.3234 40.2989 94.2585 39.9679C94.1935 39.6369 94.2282 39.2941 94.3583 38.9829C94.4883 38.6717 94.7078 38.406 94.9889 38.2196C95.27 38.0332 95.6001 37.9345 95.9374 37.9359C96.1608 37.9358 96.382 37.98 96.5884 38.0657C96.7947 38.1514 96.9821 38.277 97.1398 38.4353C97.2974 38.5936 97.4223 38.7815 97.5072 38.9882C97.592 39.1949 97.6353 39.4163 97.6344 39.6397Z" fill="#C7C7C7"/>
<path d="M104.582 39.6397C104.582 39.977 104.481 40.3067 104.294 40.5871C104.106 40.8674 103.84 41.0858 103.528 41.2146C103.216 41.3433 102.873 41.3767 102.543 41.3104C102.212 41.2441 101.908 41.0811 101.67 40.8421C101.432 40.6031 101.271 40.2989 101.206 39.9679C101.141 39.6369 101.176 39.2941 101.306 38.9829C101.436 38.6717 101.655 38.406 101.936 38.2196C102.217 38.0332 102.547 37.9345 102.885 37.9359C103.108 37.9358 103.329 37.98 103.536 38.0657C103.742 38.1514 103.929 38.277 104.087 38.4353C104.245 38.5936 104.37 38.7815 104.454 38.9882C104.539 39.1949 104.583 39.4163 104.582 39.6397Z" fill="white"/>
<path d="M111.529 39.6397C111.529 39.977 111.429 40.3067 111.241 40.5871C111.054 40.8674 110.787 41.0858 110.475 41.2146C110.164 41.3433 109.821 41.3767 109.49 41.3104C109.159 41.2441 108.856 41.0811 108.618 40.8421C108.38 40.6031 108.218 40.2989 108.153 39.9679C108.088 39.6369 108.123 39.2941 108.253 38.9829C108.383 38.6717 108.602 38.406 108.883 38.2196C109.165 38.0332 109.495 37.9345 109.832 37.9359C110.055 37.9358 110.277 37.98 110.483 38.0657C110.689 38.1514 110.877 38.277 111.034 38.4353C111.192 38.5936 111.317 38.7815 111.402 38.9882C111.487 39.1949 111.53 39.4163 111.529 39.6397Z" fill="#FFC727"/>
<path d="M373.991 43.0683H368.99V214.483H373.991V43.0683Z" fill="#DBDBDB"/>
<path d="M371.483 102.497C371.141 102.497 370.814 102.361 370.572 102.119C370.331 101.878 370.195 101.55 370.195 101.208V45.3748C370.195 45.0331 370.331 44.7054 370.572 44.4638C370.814 44.2222 371.141 44.0865 371.483 44.0865C371.825 44.0865 372.154 44.222 372.397 44.4634C372.639 44.7048 372.777 45.0325 372.778 45.3748V101.222C372.773 101.562 372.634 101.886 372.392 102.125C372.149 102.363 371.823 102.497 371.483 102.497Z" fill="#A6A6A6"/>
<path d="M354.562 51.4354H287.265V60.4189H354.562V51.4354Z" fill="white"/>
<path d="M354.652 60.509H287.175V51.3384H354.652V60.509ZM287.355 60.322H354.472V51.5254H287.355V60.322Z" fill="#C7C7C7"/>
<path d="M354.659 51.3384H345.489V60.509H354.659V51.3384Z" fill="#455A64"/>
<path d="M352.921 58.438L352.089 59.0683L350.552 57.0388L349.991 56.2977C350.105 56.2542 350.213 56.1934 350.309 56.1176C350.496 55.9713 350.644 55.7809 350.739 55.5635L351.334 56.3531L352.921 58.438Z" fill="white"/>
<path d="M351.286 53.6865C351.023 53.3429 350.668 53.0816 350.262 52.9334C349.856 52.7852 349.416 52.7564 348.994 52.8503C348.572 52.9442 348.186 53.1569 347.881 53.4633C347.576 53.7697 347.365 54.157 347.273 54.5794C347.181 55.0019 347.212 55.4418 347.362 55.8472C347.512 56.2527 347.775 56.6067 348.119 56.8675C348.464 57.1283 348.876 57.285 349.307 57.319C349.738 57.3531 350.17 57.2631 350.552 57.0596C350.662 57.0033 350.766 56.936 350.863 56.8588C351.044 56.7221 351.203 56.5586 351.334 56.3739C351.614 55.9795 351.761 55.5058 351.752 55.0222C351.743 54.5386 351.58 54.0705 351.286 53.6865ZM350.309 56.1384C350.213 56.2142 350.105 56.2749 349.991 56.3185C349.716 56.4239 349.415 56.4391 349.131 56.3619C348.847 56.2847 348.595 56.1191 348.411 55.8891C348.256 55.7545 348.132 55.5869 348.049 55.3984C347.966 55.21 347.926 55.0055 347.932 54.7997C347.938 54.594 347.99 54.3921 348.084 54.2089C348.178 54.0258 348.312 53.8658 348.475 53.7407C348.639 53.6156 348.828 53.5285 349.029 53.4857C349.231 53.443 349.439 53.4456 349.639 53.4935C349.839 53.5414 350.026 53.6333 350.187 53.7625C350.347 53.8917 350.476 54.0551 350.565 54.2406C350.707 54.431 350.797 54.6545 350.828 54.8898C350.858 55.1251 350.827 55.3642 350.739 55.5843C350.641 55.7941 350.493 55.9771 350.309 56.1176V56.1384Z" fill="white"/>
<path d="M289.627 53.1947H289.142V58.6458H289.627V53.1947Z" fill="#C7C7C7"/>
<path d="M283.892 51.4354H128.9V60.4189H283.892V51.4354Z" fill="white"/>
<path d="M283.982 60.509H128.831V51.3384H283.982V60.509ZM128.99 60.322H283.767V51.5254H128.99V60.322Z" fill="#C7C7C7"/>
<path d="M131.262 53.1947H130.777V58.6458H131.262V53.1947Z" fill="#C7C7C7"/>
<path d="M111.944 58.999L108.675 55.986L111.937 52.8553L112.45 53.3817L109.742 55.9722L112.443 58.4588L111.944 58.999Z" fill="white"/>
<path d="M119.84 52.8484L123.11 55.8614L119.847 58.9921L119.342 58.4657L122.043 55.8683L119.342 53.3886L119.84 52.8484Z" fill="white"/>
<path d="M197.582 152.72H268.952V97.96H197.582V152.72Z" fill="#FFC727"/>
<path opacity="0.6" d="M204.689 109.943C204.417 111.307 204.592 112.723 205.187 113.981C205.782 115.238 206.765 116.271 207.992 116.927C209.22 117.582 210.625 117.826 212.001 117.621C213.378 117.416 214.651 116.774 215.634 115.789C216.618 114.805 217.258 113.53 217.461 112.154C217.664 110.778 217.419 109.372 216.761 108.146C216.104 106.92 215.07 105.937 213.811 105.344C212.553 104.751 211.137 104.578 209.773 104.852C208.517 105.103 207.364 105.721 206.46 106.627C205.555 107.533 204.939 108.687 204.689 109.943Z" fill="white"/>
<path d="M221.125 140.924H268.952L245.042 111.453L221.125 140.924Z" fill="#FFC727"/>
<path opacity="0.2" d="M221.125 140.924H268.952L245.042 111.453L221.125 140.924Z" fill="black"/>
<path d="M197.582 140.952H239.993L218.791 121.759L197.582 140.952Z" fill="#FFC727"/>
<path opacity="0.1" d="M197.582 140.952H239.993L218.791 121.759L197.582 140.952Z" fill="black"/>
<path d="M268.952 140.924H197.582V152.72H268.952V140.924Z" fill="#FFC727"/>
<path opacity="0.1" d="M268.952 140.924H197.582V152.72H268.952V140.924Z" fill="black"/>
<path d="M145.191 160.298H107.449V163.47H145.191V160.298Z" fill="#A6A6A6"/>
<path d="M267.851 167.667H107.449V170.84H267.851V167.667Z" fill="#EBEBEB"/>
<path d="M267.851 174.649H107.449V177.821H267.851V174.649Z" fill="#EBEBEB"/>
<path d="M267.851 181.638H107.449V184.81H267.851V181.638Z" fill="#EBEBEB"/>
<path d="M267.851 188.626H107.449V191.799H267.851V188.626Z" fill="#EBEBEB"/>
<path d="M267.851 195.608H107.449V198.781H267.851V195.608Z" fill="#EBEBEB"/>
<path d="M316.501 98.4448H278.76V101.617H316.501V98.4448Z" fill="#A6A6A6"/>
<path d="M358.96 105.808H278.76V108.98H358.96V105.808Z" fill="#EBEBEB"/>
<path d="M358.96 112.796H278.76V115.969H358.96V112.796Z" fill="#EBEBEB"/>
<path d="M358.96 119.778H278.76V122.95H358.96V119.778Z" fill="#EBEBEB"/>
<path d="M358.96 126.767H278.76V129.939H358.96V126.767Z" fill="#EBEBEB"/>
<path d="M358.96 139.719H278.76V142.892H358.96V139.719Z" fill="#EBEBEB"/>
<path d="M358.96 146.708H278.76V149.88H358.96V146.708Z" fill="#EBEBEB"/>
<path d="M358.96 153.697H278.76V156.869H358.96V153.697Z" fill="#EBEBEB"/>
<path d="M358.96 160.678H278.76V163.851H358.96V160.678Z" fill="#EBEBEB"/>
<path d="M358.96 167.667H278.76V170.84H358.96V167.667Z" fill="#EBEBEB"/>
<path d="M358.96 181.638H278.76V184.81H358.96V181.638Z" fill="#EBEBEB"/>
<path d="M332.813 188.626H278.76V191.799H332.813V188.626Z" fill="#EBEBEB"/>
<path d="M334.773 186.625H334.427V193.801H334.773V186.625Z" fill="#263238"/>
<path d="M145.191 97.9669H107.449V106.459H145.191V97.9669Z" fill="#A6A6A6"/>
<path d="M187.525 112.318H107.449V115.491H187.525V112.318Z" fill="#EBEBEB"/>
<path d="M187.525 119.307H107.449V122.479H187.525V119.307Z" fill="#EBEBEB"/>
<path d="M187.525 126.289H107.449V129.461H187.525V126.289Z" fill="#EBEBEB"/>
<path d="M187.525 133.278H107.449V136.45H187.525V133.278Z" fill="#EBEBEB"/>
<path d="M187.525 142.566H107.449V145.738H187.525V142.566Z" fill="#EBEBEB"/>
<path d="M187.525 149.555H107.449V152.727H187.525V149.555Z" fill="#EBEBEB"/>
<path d="M253.021 273.579C253.021 273.579 237.09 274.694 237.187 263.757C237.284 252.82 253.236 254.289 253.236 254.289L253.021 273.579Z" fill="#FFC727"/>
<path d="M378.839 262.968L378.784 267.754L364.806 274.846L301.776 274.154L261.201 273.697L256.734 273.648H256.263H252.952H252.384L252.605 254.351H253.243L256.477 254.386H256.948L261.416 254.434L365.042 255.612L378.818 263.023L378.839 262.968Z" fill="#FFC727"/>
<path d="M381.928 265.392L378.797 267.006H378.791L378.832 263.75L380.709 264.741L381.928 265.392Z" fill="#455A64"/>
<path d="M252.04 252.682L251.785 275.205L256.252 275.255L256.508 252.732L252.04 252.682Z" fill="#263238"/>
<path d="M256.613 252.338L256.388 274.863L260.855 274.908L261.081 252.383L256.613 252.338Z" fill="#263238"/>
<path d="M261.173 275.29L261.256 268.024L301.887 272.491L301.7 275.165L261.173 275.29Z" fill="#263238"/>
<path d="M154.687 139.054C158.615 143.82 161.732 170.839 156.765 181.388C151.799 191.937 130.445 194.168 125.839 180.592C123.422 173.527 129.51 165.631 132.343 146.923C134.442 132.98 149.195 132.405 154.687 139.054Z" fill="#263238"/>
<path d="M152.305 185.288C154.009 184.343 155.51 183.071 156.72 181.543C157.931 180.015 158.826 178.263 159.356 176.388C160.485 172.329 160.325 167.827 160.125 163.657C159.669 155.27 157.856 147.013 154.757 139.207C154.757 139.207 154.791 139.151 154.805 139.207C158.296 147.4 160.235 156.169 160.526 165.07C160.672 169.288 160.783 173.977 159.141 177.946C157.804 181.139 155.397 183.767 152.332 185.378C152.305 185.378 152.263 185.288 152.305 185.288Z" fill="#263238"/>
<path d="M126.137 164.938C127.342 162.375 128.776 159.93 129.6 157.208C130.424 154.486 130.778 151.84 131.339 149.146C132.191 144.99 133.659 140.834 137.143 138.182C133.59 141.021 132.357 145.468 131.526 149.749C131.068 152.09 130.715 154.459 130.057 156.751C129.411 158.809 128.576 160.803 127.564 162.708C125.257 167.293 123.456 172.017 124.509 177.253C124.923 179.392 125.84 181.401 127.184 183.114C128.529 184.828 130.261 186.198 132.239 187.11C132.364 187.165 132.274 187.387 132.149 187.338C130.357 186.55 128.756 185.385 127.456 183.922C126.155 182.459 125.186 180.732 124.613 178.86C123.152 174.206 124.094 169.281 126.137 164.938Z" fill="#263238"/>
<path d="M127.668 165.153C128.741 162.744 129.544 160.223 130.064 157.638C130.528 155.165 130.757 152.665 131.186 150.185C131.879 145.946 133.209 141.589 136.568 138.625C136.61 138.625 136.672 138.625 136.63 138.687C133.465 141.811 132.17 146.015 131.477 150.261C130.729 154.84 130.355 159.356 128.616 163.712C126.926 167.944 124.571 172.197 124.807 176.872C125.042 181.548 128.152 185.018 131.962 187.387C131.975 187.4 131.984 187.417 131.986 187.435C131.988 187.454 131.984 187.473 131.975 187.489C131.965 187.505 131.951 187.517 131.933 187.524C131.916 187.53 131.897 187.531 131.879 187.525C128.513 185.593 125.583 182.524 124.731 178.701C123.685 173.998 125.846 169.399 127.668 165.153Z" fill="#263238"/>
<path d="M294.58 243.019C292.938 243.65 245.257 244.522 243.387 243.456C243.186 243.331 243.242 241.226 242.542 235.781C242.507 235.525 241.42 234.514 239.716 233.087C233.344 227.747 218.355 216.464 218.355 216.464L242.154 195.788L265.212 218.458L271.21 224.346C271.21 224.346 290.694 234.867 292.627 236.259C294.559 237.651 296.235 242.389 294.58 243.019Z" fill="#D3766A"/>
<path d="M294.58 243.019C292.945 243.657 245.25 244.516 243.387 243.456C243.179 243.331 243.241 241.226 242.542 235.788C248.395 237.347 284.211 238.303 286.947 235.948C288.775 234.375 281.724 230.136 278.836 228.509C284.53 231.612 291.511 235.47 292.626 236.273C294.538 237.665 296.235 242.389 294.58 243.019Z" fill="#FFC727"/>
<path d="M265.544 217.205L236.128 232.443C236.128 232.443 205.486 204.737 202.674 204.495C199.861 204.252 158.642 232.27 137.884 232.387C116.412 232.477 115.297 209.953 115.297 209.953L146.66 202.749C169.261 191.612 192.81 171.581 208.208 173.465C224.935 175.466 265.544 217.205 265.544 217.205Z" fill="#455A64"/>
<path d="M258.355 213.319C253.395 215.778 254.788 215.009 249.842 217.516C247.425 218.742 235.297 224.879 233.219 226.396C233.209 226.404 233.202 226.415 233.199 226.428C233.197 226.44 233.198 226.453 233.204 226.464C233.21 226.476 233.219 226.485 233.231 226.49C233.242 226.495 233.255 226.496 233.267 226.493C235.699 225.676 247.73 219.283 250.126 218.008C255.016 215.411 253.589 216.103 258.438 213.458C258.456 213.447 258.469 213.429 258.475 213.408C258.48 213.387 258.477 213.365 258.466 213.347C258.455 213.328 258.437 213.315 258.416 213.31C258.395 213.305 258.373 213.308 258.355 213.319Z" fill="#263238"/>
<path d="M230.919 225.419C225.163 220.349 206.323 203.844 205.562 203.255C204.966 202.69 204.306 202.197 203.594 201.787C203.301 201.672 202.985 201.625 202.67 201.65C202.356 201.675 202.051 201.772 201.78 201.932C200.914 202.334 200.055 202.784 199.196 203.207L194.098 205.693C187.504 208.907 180.938 212.211 174.31 215.321C167.924 218.313 163.366 221.125 156.696 223.432C150.064 225.759 143.206 227.384 136.235 228.28C135.376 228.384 134.511 228.474 133.652 228.557C133.639 228.557 133.627 228.562 133.617 228.571C133.608 228.58 133.603 228.593 133.603 228.606C133.603 228.619 133.608 228.631 133.617 228.64C133.627 228.649 133.639 228.654 133.652 228.654C140.496 228.251 147.262 226.992 153.794 224.907C160.401 222.878 164.876 220.239 171.158 217.35C177.662 214.358 184.076 211.158 190.483 207.972C193.87 206.289 197.25 204.592 200.644 202.929C201.413 202.549 202.507 201.731 203.414 202.14C203.785 202.34 204.126 202.592 204.426 202.888L205.555 203.823C207.016 205.035 230.109 224.928 230.864 225.503C230.898 225.544 230.975 225.461 230.919 225.419Z" fill="#263238"/>
<path d="M115.241 209.925C115.241 209.925 111.723 230.261 121.891 238.254C132.059 246.247 206.559 245.277 217.863 241.627C229.167 237.977 229.527 219.733 217.17 215.501C205.395 211.484 155.415 209.53 154.182 209.039C153.87 208.914 158.615 206.067 158.594 205.894L147.214 202.431L115.241 209.925Z" fill="#455A64"/>
<path d="M130.694 209.413C130.694 209.323 130.549 209.35 130.549 209.413C130.547 211.776 129.714 214.064 128.194 215.875C126.462 217.877 123.913 218.992 121.6 220.162C121.378 220.273 121.545 220.626 121.773 220.557C123.195 220.118 124.566 219.526 125.86 218.791C127.048 218.162 128.092 217.294 128.928 216.242C129.679 215.288 130.224 214.188 130.528 213.013C130.832 211.837 130.888 210.611 130.694 209.413Z" fill="#263238"/>
<path d="M153.357 206.891C152.838 206.233 152.277 205.603 151.737 204.966C150.462 203.449 149.188 201.925 147.851 200.464C147.726 200.325 147.477 200.519 147.595 200.671C148.488 201.849 149.444 202.985 150.365 204.135C150.843 204.723 151.328 205.305 151.813 205.887C152.317 206.416 152.769 206.991 153.164 207.605C153.51 208.256 153.053 208.81 152.374 208.879C151.777 208.898 151.196 208.685 150.753 208.284C149.739 207.389 148.811 206.402 147.983 205.333C147.449 204.73 146.909 204.128 146.369 203.532C145.828 202.936 145.17 202.299 144.596 201.662C144.554 201.627 144.485 201.662 144.519 201.724C145.025 202.417 145.489 203.11 145.995 203.802C146.5 204.495 147.013 205.188 147.532 205.88C148.052 206.573 148.537 207.155 149.063 207.771C149.502 208.314 150.026 208.782 150.615 209.156C151.584 209.724 153.26 209.849 153.78 208.602C153.865 208.305 153.87 207.991 153.796 207.691C153.722 207.39 153.571 207.115 153.357 206.891Z" fill="#263238"/>
<path d="M216.318 241.69C212.426 241.766 208.54 241.994 204.647 242.077C200.755 242.161 196.925 242.181 193.06 242.14C185.307 242.071 177.558 241.77 169.815 241.239C161.995 240.699 153.565 239.916 145.794 238.843C142.081 238.33 138.313 237.901 134.635 237.111C131.335 236.482 128.283 234.922 125.839 232.616C120.81 227.733 118.85 220.564 118.047 213.707C117.941 212.783 117.85 211.86 117.777 210.936C117.78 210.929 117.781 210.921 117.78 210.913C117.779 210.905 117.776 210.898 117.772 210.891C117.767 210.885 117.761 210.879 117.754 210.876C117.747 210.872 117.74 210.87 117.732 210.87C117.724 210.87 117.716 210.872 117.709 210.876C117.702 210.879 117.696 210.885 117.691 210.891C117.687 210.898 117.684 210.905 117.683 210.913C117.683 210.921 117.684 210.929 117.687 210.936C118.137 217.96 119.231 225.288 123.65 230.94C125.513 233.41 127.995 235.343 130.847 236.543C134.31 237.929 138.189 238.261 141.86 238.76C149.659 239.819 158.123 240.637 165.97 241.246C173.818 241.856 181.776 242.237 189.686 242.355C197.596 242.472 205.527 242.355 213.43 241.967C214.391 241.925 215.353 241.863 216.318 241.78C216.327 241.776 216.335 241.77 216.341 241.762C216.346 241.754 216.349 241.744 216.349 241.735C216.349 241.725 216.346 241.715 216.341 241.707C216.335 241.699 216.327 241.693 216.318 241.69Z" fill="#263238"/>
<path d="M191.778 211.795C189.333 211.435 186.888 211.103 184.422 210.833C181.956 210.562 179.442 210.348 176.949 210.14C172.024 209.717 167.079 209.343 162.14 209.115C159.328 208.983 156.523 208.969 153.718 209.004C153.628 209.004 153.634 209.136 153.718 209.142C158.656 209.586 163.602 209.897 168.554 210.23C173.506 210.562 178.424 210.992 183.349 211.463C186.119 211.726 188.945 211.934 191.743 212.155C191.944 212.176 191.986 211.83 191.778 211.795Z" fill="#263238"/>
<path d="M159.169 205.645C157.196 206.498 155.299 207.515 153.496 208.685C151.661 209.783 149.907 211.01 148.246 212.356C148.204 212.398 148.246 212.453 148.308 212.432C150.234 211.539 152.083 210.431 153.918 209.364C155.775 208.318 157.568 207.162 159.286 205.901C159.404 205.818 159.335 205.582 159.169 205.645Z" fill="#263238"/>
<path d="M138.127 169.295C141.901 182.116 149.036 197.333 151.827 199.709C155.359 202.701 177.808 207.231 178.916 207.279C181.687 207.39 185.939 187.421 183.003 187.193C178.542 186.826 162.41 186.93 161.385 185.994C160.36 185.059 153.018 176.879 145.455 167.633C140.225 161.219 135.785 161.336 138.127 169.295Z" fill="#D3766A"/>
<path d="M176.665 206.358C179.259 207.491 181.93 208.44 184.658 209.198C186.826 209.683 193.101 210.923 193.877 208.588C194.403 206.995 190.802 205.818 188.274 204.959C186.937 204.495 185.254 203.234 185.586 202.375C186.168 200.872 189.603 202.133 191.882 203.283C196.287 205.492 202.23 209.6 204.696 207.286C205.631 206.407 204.398 204.994 202.618 203.636C205.43 205.167 208.409 206.407 209.482 205.458C209.759 205.217 209.933 204.881 209.969 204.516C210.005 204.152 209.9 203.787 209.676 203.497C210.028 203.638 210.414 203.671 210.784 203.591C211.154 203.51 211.492 203.321 211.754 203.047C212.578 202.071 212.073 200.734 211.02 199.397C211.185 199.371 211.341 199.305 211.475 199.204C211.609 199.104 211.717 198.973 211.789 198.822C213.479 195.872 203.65 188.273 200.381 187.705C193.892 186.7 187.306 186.482 180.765 187.054C177.226 190.261 176.658 206.351 176.665 206.358Z" fill="#D3766A"/>
<path d="M190.095 196.765C192.379 196.99 194.589 197.698 196.578 198.843C199.086 200.291 200.796 202.05 202.93 203.802C202.942 203.811 202.949 203.825 202.951 203.84C202.953 203.855 202.949 203.87 202.94 203.882C202.931 203.894 202.917 203.902 202.902 203.904C202.887 203.906 202.872 203.901 202.86 203.892C201.842 203.061 197.652 199.951 196.571 199.259C194.624 197.966 192.406 197.137 190.088 196.834L190.095 196.765Z" fill="#263238"/>
<path d="M191.647 192.63C194.221 193.064 196.743 193.76 199.175 194.708C201.787 195.844 203.899 197.832 205.97 199.736C207.217 200.886 208.443 202.057 209.634 203.255C209.683 203.304 209.634 203.394 209.565 203.345C207.455 201.369 205.289 199.459 203.068 197.617C201.016 195.894 198.643 194.595 196.086 193.794C194.625 193.336 193.136 192.99 191.64 192.644C191.584 192.665 191.591 192.623 191.647 192.63Z" fill="#263238"/>
<path d="M194.071 188.945C196.53 189.291 198.67 189.589 200.893 190.76C203.414 192.211 205.741 193.975 207.82 196.01C208.949 197.077 210.043 198.185 211.124 199.307C211.165 199.355 211.089 199.432 211.047 199.39C208.583 196.93 205.962 194.633 203.2 192.512C201.903 191.479 200.451 190.656 198.898 190.074C197.334 189.564 195.728 189.191 194.098 188.959C194.098 188.959 194.064 188.938 194.071 188.945Z" fill="#263238"/>
<path d="M179.179 186.341L173.694 208.277C173.694 208.277 154.992 204.121 151.398 200.727C147.803 197.333 140.475 178.964 138.099 170.001C135.723 161.039 140.322 160.997 144.887 166.448C149.451 171.899 160.817 185.149 161.399 185.406C161.981 185.662 179.179 186.341 179.179 186.341Z" fill="#FFC727"/>
<path d="M171.366 198.822C172.059 196.239 172.751 193.655 173.298 191.044C173.624 189.555 173.956 188.072 174.268 186.583C174.268 186.528 174.185 186.5 174.171 186.583C173.395 189.153 172.627 191.736 171.969 194.341C171.311 196.945 170.639 199.522 170.022 202.119C169.669 203.601 169.364 205.084 169.101 206.587C169.101 206.587 169.143 206.628 169.156 206.587C170.015 204.024 170.694 201.426 171.366 198.822Z" fill="#263238"/>
<path d="M171.435 186.188C171.443 186.682 171.413 187.175 171.345 187.664C171.269 188.151 171.151 188.631 170.992 189.097C170.666 190.032 170.186 190.905 169.572 191.681C168.966 192.469 168.186 193.107 167.293 193.544C166.401 193.967 165.447 194.243 164.467 194.362C163.641 194.473 162.807 194.52 161.974 194.5H161.524C160.547 194.5 159.57 194.396 158.594 194.313C156.651 194.084 154.697 193.954 152.741 193.925C151.768 193.925 150.799 194.056 149.86 194.313C149.156 194.51 148.501 194.849 147.934 195.31L147.893 195.227C148.464 194.764 149.124 194.422 149.832 194.223C150.779 193.958 151.758 193.823 152.741 193.821C154.7 193.842 156.656 193.967 158.601 194.195C159.577 194.278 160.554 194.355 161.531 194.375H162.133C162.907 194.382 163.68 194.334 164.447 194.23C165.408 194.111 166.343 193.837 167.217 193.42C168.107 192.999 168.883 192.372 169.482 191.591C170.079 190.825 170.547 189.966 170.867 189.049C171.179 188.128 171.327 187.16 171.304 186.188C171.307 186.128 171.307 186.068 171.304 186.008H171.456C171.453 186.069 171.446 186.129 171.435 186.188ZM165.596 185.766V185.731H165.458C165.461 185.747 165.461 185.764 165.458 185.78C165.524 186.751 165.461 187.727 165.271 188.682C164.841 190.591 163.914 192.352 162.583 193.787C162.384 193.996 162.173 194.195 161.953 194.382C161.906 194.428 161.855 194.469 161.801 194.507C161.324 194.9 160.809 195.243 160.263 195.532C159.394 195.978 158.482 196.335 157.541 196.599C155.631 197.036 153.756 197.612 151.931 198.323C151.336 198.592 150.77 198.919 150.241 199.3C150.26 199.321 150.276 199.344 150.289 199.369C150.816 198.991 151.38 198.669 151.972 198.407C153.793 197.7 155.664 197.128 157.569 196.696C158.525 196.433 159.453 196.075 160.339 195.629C160.933 195.321 161.488 194.944 161.995 194.507C162.052 194.472 162.106 194.43 162.154 194.382C162.343 194.216 162.523 194.043 162.694 193.863C163.372 193.148 163.946 192.341 164.398 191.466C164.869 190.596 165.212 189.663 165.416 188.696C165.61 187.732 165.671 186.746 165.596 185.766Z" fill="white"/>
<path opacity="0.1" d="M174.261 206.067L173.714 208.249C173.714 208.249 155.013 204.093 151.418 200.699C147.823 197.305 140.495 178.936 138.12 169.974C136.381 163.421 138.376 161.627 141.354 163.276C149.645 173.873 165.278 193.925 174.261 206.067Z" fill="black"/>
<path d="M113.607 212.072C114.992 212.599 155.726 203.013 155.726 203.013L151.688 188.834C151.688 188.834 154.258 184.471 153.385 180.1C152.229 174.268 142.04 164.259 141.236 163.664C137.981 161.26 135.003 160.796 132.17 162.133C120.249 167.716 113.607 212.072 113.607 212.072Z" fill="#FFC727"/>
<path d="M151.868 176.408L151.931 176.526H151.633H151.474C151.188 176.509 150.901 176.509 150.615 176.526C149.64 176.586 148.68 176.785 147.761 177.115C146.839 177.423 145.966 177.864 145.171 178.424C144.376 178.991 143.661 179.662 143.044 180.419C142.432 181.178 141.877 181.982 141.382 182.822C140.876 183.653 140.398 184.512 139.886 185.343C139.38 186.189 138.798 186.986 138.147 187.726C137.815 188.089 137.456 188.427 137.074 188.737C136.688 189.047 136.272 189.318 135.834 189.548C134.967 190.005 134.031 190.316 133.063 190.469C132.082 190.63 131.078 190.564 130.126 190.275C129.185 189.977 128.299 189.528 127.501 188.945C126.828 188.462 126.191 187.929 125.597 187.352L125.472 187.227L125.264 187.033C124.571 186.341 123.879 185.648 123.249 184.893C122.369 183.917 121.517 182.919 120.61 181.97C120.624 181.93 120.636 181.888 120.644 181.846C121.572 182.808 122.445 183.82 123.339 184.81C123.99 185.537 124.655 186.258 125.347 186.943L125.659 187.234L125.784 187.359C126.346 187.892 126.946 188.385 127.578 188.834C128.364 189.409 129.239 189.851 130.168 190.143C131.097 190.424 132.079 190.486 133.036 190.323C134.002 190.174 134.938 189.868 135.806 189.416C136.659 188.951 137.427 188.344 138.078 187.622C138.725 186.893 139.303 186.104 139.803 185.267C140.315 184.436 140.793 183.584 141.306 182.746C141.804 181.901 142.367 181.095 142.989 180.336C143.609 179.571 144.331 178.895 145.136 178.327C146.776 177.2 148.691 176.539 150.677 176.415C150.926 176.415 151.176 176.415 151.425 176.415H151.619L151.868 176.408ZM152.249 177.101L151.841 176.685L151.633 176.485L151.515 176.367C150.92 175.787 150.281 175.255 149.603 174.774C148.807 174.189 147.92 173.74 146.978 173.444C146.028 173.151 145.022 173.085 144.042 173.25C143.075 173.404 142.139 173.712 141.271 174.164C140.835 174.398 140.421 174.67 140.031 174.975C139.649 175.287 139.29 175.627 138.958 175.993C138.307 176.73 137.725 177.525 137.219 178.369C136.707 179.207 136.229 180.059 135.723 180.897C135.227 181.737 134.672 182.54 134.061 183.3C133.443 184.051 132.73 184.719 131.941 185.288C131.141 185.846 130.267 186.289 129.344 186.604C128.425 186.932 127.464 187.128 126.49 187.186C126.202 187.207 125.913 187.207 125.624 187.186C125.562 187.193 125.499 187.193 125.437 187.186C124.817 187.149 124.202 187.049 123.602 186.888C122.666 186.618 121.758 186.256 120.894 185.807C120.457 185.586 120.021 185.357 119.591 185.115C119.588 185.147 119.588 185.18 119.591 185.212C120.014 185.44 120.443 185.676 120.873 185.904C121.742 186.362 122.657 186.729 123.602 186.999C124.252 187.174 124.918 187.28 125.59 187.317H125.777C126.026 187.317 126.275 187.317 126.525 187.317C127.51 187.254 128.482 187.056 129.413 186.729C130.346 186.414 131.23 185.969 132.038 185.406C132.84 184.832 133.564 184.157 134.192 183.397C134.809 182.633 135.37 181.825 135.868 180.98C136.381 180.142 136.859 179.29 137.371 178.459C137.878 177.626 138.455 176.838 139.096 176.104C139.75 175.384 140.52 174.78 141.375 174.317C142.242 173.862 143.178 173.553 144.145 173.402C145.103 173.246 146.084 173.31 147.013 173.589C147.941 173.881 148.816 174.32 149.603 174.891C150.235 175.343 150.835 175.838 151.397 176.374L151.515 176.491L151.834 176.789C152.062 177.011 152.284 177.24 152.526 177.482C152.478 177.364 152.416 177.246 152.36 177.136L152.249 177.101Z" fill="white"/>
<path d="M146.486 168.956C147.463 170.216 148.516 171.414 149.52 172.647C149.07 171.74 148.62 170.84 148.135 169.953C148.135 169.953 148.135 169.911 148.135 169.953C148.869 171.004 149.497 172.125 150.012 173.298C150.769 174.23 151.463 175.212 152.09 176.235C152.858 177.456 153.409 178.801 153.718 180.211C153.979 181.638 153.948 183.104 153.628 184.519C153.237 186.141 152.702 187.724 152.028 189.25C151.944 189.458 151.654 189.312 151.723 189.111C152.616 186.424 153.614 183.57 153.15 180.723C152.686 177.877 151.072 175.418 149.465 173.104C148.529 171.688 147.504 170.332 146.396 169.046C146.355 168.969 146.445 168.9 146.486 168.956Z" fill="#263238"/>
<path d="M128.249 164.703C120.125 170.936 98.7014 196.239 103.176 202.237C107.65 208.235 138.348 206.24 147.304 203.622C149.971 202.853 143.148 185.904 140.287 185.066C137.926 184.374 124.634 187.975 124.398 187.2C124.163 186.424 127.065 180.73 131.816 170.486C137.288 158.711 131.844 161.946 128.249 164.703Z" fill="#D3766A"/>
<path d="M153.385 182.157C159.522 182.317 161.074 183.3 166.324 180.682C169.787 178.964 172.35 180.426 170.009 183.674C166.178 188.994 158.234 190.455 155.304 190.164L153.385 182.157Z" fill="#D3766A"/>
<path d="M136.485 185.288C136.485 185.288 143.848 182.656 150.407 182.178C154.944 181.846 164.89 182.227 172.627 193.385C174.462 196.031 175.196 201.101 170.632 197.866C167.39 195.567 166.026 193.136 163.9 192.138C163.9 192.138 164.066 198.704 161.344 200.45C158.963 201.967 156.477 203.311 153.905 204.474C153.584 204.052 153.29 203.61 153.025 203.151C153.025 203.151 150.331 204.536 145.877 203.352L136.485 185.288Z" fill="#D3766A"/>
<path d="M154.784 182.566C156.696 184 160.679 187.103 163.096 190.774C165.735 194.86 169.725 203.428 166.698 205.319C164.474 206.704 162.66 203.588 162.66 203.588C162.66 203.588 163.56 207.48 161.274 208.311C159.196 209.073 157.936 206.559 157.936 206.559C157.936 206.559 158.081 209.011 155.927 209.329C153.344 209.745 153.475 204.529 150.497 202.687C149.79 202.334 154.784 182.566 154.784 182.566Z" fill="#D3766A"/>
<path d="M158.282 192.852C160.799 195.882 162.331 199.608 162.673 203.532C162.673 203.629 162.604 203.684 162.583 203.594C161.574 199.869 160.115 196.281 158.24 192.907L158.282 192.852Z" fill="#263238"/>
<path d="M154.244 195.636C155.449 197.194 157.929 202.098 157.984 206.559C157.984 206.656 157.908 206.711 157.894 206.621C157.079 202.846 155.841 199.175 154.202 195.678C154.202 195.678 154.244 195.615 154.244 195.636Z" fill="#263238"/>
<path d="M163.941 192.117C165.797 193.011 166.912 194.195 168.374 195.581C169.087 196.296 169.841 196.969 170.632 197.596C171.325 198.157 172.419 198.981 173.402 198.469C173.635 198.293 173.816 198.057 173.926 197.786C174.036 197.515 174.07 197.22 174.026 196.931C173.926 196.098 173.692 195.286 173.333 194.528C173.333 194.528 173.368 194.472 173.382 194.528C173.743 195.222 174.029 195.954 174.234 196.71C174.365 197.223 174.338 197.763 174.157 198.261C173.693 199.293 172.398 199.224 171.546 198.781C171.04 198.495 170.564 198.159 170.126 197.776C169.697 197.43 169.288 197.084 168.886 196.675C168.055 195.892 167.28 195.068 166.462 194.271C165.661 193.53 164.816 192.837 163.934 192.194C163.83 192.152 163.865 192.097 163.941 192.117Z" fill="#263238"/>
<path d="M166.864 199.674C166.023 197.106 165.019 194.593 163.858 192.152C163.858 192.152 163.858 192.097 163.907 192.152C165.359 194.42 166.522 196.861 167.37 199.418C167.839 200.807 168.02 202.278 167.903 203.74C167.564 205.783 166.144 205.949 165.631 205.963C165.017 205.966 164.421 205.758 163.941 205.375C163.383 204.892 162.931 204.301 162.611 203.636C162.611 203.601 162.611 203.574 162.66 203.601C163.235 204.523 164.281 205.513 165.43 205.555C165.681 205.572 165.933 205.538 166.171 205.456C166.409 205.374 166.628 205.245 166.816 205.077C167.199 204.637 167.413 204.074 167.418 203.491C167.451 202.196 167.264 200.906 166.864 199.674Z" fill="#263238"/>
<path d="M136.485 185.288L142.649 206.76C142.649 206.76 104.27 208.949 102.144 201.981C100.017 195.013 118.559 172.197 126.255 165.908C135.162 158.642 135.64 161.697 132.745 168.962C129.704 176.581 124.474 187.435 124.474 187.435L136.485 185.288Z" fill="#FFC727"/>
<path d="M126.234 183.723L126.171 183.861C125.941 183.875 125.709 183.875 125.479 183.861C124.494 183.777 123.53 183.531 122.625 183.134C121.862 182.807 121.123 182.425 120.416 181.991L120.263 181.901L120.028 181.755C119.197 181.236 118.393 180.675 117.597 180.1C116.668 179.407 115.747 178.749 114.826 178.098L114.895 178.015C115.837 178.659 116.758 179.345 117.666 180.003C118.462 180.571 119.266 181.132 120.09 181.645L120.457 181.866L120.61 181.956C121.275 182.361 121.969 182.715 122.687 183.016C123.582 183.396 124.531 183.63 125.5 183.709C125.744 183.727 125.989 183.732 126.234 183.723ZM131.886 166.808C131.576 167.194 131.298 167.604 131.055 168.034C130.578 168.893 130.183 169.795 129.877 170.729C129.552 171.657 129.274 172.599 128.963 173.499C128.661 174.428 128.291 175.334 127.855 176.207C127.417 177.077 126.867 177.885 126.22 178.611C125.561 179.329 124.803 179.949 123.969 180.453C123.144 180.972 122.251 181.373 121.316 181.645C121.037 181.727 120.752 181.789 120.464 181.832C120.4 181.838 120.335 181.838 120.27 181.832C119.661 181.932 119.044 181.967 118.428 181.936C117.454 181.879 116.489 181.723 115.546 181.472C114.597 181.229 113.655 180.938 112.713 180.689L112.651 180.765C113.607 181.028 114.556 181.326 115.519 181.568C116.467 181.826 117.44 181.983 118.421 182.039C119.09 182.073 119.762 182.034 120.423 181.922L120.616 181.887C120.862 181.845 121.105 181.789 121.344 181.721C123.243 181.162 124.958 180.105 126.31 178.659C126.971 177.93 127.53 177.114 127.972 176.235C128.411 175.356 128.786 174.446 129.094 173.513C129.406 172.585 129.69 171.643 130.016 170.743C130.32 169.818 130.712 168.925 131.186 168.076C131.664 167.229 132.282 166.47 133.015 165.832C133.337 165.554 133.683 165.304 134.047 165.084C134.047 165.007 134.047 164.945 134.095 164.876C133.679 165.12 133.285 165.401 132.918 165.714C132.543 166.049 132.198 166.415 131.886 166.808ZM135.384 185.51H135.335C135.391 185.937 135.418 186.367 135.418 186.798C135.418 187.068 135.418 187.331 135.418 187.601C135.418 187.601 135.418 187.664 135.418 187.698C135.364 188.372 135.251 189.04 135.079 189.693C134.839 190.64 134.468 191.549 133.977 192.394C133.481 193.236 132.86 193.997 132.135 194.652C130.618 195.886 129.017 197.011 127.342 198.019C126.523 198.56 125.762 199.185 125.07 199.882C124.602 200.363 124.186 200.892 123.83 201.461L123.726 201.634C123.602 201.849 123.484 202.064 123.38 202.285C122.7 203.751 122.344 205.345 122.334 206.961H122.459C122.46 206.343 122.513 205.727 122.618 205.118C122.772 204.159 123.062 203.226 123.477 202.348C123.602 202.089 123.741 201.837 123.893 201.593C123.922 201.533 123.959 201.477 124.003 201.426C124.333 200.903 124.716 200.416 125.146 199.972C125.831 199.277 126.585 198.655 127.397 198.116C129.004 197.007 130.75 196.072 132.197 194.729C132.925 194.066 133.548 193.298 134.047 192.45C134.54 191.599 134.911 190.682 135.148 189.728C135.31 189.094 135.416 188.447 135.467 187.795C135.467 187.761 135.467 187.726 135.467 187.698C135.467 187.401 135.467 187.11 135.467 186.812C135.464 186.372 135.436 185.933 135.384 185.496V185.51ZM137.78 192.852C137.661 191.878 137.353 190.937 136.873 190.081C136.443 189.264 135.938 188.495 135.446 187.719L135.39 187.636C134.988 187.021 134.623 186.383 134.296 185.724H134.255C134.59 186.414 134.967 187.082 135.384 187.726L135.432 187.809C135.91 188.564 136.402 189.319 136.817 190.109C137.289 190.966 137.59 191.907 137.704 192.879C137.792 193.851 137.637 194.829 137.254 195.726C136.853 196.618 136.207 197.377 135.39 197.915C134.576 198.437 133.695 198.85 132.772 199.141C130.907 199.718 129.014 200.201 127.1 200.588C126.144 200.81 125.188 201.039 124.253 201.323L123.983 201.406L123.81 201.454C123.018 201.699 122.245 202 121.496 202.355C120.601 202.773 119.78 203.335 119.065 204.017C118.35 204.707 117.804 205.553 117.472 206.49L117.41 206.677H117.562C117.575 206.625 117.591 206.574 117.61 206.524C117.935 205.608 118.465 204.778 119.162 204.1C119.865 203.43 120.672 202.878 121.552 202.465C122.249 202.131 122.968 201.846 123.706 201.613C123.759 201.589 123.815 201.57 123.872 201.558L124.287 201.426C125.223 201.149 126.171 200.914 127.12 200.692C129.04 200.3 130.938 199.81 132.807 199.224C133.743 198.915 134.632 198.481 135.453 197.936C136.282 197.387 136.938 196.613 137.344 195.705C137.722 194.8 137.872 193.815 137.78 192.838V192.852Z" fill="white"/>
<path d="M112.346 190.878C114.264 189.978 116.243 189.216 118.269 188.599C120.274 188 122.32 187.549 124.391 187.248C125.569 187.061 126.753 186.936 127.938 186.805C127.979 186.805 127.979 186.853 127.938 186.86C125.858 187.174 123.797 187.606 121.766 188.155C119.744 188.682 117.735 189.245 115.74 189.846C114.604 190.185 113.489 190.58 112.374 190.961C112.365 190.96 112.356 190.956 112.349 190.95C112.342 190.944 112.337 190.937 112.334 190.928C112.331 190.919 112.331 190.91 112.333 190.901C112.335 190.892 112.34 190.884 112.346 190.878Z" fill="#263238"/>
<path d="M136.395 185.226C136.201 185.226 125.527 186.909 125.167 187.013C125.236 186.867 127.938 181.783 128.346 181.042C128.388 180.966 128.422 180.89 128.464 180.82C128.706 180.495 128.949 180.176 129.157 179.851L130.036 178.569L129.108 179.802C128.96 179.996 128.822 180.19 128.693 180.384C128.963 179.858 129.226 179.331 129.489 178.798C129.912 177.946 130.299 177.087 130.694 176.228C130.694 176.228 130.66 176.18 130.646 176.228C129.849 177.711 129.011 179.165 128.208 180.64C127.404 182.116 124.37 187.567 124.384 187.567C124.398 187.567 136.159 185.489 136.415 185.427C136.442 185.424 136.467 185.411 136.483 185.39C136.5 185.369 136.508 185.342 136.506 185.316C136.503 185.289 136.49 185.265 136.469 185.248C136.448 185.231 136.421 185.223 136.395 185.226Z" fill="#263238"/>
<path d="M134.926 198.323C134.234 195.927 133.596 193.53 132.848 191.162C132.419 189.776 131.99 188.467 131.546 187.123C131.546 187.075 131.442 187.123 131.449 187.123C132.031 189.555 132.62 191.972 133.313 194.389C134.005 196.807 134.698 199.175 135.39 201.558C135.797 202.916 136.259 204.255 136.776 205.575C136.776 205.575 136.831 205.575 136.824 205.575C136.277 203.137 135.605 200.734 134.926 198.323Z" fill="#263238"/>
<path d="M143.079 207.155C142.808 206.462 142.483 205.52 142.185 204.862C142.109 204.682 141.984 204.696 142.04 204.862C142.227 205.465 142.358 206.129 142.545 206.746C142.005 206.746 141.472 206.746 140.931 206.794L139.068 206.871C137.856 206.919 136.637 206.954 135.425 206.981C132.959 207.023 130.496 207.023 128.034 206.981C123.093 206.888 118.16 206.542 113.254 205.942C111.868 205.762 110.483 205.562 109.153 205.319C107.81 205.1 106.478 204.813 105.164 204.46C105.164 204.46 105.108 204.509 105.164 204.523C106.277 204.958 107.423 205.304 108.592 205.555C109.811 205.818 111.044 206.053 112.284 206.247C114.75 206.628 117.229 206.878 119.716 207.058C124.647 207.409 129.588 207.556 134.538 207.501C135.924 207.501 137.309 207.471 138.694 207.411L140.772 207.328C141.545 207.337 142.316 207.279 143.079 207.155Z" fill="#263238"/>
<path d="M135.543 162.874C135.543 163.622 137.891 168.99 141.167 169.572C142.234 169.759 143.515 163.982 143.515 163.982L143.709 163.574L146.39 157.908L139.519 150.982C139.519 150.982 135.543 162.562 135.543 162.874Z" fill="#D3766A"/>
<path d="M146.369 157.901L143.688 163.574C142.213 162.604 140.957 161.336 140.002 159.85C139.048 158.365 138.416 156.696 138.147 154.95C138.84 152.942 139.401 151.272 139.477 151.03C139.48 151.019 139.48 151.007 139.477 150.995L140.364 151.82L146.369 157.901Z" fill="#263238"/>
<path d="M157.402 151.543C155.865 162.438 149.16 162.749 146.812 162.417C144.679 162.112 137.454 160.803 137.863 149.804C138.272 138.805 143.82 136.076 148.738 136.512C153.655 136.949 158.947 140.64 157.402 151.543Z" fill="#D3766A"/>
<path d="M156.072 150.358C155.823 150.275 155.615 150.157 155.38 150.053C155.12 149.978 154.891 149.82 154.729 149.603C154.692 149.524 154.682 149.435 154.7 149.35C154.719 149.265 154.766 149.188 154.833 149.132C154.982 149.045 155.152 148.999 155.324 148.999C155.497 148.999 155.667 149.045 155.816 149.132C156.15 149.259 156.424 149.506 156.585 149.825C156.61 149.897 156.614 149.975 156.598 150.05C156.581 150.124 156.545 150.193 156.492 150.248C156.439 150.303 156.372 150.343 156.298 150.362C156.224 150.382 156.146 150.38 156.072 150.358Z" fill="#263238"/>
<path d="M148.738 148.904C148.994 148.904 149.236 148.904 149.5 148.904C149.767 148.94 150.039 148.889 150.275 148.758C150.34 148.701 150.385 148.624 150.402 148.539C150.419 148.454 150.409 148.366 150.372 148.287C150.275 148.144 150.142 148.03 149.986 147.955C149.831 147.881 149.658 147.85 149.486 147.865C149.131 147.844 148.78 147.955 148.502 148.176C148.444 148.231 148.402 148.301 148.382 148.379C148.362 148.457 148.365 148.538 148.389 148.615C148.414 148.691 148.46 148.759 148.521 148.81C148.583 148.861 148.658 148.893 148.738 148.904Z" fill="#263238"/>
<path d="M150.164 150.808C150.164 150.808 150.102 150.808 150.095 150.864C149.984 151.605 149.721 152.436 149.015 152.554V152.595C149.846 152.637 150.178 151.529 150.164 150.808Z" fill="#263238"/>
<path d="M149.652 149.915C148.488 149.603 147.948 151.993 149.029 152.256C150.109 152.519 150.635 150.178 149.652 149.915Z" fill="#263238"/>
<path d="M149.16 149.963C148.925 150.046 148.668 150.24 148.419 150.206C148.17 150.171 147.962 149.873 147.83 149.589C147.83 149.589 147.789 149.589 147.782 149.589C147.696 149.797 147.692 150.029 147.772 150.239C147.852 150.449 148.009 150.621 148.211 150.718C148.634 150.885 149.042 150.559 149.264 150.13C149.306 150.04 149.257 149.901 149.16 149.963Z" fill="#263238"/>
<path d="M154.244 151.556C154.244 151.556 154.293 151.605 154.286 151.633C154.092 152.325 153.988 153.219 154.59 153.62C154.59 153.62 154.59 153.669 154.59 153.655C153.766 153.35 153.912 152.207 154.244 151.556Z" fill="#263238"/>
<path d="M155.048 150.947C156.246 151.141 155.74 153.517 154.667 153.337C153.593 153.156 154.05 150.788 155.048 150.947Z" fill="#263238"/>
<path d="M155.512 151.203C155.678 151.369 155.817 151.633 156.038 151.688C156.26 151.743 156.537 151.543 156.731 151.328H156.765C156.689 151.778 156.44 152.221 155.99 152.228C155.539 152.235 155.359 151.778 155.339 151.307C155.359 151.252 155.449 151.141 155.512 151.203Z" fill="#263238"/>
<path d="M148.53 157.188C148.654 157.409 148.758 157.686 149.015 157.783C149.288 157.842 149.572 157.842 149.846 157.783C149.846 157.783 149.887 157.783 149.846 157.825C149.704 157.939 149.533 158.013 149.353 158.037C149.172 158.062 148.988 158.036 148.821 157.963C148.684 157.884 148.573 157.766 148.503 157.625C148.433 157.483 148.406 157.324 148.426 157.167C148.447 157.16 148.509 157.16 148.53 157.188Z" fill="#263238"/>
<path d="M152.277 155.151C152.277 155.151 152.187 156.28 152.076 156.8C152.076 156.848 151.938 156.841 151.758 156.8C151.297 156.784 150.85 156.642 150.465 156.389C150.08 156.136 149.773 155.782 149.576 155.366C149.576 155.311 149.631 155.269 149.666 155.311C150.219 155.9 150.948 156.296 151.744 156.44C151.813 156.308 151.834 154.507 151.917 154.521C152.309 154.642 152.682 154.817 153.025 155.04C153.274 152.699 153.15 150.337 153.434 148.01C153.434 147.992 153.441 147.974 153.454 147.961C153.467 147.948 153.485 147.941 153.503 147.941C153.521 147.941 153.539 147.948 153.552 147.961C153.565 147.974 153.572 147.992 153.572 148.01C153.79 150.547 153.753 153.1 153.461 155.629C153.441 155.906 152.464 155.29 152.277 155.151Z" fill="#263238"/>
<path d="M151.474 156.564C151.111 156.885 150.672 157.107 150.199 157.208C149.939 157.259 149.67 157.225 149.43 157.111C148.904 156.862 148.987 156.356 149.174 155.941C149.274 155.724 149.4 155.519 149.548 155.331C150.042 155.938 150.716 156.37 151.474 156.564Z" fill="#263238"/>
<path d="M150.227 157.208C149.967 157.259 149.697 157.225 149.458 157.111C148.931 156.862 149.015 156.356 149.202 155.941C149.489 156.007 149.747 156.168 149.933 156.398C150.118 156.628 150.222 156.913 150.227 157.208Z" fill="#FF9BBC"/>
<path d="M137.725 150.386C138.496 150.253 139.221 149.922 139.827 149.427C140.434 148.932 140.903 148.289 141.188 147.56C143.279 147.299 145.263 146.486 146.937 145.205C146.798 145.399 145.822 146.826 145.302 147.532C152.388 148.273 155.99 143.75 155.99 143.75C156.922 145.312 157.49 147.064 157.652 148.876C157.652 148.876 158.926 144.775 157.652 141.388C157.251 140.225 156.547 139.19 155.614 138.389C154.68 137.588 153.55 137.05 152.339 136.831C150.8 135.937 149.047 135.474 147.266 135.491C145.486 135.508 143.742 136.004 142.22 136.928C136.457 140.384 137.725 150.386 137.725 150.386Z" fill="#263238"/>
<path d="M150.781 147.941C149.528 148.208 148.242 148.29 146.965 148.183C149.005 148.231 151.019 147.706 152.776 146.666C153.533 146.225 154.231 145.69 154.854 145.073C155.552 144.426 156.115 143.647 156.509 142.781C156.514 142.768 156.523 142.757 156.536 142.751C156.542 142.749 156.548 142.747 156.555 142.747C156.562 142.746 156.569 142.747 156.575 142.75C156.581 142.752 156.587 142.755 156.592 142.76C156.597 142.764 156.601 142.77 156.604 142.776C156.607 142.782 156.609 142.789 156.609 142.795C156.609 142.802 156.608 142.809 156.606 142.815C156.31 143.714 155.865 144.557 155.29 145.309C154.686 146.028 153.956 146.631 153.136 147.089C152.404 147.486 151.621 147.78 150.809 147.962" fill="#263238"/>
<path d="M139.477 150.885C139.477 150.885 137.905 146.999 136.194 147.484C134.483 147.969 135.12 153.226 136.755 154.299C136.955 154.451 137.183 154.561 137.426 154.622C137.669 154.683 137.922 154.695 138.17 154.656C138.418 154.617 138.655 154.529 138.868 154.396C139.08 154.263 139.264 154.089 139.408 153.884L139.477 150.885Z" fill="#D3766A"/>
<path d="M136.416 148.987C136.416 148.987 136.374 148.987 136.416 149.028C137.552 149.825 137.939 151.106 138.12 152.443C138.076 152.301 138.002 152.171 137.903 152.06C137.803 151.95 137.681 151.862 137.545 151.804C137.409 151.745 137.261 151.717 137.113 151.721C136.965 151.725 136.819 151.761 136.686 151.827C136.651 151.827 136.686 151.903 136.686 151.903C136.924 151.884 137.162 151.941 137.366 152.065C137.57 152.19 137.729 152.375 137.822 152.595C137.983 152.957 138.104 153.336 138.182 153.724C138.217 153.849 138.431 153.835 138.417 153.724V153.69C138.812 152.041 138.092 149.541 136.416 148.987Z" fill="#263238"/>
<path d="M196.377 211.754H151.058V213.783H196.377V211.754Z" fill="#C7C7C7"/>
<path d="M196.377 211.754V213.783H165.576L167.127 211.754H196.377Z" fill="#A6A6A6"/>
<path d="M169.081 213.783H213.25L216.928 183.785H172.758L169.081 213.783Z" fill="#C7C7C7"/>
<path d="M190.317 198.787C190.309 199.138 190.372 199.487 190.502 199.813C190.631 200.14 190.824 200.437 191.07 200.687C191.316 200.937 191.61 201.136 191.933 201.271C192.257 201.407 192.605 201.476 192.956 201.475C193.67 201.466 194.354 201.182 194.864 200.681C195.374 200.18 195.67 199.502 195.692 198.787C195.7 198.436 195.638 198.087 195.509 197.761C195.38 197.434 195.186 197.136 194.94 196.886C194.694 196.635 194.4 196.437 194.076 196.302C193.752 196.167 193.404 196.098 193.053 196.1C192.338 196.109 191.654 196.393 191.145 196.894C190.635 197.395 190.338 198.073 190.317 198.787Z" fill="white"/>
<path d="M198.753 130.085C198.436 133.13 197.278 136.028 195.409 138.454C193.541 140.88 191.035 142.739 188.171 143.823C185.307 144.907 182.198 145.174 179.192 144.593C176.185 144.013 173.399 142.609 171.144 140.537L162.874 141.756L167.03 134.608C166.08 132.281 165.673 129.768 165.841 127.261C166.008 124.754 166.745 122.318 167.995 120.138C169.246 117.958 170.977 116.092 173.057 114.682C175.137 113.272 177.511 112.355 179.999 112C182.486 111.646 185.022 111.863 187.413 112.636C189.805 113.409 191.988 114.717 193.798 116.461C195.607 118.204 196.995 120.338 197.856 122.698C198.717 125.059 199.029 127.585 198.767 130.085H198.753Z" fill="white"/>
<path d="M193.932 116.315C191.168 113.627 187.566 111.967 183.726 111.611C179.887 111.255 176.041 112.225 172.83 114.36C169.619 116.494 167.235 119.664 166.077 123.342C164.918 127.02 165.054 130.983 166.462 134.573L162.168 142.046C162.152 142.075 162.145 142.107 162.145 142.14C162.145 142.173 162.152 142.205 162.168 142.233C162.186 142.261 162.213 142.282 162.244 142.295C162.274 142.307 162.308 142.31 162.341 142.303L171.013 140.959C173.307 142.991 176.115 144.357 179.13 144.907C179.889 145.048 180.658 145.129 181.43 145.149C181.665 145.149 181.901 145.149 182.123 145.149C182.538 145.149 182.947 145.149 183.349 145.101H183.757C185.297 144.962 186.808 144.602 188.246 144.034C189.685 143.482 191.04 142.728 192.27 141.797C192.721 141.474 193.149 141.12 193.551 140.737L194.043 140.287L194.5 139.795C194.88 139.409 195.229 138.995 195.546 138.556C197.432 136.101 198.6 133.171 198.919 130.092C199.176 127.568 198.861 125.019 197.998 122.634C197.134 120.249 195.745 118.089 193.932 116.315ZM198.573 130.071C198.245 133.081 197.084 135.94 195.22 138.327C194.907 138.75 194.565 139.15 194.195 139.525C194.036 139.685 193.884 139.851 193.745 140.003L193.26 140.433C192.869 140.803 192.45 141.144 192.007 141.451C190.805 142.35 189.477 143.067 188.065 143.577C186.664 144.095 185.198 144.419 183.709 144.54H183.307C182.691 144.585 182.073 144.585 181.458 144.54C180.715 144.51 179.976 144.42 179.248 144.27C176.317 143.692 173.605 142.305 171.421 140.266L171.345 140.19C171.312 140.161 171.271 140.144 171.227 140.142L163.788 141.188L167.549 134.746C167.562 134.722 167.568 134.696 167.568 134.67C167.568 134.643 167.562 134.617 167.549 134.594L167.494 134.448C166.586 132.19 166.193 129.757 166.344 127.328C166.499 124.891 167.21 122.521 168.422 120.401C169.648 118.288 171.319 116.466 173.319 115.061C175.337 113.672 177.644 112.76 180.065 112.395C182.5 112.025 184.986 112.213 187.338 112.942C190.894 114.07 193.953 116.39 196 119.51C198.046 122.63 198.955 126.359 198.573 130.071Z" fill="#E1D7C2"/>
<path d="M175.93 129.025C175.932 129.381 175.827 129.73 175.63 130.027C175.433 130.324 175.152 130.556 174.823 130.694C174.494 130.831 174.132 130.868 173.782 130.799C173.433 130.73 173.111 130.559 172.859 130.308C172.606 130.056 172.434 129.735 172.364 129.386C172.294 129.036 172.329 128.674 172.465 128.344C172.601 128.015 172.832 127.733 173.128 127.535C173.425 127.337 173.773 127.231 174.129 127.231C174.606 127.231 175.063 127.42 175.4 127.756C175.738 128.092 175.928 128.548 175.93 129.025Z" fill="#FFC727"/>
<path d="M182.517 130.819C183.508 130.819 184.311 130.016 184.311 129.025C184.311 128.034 183.508 127.231 182.517 127.231C181.526 127.231 180.723 128.034 180.723 129.025C180.723 130.016 181.526 130.819 182.517 130.819Z" fill="#FFC727"/>
<path d="M190.905 130.819C191.896 130.819 192.699 130.016 192.699 129.025C192.699 128.034 191.896 127.231 190.905 127.231C189.914 127.231 189.111 128.034 189.111 129.025C189.111 130.016 189.914 130.819 190.905 130.819Z" fill="#FFC727"/>
</svg>
