<svg width="30" height="31" viewBox="0 0 30 31" fill="none" xmlns="http://www.w3.org/2000/svg">
<path d="M15 0.666687C6.72 0.666687 0 7.38669 0 15.6667C0 23.9467 6.72 30.6667 15 30.6667C23.28 30.6667 30 23.9467 30 15.6667C30 7.38669 23.28 0.666687 15 0.666687ZM15 5.16669C17.49 5.16669 19.5 7.17669 19.5 9.66669C19.5 12.1567 17.49 14.1667 15 14.1667C12.51 14.1667 10.5 12.1567 10.5 9.66669C10.5 7.17669 12.51 5.16669 15 5.16669ZM15 26.4667C13.2178 26.4667 11.4633 26.0257 9.89292 25.1829C8.32256 24.3401 6.98517 23.1219 6 21.6367C6.045 18.6517 12 17.0167 15 17.0167C17.985 17.0167 23.955 18.6517 24 21.6367C23.0148 23.1219 21.6774 24.3401 20.1071 25.1829C18.5367 26.0257 16.7822 26.4667 15 26.4667Z" fill="#FF885A"/>
</svg>
