<svg width="24" height="24" viewBox="0 0 24 24" fill="none" xmlns="http://www.w3.org/2000/svg">
<g clip-path="url(#clip0)">
<rect width="24" height="24" fill="white"/>
<path d="M15.25 1.02534e-06C13.6605 -0.000791296 12.1045 0.457626 10.7694 1.32012C9.43418 2.18262 8.37658 3.41246 7.72377 4.86176C7.07095 6.31105 6.85071 7.91807 7.08954 9.48956C7.32837 11.0611 8.01609 12.5301 9.07 13.72L1 22.88L2.12 23.88L10.17 14.76C11.2055 15.5699 12.4195 16.1207 13.7109 16.3665C15.0023 16.6123 16.3338 16.5459 17.5944 16.173C18.855 15.8 20.0082 15.1312 20.958 14.2223C21.9078 13.3134 22.6267 12.1908 23.0548 10.9478C23.4829 9.70486 23.6078 8.3776 23.4191 7.07661C23.2303 5.77561 22.7335 4.53854 21.9699 3.46843C21.2063 2.39832 20.1981 1.52616 19.0292 0.924585C17.8603 0.323011 16.5646 0.0094431 15.25 0.010001V1.02534e-06ZM15.25 15C13.4598 15 11.7429 14.2888 10.477 13.023C9.21116 11.7571 8.5 10.0402 8.5 8.25C8.5 6.45979 9.21116 4.7429 10.477 3.47703C11.7429 2.21116 13.4598 1.5 15.25 1.5C17.0402 1.5 18.7571 2.21116 20.023 3.47703C21.2888 4.7429 22 6.45979 22 8.25C22 10.0402 21.2888 11.7571 20.023 13.023C18.7571 14.2888 17.0402 15 15.25 15Z" fill="#C4C4C4"/>
</g>
<defs>
<clipPath id="clip0">
<rect width="24" height="24" fill="white"/>
</clipPath>
</defs>
</svg>
