<svg width="221" height="178" viewBox="0 0 221 178" fill="none" xmlns="http://www.w3.org/2000/svg">
<path d="M14.9783 177.434C11.0162 177.419 7.22173 175.827 4.4256 173.007C1.62947 170.186 0.05954 166.368 0.0595703 162.388V31.5726C0.174178 28.2706 1.58673 25.1488 3.98783 22.891C6.38893 20.6331 9.58285 19.4233 12.8701 19.5265H25.1096C27.5178 19.5746 29.8914 18.9443 31.9614 17.707C34.0314 16.4696 35.7152 14.6747 36.822 12.5254L39.4426 7.15686C40.5439 5.01893 42.2162 3.23146 44.2721 1.99485C46.3279 0.758248 48.686 0.121411 51.0819 0.155737H109.19C111.374 0.127302 113.529 0.651286 115.459 1.67942C117.388 2.70755 119.028 4.20677 120.229 6.03904L123.084 10.5839C124.283 12.415 125.921 13.9136 127.847 14.9418C129.774 15.9699 131.927 16.4945 134.108 16.4672H208.19C211.48 16.3601 214.679 17.5706 217.081 19.8324C219.483 22.0942 220.893 25.2221 221 28.528V162.373C221 166.364 219.422 170.191 216.613 173.013C213.805 175.834 209.995 177.42 206.023 177.42L14.9783 177.434Z" fill="#5EBBFF"/>
<g opacity="0.3">
<path opacity="0.3" d="M14.9783 177.434C11.0162 177.419 7.22173 175.827 4.4256 173.007C1.62947 170.186 0.05954 166.368 0.0595703 162.388V31.5726C0.174178 28.2706 1.58673 25.1488 3.98783 22.891C6.38893 20.6331 9.58285 19.4233 12.8701 19.5265H25.1096C27.5178 19.5746 29.8914 18.9443 31.9614 17.707C34.0314 16.4696 35.7152 14.6747 36.822 12.5254L39.4426 7.15686C40.5439 5.01893 42.2162 3.23146 44.2721 1.99485C46.3279 0.758248 48.686 0.121411 51.0819 0.155737H109.19C111.374 0.127302 113.529 0.651286 115.459 1.67942C117.388 2.70755 119.028 4.20677 120.229 6.03904L123.084 10.5839C124.283 12.415 125.921 13.9136 127.847 14.9418C129.774 15.9699 131.927 16.4945 134.108 16.4672H208.19C211.48 16.3601 214.679 17.5706 217.081 19.8324C219.483 22.0942 220.893 25.2221 221 28.528V162.373C221 166.364 219.422 170.191 216.613 173.013C213.805 175.834 209.995 177.42 206.023 177.42L14.9783 177.434Z" fill="black"/>
</g>
<path d="M126.67 16.5407L79.5275 16.4378L75.3256 8.52474C73.8969 5.95588 71.8042 3.82226 69.2685 2.34921C66.7328 0.876155 63.8482 0.118324 60.9193 0.15574H14.8455C6.64681 0.15574 0 6.40675 0 14.1286V161.564C0 170.389 7.55451 177.434 16.8659 177.434H204.001C213.327 177.434 220.867 170.33 220.867 161.564V27.3807C220.867 24.5058 219.731 21.7486 217.707 19.7157C215.684 17.6828 212.939 16.5407 210.077 16.5407H126.67Z" fill="#5ECFFF"/>
<path d="M149.982 124.697H129.119C128.731 124.697 128.359 124.542 128.084 124.266C127.81 123.99 127.655 123.616 127.655 123.226C127.655 122.836 127.81 122.462 128.084 122.186C128.359 121.91 128.731 121.755 129.119 121.755H149.982C155.392 121.766 160.593 119.653 164.474 115.866C168.356 112.08 170.612 106.92 170.761 101.487C170.91 96.054 168.94 90.7773 165.272 86.7822C161.603 82.7871 156.527 80.3897 151.124 80.1012C150.812 80.086 150.512 79.9706 150.27 79.7721C150.028 79.5736 149.855 79.3024 149.777 78.9981C148.236 73.0187 145.07 67.5879 140.632 63.3126C136.195 59.0373 130.662 56.0861 124.651 54.7889C118.64 53.4917 112.388 53.8997 106.594 55.9671C100.801 58.0346 95.694 61.6801 91.8445 66.4961C91.6878 66.6943 91.4829 66.8485 91.2495 66.9439C91.0161 67.0392 90.7621 67.0724 90.5122 67.0403C89.4635 66.9042 88.4073 66.8354 87.3499 66.8344C80.2119 67.0004 73.422 69.9656 68.4321 75.096C63.4422 80.2263 60.6485 87.1145 60.6485 94.2873C60.6485 101.46 63.4422 108.348 68.4321 113.479C73.422 118.609 80.2119 121.574 87.3499 121.74H104.26C104.648 121.74 105.02 121.895 105.295 122.171C105.57 122.447 105.724 122.821 105.724 123.211C105.724 123.601 105.57 123.975 105.295 124.251C105.02 124.527 104.648 124.682 104.26 124.682H87.2767C79.2468 124.682 71.5458 121.477 65.8678 115.773C60.1899 110.069 57 102.332 57 94.2653C57 86.1983 60.1899 78.4617 65.8678 72.7574C71.5458 67.0532 79.2468 63.8486 87.2767 63.8486C88.1766 63.849 89.0759 63.8981 89.9705 63.9957C94.1751 58.9472 99.6678 55.1435 105.86 52.992C112.052 50.8406 118.711 50.4227 125.121 51.783C131.532 53.1433 137.454 56.2306 142.251 60.714C147.048 65.1973 150.541 70.9077 152.354 77.2331C158.435 77.8014 164.064 80.7077 168.063 85.3451C172.063 89.9826 174.125 95.9929 173.819 102.121C173.513 108.25 170.862 114.022 166.421 118.234C161.979 122.446 156.09 124.772 149.982 124.726V124.697Z" fill="white"/>
<path d="M115.7 118.679C115.312 118.679 114.94 118.524 114.665 118.248C114.391 117.972 114.236 117.598 114.236 117.208V78.9663C114.236 78.5762 114.391 78.2021 114.665 77.9263C114.94 77.6504 115.312 77.4955 115.7 77.4955C116.089 77.4955 116.461 77.6504 116.736 77.9263C117.01 78.2021 117.164 78.5762 117.164 78.9663V117.208C117.164 117.598 117.01 117.972 116.736 118.248C116.461 118.524 116.089 118.679 115.7 118.679Z" fill="white"/>
<path d="M126.827 94.1894C126.597 94.1917 126.37 94.1396 126.164 94.0374C125.958 93.9352 125.779 93.7857 125.641 93.601L115.949 80.5401C115.913 80.4971 115.868 80.4628 115.818 80.4399C115.767 80.417 115.712 80.406 115.656 80.4077C115.603 80.4091 115.551 80.4216 115.503 80.4444C115.455 80.4672 115.412 80.4998 115.378 80.5401L105.129 93.2333C104.883 93.5395 104.525 93.7348 104.135 93.7762C103.746 93.8176 103.355 93.7016 103.051 93.4539C102.746 93.2062 102.551 92.847 102.51 92.4553C102.469 92.0637 102.584 91.6716 102.831 91.3653L113.079 78.6721C113.401 78.2846 113.805 77.9731 114.26 77.7595C114.715 77.546 115.212 77.4358 115.715 77.4367C116.215 77.4439 116.707 77.5656 117.153 77.7924C117.6 78.0192 117.989 78.3452 118.291 78.7457L128.013 91.8213C128.13 91.9772 128.214 92.1549 128.262 92.344C128.31 92.5331 128.32 92.7299 128.291 92.9229C128.263 93.116 128.196 93.3013 128.096 93.4682C127.995 93.6352 127.862 93.7803 127.705 93.8952C127.452 94.0861 127.144 94.1894 126.827 94.1894Z" fill="white"/>
<path d="M35.928 158.344C38.36 158.344 39.576 157.512 39.576 155.848C39.576 155.336 39.464 154.904 39.24 154.552C39.032 154.184 38.744 153.872 38.376 153.616C38.008 153.344 37.584 153.112 37.104 152.92C36.64 152.728 36.144 152.536 35.616 152.344C35.008 152.136 34.432 151.904 33.888 151.648C33.344 151.376 32.872 151.064 32.472 150.712C32.072 150.344 31.752 149.912 31.512 149.416C31.288 148.92 31.176 148.32 31.176 147.616C31.176 146.16 31.672 145.024 32.664 144.208C33.656 143.392 35.024 142.984 36.768 142.984C37.776 142.984 38.688 143.096 39.504 143.32C40.336 143.528 40.944 143.76 41.328 144.016L40.584 145.912C40.248 145.704 39.744 145.504 39.072 145.312C38.416 145.104 37.648 145 36.768 145C36.32 145 35.904 145.048 35.52 145.144C35.136 145.24 34.8 145.384 34.512 145.576C34.224 145.768 33.992 146.016 33.816 146.32C33.656 146.608 33.576 146.952 33.576 147.352C33.576 147.8 33.664 148.176 33.84 148.48C34.016 148.784 34.264 149.056 34.584 149.296C34.904 149.52 35.272 149.728 35.688 149.92C36.12 150.112 36.592 150.304 37.104 150.496C37.824 150.784 38.48 151.072 39.072 151.36C39.68 151.648 40.2 151.992 40.632 152.392C41.08 152.792 41.424 153.272 41.664 153.832C41.904 154.376 42.024 155.04 42.024 155.824C42.024 157.28 41.488 158.4 40.416 159.184C39.36 159.968 37.864 160.36 35.928 160.36C35.272 160.36 34.664 160.312 34.104 160.216C33.56 160.136 33.072 160.04 32.64 159.928C32.208 159.8 31.832 159.672 31.512 159.544C31.208 159.4 30.968 159.28 30.792 159.184L31.488 157.264C31.856 157.472 32.416 157.704 33.168 157.96C33.92 158.216 34.84 158.344 35.928 158.344ZM43.9974 153.784C43.9974 152.68 44.1574 151.72 44.4774 150.904C44.7974 150.072 45.2214 149.384 45.7494 148.84C46.2774 148.296 46.8854 147.888 47.5734 147.616C48.2614 147.344 48.9654 147.208 49.6854 147.208C51.3654 147.208 52.6534 147.736 53.5494 148.792C54.4454 149.832 54.8934 151.424 54.8934 153.568C54.8934 153.664 54.8934 153.792 54.8934 153.952C54.8934 154.096 54.8854 154.232 54.8694 154.36H46.3254C46.4214 155.656 46.7974 156.64 47.4534 157.312C48.1094 157.984 49.1334 158.32 50.5254 158.32C51.3094 158.32 51.9654 158.256 52.4934 158.128C53.0374 157.984 53.4454 157.848 53.7174 157.72L54.0294 159.592C53.7574 159.736 53.2774 159.888 52.5894 160.048C51.9174 160.208 51.1494 160.288 50.2854 160.288C49.1974 160.288 48.2534 160.128 47.4534 159.808C46.6694 159.472 46.0214 159.016 45.5094 158.44C44.9974 157.864 44.6134 157.184 44.3574 156.4C44.1174 155.6 43.9974 154.728 43.9974 153.784ZM52.5654 152.56C52.5814 151.552 52.3254 150.728 51.7974 150.088C51.2854 149.432 50.5734 149.104 49.6614 149.104C49.1494 149.104 48.6934 149.208 48.2934 149.416C47.9094 149.608 47.5814 149.864 47.3094 150.184C47.0374 150.504 46.8214 150.872 46.6614 151.288C46.5174 151.704 46.4214 152.128 46.3734 152.56H52.5654ZM61.8437 160.24C60.4677 160.208 59.4917 159.912 58.9157 159.352C58.3397 158.792 58.0517 157.92 58.0517 156.736V141.76L60.2837 141.376V156.376C60.2837 156.744 60.3157 157.048 60.3797 157.288C60.4437 157.528 60.5477 157.72 60.6917 157.864C60.8357 158.008 61.0277 158.12 61.2677 158.2C61.5077 158.264 61.8037 158.32 62.1557 158.368L61.8437 160.24ZM63.9662 153.784C63.9662 152.68 64.1262 151.72 64.4462 150.904C64.7662 150.072 65.1902 149.384 65.7182 148.84C66.2462 148.296 66.8542 147.888 67.5422 147.616C68.2302 147.344 68.9342 147.208 69.6542 147.208C71.3342 147.208 72.6222 147.736 73.5182 148.792C74.4142 149.832 74.8622 151.424 74.8622 153.568C74.8622 153.664 74.8622 153.792 74.8622 153.952C74.8622 154.096 74.8542 154.232 74.8382 154.36H66.2942C66.3902 155.656 66.7662 156.64 67.4222 157.312C68.0782 157.984 69.1022 158.32 70.4942 158.32C71.2782 158.32 71.9342 158.256 72.4622 158.128C73.0062 157.984 73.4142 157.848 73.6862 157.72L73.9982 159.592C73.7262 159.736 73.2462 159.888 72.5582 160.048C71.8862 160.208 71.1182 160.288 70.2542 160.288C69.1662 160.288 68.2222 160.128 67.4222 159.808C66.6382 159.472 65.9902 159.016 65.4782 158.44C64.9662 157.864 64.5822 157.184 64.3262 156.4C64.0862 155.6 63.9662 154.728 63.9662 153.784ZM72.5342 152.56C72.5502 151.552 72.2942 150.728 71.7662 150.088C71.2542 149.432 70.5422 149.104 69.6302 149.104C69.1182 149.104 68.6622 149.208 68.2622 149.416C67.8782 149.608 67.5502 149.864 67.2782 150.184C67.0062 150.504 66.7902 150.872 66.6302 151.288C66.4862 151.704 66.3902 152.128 66.3422 152.56H72.5342ZM83.4924 160.288C82.4844 160.288 81.5964 160.128 80.8284 159.808C80.0764 159.488 79.4364 159.04 78.9084 158.464C78.3964 157.888 78.0124 157.208 77.7564 156.424C77.5004 155.624 77.3724 154.744 77.3724 153.784C77.3724 152.824 77.5084 151.944 77.7804 151.144C78.0684 150.344 78.4684 149.656 78.9804 149.08C79.4924 148.488 80.1164 148.032 80.8524 147.712C81.6044 147.376 82.4364 147.208 83.3484 147.208C83.9084 147.208 84.4684 147.256 85.0284 147.352C85.5884 147.448 86.1244 147.6 86.6364 147.808L86.1324 149.704C85.7964 149.544 85.4044 149.416 84.9564 149.32C84.5244 149.224 84.0604 149.176 83.5644 149.176C82.3164 149.176 81.3564 149.568 80.6844 150.352C80.0284 151.136 79.7004 152.28 79.7004 153.784C79.7004 154.456 79.7724 155.072 79.9164 155.632C80.0764 156.192 80.3164 156.672 80.6364 157.072C80.9724 157.472 81.3964 157.784 81.9084 158.008C82.4204 158.216 83.0444 158.32 83.7804 158.32C84.3724 158.32 84.9084 158.264 85.3884 158.152C85.8684 158.04 86.2444 157.92 86.5164 157.792L86.8284 159.664C86.7004 159.744 86.5164 159.824 86.2764 159.904C86.0364 159.968 85.7644 160.024 85.4604 160.072C85.1564 160.136 84.8284 160.184 84.4764 160.216C84.1404 160.264 83.8124 160.288 83.4924 160.288ZM91.4567 160H89.2247V147.52H91.4567V160ZM90.3287 145.264C89.9287 145.264 89.5847 145.136 89.2967 144.88C89.0247 144.608 88.8887 144.248 88.8887 143.8C88.8887 143.352 89.0247 143 89.2967 142.744C89.5847 142.472 89.9287 142.336 90.3287 142.336C90.7287 142.336 91.0647 142.472 91.3367 142.744C91.6247 143 91.7687 143.352 91.7687 143.8C91.7687 144.248 91.6247 144.608 91.3367 144.88C91.0647 145.136 90.7287 145.264 90.3287 145.264ZM106.311 153.76C106.311 154.752 106.167 155.648 105.879 156.448C105.591 157.248 105.183 157.936 104.655 158.512C104.143 159.088 103.527 159.536 102.807 159.856C102.087 160.16 101.303 160.312 100.455 160.312C99.607 160.312 98.823 160.16 98.103 159.856C97.383 159.536 96.759 159.088 96.231 158.512C95.719 157.936 95.319 157.248 95.031 156.448C94.743 155.648 94.599 154.752 94.599 153.76C94.599 152.784 94.743 151.896 95.031 151.096C95.319 150.28 95.719 149.584 96.231 149.008C96.759 148.432 97.383 147.992 98.103 147.688C98.823 147.368 99.607 147.208 100.455 147.208C101.303 147.208 102.087 147.368 102.807 147.688C103.527 147.992 104.143 148.432 104.655 149.008C105.183 149.584 105.591 150.28 105.879 151.096C106.167 151.896 106.311 152.784 106.311 153.76ZM103.983 153.76C103.983 152.352 103.663 151.24 103.023 150.424C102.399 149.592 101.543 149.176 100.455 149.176C99.367 149.176 98.503 149.592 97.863 150.424C97.239 151.24 96.927 152.352 96.927 153.76C96.927 155.168 97.239 156.288 97.863 157.12C98.503 157.936 99.367 158.344 100.455 158.344C101.543 158.344 102.399 157.936 103.023 157.12C103.663 156.288 103.983 155.168 103.983 153.76ZM109.451 147.88C109.963 147.752 110.643 147.616 111.491 147.472C112.339 147.328 113.315 147.256 114.419 147.256C115.411 147.256 116.235 147.4 116.891 147.688C117.547 147.96 118.067 148.352 118.451 148.864C118.851 149.36 119.131 149.96 119.291 150.664C119.451 151.368 119.531 152.144 119.531 152.992V160H117.299V153.472C117.299 152.704 117.243 152.048 117.131 151.504C117.035 150.96 116.867 150.52 116.627 150.184C116.387 149.848 116.067 149.608 115.667 149.464C115.267 149.304 114.771 149.224 114.179 149.224C113.939 149.224 113.691 149.232 113.435 149.248C113.179 149.264 112.931 149.288 112.691 149.32C112.467 149.336 112.259 149.36 112.067 149.392C111.891 149.424 111.763 149.448 111.683 149.464V160H109.451V147.88ZM127.457 158.392C127.985 158.392 128.449 158.384 128.849 158.368C129.265 158.336 129.609 158.288 129.881 158.224V154.504C129.721 154.424 129.457 154.36 129.089 154.312C128.737 154.248 128.305 154.216 127.793 154.216C127.457 154.216 127.097 154.24 126.713 154.288C126.345 154.336 126.001 154.44 125.681 154.6C125.377 154.744 125.121 154.952 124.913 155.224C124.705 155.48 124.601 155.824 124.601 156.256C124.601 157.056 124.857 157.616 125.369 157.936C125.881 158.24 126.577 158.392 127.457 158.392ZM127.265 147.208C128.161 147.208 128.913 147.328 129.521 147.568C130.145 147.792 130.641 148.12 131.009 148.552C131.393 148.968 131.665 149.472 131.825 150.064C131.985 150.64 132.065 151.28 132.065 151.984V159.784C131.873 159.816 131.601 159.864 131.249 159.928C130.913 159.976 130.529 160.024 130.097 160.072C129.665 160.12 129.193 160.16 128.681 160.192C128.185 160.24 127.689 160.264 127.193 160.264C126.489 160.264 125.841 160.192 125.249 160.048C124.657 159.904 124.145 159.68 123.713 159.376C123.281 159.056 122.945 158.64 122.705 158.128C122.465 157.616 122.345 157 122.345 156.28C122.345 155.592 122.481 155 122.753 154.504C123.041 154.008 123.425 153.608 123.905 153.304C124.385 153 124.945 152.776 125.585 152.632C126.225 152.488 126.897 152.416 127.601 152.416C127.825 152.416 128.057 152.432 128.297 152.464C128.537 152.48 128.761 152.512 128.969 152.56C129.193 152.592 129.385 152.624 129.545 152.656C129.705 152.688 129.817 152.712 129.881 152.728V152.104C129.881 151.736 129.841 151.376 129.761 151.024C129.681 150.656 129.537 150.336 129.329 150.064C129.121 149.776 128.833 149.552 128.465 149.392C128.113 149.216 127.649 149.128 127.073 149.128C126.337 149.128 125.689 149.184 125.129 149.296C124.585 149.392 124.177 149.496 123.905 149.608L123.641 147.76C123.929 147.632 124.409 147.512 125.081 147.4C125.753 147.272 126.481 147.208 127.265 147.208ZM140.38 147.256C140.572 147.256 140.788 147.272 141.028 147.304C141.284 147.32 141.532 147.352 141.772 147.4C142.012 147.432 142.228 147.472 142.42 147.52C142.628 147.552 142.78 147.584 142.876 147.616L142.492 149.56C142.316 149.496 142.02 149.424 141.604 149.344C141.204 149.248 140.684 149.2 140.044 149.2C139.628 149.2 139.212 149.248 138.796 149.344C138.396 149.424 138.132 149.48 138.004 149.512V160H135.772V148.048C136.3 147.856 136.956 147.68 137.74 147.52C138.524 147.344 139.404 147.256 140.38 147.256ZM154.328 160.24C152.952 160.208 151.976 159.912 151.4 159.352C150.824 158.792 150.536 157.92 150.536 156.736V141.76L152.768 141.376V156.376C152.768 156.744 152.8 157.048 152.864 157.288C152.928 157.528 153.032 157.72 153.176 157.864C153.32 158.008 153.512 158.12 153.752 158.2C153.992 158.264 154.288 158.32 154.64 158.368L154.328 160.24ZM159.379 160H157.147V147.52H159.379V160ZM158.251 145.264C157.851 145.264 157.507 145.136 157.219 144.88C156.947 144.608 156.811 144.248 156.811 143.8C156.811 143.352 156.947 143 157.219 142.744C157.507 142.472 157.851 142.336 158.251 142.336C158.651 142.336 158.987 142.472 159.259 142.744C159.547 143 159.691 143.352 159.691 143.8C159.691 144.248 159.547 144.608 159.259 144.88C158.987 145.136 158.651 145.264 158.251 145.264ZM172.961 147.52C172.337 149.856 171.601 152.096 170.753 154.24C169.921 156.384 169.113 158.304 168.329 160H166.313C165.529 158.304 164.713 156.384 163.865 154.24C163.033 152.096 162.305 149.856 161.681 147.52H164.081C164.273 148.304 164.497 149.144 164.753 150.04C165.025 150.92 165.305 151.8 165.593 152.68C165.897 153.544 166.201 154.384 166.505 155.2C166.809 156.016 167.097 156.744 167.369 157.384C167.641 156.744 167.929 156.016 168.233 155.2C168.537 154.384 168.833 153.544 169.121 152.68C169.425 151.8 169.705 150.92 169.961 150.04C170.233 149.144 170.465 148.304 170.657 147.52H172.961ZM179.872 147.256C180.064 147.256 180.28 147.272 180.52 147.304C180.776 147.32 181.024 147.352 181.264 147.4C181.504 147.432 181.72 147.472 181.912 147.52C182.12 147.552 182.272 147.584 182.368 147.616L181.984 149.56C181.808 149.496 181.512 149.424 181.096 149.344C180.696 149.248 180.176 149.2 179.536 149.2C179.12 149.2 178.704 149.248 178.288 149.344C177.888 149.424 177.624 149.48 177.496 149.512V160H175.264V148.048C175.792 147.856 176.448 147.68 177.232 147.52C178.016 147.344 178.896 147.256 179.872 147.256ZM195.538 153.76C195.538 154.752 195.394 155.648 195.106 156.448C194.818 157.248 194.41 157.936 193.882 158.512C193.37 159.088 192.754 159.536 192.034 159.856C191.314 160.16 190.53 160.312 189.682 160.312C188.834 160.312 188.05 160.16 187.33 159.856C186.61 159.536 185.986 159.088 185.458 158.512C184.946 157.936 184.546 157.248 184.258 156.448C183.97 155.648 183.826 154.752 183.826 153.76C183.826 152.784 183.97 151.896 184.258 151.096C184.546 150.28 184.946 149.584 185.458 149.008C185.986 148.432 186.61 147.992 187.33 147.688C188.05 147.368 188.834 147.208 189.682 147.208C190.53 147.208 191.314 147.368 192.034 147.688C192.754 147.992 193.37 148.432 193.882 149.008C194.41 149.584 194.818 150.28 195.106 151.096C195.394 151.896 195.538 152.784 195.538 153.76ZM193.21 153.76C193.21 152.352 192.89 151.24 192.25 150.424C191.626 149.592 190.77 149.176 189.682 149.176C188.594 149.176 187.73 149.592 187.09 150.424C186.466 151.24 186.154 152.352 186.154 153.76C186.154 155.168 186.466 156.288 187.09 157.12C187.73 157.936 188.594 158.344 189.682 158.344C190.77 158.344 191.626 157.936 192.25 157.12C192.89 156.288 193.21 155.168 193.21 153.76Z" fill="white"/>
</svg>
