<svg width="200" height="161" viewBox="0 0 200 161" fill="none" xmlns="http://www.w3.org/2000/svg">
<path d="M13.5548 160.434C9.96924 160.42 6.5353 158.979 4.00487 156.427C1.47443 153.875 0.0536835 150.42 0.0537109 146.818V28.4327C0.157428 25.4445 1.43575 22.6193 3.6087 20.5761C5.78164 18.5328 8.67207 17.4379 11.6469 17.5313H22.7234C24.9028 17.5749 27.0508 17.0044 28.9241 15.8847C30.7974 14.7649 32.3212 13.1405 33.3229 11.1954L35.6945 6.33705C36.6911 4.40227 38.2045 2.78465 40.065 1.66555C41.9255 0.546452 44.0595 -0.0298712 46.2278 0.00119262H98.8145C100.791 -0.0245401 102.741 0.449653 104.487 1.38009C106.233 2.31052 107.718 3.66729 108.805 5.32545L111.388 9.43843C112.473 11.0955 113.955 12.4518 115.699 13.3822C117.442 14.3127 119.391 14.7874 121.365 14.7627H188.407C191.385 14.6658 194.279 15.7613 196.453 17.8081C198.627 19.855 199.903 22.6856 200 25.6774V146.804C200 150.416 198.572 153.879 196.03 156.433C193.488 158.986 190.041 160.421 186.446 160.421L13.5548 160.434Z" fill="#FF725E"/>
<g opacity="0.3">
<path opacity="0.3" d="M13.5548 160.434C9.96924 160.42 6.5353 158.979 4.00487 156.427C1.47443 153.875 0.0536835 150.42 0.0537109 146.818V28.4327C0.157428 25.4445 1.43575 22.6193 3.6087 20.5761C5.78164 18.5328 8.67207 17.4379 11.6469 17.5313H22.7234C24.9028 17.5749 27.0508 17.0044 28.9241 15.8847C30.7974 14.7649 32.3212 13.1405 33.3229 11.1954L35.6945 6.33705C36.6911 4.40227 38.2045 2.78465 40.065 1.66555C41.9255 0.546452 44.0595 -0.0298712 46.2278 0.00119262H98.8145C100.791 -0.0245401 102.741 0.449653 104.487 1.38009C106.233 2.31052 107.718 3.66729 108.805 5.32545L111.388 9.43843C112.473 11.0955 113.955 12.4518 115.699 13.3822C117.442 14.3127 119.391 14.7874 121.365 14.7627H188.407C191.385 14.6658 194.279 15.7613 196.453 17.8081C198.627 19.855 199.903 22.6856 200 25.6774V146.804C200 150.416 198.572 153.879 196.03 156.433C193.488 158.986 190.041 160.421 186.446 160.421L13.5548 160.434Z" fill="black"/>
</g>
<path d="M114.634 14.8292L71.9706 14.7361L68.168 7.57495C66.875 5.25019 64.9812 3.31932 62.6864 1.98624C60.3917 0.653154 57.7812 -0.0326654 55.1306 0.00119583H13.4349C6.01521 0.00119583 0 5.65822 0 12.6463V146.072C0 154.059 6.83666 160.434 15.2633 160.434H184.617C193.057 160.434 199.88 154.005 199.88 146.072V24.6392C199.88 22.0374 198.851 19.5422 197.02 17.7025C195.189 15.8628 192.705 14.8292 190.115 14.8292H114.634Z" fill="#FF725E"/>
<path d="M136.137 115.937H117.257C116.905 115.937 116.568 115.797 116.32 115.547C116.071 115.297 115.932 114.959 115.932 114.606C115.932 114.253 116.071 113.914 116.32 113.665C116.568 113.415 116.905 113.275 117.257 113.275H136.137C141.033 113.284 145.739 111.372 149.252 107.946C152.765 104.519 154.806 99.8498 154.941 94.9329C155.076 90.0159 153.294 85.2406 149.974 81.6251C146.654 78.0096 142.06 75.8401 137.17 75.579C136.888 75.5652 136.617 75.4608 136.398 75.2812C136.178 75.1015 136.022 74.8561 135.952 74.5807C134.557 69.1695 131.691 64.2547 127.676 60.3857C123.66 56.5166 118.652 53.8458 113.213 52.6719C107.773 51.498 102.115 51.8672 96.8721 53.7382C91.6291 55.6092 87.0075 58.9083 83.5237 63.2666C83.3819 63.446 83.1965 63.5856 82.9852 63.6719C82.774 63.7582 82.5442 63.7882 82.318 63.7591C81.369 63.636 80.4131 63.5738 79.4562 63.5728C72.9965 63.723 66.8517 66.4065 62.336 71.0493C57.8203 75.6922 55.2921 81.9258 55.2921 88.4171C55.2921 94.9084 57.8203 101.142 62.336 105.785C66.8517 110.428 72.9965 113.111 79.4562 113.261H94.7592C95.1106 113.261 95.4476 113.402 95.6961 113.651C95.9445 113.901 96.0841 114.239 96.0841 114.592C96.0841 114.945 95.9445 115.284 95.6961 115.534C95.4476 115.783 95.1106 115.924 94.7592 115.924H79.3899C72.1231 115.924 65.1539 113.023 60.0154 107.861C54.877 102.699 51.9902 95.6976 51.9902 88.3971C51.9902 81.0967 54.877 74.0952 60.0154 68.933C65.1539 63.7708 72.1231 60.8707 79.3899 60.8707C80.2044 60.8711 81.0182 60.9155 81.8278 61.0038C85.6328 56.4351 90.6037 52.9928 96.2075 51.0458C101.811 49.0988 107.837 48.7206 113.639 49.9516C119.44 51.1827 124.799 53.9766 129.14 58.034C133.482 62.0913 136.642 67.2591 138.283 72.9834C143.787 73.4977 148.88 76.1278 152.5 80.3246C156.119 84.5214 157.985 89.9606 157.708 95.5066C157.432 101.053 155.033 106.277 151.013 110.089C146.994 113.9 141.664 116.005 136.137 115.963V115.937Z" fill="white"/>
<path d="M105.611 128.076C105.26 128.076 104.923 127.936 104.674 127.686C104.426 127.437 104.286 127.098 104.286 126.745V92.1375C104.286 91.7844 104.426 91.4459 104.674 91.1963C104.923 90.9466 105.26 90.8064 105.611 90.8064C105.962 90.8064 106.299 90.9466 106.548 91.1963C106.796 91.4459 106.936 91.7844 106.936 92.1375V126.745C106.936 127.098 106.796 127.437 106.548 127.686C106.299 127.936 105.962 128.076 105.611 128.076Z" fill="white"/>
<path d="M115.68 105.914C115.472 105.916 115.267 105.869 115.081 105.776C114.894 105.684 114.732 105.549 114.607 105.382L105.836 93.5617C105.804 93.5228 105.763 93.4918 105.717 93.4711C105.671 93.4503 105.621 93.4403 105.571 93.4419C105.523 93.4432 105.476 93.4545 105.433 93.4751C105.389 93.4957 105.351 93.5252 105.319 93.5617L96.0448 105.049C95.8217 105.326 95.4981 105.503 95.1453 105.54C94.7925 105.578 94.4393 105.473 94.1634 105.248C93.8876 105.024 93.7117 104.699 93.6744 104.345C93.6371 103.99 93.7416 103.635 93.9647 103.358L103.239 91.8713C103.531 91.5206 103.896 91.2386 104.308 91.0454C104.72 90.8522 105.169 90.7524 105.624 90.7532C106.077 90.7598 106.522 90.8699 106.926 91.0751C107.33 91.2804 107.682 91.5754 107.956 91.9378L116.754 103.771C116.859 103.912 116.936 104.073 116.979 104.244C117.023 104.415 117.032 104.593 117.006 104.768C116.98 104.943 116.92 105.11 116.829 105.261C116.738 105.412 116.617 105.544 116.475 105.648C116.246 105.821 115.967 105.914 115.68 105.914Z" fill="white"/>
</svg>
