<svg width="231" height="66" viewBox="0 0 231 66" fill="none" xmlns="http://www.w3.org/2000/svg">
<g filter="url(#filter0_i)">
<rect width="231" height="66" rx="11" fill="#73D677"/>
</g>
<path d="M41.6255 23.073L45.2595 34.596L48.9395 23.073H51.7915L46.6625 38H43.8105L38.7505 23.073H41.6255ZM61.2539 28.156C61.6372 28.6467 61.9209 29.214 62.1049 29.858C62.3042 30.502 62.4039 31.0923 62.4039 31.629C62.4039 32.1657 62.3732 32.6487 62.3119 33.078H55.0899C55.1205 33.9827 55.3429 34.7187 55.7569 35.286C56.1709 35.8533 56.7995 36.137 57.6429 36.137C58.7622 36.137 59.4292 35.6463 59.6439 34.665H62.3809C62.1969 35.7843 61.6832 36.666 60.8399 37.31C59.9659 37.9847 58.9002 38.322 57.6429 38.322C56.1709 38.322 54.9365 37.7853 53.9399 36.712C52.9125 35.5927 52.3989 34.159 52.3989 32.411C52.3989 30.617 52.9125 29.1757 53.9399 28.087C54.9212 27.0443 56.1555 26.523 57.6429 26.523C59.1915 26.523 60.3952 27.0673 61.2539 28.156ZM57.6659 28.685C56.8992 28.685 56.3012 28.938 55.8719 29.444C55.4425 29.9347 55.1895 30.571 55.1129 31.353H59.8739C59.8739 30.1417 59.4905 29.329 58.7239 28.915C58.4325 28.7617 58.0799 28.685 57.6659 28.685ZM68.3672 29.03C69.0418 27.42 70.0538 26.615 71.4032 26.615C71.6638 26.615 71.9935 26.6687 72.3922 26.776L72.3462 29.49C71.9168 29.398 71.4952 29.352 71.0812 29.352C69.2718 29.352 68.3672 30.6017 68.3672 33.101V38H65.6532V26.799H68.3672V29.03ZM83.5229 28.34C84.2282 27.1287 85.3016 26.523 86.7429 26.523C88.1229 26.523 89.3036 27.0443 90.2849 28.087C91.3276 29.191 91.8489 30.6323 91.8489 32.411C91.8489 34.205 91.3199 35.654 90.2619 36.758C89.2806 37.8007 88.1076 38.322 86.7429 38.322C85.3782 38.322 84.3816 37.9157 83.7529 37.103V43.451H81.0389V26.822H83.2699L83.5229 28.34ZM86.2599 35.861C86.5819 35.861 86.9116 35.792 87.2489 35.654C87.6016 35.516 87.9159 35.3013 88.1919 35.01C88.8052 34.366 89.1119 33.5073 89.1119 32.434C89.1119 31.3453 88.8436 30.4943 88.3069 29.881C87.7856 29.2677 87.1416 28.961 86.3749 28.961C85.6236 28.961 85.0026 29.1833 84.5119 29.628C84.0366 30.0573 83.7836 30.6783 83.7529 31.491V33.492C83.7529 34.2127 84.0059 34.7953 84.5119 35.24C84.9872 35.654 85.5699 35.861 86.2599 35.861ZM99.47 26.523C100.221 26.523 100.927 26.6457 101.586 26.891C102.245 27.121 102.813 27.4813 103.288 27.972C104.346 29.0453 104.875 30.5327 104.875 32.434C104.875 34.3047 104.346 35.7767 103.288 36.85C102.337 37.8313 101.065 38.322 99.47 38.322C97.8753 38.322 96.5873 37.8313 95.606 36.85C94.548 35.792 94.019 34.32 94.019 32.434C94.019 30.5173 94.548 29.03 95.606 27.972C96.572 27.006 97.86 26.523 99.47 26.523ZM102.161 32.411C102.161 31.2303 101.931 30.3487 101.471 29.766C101.011 29.168 100.367 28.869 99.539 28.869C98.7263 28.869 98.0593 29.168 97.538 29.766C97.0167 30.3487 96.756 31.2303 96.756 32.411C96.756 33.5917 96.986 34.481 97.446 35.079C97.9213 35.6617 98.5653 35.953 99.378 35.953C100.191 35.953 100.858 35.6617 101.379 35.079C101.9 34.481 102.161 33.5917 102.161 32.411ZM112.06 32.549L110.818 33.584V38H108.104V22.222H110.818V30.755L115.234 26.822H118.914L113.969 30.962L119.19 38H115.878L112.06 32.549ZM129.131 28.156C129.514 28.6467 129.798 29.214 129.982 29.858C130.181 30.502 130.281 31.0923 130.281 31.629C130.281 32.1657 130.25 32.6487 130.189 33.078H122.967C122.997 33.9827 123.22 34.7187 123.634 35.286C124.048 35.8533 124.676 36.137 125.52 36.137C126.639 36.137 127.306 35.6463 127.521 34.665H130.258C130.074 35.7843 129.56 36.666 128.717 37.31C127.843 37.9847 126.777 38.322 125.52 38.322C124.048 38.322 122.813 37.7853 121.817 36.712C120.789 35.5927 120.276 34.159 120.276 32.411C120.276 30.617 120.789 29.1757 121.817 28.087C122.798 27.0443 124.032 26.523 125.52 26.523C127.068 26.523 128.272 27.0673 129.131 28.156ZM125.543 28.685C124.776 28.685 124.178 28.938 123.749 29.444C123.319 29.9347 123.066 30.571 122.99 31.353H127.751C127.751 30.1417 127.367 29.329 126.601 28.915C126.309 28.7617 125.957 28.685 125.543 28.685ZM143.466 28.938C144.187 27.328 145.452 26.523 147.261 26.523C148.595 26.523 149.63 26.9753 150.366 27.88C151.071 28.7387 151.424 29.9347 151.424 31.468V38H148.687V31.468C148.687 30.64 148.488 30.019 148.089 29.605C147.69 29.1757 147.131 28.961 146.41 28.961C145.689 28.961 145.099 29.2753 144.639 29.904C144.179 30.5327 143.934 31.4833 143.903 32.756V38H141.189V31.468C141.189 30.64 140.99 30.019 140.591 29.605C140.192 29.1757 139.633 28.961 138.912 28.961C138.191 28.961 137.57 29.283 137.049 29.927C136.543 30.571 136.275 31.537 136.244 32.825V38H133.53V26.822H135.899L136.198 28.754C136.934 27.2667 138.115 26.523 139.74 26.523C140.675 26.523 141.45 26.7377 142.063 27.167C142.692 27.5963 143.159 28.1867 143.466 28.938ZM159.755 26.523C160.506 26.523 161.212 26.6457 161.871 26.891C162.53 27.121 163.098 27.4813 163.573 27.972C164.631 29.0453 165.16 30.5327 165.16 32.434C165.16 34.3047 164.631 35.7767 163.573 36.85C162.622 37.8313 161.35 38.322 159.755 38.322C158.16 38.322 156.872 37.8313 155.891 36.85C154.833 35.792 154.304 34.32 154.304 32.434C154.304 30.5173 154.833 29.03 155.891 27.972C156.857 27.006 158.145 26.523 159.755 26.523ZM162.446 32.411C162.446 31.2303 162.216 30.3487 161.756 29.766C161.296 29.168 160.652 28.869 159.824 28.869C159.011 28.869 158.344 29.168 157.823 29.766C157.302 30.3487 157.041 31.2303 157.041 32.411C157.041 33.5917 157.271 34.481 157.731 35.079C158.206 35.6617 158.85 35.953 159.663 35.953C160.476 35.953 161.143 35.6617 161.664 35.079C162.185 34.481 162.446 33.5917 162.446 32.411ZM171.057 28.754C171.793 27.2667 172.974 26.523 174.599 26.523C175.979 26.523 177.014 26.9753 177.704 27.88C178.41 28.7847 178.762 29.9807 178.762 31.468V38H176.048V31.468C176.048 30.64 175.849 30.019 175.45 29.605C175.052 29.1757 174.492 28.961 173.771 28.961C173.051 28.961 172.43 29.283 171.908 29.927C171.402 30.571 171.134 31.537 171.103 32.825V38H168.389V26.822H170.758L171.057 28.754ZM184.238 34.596C184.268 35.654 185.043 36.183 186.561 36.183C187.143 36.183 187.619 36.0603 187.987 35.815C188.37 35.5543 188.562 35.2553 188.562 34.918C188.562 34.5807 188.447 34.32 188.217 34.136C187.987 33.952 187.626 33.7833 187.136 33.63L184.698 32.756C182.888 32.1273 181.984 31.1 181.984 29.674C181.984 28.7233 182.405 27.9643 183.249 27.397C184.107 26.8143 185.25 26.523 186.676 26.523C188.117 26.523 189.221 26.8373 189.988 27.466C190.77 28.0947 191.176 28.8843 191.207 29.835H188.654C188.623 29.467 188.447 29.1757 188.125 28.961C187.803 28.7463 187.343 28.639 186.745 28.639C186.147 28.639 185.679 28.7617 185.342 29.007C185.02 29.237 184.859 29.5053 184.859 29.812C184.859 30.3487 185.311 30.7473 186.216 31.008L188.861 31.997C189.735 32.2883 190.402 32.664 190.862 33.124C191.337 33.5687 191.575 34.1513 191.575 34.872C191.575 35.792 191.138 36.5893 190.264 37.264C189.359 37.9693 188.163 38.322 186.676 38.322C185.188 38.322 183.992 38 183.088 37.356C182.183 36.6967 181.723 35.7767 181.708 34.596H184.238Z" fill="#212121"/>
<defs>
<filter id="filter0_i" x="0" y="0" width="231" height="66" filterUnits="userSpaceOnUse" color-interpolation-filters="sRGB">
<feFlood flood-opacity="0" result="BackgroundImageFix"/>
<feBlend mode="normal" in="SourceGraphic" in2="BackgroundImageFix" result="shape"/>
<feColorMatrix in="SourceAlpha" type="matrix" values="0 0 0 0 0 0 0 0 0 0 0 0 0 0 0 0 0 0 127 0" result="hardAlpha"/>
<feOffset dy="-9"/>
<feComposite in2="hardAlpha" operator="arithmetic" k2="-1" k3="1"/>
<feColorMatrix type="matrix" values="0 0 0 0 0 0 0 0 0 0 0 0 0 0 0 0 0 0 0.18 0"/>
<feBlend mode="normal" in2="shape" result="effect1_innerShadow"/>
</filter>
</defs>
</svg>
